<?xml version="1.0" encoding="utf-8" standalone="no"?>
<!DOCTYPE svg PUBLIC "-//W3C//DTD SVG 1.1//EN"
  "http://www.w3.org/Graphics/SVG/1.1/DTD/svg11.dtd">
<svg xmlns:xlink="http://www.w3.org/1999/xlink" width="850.32pt" height="282.96pt" viewBox="0 0 850.32 282.96" xmlns="http://www.w3.org/2000/svg" version="1.1">
 <metadata>
  <rdf:RDF xmlns:dc="http://purl.org/dc/elements/1.1/" xmlns:cc="http://creativecommons.org/ns#" xmlns:rdf="http://www.w3.org/1999/02/22-rdf-syntax-ns#">
   <cc:Work>
    <dc:type rdf:resource="http://purl.org/dc/dcmitype/StillImage"/>
    <dc:date>2022-11-21T09:17:02.690590</dc:date>
    <dc:format>image/svg+xml</dc:format>
    <dc:creator>
     <cc:Agent>
      <dc:title>Matplotlib v3.6.2, https://matplotlib.org/</dc:title>
     </cc:Agent>
    </dc:creator>
   </cc:Work>
  </rdf:RDF>
 </metadata>
 <defs>
  <style type="text/css">*{stroke-linejoin: round; stroke-linecap: butt}</style>
 </defs>
 <g id="figure_1">
  <g id="patch_1">
   <path d="M 0 282.96 
L 850.32 282.96 
L 850.32 0 
L 0 0 
z
" style="fill: #ffffff"/>
  </g>
  <g id="axes_1">
   <g id="patch_2">
    <path d="M 55.16497 239.08628 
L 312.882913 239.08628 
L 312.882913 3.00024 
L 55.16497 3.00024 
z
" style="fill: #ffffff"/>
   </g>
   <g id="patch_3">
    <path d="M 76.641465 239.08628 
L 82.010589 239.08628 
L 82.010589 239.08628 
L 76.641465 239.08628 
z
" clip-path="url(#p6535adabba)" style="fill: #7d96b0"/>
   </g>
   <g id="patch_4">
    <path d="M 82.010589 239.08628 
L 87.379713 239.08628 
L 87.379713 239.08628 
L 82.010589 239.08628 
z
" clip-path="url(#p6535adabba)" style="fill: #7d96b0"/>
   </g>
   <g id="patch_5">
    <path d="M 87.379713 239.08628 
L 92.748837 239.08628 
L 92.748837 239.08628 
L 87.379713 239.08628 
z
" clip-path="url(#p6535adabba)" style="fill: #7d96b0"/>
   </g>
   <g id="patch_6">
    <path d="M 92.748837 239.08628 
L 98.117961 239.08628 
L 98.117961 239.08628 
L 92.748837 239.08628 
z
" clip-path="url(#p6535adabba)" style="fill: #7d96b0"/>
   </g>
   <g id="patch_7">
    <path d="M 98.117961 239.08628 
L 103.487084 239.08628 
L 103.487084 239.08628 
L 98.117961 239.08628 
z
" clip-path="url(#p6535adabba)" style="fill: #7d96b0"/>
   </g>
   <g id="patch_8">
    <path d="M 103.487084 239.08628 
L 108.856208 239.08628 
L 108.856208 239.08628 
L 103.487084 239.08628 
z
" clip-path="url(#p6535adabba)" style="fill: #7d96b0"/>
   </g>
   <g id="patch_9">
    <path d="M 108.856208 239.08628 
L 114.225332 239.08628 
L 114.225332 238.744126 
L 108.856208 238.744126 
z
" clip-path="url(#p6535adabba)" style="fill: #7d96b0"/>
   </g>
   <g id="patch_10">
    <path d="M 114.225332 239.08628 
L 119.594456 239.08628 
L 119.594456 239.08628 
L 114.225332 239.08628 
z
" clip-path="url(#p6535adabba)" style="fill: #7d96b0"/>
   </g>
   <g id="patch_11">
    <path d="M 119.594456 239.08628 
L 124.96358 239.08628 
L 124.96358 239.08628 
L 119.594456 239.08628 
z
" clip-path="url(#p6535adabba)" style="fill: #7d96b0"/>
   </g>
   <g id="patch_12">
    <path d="M 124.96358 239.08628 
L 130.332703 239.08628 
L 130.332703 238.401973 
L 124.96358 238.401973 
z
" clip-path="url(#p6535adabba)" style="fill: #7d96b0"/>
   </g>
   <g id="patch_13">
    <path d="M 130.332703 239.08628 
L 135.701827 239.08628 
L 135.701827 238.059819 
L 130.332703 238.059819 
z
" clip-path="url(#p6535adabba)" style="fill: #7d96b0"/>
   </g>
   <g id="patch_14">
    <path d="M 135.701827 239.08628 
L 141.070951 239.08628 
L 141.070951 236.691204 
L 135.701827 236.691204 
z
" clip-path="url(#p6535adabba)" style="fill: #7d96b0"/>
   </g>
   <g id="patch_15">
    <path d="M 141.070951 239.08628 
L 146.440075 239.08628 
L 146.440075 236.349051 
L 141.070951 236.349051 
z
" clip-path="url(#p6535adabba)" style="fill: #7d96b0"/>
   </g>
   <g id="patch_16">
    <path d="M 146.440075 239.08628 
L 151.809199 239.08628 
L 151.809199 233.611821 
L 146.440075 233.611821 
z
" clip-path="url(#p6535adabba)" style="fill: #7d96b0"/>
   </g>
   <g id="patch_17">
    <path d="M 151.809199 239.08628 
L 157.178323 239.08628 
L 157.178323 225.057979 
L 151.809199 225.057979 
z
" clip-path="url(#p6535adabba)" style="fill: #7d96b0"/>
   </g>
   <g id="patch_18">
    <path d="M 157.178323 239.08628 
L 162.547446 239.08628 
L 162.547446 208.292449 
L 157.178323 208.292449 
z
" clip-path="url(#p6535adabba)" style="fill: #7d96b0"/>
   </g>
   <g id="patch_19">
    <path d="M 162.547446 239.08628 
L 167.91657 239.08628 
L 167.91657 190.842611 
L 162.547446 190.842611 
z
" clip-path="url(#p6535adabba)" style="fill: #7d96b0"/>
   </g>
   <g id="patch_20">
    <path d="M 167.91657 239.08628 
L 173.285694 239.08628 
L 173.285694 162.443855 
L 167.91657 162.443855 
z
" clip-path="url(#p6535adabba)" style="fill: #7d96b0"/>
   </g>
   <g id="patch_21">
    <path d="M 173.285694 239.08628 
L 178.654818 239.08628 
L 178.654818 115.226647 
L 173.285694 115.226647 
z
" clip-path="url(#p6535adabba)" style="fill: #7d96b0"/>
   </g>
   <g id="patch_22">
    <path d="M 178.654818 239.08628 
L 184.023942 239.08628 
L 184.023942 49.875294 
L 178.654818 49.875294 
z
" clip-path="url(#p6535adabba)" style="fill: #7d96b0"/>
   </g>
   <g id="patch_23">
    <path d="M 184.023942 239.08628 
L 189.393065 239.08628 
L 189.393065 81.353433 
L 184.023942 81.353433 
z
" clip-path="url(#p6535adabba)" style="fill: #7d96b0"/>
   </g>
   <g id="patch_24">
    <path d="M 189.393065 239.08628 
L 194.762189 239.08628 
L 194.762189 160.04878 
L 189.393065 160.04878 
z
" clip-path="url(#p6535adabba)" style="fill: #7d96b0"/>
   </g>
   <g id="patch_25">
    <path d="M 194.762189 239.08628 
L 200.131313 239.08628 
L 200.131313 196.659224 
L 194.762189 196.659224 
z
" clip-path="url(#p6535adabba)" style="fill: #7d96b0"/>
   </g>
   <g id="patch_26">
    <path d="M 200.131313 239.08628 
L 205.500437 239.08628 
L 205.500437 219.925674 
L 200.131313 219.925674 
z
" clip-path="url(#p6535adabba)" style="fill: #7d96b0"/>
   </g>
   <g id="patch_27">
    <path d="M 205.500437 239.08628 
L 210.869561 239.08628 
L 210.869561 227.453055 
L 205.500437 227.453055 
z
" clip-path="url(#p6535adabba)" style="fill: #7d96b0"/>
   </g>
   <g id="patch_28">
    <path d="M 210.869561 239.08628 
L 216.238685 239.08628 
L 216.238685 233.269667 
L 210.869561 233.269667 
z
" clip-path="url(#p6535adabba)" style="fill: #7d96b0"/>
   </g>
   <g id="patch_29">
    <path d="M 216.238685 239.08628 
L 221.607808 239.08628 
L 221.607808 236.349051 
L 216.238685 236.349051 
z
" clip-path="url(#p6535adabba)" style="fill: #7d96b0"/>
   </g>
   <g id="patch_30">
    <path d="M 221.607808 239.08628 
L 226.976932 239.08628 
L 226.976932 237.375512 
L 221.607808 237.375512 
z
" clip-path="url(#p6535adabba)" style="fill: #7d96b0"/>
   </g>
   <g id="patch_31">
    <path d="M 226.976932 239.08628 
L 232.346056 239.08628 
L 232.346056 237.717665 
L 226.976932 237.717665 
z
" clip-path="url(#p6535adabba)" style="fill: #7d96b0"/>
   </g>
   <g id="patch_32">
    <path d="M 232.346056 239.08628 
L 237.71518 239.08628 
L 237.71518 238.401973 
L 232.346056 238.401973 
z
" clip-path="url(#p6535adabba)" style="fill: #7d96b0"/>
   </g>
   <g id="patch_33">
    <path d="M 237.71518 239.08628 
L 243.084304 239.08628 
L 243.084304 239.08628 
L 237.71518 239.08628 
z
" clip-path="url(#p6535adabba)" style="fill: #7d96b0"/>
   </g>
   <g id="patch_34">
    <path d="M 243.084304 239.08628 
L 248.453428 239.08628 
L 248.453428 239.08628 
L 243.084304 239.08628 
z
" clip-path="url(#p6535adabba)" style="fill: #7d96b0"/>
   </g>
   <g id="patch_35">
    <path d="M 248.453428 239.08628 
L 253.822551 239.08628 
L 253.822551 239.08628 
L 248.453428 239.08628 
z
" clip-path="url(#p6535adabba)" style="fill: #7d96b0"/>
   </g>
   <g id="patch_36">
    <path d="M 253.822551 239.08628 
L 259.191675 239.08628 
L 259.191675 239.08628 
L 253.822551 239.08628 
z
" clip-path="url(#p6535adabba)" style="fill: #7d96b0"/>
   </g>
   <g id="patch_37">
    <path d="M 259.191675 239.08628 
L 264.560799 239.08628 
L 264.560799 239.08628 
L 259.191675 239.08628 
z
" clip-path="url(#p6535adabba)" style="fill: #7d96b0"/>
   </g>
   <g id="patch_38">
    <path d="M 264.560799 239.08628 
L 269.929923 239.08628 
L 269.929923 239.08628 
L 264.560799 239.08628 
z
" clip-path="url(#p6535adabba)" style="fill: #7d96b0"/>
   </g>
   <g id="patch_39">
    <path d="M 269.929923 239.08628 
L 275.299047 239.08628 
L 275.299047 239.08628 
L 269.929923 239.08628 
z
" clip-path="url(#p6535adabba)" style="fill: #7d96b0"/>
   </g>
   <g id="patch_40">
    <path d="M 275.299047 239.08628 
L 280.66817 239.08628 
L 280.66817 239.08628 
L 275.299047 239.08628 
z
" clip-path="url(#p6535adabba)" style="fill: #7d96b0"/>
   </g>
   <g id="patch_41">
    <path d="M 280.66817 239.08628 
L 286.037294 239.08628 
L 286.037294 239.08628 
L 280.66817 239.08628 
z
" clip-path="url(#p6535adabba)" style="fill: #7d96b0"/>
   </g>
   <g id="patch_42">
    <path d="M 286.037294 239.08628 
L 291.406418 239.08628 
L 291.406418 239.08628 
L 286.037294 239.08628 
z
" clip-path="url(#p6535adabba)" style="fill: #7d96b0"/>
   </g>
   <g id="matplotlib.axis_1">
    <g id="xtick_1">
     <g id="line2d_1">
      <defs>
       <path id="mdcda4c1bf3" d="M 0 0 
L 0 3.5 
" style="stroke: #000000; stroke-width: 0.8"/>
      </defs>
      <g>
       <use xlink:href="#mdcda4c1bf3" x="66.879422" y="239.08628" style="stroke: #000000; stroke-width: 0.8"/>
      </g>
     </g>
     <g id="text_1">
      <!-- −0.6 -->
      <g transform="translate(52.309734 255.204405) scale(0.12 -0.12)">
       <defs>
        <path id="DejaVuSans-2212" d="M 678 2272 
L 4684 2272 
L 4684 1741 
L 678 1741 
L 678 2272 
z
" transform="scale(0.015625)"/>
        <path id="DejaVuSans-30" d="M 2034 4250 
Q 1547 4250 1301 3770 
Q 1056 3291 1056 2328 
Q 1056 1369 1301 889 
Q 1547 409 2034 409 
Q 2525 409 2770 889 
Q 3016 1369 3016 2328 
Q 3016 3291 2770 3770 
Q 2525 4250 2034 4250 
z
M 2034 4750 
Q 2819 4750 3233 4129 
Q 3647 3509 3647 2328 
Q 3647 1150 3233 529 
Q 2819 -91 2034 -91 
Q 1250 -91 836 529 
Q 422 1150 422 2328 
Q 422 3509 836 4129 
Q 1250 4750 2034 4750 
z
" transform="scale(0.015625)"/>
        <path id="DejaVuSans-2e" d="M 684 794 
L 1344 794 
L 1344 0 
L 684 0 
L 684 794 
z
" transform="scale(0.015625)"/>
        <path id="DejaVuSans-36" d="M 2113 2584 
Q 1688 2584 1439 2293 
Q 1191 2003 1191 1497 
Q 1191 994 1439 701 
Q 1688 409 2113 409 
Q 2538 409 2786 701 
Q 3034 994 3034 1497 
Q 3034 2003 2786 2293 
Q 2538 2584 2113 2584 
z
M 3366 4563 
L 3366 3988 
Q 3128 4100 2886 4159 
Q 2644 4219 2406 4219 
Q 1781 4219 1451 3797 
Q 1122 3375 1075 2522 
Q 1259 2794 1537 2939 
Q 1816 3084 2150 3084 
Q 2853 3084 3261 2657 
Q 3669 2231 3669 1497 
Q 3669 778 3244 343 
Q 2819 -91 2113 -91 
Q 1303 -91 875 529 
Q 447 1150 447 2328 
Q 447 3434 972 4092 
Q 1497 4750 2381 4750 
Q 2619 4750 2861 4703 
Q 3103 4656 3366 4563 
z
" transform="scale(0.015625)"/>
       </defs>
       <use xlink:href="#DejaVuSans-2212"/>
       <use xlink:href="#DejaVuSans-30" x="83.789062"/>
       <use xlink:href="#DejaVuSans-2e" x="147.412109"/>
       <use xlink:href="#DejaVuSans-36" x="179.199219"/>
      </g>
     </g>
    </g>
    <g id="xtick_2">
     <g id="line2d_2">
      <g>
       <use xlink:href="#mdcda4c1bf3" x="125.451682" y="239.08628" style="stroke: #000000; stroke-width: 0.8"/>
      </g>
     </g>
     <g id="text_2">
      <!-- −0.3 -->
      <g transform="translate(110.881994 255.204405) scale(0.12 -0.12)">
       <defs>
        <path id="DejaVuSans-33" d="M 2597 2516 
Q 3050 2419 3304 2112 
Q 3559 1806 3559 1356 
Q 3559 666 3084 287 
Q 2609 -91 1734 -91 
Q 1441 -91 1130 -33 
Q 819 25 488 141 
L 488 750 
Q 750 597 1062 519 
Q 1375 441 1716 441 
Q 2309 441 2620 675 
Q 2931 909 2931 1356 
Q 2931 1769 2642 2001 
Q 2353 2234 1838 2234 
L 1294 2234 
L 1294 2753 
L 1863 2753 
Q 2328 2753 2575 2939 
Q 2822 3125 2822 3475 
Q 2822 3834 2567 4026 
Q 2313 4219 1838 4219 
Q 1578 4219 1281 4162 
Q 984 4106 628 3988 
L 628 4550 
Q 988 4650 1302 4700 
Q 1616 4750 1894 4750 
Q 2613 4750 3031 4423 
Q 3450 4097 3450 3541 
Q 3450 3153 3228 2886 
Q 3006 2619 2597 2516 
z
" transform="scale(0.015625)"/>
       </defs>
       <use xlink:href="#DejaVuSans-2212"/>
       <use xlink:href="#DejaVuSans-30" x="83.789062"/>
       <use xlink:href="#DejaVuSans-2e" x="147.412109"/>
       <use xlink:href="#DejaVuSans-33" x="179.199219"/>
      </g>
     </g>
    </g>
    <g id="xtick_3">
     <g id="line2d_3">
      <g>
       <use xlink:href="#mdcda4c1bf3" x="184.023942" y="239.08628" style="stroke: #000000; stroke-width: 0.8"/>
      </g>
     </g>
     <g id="text_3">
      <!-- 0.0 -->
      <g transform="translate(174.482067 255.204405) scale(0.12 -0.12)">
       <use xlink:href="#DejaVuSans-30"/>
       <use xlink:href="#DejaVuSans-2e" x="63.623047"/>
       <use xlink:href="#DejaVuSans-30" x="95.410156"/>
      </g>
     </g>
    </g>
    <g id="xtick_4">
     <g id="line2d_4">
      <g>
       <use xlink:href="#mdcda4c1bf3" x="242.596202" y="239.08628" style="stroke: #000000; stroke-width: 0.8"/>
      </g>
     </g>
     <g id="text_4">
      <!-- 0.3 -->
      <g transform="translate(233.054327 255.204405) scale(0.12 -0.12)">
       <use xlink:href="#DejaVuSans-30"/>
       <use xlink:href="#DejaVuSans-2e" x="63.623047"/>
       <use xlink:href="#DejaVuSans-33" x="95.410156"/>
      </g>
     </g>
    </g>
    <g id="xtick_5">
     <g id="line2d_5">
      <g>
       <use xlink:href="#mdcda4c1bf3" x="301.168461" y="239.08628" style="stroke: #000000; stroke-width: 0.8"/>
      </g>
     </g>
     <g id="text_5">
      <!-- 0.6 -->
      <g transform="translate(291.626586 255.204405) scale(0.12 -0.12)">
       <use xlink:href="#DejaVuSans-30"/>
       <use xlink:href="#DejaVuSans-2e" x="63.623047"/>
       <use xlink:href="#DejaVuSans-36" x="95.410156"/>
      </g>
     </g>
    </g>
   </g>
   <g id="matplotlib.axis_2">
    <g id="ytick_1">
     <g id="line2d_6">
      <defs>
       <path id="md7fabc2c41" d="M 0 0 
L -3.5 0 
" style="stroke: #000000; stroke-width: 0.8"/>
      </defs>
      <g>
       <use xlink:href="#md7fabc2c41" x="55.16497" y="239.08628" style="stroke: #000000; stroke-width: 0.8"/>
      </g>
     </g>
     <g id="text_6">
      <!-- 0 -->
      <g transform="translate(40.52997 243.645343) scale(0.12 -0.12)">
       <use xlink:href="#DejaVuSans-30"/>
      </g>
     </g>
    </g>
    <g id="ytick_2">
     <g id="line2d_7">
      <g>
       <use xlink:href="#md7fabc2c41" x="55.16497" y="170.655544" style="stroke: #000000; stroke-width: 0.8"/>
      </g>
     </g>
     <g id="text_7">
      <!-- 200 -->
      <g transform="translate(25.25997 175.214606) scale(0.12 -0.12)">
       <defs>
        <path id="DejaVuSans-32" d="M 1228 531 
L 3431 531 
L 3431 0 
L 469 0 
L 469 531 
Q 828 903 1448 1529 
Q 2069 2156 2228 2338 
Q 2531 2678 2651 2914 
Q 2772 3150 2772 3378 
Q 2772 3750 2511 3984 
Q 2250 4219 1831 4219 
Q 1534 4219 1204 4116 
Q 875 4013 500 3803 
L 500 4441 
Q 881 4594 1212 4672 
Q 1544 4750 1819 4750 
Q 2544 4750 2975 4387 
Q 3406 4025 3406 3419 
Q 3406 3131 3298 2873 
Q 3191 2616 2906 2266 
Q 2828 2175 2409 1742 
Q 1991 1309 1228 531 
z
" transform="scale(0.015625)"/>
       </defs>
       <use xlink:href="#DejaVuSans-32"/>
       <use xlink:href="#DejaVuSans-30" x="63.623047"/>
       <use xlink:href="#DejaVuSans-30" x="127.246094"/>
      </g>
     </g>
    </g>
    <g id="ytick_3">
     <g id="line2d_8">
      <g>
       <use xlink:href="#md7fabc2c41" x="55.16497" y="102.224808" style="stroke: #000000; stroke-width: 0.8"/>
      </g>
     </g>
     <g id="text_8">
      <!-- 400 -->
      <g transform="translate(25.25997 106.78387) scale(0.12 -0.12)">
       <defs>
        <path id="DejaVuSans-34" d="M 2419 4116 
L 825 1625 
L 2419 1625 
L 2419 4116 
z
M 2253 4666 
L 3047 4666 
L 3047 1625 
L 3713 1625 
L 3713 1100 
L 3047 1100 
L 3047 0 
L 2419 0 
L 2419 1100 
L 313 1100 
L 313 1709 
L 2253 4666 
z
" transform="scale(0.015625)"/>
       </defs>
       <use xlink:href="#DejaVuSans-34"/>
       <use xlink:href="#DejaVuSans-30" x="63.623047"/>
       <use xlink:href="#DejaVuSans-30" x="127.246094"/>
      </g>
     </g>
    </g>
    <g id="ytick_4">
     <g id="line2d_9">
      <g>
       <use xlink:href="#md7fabc2c41" x="55.16497" y="33.794071" style="stroke: #000000; stroke-width: 0.8"/>
      </g>
     </g>
     <g id="text_9">
      <!-- 600 -->
      <g transform="translate(25.25997 38.353134) scale(0.12 -0.12)">
       <use xlink:href="#DejaVuSans-36"/>
       <use xlink:href="#DejaVuSans-30" x="63.623047"/>
       <use xlink:href="#DejaVuSans-30" x="127.246094"/>
      </g>
     </g>
    </g>
   </g>
   <g id="line2d_10">
    <path d="M 184.023942 239.08628 
L 184.023942 33.794071 
" clip-path="url(#p6535adabba)" style="fill: none; stroke-dasharray: 3.7,1.6; stroke-dashoffset: 0; stroke: #1d1d1d"/>
   </g>
   <g id="patch_43">
    <path d="M 55.16497 239.08628 
L 55.16497 33.794071 
" style="fill: none; stroke: #000000; stroke-width: 0.8; stroke-linejoin: miter; stroke-linecap: square"/>
   </g>
   <g id="patch_44">
    <path d="M 66.879422 239.08628 
L 301.168461 239.08628 
" style="fill: none; stroke: #000000; stroke-width: 0.8; stroke-linejoin: miter; stroke-linecap: square"/>
   </g>
   <g id="text_10">
    <!-- motion -->
    <g transform="translate(55.16497 16.608844) scale(0.14 -0.14)">
     <defs>
      <path id="DejaVuSans-6d" d="M 3328 2828 
Q 3544 3216 3844 3400 
Q 4144 3584 4550 3584 
Q 5097 3584 5394 3201 
Q 5691 2819 5691 2113 
L 5691 0 
L 5113 0 
L 5113 2094 
Q 5113 2597 4934 2840 
Q 4756 3084 4391 3084 
Q 3944 3084 3684 2787 
Q 3425 2491 3425 1978 
L 3425 0 
L 2847 0 
L 2847 2094 
Q 2847 2600 2669 2842 
Q 2491 3084 2119 3084 
Q 1678 3084 1418 2786 
Q 1159 2488 1159 1978 
L 1159 0 
L 581 0 
L 581 3500 
L 1159 3500 
L 1159 2956 
Q 1356 3278 1631 3431 
Q 1906 3584 2284 3584 
Q 2666 3584 2933 3390 
Q 3200 3197 3328 2828 
z
" transform="scale(0.015625)"/>
      <path id="DejaVuSans-6f" d="M 1959 3097 
Q 1497 3097 1228 2736 
Q 959 2375 959 1747 
Q 959 1119 1226 758 
Q 1494 397 1959 397 
Q 2419 397 2687 759 
Q 2956 1122 2956 1747 
Q 2956 2369 2687 2733 
Q 2419 3097 1959 3097 
z
M 1959 3584 
Q 2709 3584 3137 3096 
Q 3566 2609 3566 1747 
Q 3566 888 3137 398 
Q 2709 -91 1959 -91 
Q 1206 -91 779 398 
Q 353 888 353 1747 
Q 353 2609 779 3096 
Q 1206 3584 1959 3584 
z
" transform="scale(0.015625)"/>
      <path id="DejaVuSans-74" d="M 1172 4494 
L 1172 3500 
L 2356 3500 
L 2356 3053 
L 1172 3053 
L 1172 1153 
Q 1172 725 1289 603 
Q 1406 481 1766 481 
L 2356 481 
L 2356 0 
L 1766 0 
Q 1100 0 847 248 
Q 594 497 594 1153 
L 594 3053 
L 172 3053 
L 172 3500 
L 594 3500 
L 594 4494 
L 1172 4494 
z
" transform="scale(0.015625)"/>
      <path id="DejaVuSans-69" d="M 603 3500 
L 1178 3500 
L 1178 0 
L 603 0 
L 603 3500 
z
M 603 4863 
L 1178 4863 
L 1178 4134 
L 603 4134 
L 603 4863 
z
" transform="scale(0.015625)"/>
      <path id="DejaVuSans-6e" d="M 3513 2113 
L 3513 0 
L 2938 0 
L 2938 2094 
Q 2938 2591 2744 2837 
Q 2550 3084 2163 3084 
Q 1697 3084 1428 2787 
Q 1159 2491 1159 1978 
L 1159 0 
L 581 0 
L 581 3500 
L 1159 3500 
L 1159 2956 
Q 1366 3272 1645 3428 
Q 1925 3584 2291 3584 
Q 2894 3584 3203 3211 
Q 3513 2838 3513 2113 
z
" transform="scale(0.015625)"/>
     </defs>
     <use xlink:href="#DejaVuSans-6d"/>
     <use xlink:href="#DejaVuSans-6f" x="97.412109"/>
     <use xlink:href="#DejaVuSans-74" x="158.59375"/>
     <use xlink:href="#DejaVuSans-69" x="197.802734"/>
     <use xlink:href="#DejaVuSans-6f" x="225.585938"/>
     <use xlink:href="#DejaVuSans-6e" x="286.767578"/>
    </g>
   </g>
  </g>
  <g id="axes_2">
   <g id="patch_45">
    <path d="M 322.383393 239.08628 
L 580.101337 239.08628 
L 580.101337 3.00024 
L 322.383393 3.00024 
z
" style="fill: #ffffff"/>
   </g>
   <g id="patch_46">
    <path d="M 343.859889 239.08628 
L 349.229012 239.08628 
L 349.229012 239.08628 
L 343.859889 239.08628 
z
" clip-path="url(#p0d603abf27)" style="fill: #7d96b0"/>
   </g>
   <g id="patch_47">
    <path d="M 349.229012 239.08628 
L 354.598136 239.08628 
L 354.598136 239.08628 
L 349.229012 239.08628 
z
" clip-path="url(#p0d603abf27)" style="fill: #7d96b0"/>
   </g>
   <g id="patch_48">
    <path d="M 354.598136 239.08628 
L 359.96726 239.08628 
L 359.96726 239.08628 
L 354.598136 239.08628 
z
" clip-path="url(#p0d603abf27)" style="fill: #7d96b0"/>
   </g>
   <g id="patch_49">
    <path d="M 359.96726 239.08628 
L 365.336384 239.08628 
L 365.336384 239.08628 
L 359.96726 239.08628 
z
" clip-path="url(#p0d603abf27)" style="fill: #7d96b0"/>
   </g>
   <g id="patch_50">
    <path d="M 365.336384 239.08628 
L 370.705508 239.08628 
L 370.705508 238.059819 
L 365.336384 238.059819 
z
" clip-path="url(#p0d603abf27)" style="fill: #7d96b0"/>
   </g>
   <g id="patch_51">
    <path d="M 370.705508 239.08628 
L 376.074632 239.08628 
L 376.074632 237.033358 
L 370.705508 237.033358 
z
" clip-path="url(#p0d603abf27)" style="fill: #7d96b0"/>
   </g>
   <g id="patch_52">
    <path d="M 376.074632 239.08628 
L 381.443755 239.08628 
L 381.443755 235.32259 
L 376.074632 235.32259 
z
" clip-path="url(#p0d603abf27)" style="fill: #7d96b0"/>
   </g>
   <g id="patch_53">
    <path d="M 381.443755 239.08628 
L 386.812879 239.08628 
L 386.812879 231.216745 
L 381.443755 231.216745 
z
" clip-path="url(#p0d603abf27)" style="fill: #7d96b0"/>
   </g>
   <g id="patch_54">
    <path d="M 386.812879 239.08628 
L 392.182003 239.08628 
L 392.182003 233.953975 
L 386.812879 233.953975 
z
" clip-path="url(#p0d603abf27)" style="fill: #7d96b0"/>
   </g>
   <g id="patch_55">
    <path d="M 392.182003 239.08628 
L 397.551127 239.08628 
L 397.551127 229.505977 
L 392.182003 229.505977 
z
" clip-path="url(#p0d603abf27)" style="fill: #7d96b0"/>
   </g>
   <g id="patch_56">
    <path d="M 397.551127 239.08628 
L 402.920251 239.08628 
L 402.920251 230.190284 
L 397.551127 230.190284 
z
" clip-path="url(#p0d603abf27)" style="fill: #7d96b0"/>
   </g>
   <g id="patch_57">
    <path d="M 402.920251 239.08628 
L 408.289374 239.08628 
L 408.289374 228.479516 
L 402.920251 228.479516 
z
" clip-path="url(#p0d603abf27)" style="fill: #7d96b0"/>
   </g>
   <g id="patch_58">
    <path d="M 408.289374 239.08628 
L 413.658498 239.08628 
L 413.658498 226.426594 
L 408.289374 226.426594 
z
" clip-path="url(#p0d603abf27)" style="fill: #7d96b0"/>
   </g>
   <g id="patch_59">
    <path d="M 413.658498 239.08628 
L 419.027622 239.08628 
L 419.027622 226.426594 
L 413.658498 226.426594 
z
" clip-path="url(#p0d603abf27)" style="fill: #7d96b0"/>
   </g>
   <g id="patch_60">
    <path d="M 419.027622 239.08628 
L 424.396746 239.08628 
L 424.396746 219.241366 
L 419.027622 219.241366 
z
" clip-path="url(#p0d603abf27)" style="fill: #7d96b0"/>
   </g>
   <g id="patch_61">
    <path d="M 424.396746 239.08628 
L 429.76587 239.08628 
L 429.76587 215.477676 
L 424.396746 215.477676 
z
" clip-path="url(#p0d603abf27)" style="fill: #7d96b0"/>
   </g>
   <g id="patch_62">
    <path d="M 429.76587 239.08628 
L 435.134994 239.08628 
L 435.134994 201.791529 
L 429.76587 201.791529 
z
" clip-path="url(#p0d603abf27)" style="fill: #7d96b0"/>
   </g>
   <g id="patch_63">
    <path d="M 435.134994 239.08628 
L 440.504117 239.08628 
L 440.504117 175.787849 
L 435.134994 175.787849 
z
" clip-path="url(#p0d603abf27)" style="fill: #7d96b0"/>
   </g>
   <g id="patch_64">
    <path d="M 440.504117 239.08628 
L 445.873241 239.08628 
L 445.873241 147.04694 
L 440.504117 147.04694 
z
" clip-path="url(#p0d603abf27)" style="fill: #7d96b0"/>
   </g>
   <g id="patch_65">
    <path d="M 445.873241 239.08628 
L 451.242365 239.08628 
L 451.242365 117.621723 
L 445.873241 117.621723 
z
" clip-path="url(#p0d603abf27)" style="fill: #7d96b0"/>
   </g>
   <g id="patch_66">
    <path d="M 451.242365 239.08628 
L 456.611489 239.08628 
L 456.611489 111.462957 
L 451.242365 111.462957 
z
" clip-path="url(#p0d603abf27)" style="fill: #7d96b0"/>
   </g>
   <g id="patch_67">
    <path d="M 456.611489 239.08628 
L 461.980613 239.08628 
L 461.980613 148.757708 
L 456.611489 148.757708 
z
" clip-path="url(#p0d603abf27)" style="fill: #7d96b0"/>
   </g>
   <g id="patch_68">
    <path d="M 461.980613 239.08628 
L 467.349736 239.08628 
L 467.349736 186.052459 
L 461.980613 186.052459 
z
" clip-path="url(#p0d603abf27)" style="fill: #7d96b0"/>
   </g>
   <g id="patch_69">
    <path d="M 467.349736 239.08628 
L 472.71886 239.08628 
L 472.71886 211.371832 
L 467.349736 211.371832 
z
" clip-path="url(#p0d603abf27)" style="fill: #7d96b0"/>
   </g>
   <g id="patch_70">
    <path d="M 472.71886 239.08628 
L 478.087984 239.08628 
L 478.087984 224.031518 
L 472.71886 224.031518 
z
" clip-path="url(#p0d603abf27)" style="fill: #7d96b0"/>
   </g>
   <g id="patch_71">
    <path d="M 478.087984 239.08628 
L 483.457108 239.08628 
L 483.457108 231.216745 
L 478.087984 231.216745 
z
" clip-path="url(#p0d603abf27)" style="fill: #7d96b0"/>
   </g>
   <g id="patch_72">
    <path d="M 483.457108 239.08628 
L 488.826232 239.08628 
L 488.826232 227.110901 
L 483.457108 227.110901 
z
" clip-path="url(#p0d603abf27)" style="fill: #7d96b0"/>
   </g>
   <g id="patch_73">
    <path d="M 488.826232 239.08628 
L 494.195356 239.08628 
L 494.195356 232.243206 
L 488.826232 232.243206 
z
" clip-path="url(#p0d603abf27)" style="fill: #7d96b0"/>
   </g>
   <g id="patch_74">
    <path d="M 494.195356 239.08628 
L 499.564479 239.08628 
L 499.564479 231.558899 
L 494.195356 231.558899 
z
" clip-path="url(#p0d603abf27)" style="fill: #7d96b0"/>
   </g>
   <g id="patch_75">
    <path d="M 499.564479 239.08628 
L 504.933603 239.08628 
L 504.933603 232.58536 
L 499.564479 232.58536 
z
" clip-path="url(#p0d603abf27)" style="fill: #7d96b0"/>
   </g>
   <g id="patch_76">
    <path d="M 504.933603 239.08628 
L 510.302727 239.08628 
L 510.302727 232.58536 
L 504.933603 232.58536 
z
" clip-path="url(#p0d603abf27)" style="fill: #7d96b0"/>
   </g>
   <g id="patch_77">
    <path d="M 510.302727 239.08628 
L 515.671851 239.08628 
L 515.671851 234.638282 
L 510.302727 234.638282 
z
" clip-path="url(#p0d603abf27)" style="fill: #7d96b0"/>
   </g>
   <g id="patch_78">
    <path d="M 515.671851 239.08628 
L 521.040975 239.08628 
L 521.040975 234.638282 
L 515.671851 234.638282 
z
" clip-path="url(#p0d603abf27)" style="fill: #7d96b0"/>
   </g>
   <g id="patch_79">
    <path d="M 521.040975 239.08628 
L 526.410098 239.08628 
L 526.410098 237.033358 
L 521.040975 237.033358 
z
" clip-path="url(#p0d603abf27)" style="fill: #7d96b0"/>
   </g>
   <g id="patch_80">
    <path d="M 526.410098 239.08628 
L 531.779222 239.08628 
L 531.779222 234.980436 
L 526.410098 234.980436 
z
" clip-path="url(#p0d603abf27)" style="fill: #7d96b0"/>
   </g>
   <g id="patch_81">
    <path d="M 531.779222 239.08628 
L 537.148346 239.08628 
L 537.148346 237.717665 
L 531.779222 237.717665 
z
" clip-path="url(#p0d603abf27)" style="fill: #7d96b0"/>
   </g>
   <g id="patch_82">
    <path d="M 537.148346 239.08628 
L 542.51747 239.08628 
L 542.51747 236.349051 
L 537.148346 236.349051 
z
" clip-path="url(#p0d603abf27)" style="fill: #7d96b0"/>
   </g>
   <g id="patch_83">
    <path d="M 542.51747 239.08628 
L 547.886594 239.08628 
L 547.886594 236.691204 
L 542.51747 236.691204 
z
" clip-path="url(#p0d603abf27)" style="fill: #7d96b0"/>
   </g>
   <g id="patch_84">
    <path d="M 547.886594 239.08628 
L 553.255718 239.08628 
L 553.255718 237.375512 
L 547.886594 237.375512 
z
" clip-path="url(#p0d603abf27)" style="fill: #7d96b0"/>
   </g>
   <g id="patch_85">
    <path d="M 553.255718 239.08628 
L 558.624841 239.08628 
L 558.624841 238.401973 
L 553.255718 238.401973 
z
" clip-path="url(#p0d603abf27)" style="fill: #7d96b0"/>
   </g>
   <g id="matplotlib.axis_3">
    <g id="xtick_6">
     <g id="line2d_11">
      <g>
       <use xlink:href="#mdcda4c1bf3" x="334.097845" y="239.08628" style="stroke: #000000; stroke-width: 0.8"/>
      </g>
     </g>
     <g id="text_11">
      <!-- −0.6 -->
      <g transform="translate(319.528158 255.204405) scale(0.12 -0.12)">
       <use xlink:href="#DejaVuSans-2212"/>
       <use xlink:href="#DejaVuSans-30" x="83.789062"/>
       <use xlink:href="#DejaVuSans-2e" x="147.412109"/>
       <use xlink:href="#DejaVuSans-36" x="179.199219"/>
      </g>
     </g>
    </g>
    <g id="xtick_7">
     <g id="line2d_12">
      <g>
       <use xlink:href="#mdcda4c1bf3" x="392.670105" y="239.08628" style="stroke: #000000; stroke-width: 0.8"/>
      </g>
     </g>
     <g id="text_12">
      <!-- −0.3 -->
      <g transform="translate(378.100418 255.204405) scale(0.12 -0.12)">
       <use xlink:href="#DejaVuSans-2212"/>
       <use xlink:href="#DejaVuSans-30" x="83.789062"/>
       <use xlink:href="#DejaVuSans-2e" x="147.412109"/>
       <use xlink:href="#DejaVuSans-33" x="179.199219"/>
      </g>
     </g>
    </g>
    <g id="xtick_8">
     <g id="line2d_13">
      <g>
       <use xlink:href="#mdcda4c1bf3" x="451.242365" y="239.08628" style="stroke: #000000; stroke-width: 0.8"/>
      </g>
     </g>
     <g id="text_13">
      <!-- 0.0 -->
      <g transform="translate(441.70049 255.204405) scale(0.12 -0.12)">
       <use xlink:href="#DejaVuSans-30"/>
       <use xlink:href="#DejaVuSans-2e" x="63.623047"/>
       <use xlink:href="#DejaVuSans-30" x="95.410156"/>
      </g>
     </g>
    </g>
    <g id="xtick_9">
     <g id="line2d_14">
      <g>
       <use xlink:href="#mdcda4c1bf3" x="509.814625" y="239.08628" style="stroke: #000000; stroke-width: 0.8"/>
      </g>
     </g>
     <g id="text_14">
      <!-- 0.3 -->
      <g transform="translate(500.27275 255.204405) scale(0.12 -0.12)">
       <use xlink:href="#DejaVuSans-30"/>
       <use xlink:href="#DejaVuSans-2e" x="63.623047"/>
       <use xlink:href="#DejaVuSans-33" x="95.410156"/>
      </g>
     </g>
    </g>
    <g id="xtick_10">
     <g id="line2d_15">
      <g>
       <use xlink:href="#mdcda4c1bf3" x="568.386885" y="239.08628" style="stroke: #000000; stroke-width: 0.8"/>
      </g>
     </g>
     <g id="text_15">
      <!-- 0.6 -->
      <g transform="translate(558.84501 255.204405) scale(0.12 -0.12)">
       <use xlink:href="#DejaVuSans-30"/>
       <use xlink:href="#DejaVuSans-2e" x="63.623047"/>
       <use xlink:href="#DejaVuSans-36" x="95.410156"/>
      </g>
     </g>
    </g>
   </g>
   <g id="matplotlib.axis_4">
    <g id="ytick_5">
     <g id="line2d_16">
      <g>
       <use xlink:href="#md7fabc2c41" x="322.383393" y="239.08628" style="stroke: #000000; stroke-width: 0.8"/>
      </g>
     </g>
    </g>
    <g id="ytick_6">
     <g id="line2d_17">
      <g>
       <use xlink:href="#md7fabc2c41" x="322.383393" y="170.655544" style="stroke: #000000; stroke-width: 0.8"/>
      </g>
     </g>
    </g>
    <g id="ytick_7">
     <g id="line2d_18">
      <g>
       <use xlink:href="#md7fabc2c41" x="322.383393" y="102.224808" style="stroke: #000000; stroke-width: 0.8"/>
      </g>
     </g>
    </g>
    <g id="ytick_8">
     <g id="line2d_19">
      <g>
       <use xlink:href="#md7fabc2c41" x="322.383393" y="33.794071" style="stroke: #000000; stroke-width: 0.8"/>
      </g>
     </g>
    </g>
   </g>
   <g id="line2d_20">
    <path d="M 451.242365 239.08628 
L 451.242365 33.794071 
" clip-path="url(#p0d603abf27)" style="fill: none; stroke-dasharray: 3.7,1.6; stroke-dashoffset: 0; stroke: #1d1d1d"/>
   </g>
   <g id="patch_86">
    <path d="M 322.383393 239.08628 
L 322.383393 33.794071 
" style="fill: none; stroke: #000000; stroke-width: 0.8; stroke-linejoin: miter; stroke-linecap: square"/>
   </g>
   <g id="patch_87">
    <path d="M 334.097845 239.08628 
L 568.386885 239.08628 
" style="fill: none; stroke: #000000; stroke-width: 0.8; stroke-linejoin: miter; stroke-linecap: square"/>
   </g>
   <g id="text_16">
    <!-- clockw. -->
    <g transform="translate(322.383393 16.608844) scale(0.14 -0.14)">
     <defs>
      <path id="DejaVuSans-63" d="M 3122 3366 
L 3122 2828 
Q 2878 2963 2633 3030 
Q 2388 3097 2138 3097 
Q 1578 3097 1268 2742 
Q 959 2388 959 1747 
Q 959 1106 1268 751 
Q 1578 397 2138 397 
Q 2388 397 2633 464 
Q 2878 531 3122 666 
L 3122 134 
Q 2881 22 2623 -34 
Q 2366 -91 2075 -91 
Q 1284 -91 818 406 
Q 353 903 353 1747 
Q 353 2603 823 3093 
Q 1294 3584 2113 3584 
Q 2378 3584 2631 3529 
Q 2884 3475 3122 3366 
z
" transform="scale(0.015625)"/>
      <path id="DejaVuSans-6c" d="M 603 4863 
L 1178 4863 
L 1178 0 
L 603 0 
L 603 4863 
z
" transform="scale(0.015625)"/>
      <path id="DejaVuSans-6b" d="M 581 4863 
L 1159 4863 
L 1159 1991 
L 2875 3500 
L 3609 3500 
L 1753 1863 
L 3688 0 
L 2938 0 
L 1159 1709 
L 1159 0 
L 581 0 
L 581 4863 
z
" transform="scale(0.015625)"/>
      <path id="DejaVuSans-77" d="M 269 3500 
L 844 3500 
L 1563 769 
L 2278 3500 
L 2956 3500 
L 3675 769 
L 4391 3500 
L 4966 3500 
L 4050 0 
L 3372 0 
L 2619 2869 
L 1863 0 
L 1184 0 
L 269 3500 
z
" transform="scale(0.015625)"/>
     </defs>
     <use xlink:href="#DejaVuSans-63"/>
     <use xlink:href="#DejaVuSans-6c" x="54.980469"/>
     <use xlink:href="#DejaVuSans-6f" x="82.763672"/>
     <use xlink:href="#DejaVuSans-63" x="143.945312"/>
     <use xlink:href="#DejaVuSans-6b" x="198.925781"/>
     <use xlink:href="#DejaVuSans-77" x="256.835938"/>
     <use xlink:href="#DejaVuSans-2e" x="329.498047"/>
    </g>
   </g>
  </g>
  <g id="axes_3">
   <g id="patch_88">
    <path d="M 589.601817 239.08628 
L 847.31976 239.08628 
L 847.31976 3.00024 
L 589.601817 3.00024 
z
" style="fill: #ffffff"/>
   </g>
   <g id="patch_89">
    <path d="M 611.078312 239.08628 
L 616.447436 239.08628 
L 616.447436 239.08628 
L 611.078312 239.08628 
z
" clip-path="url(#p985588cc52)" style="fill: #7d96b0"/>
   </g>
   <g id="patch_90">
    <path d="M 616.447436 239.08628 
L 621.81656 239.08628 
L 621.81656 239.08628 
L 616.447436 239.08628 
z
" clip-path="url(#p985588cc52)" style="fill: #7d96b0"/>
   </g>
   <g id="patch_91">
    <path d="M 621.81656 239.08628 
L 627.185683 239.08628 
L 627.185683 239.08628 
L 621.81656 239.08628 
z
" clip-path="url(#p985588cc52)" style="fill: #7d96b0"/>
   </g>
   <g id="patch_92">
    <path d="M 627.185683 239.08628 
L 632.554807 239.08628 
L 632.554807 238.401973 
L 627.185683 238.401973 
z
" clip-path="url(#p985588cc52)" style="fill: #7d96b0"/>
   </g>
   <g id="patch_93">
    <path d="M 632.554807 239.08628 
L 637.923931 239.08628 
L 637.923931 237.717665 
L 632.554807 237.717665 
z
" clip-path="url(#p985588cc52)" style="fill: #7d96b0"/>
   </g>
   <g id="patch_94">
    <path d="M 637.923931 239.08628 
L 643.293055 239.08628 
L 643.293055 236.349051 
L 637.923931 236.349051 
z
" clip-path="url(#p985588cc52)" style="fill: #7d96b0"/>
   </g>
   <g id="patch_95">
    <path d="M 643.293055 239.08628 
L 648.662179 239.08628 
L 648.662179 232.58536 
L 643.293055 232.58536 
z
" clip-path="url(#p985588cc52)" style="fill: #7d96b0"/>
   </g>
   <g id="patch_96">
    <path d="M 648.662179 239.08628 
L 654.031302 239.08628 
L 654.031302 231.216745 
L 648.662179 231.216745 
z
" clip-path="url(#p985588cc52)" style="fill: #7d96b0"/>
   </g>
   <g id="patch_97">
    <path d="M 654.031302 239.08628 
L 659.400426 239.08628 
L 659.400426 230.190284 
L 654.031302 230.190284 
z
" clip-path="url(#p985588cc52)" style="fill: #7d96b0"/>
   </g>
   <g id="patch_98">
    <path d="M 659.400426 239.08628 
L 664.76955 239.08628 
L 664.76955 230.874592 
L 659.400426 230.874592 
z
" clip-path="url(#p985588cc52)" style="fill: #7d96b0"/>
   </g>
   <g id="patch_99">
    <path d="M 664.76955 239.08628 
L 670.138674 239.08628 
L 670.138674 232.927514 
L 664.76955 232.927514 
z
" clip-path="url(#p985588cc52)" style="fill: #7d96b0"/>
   </g>
   <g id="patch_100">
    <path d="M 670.138674 239.08628 
L 675.507798 239.08628 
L 675.507798 230.190284 
L 670.138674 230.190284 
z
" clip-path="url(#p985588cc52)" style="fill: #7d96b0"/>
   </g>
   <g id="patch_101">
    <path d="M 675.507798 239.08628 
L 680.876922 239.08628 
L 680.876922 229.505977 
L 675.507798 229.505977 
z
" clip-path="url(#p985588cc52)" style="fill: #7d96b0"/>
   </g>
   <g id="patch_102">
    <path d="M 680.876922 239.08628 
L 686.246045 239.08628 
L 686.246045 227.110901 
L 680.876922 227.110901 
z
" clip-path="url(#p985588cc52)" style="fill: #7d96b0"/>
   </g>
   <g id="patch_103">
    <path d="M 686.246045 239.08628 
L 691.615169 239.08628 
L 691.615169 226.768747 
L 686.246045 226.768747 
z
" clip-path="url(#p985588cc52)" style="fill: #7d96b0"/>
   </g>
   <g id="patch_104">
    <path d="M 691.615169 239.08628 
L 696.984293 239.08628 
L 696.984293 217.188444 
L 691.615169 217.188444 
z
" clip-path="url(#p985588cc52)" style="fill: #7d96b0"/>
   </g>
   <g id="patch_105">
    <path d="M 696.984293 239.08628 
L 702.353417 239.08628 
L 702.353417 201.791529 
L 696.984293 201.791529 
z
" clip-path="url(#p985588cc52)" style="fill: #7d96b0"/>
   </g>
   <g id="patch_106">
    <path d="M 702.353417 239.08628 
L 707.722541 239.08628 
L 707.722541 166.207546 
L 702.353417 166.207546 
z
" clip-path="url(#p985588cc52)" style="fill: #7d96b0"/>
   </g>
   <g id="patch_107">
    <path d="M 707.722541 239.08628 
L 713.091665 239.08628 
L 713.091665 131.992178 
L 707.722541 131.992178 
z
" clip-path="url(#p985588cc52)" style="fill: #7d96b0"/>
   </g>
   <g id="patch_108">
    <path d="M 713.091665 239.08628 
L 718.460788 239.08628 
L 718.460788 102.566961 
L 713.091665 102.566961 
z
" clip-path="url(#p985588cc52)" style="fill: #7d96b0"/>
   </g>
   <g id="patch_109">
    <path d="M 718.460788 239.08628 
L 723.829912 239.08628 
L 723.829912 130.281409 
L 718.460788 130.281409 
z
" clip-path="url(#p985588cc52)" style="fill: #7d96b0"/>
   </g>
   <g id="patch_110">
    <path d="M 723.829912 239.08628 
L 729.199036 239.08628 
L 729.199036 150.468477 
L 723.829912 150.468477 
z
" clip-path="url(#p985588cc52)" style="fill: #7d96b0"/>
   </g>
   <g id="patch_111">
    <path d="M 729.199036 239.08628 
L 734.56816 239.08628 
L 734.56816 183.31523 
L 729.199036 183.31523 
z
" clip-path="url(#p985588cc52)" style="fill: #7d96b0"/>
   </g>
   <g id="patch_112">
    <path d="M 734.56816 239.08628 
L 739.937284 239.08628 
L 739.937284 211.713986 
L 734.56816 211.713986 
z
" clip-path="url(#p985588cc52)" style="fill: #7d96b0"/>
   </g>
   <g id="patch_113">
    <path d="M 739.937284 239.08628 
L 745.306407 239.08628 
L 745.306407 223.005057 
L 739.937284 223.005057 
z
" clip-path="url(#p985588cc52)" style="fill: #7d96b0"/>
   </g>
   <g id="patch_114">
    <path d="M 745.306407 239.08628 
L 750.675531 239.08628 
L 750.675531 226.426594 
L 745.306407 226.426594 
z
" clip-path="url(#p985588cc52)" style="fill: #7d96b0"/>
   </g>
   <g id="patch_115">
    <path d="M 750.675531 239.08628 
L 756.044655 239.08628 
L 756.044655 232.243206 
L 750.675531 232.243206 
z
" clip-path="url(#p985588cc52)" style="fill: #7d96b0"/>
   </g>
   <g id="patch_116">
    <path d="M 756.044655 239.08628 
L 761.413779 239.08628 
L 761.413779 233.611821 
L 756.044655 233.611821 
z
" clip-path="url(#p985588cc52)" style="fill: #7d96b0"/>
   </g>
   <g id="patch_117">
    <path d="M 761.413779 239.08628 
L 766.782903 239.08628 
L 766.782903 232.927514 
L 761.413779 232.927514 
z
" clip-path="url(#p985588cc52)" style="fill: #7d96b0"/>
   </g>
   <g id="patch_118">
    <path d="M 766.782903 239.08628 
L 772.152027 239.08628 
L 772.152027 233.269667 
L 766.782903 233.269667 
z
" clip-path="url(#p985588cc52)" style="fill: #7d96b0"/>
   </g>
   <g id="patch_119">
    <path d="M 772.152027 239.08628 
L 777.52115 239.08628 
L 777.52115 234.296128 
L 772.152027 234.296128 
z
" clip-path="url(#p985588cc52)" style="fill: #7d96b0"/>
   </g>
   <g id="patch_120">
    <path d="M 777.52115 239.08628 
L 782.890274 239.08628 
L 782.890274 235.664743 
L 777.52115 235.664743 
z
" clip-path="url(#p985588cc52)" style="fill: #7d96b0"/>
   </g>
   <g id="patch_121">
    <path d="M 782.890274 239.08628 
L 788.259398 239.08628 
L 788.259398 236.691204 
L 782.890274 236.691204 
z
" clip-path="url(#p985588cc52)" style="fill: #7d96b0"/>
   </g>
   <g id="patch_122">
    <path d="M 788.259398 239.08628 
L 793.628522 239.08628 
L 793.628522 236.691204 
L 788.259398 236.691204 
z
" clip-path="url(#p985588cc52)" style="fill: #7d96b0"/>
   </g>
   <g id="patch_123">
    <path d="M 793.628522 239.08628 
L 798.997646 239.08628 
L 798.997646 238.059819 
L 793.628522 238.059819 
z
" clip-path="url(#p985588cc52)" style="fill: #7d96b0"/>
   </g>
   <g id="patch_124">
    <path d="M 798.997646 239.08628 
L 804.366769 239.08628 
L 804.366769 236.349051 
L 798.997646 236.349051 
z
" clip-path="url(#p985588cc52)" style="fill: #7d96b0"/>
   </g>
   <g id="patch_125">
    <path d="M 804.366769 239.08628 
L 809.735893 239.08628 
L 809.735893 238.401973 
L 804.366769 238.401973 
z
" clip-path="url(#p985588cc52)" style="fill: #7d96b0"/>
   </g>
   <g id="patch_126">
    <path d="M 809.735893 239.08628 
L 815.105017 239.08628 
L 815.105017 239.08628 
L 809.735893 239.08628 
z
" clip-path="url(#p985588cc52)" style="fill: #7d96b0"/>
   </g>
   <g id="patch_127">
    <path d="M 815.105017 239.08628 
L 820.474141 239.08628 
L 820.474141 237.717665 
L 815.105017 237.717665 
z
" clip-path="url(#p985588cc52)" style="fill: #7d96b0"/>
   </g>
   <g id="patch_128">
    <path d="M 820.474141 239.08628 
L 825.843265 239.08628 
L 825.843265 237.375512 
L 820.474141 237.375512 
z
" clip-path="url(#p985588cc52)" style="fill: #7d96b0"/>
   </g>
   <g id="matplotlib.axis_5">
    <g id="xtick_11">
     <g id="line2d_21">
      <g>
       <use xlink:href="#mdcda4c1bf3" x="601.316269" y="239.08628" style="stroke: #000000; stroke-width: 0.8"/>
      </g>
     </g>
     <g id="text_17">
      <!-- −0.6 -->
      <g transform="translate(586.746581 255.204405) scale(0.12 -0.12)">
       <use xlink:href="#DejaVuSans-2212"/>
       <use xlink:href="#DejaVuSans-30" x="83.789062"/>
       <use xlink:href="#DejaVuSans-2e" x="147.412109"/>
       <use xlink:href="#DejaVuSans-36" x="179.199219"/>
      </g>
     </g>
    </g>
    <g id="xtick_12">
     <g id="line2d_22">
      <g>
       <use xlink:href="#mdcda4c1bf3" x="659.888528" y="239.08628" style="stroke: #000000; stroke-width: 0.8"/>
      </g>
     </g>
     <g id="text_18">
      <!-- −0.3 -->
      <g transform="translate(645.318841 255.204405) scale(0.12 -0.12)">
       <use xlink:href="#DejaVuSans-2212"/>
       <use xlink:href="#DejaVuSans-30" x="83.789062"/>
       <use xlink:href="#DejaVuSans-2e" x="147.412109"/>
       <use xlink:href="#DejaVuSans-33" x="179.199219"/>
      </g>
     </g>
    </g>
    <g id="xtick_13">
     <g id="line2d_23">
      <g>
       <use xlink:href="#mdcda4c1bf3" x="718.460788" y="239.08628" style="stroke: #000000; stroke-width: 0.8"/>
      </g>
     </g>
     <g id="text_19">
      <!-- 0.0 -->
      <g transform="translate(708.918913 255.204405) scale(0.12 -0.12)">
       <use xlink:href="#DejaVuSans-30"/>
       <use xlink:href="#DejaVuSans-2e" x="63.623047"/>
       <use xlink:href="#DejaVuSans-30" x="95.410156"/>
      </g>
     </g>
    </g>
    <g id="xtick_14">
     <g id="line2d_24">
      <g>
       <use xlink:href="#mdcda4c1bf3" x="777.033048" y="239.08628" style="stroke: #000000; stroke-width: 0.8"/>
      </g>
     </g>
     <g id="text_20">
      <!-- 0.3 -->
      <g transform="translate(767.491173 255.204405) scale(0.12 -0.12)">
       <use xlink:href="#DejaVuSans-30"/>
       <use xlink:href="#DejaVuSans-2e" x="63.623047"/>
       <use xlink:href="#DejaVuSans-33" x="95.410156"/>
      </g>
     </g>
    </g>
    <g id="xtick_15">
     <g id="line2d_25">
      <g>
       <use xlink:href="#mdcda4c1bf3" x="835.605308" y="239.08628" style="stroke: #000000; stroke-width: 0.8"/>
      </g>
     </g>
     <g id="text_21">
      <!-- 0.6 -->
      <g transform="translate(826.063433 255.204405) scale(0.12 -0.12)">
       <use xlink:href="#DejaVuSans-30"/>
       <use xlink:href="#DejaVuSans-2e" x="63.623047"/>
       <use xlink:href="#DejaVuSans-36" x="95.410156"/>
      </g>
     </g>
    </g>
   </g>
   <g id="matplotlib.axis_6">
    <g id="ytick_9">
     <g id="line2d_26">
      <g>
       <use xlink:href="#md7fabc2c41" x="589.601817" y="239.08628" style="stroke: #000000; stroke-width: 0.8"/>
      </g>
     </g>
    </g>
    <g id="ytick_10">
     <g id="line2d_27">
      <g>
       <use xlink:href="#md7fabc2c41" x="589.601817" y="170.655544" style="stroke: #000000; stroke-width: 0.8"/>
      </g>
     </g>
    </g>
    <g id="ytick_11">
     <g id="line2d_28">
      <g>
       <use xlink:href="#md7fabc2c41" x="589.601817" y="102.224808" style="stroke: #000000; stroke-width: 0.8"/>
      </g>
     </g>
    </g>
    <g id="ytick_12">
     <g id="line2d_29">
      <g>
       <use xlink:href="#md7fabc2c41" x="589.601817" y="33.794071" style="stroke: #000000; stroke-width: 0.8"/>
      </g>
     </g>
    </g>
   </g>
   <g id="line2d_30">
    <path d="M 718.460788 239.08628 
L 718.460788 33.794071 
" clip-path="url(#p985588cc52)" style="fill: none; stroke-dasharray: 3.7,1.6; stroke-dashoffset: 0; stroke: #1d1d1d"/>
   </g>
   <g id="patch_129">
    <path d="M 589.601817 239.08628 
L 589.601817 33.794071 
" style="fill: none; stroke: #000000; stroke-width: 0.8; stroke-linejoin: miter; stroke-linecap: square"/>
   </g>
   <g id="patch_130">
    <path d="M 601.316269 239.08628 
L 835.605308 239.08628 
" style="fill: none; stroke: #000000; stroke-width: 0.8; stroke-linejoin: miter; stroke-linecap: square"/>
   </g>
   <g id="text_22">
    <!-- counterclockw. -->
    <g transform="translate(589.601817 16.608844) scale(0.14 -0.14)">
     <defs>
      <path id="DejaVuSans-75" d="M 544 1381 
L 544 3500 
L 1119 3500 
L 1119 1403 
Q 1119 906 1312 657 
Q 1506 409 1894 409 
Q 2359 409 2629 706 
Q 2900 1003 2900 1516 
L 2900 3500 
L 3475 3500 
L 3475 0 
L 2900 0 
L 2900 538 
Q 2691 219 2414 64 
Q 2138 -91 1772 -91 
Q 1169 -91 856 284 
Q 544 659 544 1381 
z
M 1991 3584 
L 1991 3584 
z
" transform="scale(0.015625)"/>
      <path id="DejaVuSans-65" d="M 3597 1894 
L 3597 1613 
L 953 1613 
Q 991 1019 1311 708 
Q 1631 397 2203 397 
Q 2534 397 2845 478 
Q 3156 559 3463 722 
L 3463 178 
Q 3153 47 2828 -22 
Q 2503 -91 2169 -91 
Q 1331 -91 842 396 
Q 353 884 353 1716 
Q 353 2575 817 3079 
Q 1281 3584 2069 3584 
Q 2775 3584 3186 3129 
Q 3597 2675 3597 1894 
z
M 3022 2063 
Q 3016 2534 2758 2815 
Q 2500 3097 2075 3097 
Q 1594 3097 1305 2825 
Q 1016 2553 972 2059 
L 3022 2063 
z
" transform="scale(0.015625)"/>
      <path id="DejaVuSans-72" d="M 2631 2963 
Q 2534 3019 2420 3045 
Q 2306 3072 2169 3072 
Q 1681 3072 1420 2755 
Q 1159 2438 1159 1844 
L 1159 0 
L 581 0 
L 581 3500 
L 1159 3500 
L 1159 2956 
Q 1341 3275 1631 3429 
Q 1922 3584 2338 3584 
Q 2397 3584 2469 3576 
Q 2541 3569 2628 3553 
L 2631 2963 
z
" transform="scale(0.015625)"/>
     </defs>
     <use xlink:href="#DejaVuSans-63"/>
     <use xlink:href="#DejaVuSans-6f" x="54.980469"/>
     <use xlink:href="#DejaVuSans-75" x="116.162109"/>
     <use xlink:href="#DejaVuSans-6e" x="179.541016"/>
     <use xlink:href="#DejaVuSans-74" x="242.919922"/>
     <use xlink:href="#DejaVuSans-65" x="282.128906"/>
     <use xlink:href="#DejaVuSans-72" x="343.652344"/>
     <use xlink:href="#DejaVuSans-63" x="382.515625"/>
     <use xlink:href="#DejaVuSans-6c" x="437.496094"/>
     <use xlink:href="#DejaVuSans-6f" x="465.279297"/>
     <use xlink:href="#DejaVuSans-63" x="526.460938"/>
     <use xlink:href="#DejaVuSans-6b" x="581.441406"/>
     <use xlink:href="#DejaVuSans-77" x="639.351562"/>
     <use xlink:href="#DejaVuSans-2e" x="712.013672"/>
    </g>
   </g>
  </g>
  <g id="text_23">
   <!-- Pearson r -->
   <g transform="translate(385.668188 276.465885) scale(0.168 -0.168)">
    <defs>
     <path id="DejaVuSans-50" d="M 1259 4147 
L 1259 2394 
L 2053 2394 
Q 2494 2394 2734 2622 
Q 2975 2850 2975 3272 
Q 2975 3691 2734 3919 
Q 2494 4147 2053 4147 
L 1259 4147 
z
M 628 4666 
L 2053 4666 
Q 2838 4666 3239 4311 
Q 3641 3956 3641 3272 
Q 3641 2581 3239 2228 
Q 2838 1875 2053 1875 
L 1259 1875 
L 1259 0 
L 628 0 
L 628 4666 
z
" transform="scale(0.015625)"/>
     <path id="DejaVuSans-61" d="M 2194 1759 
Q 1497 1759 1228 1600 
Q 959 1441 959 1056 
Q 959 750 1161 570 
Q 1363 391 1709 391 
Q 2188 391 2477 730 
Q 2766 1069 2766 1631 
L 2766 1759 
L 2194 1759 
z
M 3341 1997 
L 3341 0 
L 2766 0 
L 2766 531 
Q 2569 213 2275 61 
Q 1981 -91 1556 -91 
Q 1019 -91 701 211 
Q 384 513 384 1019 
Q 384 1609 779 1909 
Q 1175 2209 1959 2209 
L 2766 2209 
L 2766 2266 
Q 2766 2663 2505 2880 
Q 2244 3097 1772 3097 
Q 1472 3097 1187 3025 
Q 903 2953 641 2809 
L 641 3341 
Q 956 3463 1253 3523 
Q 1550 3584 1831 3584 
Q 2591 3584 2966 3190 
Q 3341 2797 3341 1997 
z
" transform="scale(0.015625)"/>
     <path id="DejaVuSans-73" d="M 2834 3397 
L 2834 2853 
Q 2591 2978 2328 3040 
Q 2066 3103 1784 3103 
Q 1356 3103 1142 2972 
Q 928 2841 928 2578 
Q 928 2378 1081 2264 
Q 1234 2150 1697 2047 
L 1894 2003 
Q 2506 1872 2764 1633 
Q 3022 1394 3022 966 
Q 3022 478 2636 193 
Q 2250 -91 1575 -91 
Q 1294 -91 989 -36 
Q 684 19 347 128 
L 347 722 
Q 666 556 975 473 
Q 1284 391 1588 391 
Q 1994 391 2212 530 
Q 2431 669 2431 922 
Q 2431 1156 2273 1281 
Q 2116 1406 1581 1522 
L 1381 1569 
Q 847 1681 609 1914 
Q 372 2147 372 2553 
Q 372 3047 722 3315 
Q 1072 3584 1716 3584 
Q 2034 3584 2315 3537 
Q 2597 3491 2834 3397 
z
" transform="scale(0.015625)"/>
     <path id="DejaVuSans-20" transform="scale(0.015625)"/>
    </defs>
    <use xlink:href="#DejaVuSans-50"/>
    <use xlink:href="#DejaVuSans-65" x="56.677734"/>
    <use xlink:href="#DejaVuSans-61" x="118.201172"/>
    <use xlink:href="#DejaVuSans-72" x="179.480469"/>
    <use xlink:href="#DejaVuSans-73" x="220.59375"/>
    <use xlink:href="#DejaVuSans-6f" x="272.693359"/>
    <use xlink:href="#DejaVuSans-6e" x="333.875"/>
    <use xlink:href="#DejaVuSans-20" x="397.253906"/>
    <use xlink:href="#DejaVuSans-72" x="429.041016"/>
   </g>
  </g>
  <g id="text_24">
   <!-- Count -->
   <g transform="translate(15.765615 166.425375) rotate(-90) scale(0.168 -0.168)">
    <defs>
     <path id="DejaVuSans-43" d="M 4122 4306 
L 4122 3641 
Q 3803 3938 3442 4084 
Q 3081 4231 2675 4231 
Q 1875 4231 1450 3742 
Q 1025 3253 1025 2328 
Q 1025 1406 1450 917 
Q 1875 428 2675 428 
Q 3081 428 3442 575 
Q 3803 722 4122 1019 
L 4122 359 
Q 3791 134 3420 21 
Q 3050 -91 2638 -91 
Q 1578 -91 968 557 
Q 359 1206 359 2328 
Q 359 3453 968 4101 
Q 1578 4750 2638 4750 
Q 3056 4750 3426 4639 
Q 3797 4528 4122 4306 
z
" transform="scale(0.015625)"/>
    </defs>
    <use xlink:href="#DejaVuSans-43"/>
    <use xlink:href="#DejaVuSans-6f" x="69.824219"/>
    <use xlink:href="#DejaVuSans-75" x="131.005859"/>
    <use xlink:href="#DejaVuSans-6e" x="194.384766"/>
    <use xlink:href="#DejaVuSans-74" x="257.763672"/>
   </g>
  </g>
 </g>
 <defs>
  <clipPath id="p6535adabba">
   <rect x="55.16497" y="3.00024" width="257.717943" height="236.08604"/>
  </clipPath>
  <clipPath id="p0d603abf27">
   <rect x="322.383393" y="3.00024" width="257.717943" height="236.08604"/>
  </clipPath>
  <clipPath id="p985588cc52">
   <rect x="589.601817" y="3.00024" width="257.717943" height="236.08604"/>
  </clipPath>
 </defs>
</svg>
