<?xml version="1.0" encoding="UTF-8" standalone="no"?>
<!-- Created with Inkscape (http://www.inkscape.org/) -->

<svg
   width="250.4747mm"
   height="89.608513mm"
   viewBox="0 0 250.4747 89.608513"
   version="1.1"
   id="svg7433"
   xml:space="preserve"
   inkscape:version="1.2.2 (b0a8486541, 2022-12-01)"
   sodipodi:docname="drawing.svg"
   xmlns:inkscape="http://www.inkscape.org/namespaces/inkscape"
   xmlns:sodipodi="http://sodipodi.sourceforge.net/DTD/sodipodi-0.dtd"
   xmlns="http://www.w3.org/2000/svg"
   xmlns:svg="http://www.w3.org/2000/svg"><sodipodi:namedview
     id="namedview7435"
     pagecolor="#ffffff"
     bordercolor="#666666"
     borderopacity="1.0"
     inkscape:showpageshadow="2"
     inkscape:pageopacity="0.0"
     inkscape:pagecheckerboard="0"
     inkscape:deskcolor="#d1d1d1"
     inkscape:document-units="mm"
     showgrid="false"
     showguides="true"
     inkscape:zoom="0.87201255"
     inkscape:cx="413.41148"
     inkscape:cy="240.24884"
     inkscape:window-width="1916"
     inkscape:window-height="1056"
     inkscape:window-x="1920"
     inkscape:window-y="348"
     inkscape:window-maximized="1"
     inkscape:current-layer="g9087"><sodipodi:guide
       position="208.8603,-2.3142818"
       orientation="1,0"
       id="guide7649"
       inkscape:locked="false" /><sodipodi:guide
       position="0.10948392,25.296654"
       orientation="1,0"
       id="guide7912"
       inkscape:locked="false" /><sodipodi:guide
       position="15.88933,-2.2555548"
       orientation="1,0"
       id="guide7914"
       inkscape:locked="false" /><sodipodi:guide
       position="150.60425,26.206904"
       orientation="1,0"
       id="guide8708"
       inkscape:locked="false" /></sodipodi:namedview><defs
     id="defs7430" /><g
     inkscape:label="Layer 1"
     inkscape:groupmode="layer"
     id="layer1"
     transform="translate(-26.591202,-18.520953)"><g
       id="g7918"
       transform="matrix(0.79675924,0,0,0.67982227,4.3787571,-32.06611)"><path
         id="rect7878"
         style="display:inline;opacity:0.308998;fill:#c08b1e;fill-opacity:1;stroke-width:0.352777;stop-color:#000000"
         d="M 33.772575,97.024812 238.39465,82.113716 289.36869,108.92666 238.39465,138.40134 33.772575,123.49024 c -7.873165,0 -7.84438,-26.465428 0,-26.465428 z"
         sodipodi:nodetypes="cccccc" /><path
         id="path8528"
         style="display:inline;opacity:0.308998;fill:#7b85b8;fill-opacity:1;stroke-width:0.387727;stop-color:#000000"
         d="m 172.6466,74.412188 100.05903,0.129759 69.53973,34.026643 -69.53973,37.4045 -100.09785,-0.14654"
         sodipodi:nodetypes="ccccc" /><g
         id="g8599"
         transform="matrix(0.69594721,0,0,0.64269194,307.07676,171.69902)"
         inkscape:label="g8599"><g
           id="g7816"
           transform="matrix(0,1.2355793,-1,0,57.490769,-190.91403)"
           style="display:inline;fill:#797979;fill-opacity:1"><path
             d="m 73.346247,20.499869 c -0.99545,0.395625 -3.64696,5.29152 -3.72724,10.435526 -0.0363,2.356447 0.25709,3.400268 0.63133,4.0835 0.39297,0.722132 0.53163,0.660804 1.52677,1.488007 0.38176,0.31856 -1.55753,0.338169 -2.01469,2.216752 -0.51329,2.110951 0.34728,3.305558 0.61607,3.599948 0.61756,1.420996 0.64738,0.07926 0.60235,-0.335174 -0.0207,-1.110024 -0.42101,-1.811254 -0.17436,-2.897097 0.31176,-0.807836 1.10849,-1.907291 1.5834,-1.777565 0.49132,0.145421 -0.50141,2.024801 -0.58092,3.137146 -0.0774,1.079373 -0.33087,3.077842 0.80211,4.909336 0.29011,1.0811 0.69337,6.27171 0.66963,19.95982 -0.0237,13.68811 1.34514,29.02576 2.05735,29.04798 1.06952,0.0334 1.41973,-18.80199 1.68376,-30.77263 0.26403,-11.97064 0.4075,-17.07427 0.87076,-18.31439 0.50148,-1.12316 1.04154,-2.720823 1.05887,-3.839647 0.217,-2.204912 -0.65516,-3.687537 -0.22512,-3.97049 0.74073,-0.485159 1.09457,0.752837 1.14272,1.803057 0.0477,1.050595 -0.36935,1.746908 -0.33771,2.374417 0.0252,0.531409 -0.0835,1.290982 0.31326,0.90458 0.39711,-0.386083 0.85256,-1.568894 0.8709,-2.039098 0.0169,-0.471535 0.16352,-1.519026 -0.16337,-2.472672 -0.32585,-0.953702 -0.81447,-1.358602 -0.43235,-1.586634 0.3822,-0.226624 0.84903,-0.449766 1.08647,-0.925295 0.23606,-0.475093 1.10953,-2.936888 0.84043,-3.616362 -0.42279,-1.065674 -0.0329,-1.378217 -0.0666,-1.843092 -0.20979,-2.860168 -2.54002,-8.15052 -3.57509,-9.177263 -1.03329,-1.02649 -1.57342,-0.581323 -2.54388,-0.361253 -0.97038,0.221829 -1.72103,-0.329077 -2.51482,-0.03144 z"
             style="fill:#797979;fill-opacity:1;fill-rule:nonzero;stroke:none;stroke-width:0.352778"
             id="path4678"
             sodipodi:nodetypes="scccccccccczszccccccccccccccss" /><path
             d="m 73.907447,26.168981 c -0.46035,2.174113 -1.70632,3.836336 -3.24962,3.681222 -1.54323,-0.154066 -2.51123,-2.075895 -2.20273,-4.248737 0.30843,-2.1739 1.69627,-3.768302 3.23916,-3.614217 1.54324,0.154056 2.66904,2.028358 2.21319,4.181732 z"
             style="fill:#797979;fill-opacity:1;fill-rule:nonzero;stroke:none;stroke-width:0.352778"
             id="path4680" /><path
             d="m 68.916837,25.465875 c -0.0232,0.234454 0.0543,0.878876 0.42108,1.06011 -0.0397,0.376335 0.1252,1.345599 -0.15346,1.399765 -0.27871,0.05237 -0.50336,-0.596289 -0.51945,-0.811991 -0.0159,-0.215705 -0.28545,-0.925537 0.055,-2.266318 0.179,-0.709736 0.71014,-1.794602 1.02123,-1.682026 0.31151,0.113965 -0.24871,1.273909 -0.35545,1.465973 -0.4149,0.210394 -0.44586,0.598617 -0.46894,0.834487 z"
             style="fill:#797979;fill-opacity:1;fill-rule:nonzero;stroke:none;stroke-width:0.352778"
             id="path4682" /><path
             d="m 82.859447,24.448769 c 0.7147,2.057276 -0.0102,4.310587 -1.48995,4.810194 -1.48092,0.497897 -3.01308,-0.335479 -3.72918,-2.392688 -0.71468,-2.056927 -0.1689,-4.252338 1.31232,-4.750612 1.47943,-0.499588 3.1907,0.275907 3.90681,2.333106 z"
             style="fill:#797979;fill-opacity:1;fill-rule:nonzero;stroke:none;stroke-width:0.352778"
             id="path4684" /><path
             d="m 82.601757,25.411212 c -0.0333,-0.232773 -0.0235,-0.781298 -0.42627,-0.877881 -0.0509,-0.374182 -0.71506,-1.080005 -0.38857,-1.31734 0.2269,-0.165805 0.63451,0.468963 0.70094,0.674819 0.0677,0.204734 0.50122,0.833844 0.48821,2.205042 -0.007,0.724667 -0.27012,1.887377 -0.60243,1.84522 -0.33197,-0.04255 -0.0764,-1.318243 -0.0174,-1.525692 0.35491,-0.292606 0.27907,-0.772829 0.24551,-1.004167 z"
             style="fill:#797979;fill-opacity:1;fill-rule:nonzero;stroke:none;stroke-width:0.352778"
             id="path4686" /></g><rect
           style="opacity:0.308998;fill:#7b85b8;fill-opacity:1;stroke-width:0.3227;-inkscape-stroke:none;stop-color:#000000"
           id="rect8584"
           width="85.750015"
           height="36.772839"
           x="-41.307152"
           y="-116.0645" /></g></g><g
       id="g9087"
       transform="matrix(1,0,0,0.73451187,0,33.733467)"><path
         id="rect8706"
         style="opacity:0.308998;fill:#c08b1e;stroke-width:0.367817;stop-color:#000000;fill-opacity:1"
         d="M 26.591202,62.613104 177.19546,49.566182 235.45152,95.875908 26.591202,81.311897 Z"
         sodipodi:nodetypes="ccccc" /><path
         id="rect8711"
         style="opacity:0.308998;fill:#7b85b8;fill-opacity:1;stroke-width:0.352777;stop-color:#000000"
         d="m 149.87124,64.104352 c 9.84476,-14.751727 26.91642,-10.740156 26.91642,-10.740156 15.55317,-4.167457 35.70151,27.824761 49.83109,27.824761 9.9421,0 50.44716,0.07925 50.44716,0.07925 l -10e-6,20.018103 -135.13295,0 c 0,0 -1.18001,-23.518782 7.93829,-37.181958 z"
         sodipodi:nodetypes="scscccs" /><g
         id="g8935"
         transform="matrix(0.56233902,0,0,0.60544057,250.86699,184.0013)"><g
           id="g8931"
           transform="matrix(0.05192775,1.2593667,-0.99864345,0.0658436,53.453595,-281.87333)"
           style="display:inline;fill:#686868;fill-opacity:1"><g
             id="g9075"
             transform="matrix(1,0,0,-1,37.208765,115.73507)"><path
               style="fill:#797979;fill-opacity:1;stroke:none;stroke-width:0.477155px;stroke-linecap:butt;stroke-linejoin:miter;stroke-opacity:1"
               d="m 34.843043,91.070959 c 0.14562,1.349311 0.386922,4.159394 2.128061,5.707074 1.741139,1.54768 2.03133,2.32152 4.062661,2.22479 2.031331,-0.09673 3.579011,0.48365 4.643039,-1.45095 1.064028,-1.9346 1.547682,-0.773837 0.967302,-4.15939 -0.58038,-3.385553 -0.38692,-5.029965 -0.77384,-5.900536 -0.38692,-0.870571 -0.38692,-1.064026 -0.38692,-2.514977 0,-1.450951 0.483647,-1.25749 -0.193462,-3.579012 -0.677109,-2.321522 -0.77384,-2.128062 -1.54768,-3.482284 -0.77384,-1.354222 -1.83787,-2.514981 -1.934599,-4.449581 -0.09673,-1.9346 0,-2.514981 0,-5.416882 0,-2.901901 -0.77384,-6.287454 -0.77384,-7.641674 0,-1.35422 -0.580382,-3.675738 -0.967302,-5.707069 -0.38692,-2.031331 -0.483647,-5.997262 -0.580377,-7.641673 -0.09673,-1.644411 -0.290193,-3.385553 -0.386925,-5.803803 -0.09673,-2.41825 -0.290188,-2.321522 -0.38692,-5.416883 -0.09673,-3.095361 -0.193457,-1.45094 -0.580377,-4.8365 -0.38692,-3.38556 0.102517,-4.829701 -1.064031,-5.223426 -1.166548,-0.393725 -1.547679,-1.160775 -1.547679,1.354213 0,2.514988 0.09673,3.288829 0.09673,5.22343 0,1.934602 -0.77384,4.739771 -0.677111,6.577642 0.09673,1.837871 3e-6,2.418252 0.193463,5.029963 0.19346,2.611711 0.386918,6.093994 0.290186,7.254754 -0.09673,1.16076 -0.677106,4.352852 -0.677106,5.803802 0,1.45095 -0.09673,2.418251 0,4.836501 0.09673,2.418251 0,3.869203 0,6.093994 0,2.224791 0,2.514982 -0.09673,4.062661 -0.09673,1.54768 3e-6,2.224792 -0.193457,4.643043 -0.19346,2.418251 -0.386922,4.352851 -0.193462,5.22342 0.19346,0.870569 0.483653,2.031333 0.483653,3.579013 0,1.54768 0.403032,2.63718 0.38692,3.579012 -0.01611,0.941832 -0.435817,0.682017 -0.290197,2.031328 z"
               id="path9003"
               sodipodi:nodetypes="zzzzzzzzzzzzzzzzzzzzzzzzzzzzzzzz" /><path
               id="path9068"
               style="fill:#797979;fill-opacity:1;stroke:none;stroke-width:0.477155px;stroke-linecap:butt;stroke-linejoin:miter;stroke-opacity:1;opacity:0.51273345"
               d="m 31.212198,54.385779 c 0,0.87057 0.09692,3.579485 0.09692,4.933703 0,1.354218 0.290219,4.932501 0.483679,6.673641 0.19346,1.74114 0.586406,2.259743 0.773512,3.288825 0.187106,1.029082 0.64993,2.766453 0.937534,3.206814 0.287604,0.440361 -0.044,-0.194811 -0.0671,0.08201 -0.0231,0.276821 0.453032,0.806256 0.774444,1.355044 0.321412,0.548788 0.813608,1.191246 1.160269,1.933781 0.346661,0.742535 0.580245,1.741473 0.870434,2.515313 0.290189,0.77384 1.063922,2.51537 1.354113,3.482669 0.290191,0.967299 0.677743,1.643973 1.258122,2.127624 0.580379,0.483651 2.32169,1.451035 2.902069,1.451035 0.580379,0 1.740896,-0.967605 2.224547,-2.031635 0.483651,-1.06403 0.192912,-1.257276 0.192912,-2.708225 0,-1.450949 -0.09657,-1.064172 -0.386756,-2.41839 -0.290188,-1.354218 0.193844,-3.336836 0.193844,-3.57866 0,-0.902742 0,-1.805483 0,-2.708225 0,-0.435284 1.91e-4,-1.547935 0.09692,-4.353103 0.09673,-2.805168 -1.91e-4,-1.063595 -0.09692,-2.127625 -0.09673,-1.06403 -0.09676,-1.161451 -0.483679,-2.225478 -0.386922,-1.064029 -0.96774,-1.401929 -1.1612,-1.547025 -0.19346,-0.145096 -1.098423,0.669123 -1.404417,0.615202 -0.305994,-0.05392 0.0021,-0.201529 -0.239529,-0.228446 -0.241629,-0.02692 -0.520747,0.903413 -0.967357,0.579668 -0.44661,-0.323745 0.19349,-1.643975 0.483678,-2.127624 0.290188,-0.483649 0.580628,-0.290602 1.064279,-0.677522 0.483651,-0.38692 0.773893,-1.063213 0.967356,-1.933781 0.193463,-0.870568 0.880536,-0.871237 1.160268,-1.838723 0.279732,-0.967486 0.08774,-2.430538 0,-3.868493 -0.08774,-1.437955 -0.38714,-2.90199 -0.5806,-4.739859 -0.19346,-1.837869 -0.193487,-0.967278 -0.483678,-2.805147 -0.290191,-1.837869 -0.193296,-2.418504 -0.386756,-4.353104 -0.19346,-1.9346 -0.19346,-2.998909 0,-4.836781 0.19346,-1.837872 0.193844,-2.804719 0.193844,-4.932772 0,-2.128053 -0.09695,-1.354025 -0.5806,-3.191903 -0.48365,-1.837878 -0.289863,-1.548419 -0.773512,-3.192835 -0.483648,-1.644416 -0.193874,-1.257236 -0.677523,-2.224547 -0.483649,-0.967311 -0.967604,-1.451104 -2.031634,-2.418391 -1.06403,-0.967287 -1.450158,-0.773512 -2.417459,-0.773512 -0.967301,0 -1.838203,0.48406 -2.515313,0.677522 -0.67711,0.193462 -1.354305,2.515046 -1.451034,4.256182 -0.09673,1.741136 0.774087,4.932688 1.064278,6.770562 0.290191,1.837874 0,2.127903 0,3.675581 0,1.547678 -0.290411,2.515044 -0.5806,4.256182 -0.290189,1.741138 -0.290409,3.579482 -0.5806,4.933703 -0.290191,1.354221 -0.09618,3.772011 -0.192913,4.932772 -0.09673,1.160761 -0.193844,5.223402 -0.193844,6.093972 0,0.870569 2e-6,-0.870569 2e-6,10e-7 z"
               sodipodi:nodetypes="ssssssssssssssssssssssssssssssssssssssssssssssss" /></g></g><rect
           style="display:inline;opacity:0.308998;fill:#7b85b8;fill-opacity:1;stroke-width:0.273197;-inkscape-stroke:none;stop-color:#000000"
           id="rect8933"
           width="85.750015"
           height="26.356075"
           x="-42.661373"
           y="-196.14244" /></g><path
         id="path9149"
         style="opacity:0.308998;fill:#6b4e11;stroke-width:0.367817;stop-color:#000000;fill-opacity:1"
         d="M 26.591202,62.613104 177.19546,49.566182 235.45152,95.875908 26.591202,81.311897 Z"
         sodipodi:nodetypes="ccccc" /></g><path
       id="path7910"
       style="display:inline;opacity:0.308998;fill:#7b5913;fill-opacity:1;stroke-width:0.352777;stop-color:#000000"
       d="M 33.772575,97.024812 238.39465,82.113716 c -29.34658,0 -28.99771,56.287624 0,56.287624 L 33.772575,123.49024 c 8.501206,0 8.940415,-26.465428 0,-26.465428 z"
       sodipodi:nodetypes="ccccc"
       transform="matrix(0.79675924,0,0,0.67982227,4.378756,-32.06611)" /></g></svg>
