<?xml version="1.0" encoding="UTF-8" standalone="no"?>
<!-- Created with Inkscape (http://www.inkscape.org/) -->

<svg
   width="210mm"
   height="297mm"
   viewBox="0 0 210 297"
   version="1.1"
   id="svg5"
   xml:space="preserve"
   inkscape:version="1.2.1 (9c6d41e410, 2022-07-14, custom)"
   sodipodi:docname="bims.svg"
   xmlns:inkscape="http://www.inkscape.org/namespaces/inkscape"
   xmlns:sodipodi="http://sodipodi.sourceforge.net/DTD/sodipodi-0.dtd"
   xmlns:xlink="http://www.w3.org/1999/xlink"
   xmlns="http://www.w3.org/2000/svg"
   xmlns:svg="http://www.w3.org/2000/svg"><sodipodi:namedview
     id="namedview7"
     pagecolor="#ffffff"
     bordercolor="#666666"
     borderopacity="1.0"
     inkscape:showpageshadow="2"
     inkscape:pageopacity="0.0"
     inkscape:pagecheckerboard="0"
     inkscape:deskcolor="#d1d1d1"
     inkscape:document-units="mm"
     showgrid="false"
     inkscape:zoom="0.77949635"
     inkscape:cx="299.5524"
     inkscape:cy="178.96171"
     inkscape:window-width="1920"
     inkscape:window-height="1058"
     inkscape:window-x="0"
     inkscape:window-y="0"
     inkscape:window-maximized="1"
     inkscape:current-layer="g20344" /><defs
     id="defs2"><marker
       style="overflow:visible"
       id="marker7933"
       refX="0"
       refY="0"
       orient="auto-start-reverse"
       inkscape:stockid="Arrow2"
       markerWidth="7.6999998"
       markerHeight="5.5999999"
       viewBox="0 0 7.7 5.6"
       inkscape:isstock="true"
       inkscape:collect="always"
       preserveAspectRatio="xMidYMid"><path
         transform="scale(0.7)"
         d="M -2,-4 9,0 -2,4 c 2,-2.33 2,-5.66 0,-8 z"
         style="fill:context-stroke;fill-rule:evenodd;stroke:none"
         id="path7931" /></marker><linearGradient
       inkscape:collect="always"
       id="linearGradient3061"><stop
         style="stop-color:#000000;stop-opacity:1;"
         offset="0"
         id="stop3057" /><stop
         style="stop-color:#ffffff;stop-opacity:1;"
         offset="1"
         id="stop3059" /></linearGradient><inkscape:path-effect
       effect="skeletal"
       id="path-effect2714"
       is_visible="true"
       lpeversion="1"
       pattern="m 40.172531,145.35757 h 39.781708 v 8.34011 H 40.172531 Z"
       copytype="repeated_stretched"
       prop_scale="0.6"
       scale_y_rel="false"
       spacing="0"
       normal_offset="0"
       tang_offset="0"
       prop_units="false"
       vertical_pattern="false"
       hide_knot="false"
       fuse_tolerance="0" /><marker
       style="overflow:visible"
       id="Arrow2"
       refX="0"
       refY="0"
       orient="auto-start-reverse"
       inkscape:stockid="Arrow2"
       markerWidth="7.6999998"
       markerHeight="5.5999999"
       viewBox="0 0 7.7 5.6"
       inkscape:isstock="true"
       inkscape:collect="always"
       preserveAspectRatio="xMidYMid"><path
         transform="scale(0.7)"
         d="M -2,-4 9,0 -2,4 c 2,-2.33 2,-5.66 0,-8 z"
         style="fill:context-stroke;fill-rule:evenodd;stroke:none"
         id="arrow2L" /></marker><marker
       style="overflow:visible"
       id="Arrow2-5"
       refX="0"
       refY="0"
       orient="auto-start-reverse"
       inkscape:stockid="Arrow2"
       markerWidth="7.6999998"
       markerHeight="5.5999999"
       viewBox="0 0 7.7 5.6"
       inkscape:isstock="true"
       inkscape:collect="always"
       preserveAspectRatio="xMidYMid"><path
         transform="scale(0.7)"
         d="M -2,-4 9,0 -2,4 c 2,-2.33 2,-5.66 0,-8 z"
         style="fill:context-stroke;fill-rule:evenodd;stroke:none"
         id="arrow2L-6" /></marker><mask
       maskUnits="userSpaceOnUse"
       id="mask7900"><rect
         style="opacity:1;fill:url(#linearGradient7904);fill-opacity:1;stroke:none;stroke-width:0.705556;stroke-dasharray:none;stroke-opacity:1"
         id="rect7902"
         width="121.4462"
         height="54.48278"
         x="18.240934"
         y="42.002144" /></mask><linearGradient
       inkscape:collect="always"
       xlink:href="#linearGradient3061"
       id="linearGradient7904"
       gradientUnits="userSpaceOnUse"
       gradientTransform="translate(-1.920098,-2.1601155)"
       x1="85.907913"
       y1="97.084953"
       x2="85.907913"
       y2="89.308624" /><clipPath
       clipPathUnits="userSpaceOnUse"
       id="clipPath20348"><path
         d="M 70.83,46.728 H 509.976 V 373.824 H 70.83 Z"
         id="path20346" /></clipPath></defs><g
     inkscape:label="Layer 1"
     inkscape:groupmode="layer"
     id="layer1"><g
       id="g8065"
       transform="translate(-19.681004,-40.322057)"><path
         style="fill:#b3b3b3;stroke:none;stroke-width:0.264583px;stroke-linecap:butt;stroke-linejoin:miter;stroke-opacity:1"
         d="M 80.868855,82.481141 C 79.180659,82.71221 73.170309,89.621429 71.025427,98.01 c -0.982698,3.8433 -0.94109,5.67489 -0.634818,6.95113 0.323148,1.34656 0.558951,1.30487 1.766197,3.07613 0.463192,0.67959 -2.53152,-0.099 -3.974092,2.78617 -1.620972,3.24194 -0.763714,5.55814 -0.466714,6.15214 0.392418,2.58554 0.966667,0.39973 1.060714,-0.29703 0.403072,-1.82443 0.06364,-3.13971 0.869787,-4.81565 0.798104,-1.19179 2.457486,-2.65939 3.138204,-2.2487 0.698565,0.44399 -1.56786,3.10604 -2.128707,4.89322 -0.544291,1.73443 -1.718498,4.90278 -0.694299,8.37475 0.02007,1.89207 -1.821414,6.94924 -1.948699,8.73124 4.102947,0 5.667851,-0.0103 8.358428,-0.0103 0.786791,-3.24016 0.553115,-4.80531 1.755014,-6.64158 1.213738,-1.62986 2.673001,-4.02042 3.139713,-5.84485 1.201751,-3.5195 0.440896,-6.31426 1.214986,-6.59613 1.33117,-0.48473 1.389849,1.68942 1.05042,3.42899 -0.339429,1.73957 -1.253959,2.70726 -1.454116,3.74827 -0.168996,0.87894 -0.636429,2.07901 0.127285,1.61229 0.763715,-0.46671 1.931126,-2.21312 2.143269,-2.97683 0.212143,-0.76372 0.848571,-2.41843 0.721286,-4.11558 -0.127286,-1.69714 -0.721287,-2.56692 -0.04243,-2.77907 0.678857,-0.21214 1.485,-0.38182 2.036572,-1.06072 0.551571,-0.67885 2.865058,-4.34544 2.717561,-5.56994 -0.23171,-1.92362 0.490369,-2.27269 0.620621,-3.04633 0.803227,-4.770756 -0.706074,-14.408403 -1.89561,-16.522691 -1.189536,-2.114288 -2.194863,-1.610965 -3.776144,-1.654715 -1.581281,-0.04375 -2.522001,-1.260139 -3.861,-1.103073 z"
         id="path417"
         sodipodi:nodetypes="cssssccccccccccssssssscsszzc" /><g
         id="g1248"><path
           id="path515"
           style="opacity:1;fill:#000000;fill-opacity:1;stroke:none;stroke-width:0.705556"
           transform="rotate(21.195809)"
           d="m 107.38827,57.030093 c -0.24058,3.703962 -1.84444,6.686713 -4.3283,6.686712 -2.48386,-3e-6 -4.453425,-3.04493 -4.453425,-6.723855 0,-3.678924 1.843225,-6.572472 4.327085,-6.572474 2.48386,-2e-6 4.69309,2.938426 4.45464,6.609617 z"
           sodipodi:nodetypes="sssss" /><path
           style="fill:#ffffff;fill-opacity:1;stroke:none;stroke-width:0.264583px;stroke-linecap:butt;stroke-linejoin:miter;stroke-opacity:1"
           d="m 72.093676,88.759526 c -0.127506,0.375019 -0.262512,1.462575 0.232513,1.912599 -0.210011,0.60003 -0.337518,2.257616 -0.78754,2.227614 -0.450024,-0.03 -0.540027,-1.18506 -0.480025,-1.545079 0.06001,-0.360018 -0.075,-1.635084 0.97505,-3.690189 0.554909,-1.086037 1.800093,-2.640133 2.235115,-2.325118 0.435023,0.315016 -0.885047,1.980102 -1.125058,2.250114 -0.720036,0.17251 -0.922549,0.79504 -1.050055,1.170059 z"
           id="path1107"
           sodipodi:nodetypes="zcsssscz" /></g><g
         id="g1244"><path
           id="path515-3"
           style="opacity:1;fill:#000000;fill-opacity:1;stroke:none;stroke-width:0.705556"
           transform="rotate(-4.572962)"
           d="m 86.258683,100.11964 c 10e-7,3.67893 -2.266478,6.89645 -4.75034,6.89645 -2.483862,0 -4.350235,-2.16187 -4.350233,-5.8408 1e-6,-3.678929 1.968733,-6.898975 4.452593,-6.898975 2.483861,0 4.647979,2.164399 4.64798,5.843325 z"
           sodipodi:nodetypes="sssss" /><path
           style="fill:#ffffff;fill-opacity:1;stroke:none;stroke-width:0.264583px;stroke-linecap:butt;stroke-linejoin:miter;stroke-opacity:1"
           d="m 93.192768,94.391377 c 0.0396,-0.394117 0.270748,-1.289082 -0.313051,-1.615803 0.0692,-0.631944 -0.675614,-2.065541 -0.08042,-2.317864 0.41525,-0.176039 0.793493,1.032649 0.816272,1.396921 0.02277,0.364275 0.442002,1.575997 -0.117262,3.815033 -0.295548,1.183241 -1.157959,2.978211 -1.652841,2.769476 -0.494885,-0.208735 0.40044,-2.188735 0.573334,-2.505939 0.662543,-0.330528 0.734368,-1.147707 0.773968,-1.541824 z"
           id="path1107-6"
           sodipodi:nodetypes="zcsssscz" /></g></g><path
       id="path1302"
       style="opacity:1;fill:none;stroke:#000000;stroke-width:0.705556;stroke-dasharray:none;stroke-opacity:1;marker-end:url(#Arrow2)"
       d="m 77.472429,47.891383 c 1.760675,0.298438 3.998807,3.554564 2.719961,7.012849"
       sodipodi:nodetypes="cc" /><path
       id="path1302-2"
       style="fill:none;stroke:#000000;stroke-width:0.705556;stroke-dasharray:none;stroke-opacity:1;marker-end:url(#Arrow2-5)"
       d="m 46.232634,49.275032 c -1.283527,-1.24161 -1.288657,-5.192757 1.721412,-7.322226"
       sodipodi:nodetypes="cc" /><g
       id="g8018"
       transform="rotate(13.122453,126.74012,-416.8351)"><g
         id="g7430"
         transform="translate(89.629126,-30.194302)"
         mask="url(#mask7900)"><g
           id="g3016"
           style="fill:#000000"><path
             style="opacity:1;fill:#000000;fill-opacity:1;stroke:none;stroke-width:0.731912"
             d="m 94.081262,52.324168 c 6.776638,2.215098 13.038788,5.992739 18.106628,11.051331 1.68622,1.689296 3.2301,3.511297 4.62122,5.440822 l -4.05558,2.92352 c -1.2374,-1.716829 -2.60889,-3.333868 -4.10404,-4.825936 -4.47616,-4.485412 -10.077038,-7.857903 -16.122795,-9.835879 z"
             id="path3005" /><path
             style="opacity:1;fill:#000000;fill-opacity:1;stroke:none;stroke-width:0.731912"
             d="m 43.277672,68.816265 c 1.391112,-1.929505 2.934982,-3.751486 4.621179,-5.440767 5.067858,-5.058608 11.330035,-8.836257 18.106696,-11.051351 l 1.55456,4.75386 c -6.045779,1.977973 -11.646674,5.350471 -16.12285,9.835897 -1.495137,1.492054 -2.866617,3.109076 -4.104009,4.825887 z"
             id="path3001" /></g><g
           id="g3012"
           style="fill:#ff5555"><path
             style="opacity:1;fill:#ff5555;fill-opacity:1;stroke:none;stroke-width:0.731912"
             d="m 116.80911,68.816321 c 5.56445,7.718044 8.68478,17.156452 8.69348,26.703768 l -5.00406,-8e-6 c 0.009,-8.449073 -2.79543,-16.912971 -7.745,-23.78024 z"
             id="path3007" /><path
             style="opacity:1;fill:#ff5555;fill-opacity:1;stroke:none;stroke-width:0.731912"
             d="m 66.005547,52.324147 c 4.517761,-1.476725 9.264179,-2.258986 14.037826,-2.263346 4.773669,0.0044 9.52011,0.786629 14.037889,2.263367 l -1.554567,4.753858 c -4.030524,-1.318657 -8.258776,-2.017523 -12.483322,-2.013163 -4.224527,-0.0044 -8.452759,0.694499 -12.483266,2.013144 z"
             id="path3003" /><path
             style="opacity:1;fill:#ff5555;fill-opacity:1;stroke:none;stroke-width:0.731912"
             d="m 34.584154,95.52002 c 0.0087,-9.547316 3.129056,-18.985719 8.693518,-26.703755 l 4.055576,2.923526 c -4.94958,6.867261 -7.753753,15.331156 -7.745032,23.780229 z"
             id="path1810" /></g></g><path
         id="path3030"
         style="opacity:1;fill:none;stroke:#000000;stroke-width:0.706;stroke-dasharray:2.824, 0.706;stroke-dashoffset:0;stroke-opacity:1;marker-end:url(#marker7933)"
         d="m 143.79687,22.224519 c 10.97218,-9.93605 35.67555,-11.432539 48.58061,-1.842961"
         sodipodi:nodetypes="cc" /></g><g
       id="g20344"
       clip-path="url(#clipPath20348)"
       transform="matrix(0.35277777,0,0,-0.35277777,-9.1048663,176.46073)" /></g></svg>
