<?xml version="1.0" encoding="utf-8" standalone="no"?>
<!DOCTYPE svg PUBLIC "-//W3C//DTD SVG 1.1//EN"
  "http://www.w3.org/Graphics/SVG/1.1/DTD/svg11.dtd">
<svg xmlns:xlink="http://www.w3.org/1999/xlink" width="850.32pt" height="282.96pt" viewBox="0 0 850.32 282.96" xmlns="http://www.w3.org/2000/svg" version="1.1">
 <metadata>
  <rdf:RDF xmlns:dc="http://purl.org/dc/elements/1.1/" xmlns:cc="http://creativecommons.org/ns#" xmlns:rdf="http://www.w3.org/1999/02/22-rdf-syntax-ns#">
   <cc:Work>
    <dc:type rdf:resource="http://purl.org/dc/dcmitype/StillImage"/>
    <dc:date>2022-11-23T00:17:02.014501</dc:date>
    <dc:format>image/svg+xml</dc:format>
    <dc:creator>
     <cc:Agent>
      <dc:title>Matplotlib v3.6.2, https://matplotlib.org/</dc:title>
     </cc:Agent>
    </dc:creator>
   </cc:Work>
  </rdf:RDF>
 </metadata>
 <defs>
  <style type="text/css">*{stroke-linejoin: round; stroke-linecap: butt}</style>
 </defs>
 <g id="figure_1">
  <g id="patch_1">
   <path d="M 0 282.96 
L 850.32 282.96 
L 850.32 0 
L 0 0 
z
" style="fill: #ffffff"/>
  </g>
  <g id="axes_1">
   <g id="patch_2">
    <path d="M 62.79997 239.08628 
L 449.058265 239.08628 
L 449.058265 3.00024 
L 62.79997 3.00024 
z
" style="fill: #ffffff"/>
   </g>
   <g id="patch_3">
    <path d="M 94.988161 239.08628 
L 103.035209 239.08628 
L 103.035209 239.08628 
L 94.988161 239.08628 
z
" clip-path="url(#pcf2053ae01)" style="fill: #7d96b0"/>
   </g>
   <g id="patch_4">
    <path d="M 103.035209 239.08628 
L 111.082257 239.08628 
L 111.082257 239.08628 
L 103.035209 239.08628 
z
" clip-path="url(#pcf2053ae01)" style="fill: #7d96b0"/>
   </g>
   <g id="patch_5">
    <path d="M 111.082257 239.08628 
L 119.129305 239.08628 
L 119.129305 239.08628 
L 111.082257 239.08628 
z
" clip-path="url(#pcf2053ae01)" style="fill: #7d96b0"/>
   </g>
   <g id="patch_6">
    <path d="M 119.129305 239.08628 
L 127.176352 239.08628 
L 127.176352 239.08628 
L 119.129305 239.08628 
z
" clip-path="url(#pcf2053ae01)" style="fill: #7d96b0"/>
   </g>
   <g id="patch_7">
    <path d="M 127.176352 239.08628 
L 135.2234 239.08628 
L 135.2234 238.839929 
L 127.176352 238.839929 
z
" clip-path="url(#pcf2053ae01)" style="fill: #7d96b0"/>
   </g>
   <g id="patch_8">
    <path d="M 135.2234 239.08628 
L 143.270448 239.08628 
L 143.270448 238.593579 
L 135.2234 238.593579 
z
" clip-path="url(#pcf2053ae01)" style="fill: #7d96b0"/>
   </g>
   <g id="patch_9">
    <path d="M 143.270448 239.08628 
L 151.317496 239.08628 
L 151.317496 238.182994 
L 143.270448 238.182994 
z
" clip-path="url(#pcf2053ae01)" style="fill: #7d96b0"/>
   </g>
   <g id="patch_10">
    <path d="M 151.317496 239.08628 
L 159.364544 239.08628 
L 159.364544 237.197592 
L 151.317496 237.197592 
z
" clip-path="url(#pcf2053ae01)" style="fill: #7d96b0"/>
   </g>
   <g id="patch_11">
    <path d="M 159.364544 239.08628 
L 167.411592 239.08628 
L 167.411592 237.854527 
L 159.364544 237.854527 
z
" clip-path="url(#pcf2053ae01)" style="fill: #7d96b0"/>
   </g>
   <g id="patch_12">
    <path d="M 167.411592 239.08628 
L 175.458639 239.08628 
L 175.458639 236.540657 
L 167.411592 236.540657 
z
" clip-path="url(#pcf2053ae01)" style="fill: #7d96b0"/>
   </g>
   <g id="patch_13">
    <path d="M 175.458639 239.08628 
L 183.505687 239.08628 
L 183.505687 236.622773 
L 175.458639 236.622773 
z
" clip-path="url(#pcf2053ae01)" style="fill: #7d96b0"/>
   </g>
   <g id="patch_14">
    <path d="M 183.505687 239.08628 
L 191.552735 239.08628 
L 191.552735 236.130072 
L 183.505687 236.130072 
z
" clip-path="url(#pcf2053ae01)" style="fill: #7d96b0"/>
   </g>
   <g id="patch_15">
    <path d="M 191.552735 239.08628 
L 199.599783 239.08628 
L 199.599783 234.734085 
L 191.552735 234.734085 
z
" clip-path="url(#pcf2053ae01)" style="fill: #7d96b0"/>
   </g>
   <g id="patch_16">
    <path d="M 199.599783 239.08628 
L 207.646831 239.08628 
L 207.646831 232.76328 
L 199.599783 232.76328 
z
" clip-path="url(#pcf2053ae01)" style="fill: #7d96b0"/>
   </g>
   <g id="patch_17">
    <path d="M 207.646831 239.08628 
L 215.693878 239.08628 
L 215.693878 228.164734 
L 207.646831 228.164734 
z
" clip-path="url(#pcf2053ae01)" style="fill: #7d96b0"/>
   </g>
   <g id="patch_18">
    <path d="M 215.693878 239.08628 
L 223.740926 239.08628 
L 223.740926 220.035163 
L 215.693878 220.035163 
z
" clip-path="url(#pcf2053ae01)" style="fill: #7d96b0"/>
   </g>
   <g id="patch_19">
    <path d="M 223.740926 239.08628 
L 231.787974 239.08628 
L 231.787974 198.931124 
L 223.740926 198.931124 
z
" clip-path="url(#pcf2053ae01)" style="fill: #7d96b0"/>
   </g>
   <g id="patch_20">
    <path d="M 231.787974 239.08628 
L 239.835022 239.08628 
L 239.835022 159.022319 
L 231.787974 159.022319 
z
" clip-path="url(#pcf2053ae01)" style="fill: #7d96b0"/>
   </g>
   <g id="patch_21">
    <path d="M 239.835022 239.08628 
L 247.88207 239.08628 
L 247.88207 101.622617 
L 239.835022 101.622617 
z
" clip-path="url(#pcf2053ae01)" style="fill: #7d96b0"/>
   </g>
   <g id="patch_22">
    <path d="M 247.88207 239.08628 
L 255.929118 239.08628 
L 255.929118 50.874383 
L 247.88207 50.874383 
z
" clip-path="url(#pcf2053ae01)" style="fill: #7d96b0"/>
   </g>
   <g id="patch_23">
    <path d="M 255.929118 239.08628 
L 263.976165 239.08628 
L 263.976165 48.082409 
L 255.929118 48.082409 
z
" clip-path="url(#pcf2053ae01)" style="fill: #7d96b0"/>
   </g>
   <g id="patch_24">
    <path d="M 263.976165 239.08628 
L 272.023213 239.08628 
L 272.023213 99.076994 
L 263.976165 99.076994 
z
" clip-path="url(#pcf2053ae01)" style="fill: #7d96b0"/>
   </g>
   <g id="patch_25">
    <path d="M 272.023213 239.08628 
L 280.070261 239.08628 
L 280.070261 160.171955 
L 272.023213 160.171955 
z
" clip-path="url(#pcf2053ae01)" style="fill: #7d96b0"/>
   </g>
   <g id="patch_26">
    <path d="M 280.070261 239.08628 
L 288.117309 239.08628 
L 288.117309 204.84354 
L 280.070261 204.84354 
z
" clip-path="url(#pcf2053ae01)" style="fill: #7d96b0"/>
   </g>
   <g id="patch_27">
    <path d="M 288.117309 239.08628 
L 296.164357 239.08628 
L 296.164357 224.469475 
L 288.117309 224.469475 
z
" clip-path="url(#pcf2053ae01)" style="fill: #7d96b0"/>
   </g>
   <g id="patch_28">
    <path d="M 296.164357 239.08628 
L 304.211404 239.08628 
L 304.211404 231.613644 
L 296.164357 231.613644 
z
" clip-path="url(#pcf2053ae01)" style="fill: #7d96b0"/>
   </g>
   <g id="patch_29">
    <path d="M 304.211404 239.08628 
L 312.258452 239.08628 
L 312.258452 233.502332 
L 304.211404 233.502332 
z
" clip-path="url(#pcf2053ae01)" style="fill: #7d96b0"/>
   </g>
   <g id="patch_30">
    <path d="M 312.258452 239.08628 
L 320.3055 239.08628 
L 320.3055 236.130072 
L 312.258452 236.130072 
z
" clip-path="url(#pcf2053ae01)" style="fill: #7d96b0"/>
   </g>
   <g id="patch_31">
    <path d="M 320.3055 239.08628 
L 328.352548 239.08628 
L 328.352548 236.70489 
L 320.3055 236.70489 
z
" clip-path="url(#pcf2053ae01)" style="fill: #7d96b0"/>
   </g>
   <g id="patch_32">
    <path d="M 328.352548 239.08628 
L 336.399596 239.08628 
L 336.399596 237.361825 
L 328.352548 237.361825 
z
" clip-path="url(#pcf2053ae01)" style="fill: #7d96b0"/>
   </g>
   <g id="patch_33">
    <path d="M 336.399596 239.08628 
L 344.446643 239.08628 
L 344.446643 237.279709 
L 336.399596 237.279709 
z
" clip-path="url(#pcf2053ae01)" style="fill: #7d96b0"/>
   </g>
   <g id="patch_34">
    <path d="M 344.446643 239.08628 
L 352.493691 239.08628 
L 352.493691 237.77241 
L 344.446643 237.77241 
z
" clip-path="url(#pcf2053ae01)" style="fill: #7d96b0"/>
   </g>
   <g id="patch_35">
    <path d="M 352.493691 239.08628 
L 360.540739 239.08628 
L 360.540739 237.936644 
L 352.493691 237.936644 
z
" clip-path="url(#pcf2053ae01)" style="fill: #7d96b0"/>
   </g>
   <g id="patch_36">
    <path d="M 360.540739 239.08628 
L 368.587787 239.08628 
L 368.587787 238.511462 
L 360.540739 238.511462 
z
" clip-path="url(#pcf2053ae01)" style="fill: #7d96b0"/>
   </g>
   <g id="patch_37">
    <path d="M 368.587787 239.08628 
L 376.634835 239.08628 
L 376.634835 238.100877 
L 368.587787 238.100877 
z
" clip-path="url(#pcf2053ae01)" style="fill: #7d96b0"/>
   </g>
   <g id="patch_38">
    <path d="M 376.634835 239.08628 
L 384.681883 239.08628 
L 384.681883 238.757812 
L 376.634835 238.757812 
z
" clip-path="url(#pcf2053ae01)" style="fill: #7d96b0"/>
   </g>
   <g id="patch_39">
    <path d="M 384.681883 239.08628 
L 392.72893 239.08628 
L 392.72893 238.429345 
L 384.681883 238.429345 
z
" clip-path="url(#pcf2053ae01)" style="fill: #7d96b0"/>
   </g>
   <g id="patch_40">
    <path d="M 392.72893 239.08628 
L 400.775978 239.08628 
L 400.775978 238.511462 
L 392.72893 238.511462 
z
" clip-path="url(#pcf2053ae01)" style="fill: #7d96b0"/>
   </g>
   <g id="patch_41">
    <path d="M 400.775978 239.08628 
L 408.823026 239.08628 
L 408.823026 238.675696 
L 400.775978 238.675696 
z
" clip-path="url(#pcf2053ae01)" style="fill: #7d96b0"/>
   </g>
   <g id="patch_42">
    <path d="M 408.823026 239.08628 
L 416.870074 239.08628 
L 416.870074 238.922046 
L 408.823026 238.922046 
z
" clip-path="url(#pcf2053ae01)" style="fill: #7d96b0"/>
   </g>
   <g id="matplotlib.axis_1">
    <g id="xtick_1">
     <g id="line2d_1">
      <defs>
       <path id="m3ef0b08bdc" d="M 0 0 
L 0 3.5 
" style="stroke: #000000; stroke-width: 0.8"/>
      </defs>
      <g>
       <use xlink:href="#m3ef0b08bdc" x="80.357165" y="239.08628" style="stroke: #000000; stroke-width: 0.8"/>
      </g>
     </g>
     <g id="text_1">
      <!-- −0.6 -->
      <g transform="translate(65.787478 255.204405) scale(0.12 -0.12)">
       <defs>
        <path id="DejaVuSans-2212" d="M 678 2272 
L 4684 2272 
L 4684 1741 
L 678 1741 
L 678 2272 
z
" transform="scale(0.015625)"/>
        <path id="DejaVuSans-30" d="M 2034 4250 
Q 1547 4250 1301 3770 
Q 1056 3291 1056 2328 
Q 1056 1369 1301 889 
Q 1547 409 2034 409 
Q 2525 409 2770 889 
Q 3016 1369 3016 2328 
Q 3016 3291 2770 3770 
Q 2525 4250 2034 4250 
z
M 2034 4750 
Q 2819 4750 3233 4129 
Q 3647 3509 3647 2328 
Q 3647 1150 3233 529 
Q 2819 -91 2034 -91 
Q 1250 -91 836 529 
Q 422 1150 422 2328 
Q 422 3509 836 4129 
Q 1250 4750 2034 4750 
z
" transform="scale(0.015625)"/>
        <path id="DejaVuSans-2e" d="M 684 794 
L 1344 794 
L 1344 0 
L 684 0 
L 684 794 
z
" transform="scale(0.015625)"/>
        <path id="DejaVuSans-36" d="M 2113 2584 
Q 1688 2584 1439 2293 
Q 1191 2003 1191 1497 
Q 1191 994 1439 701 
Q 1688 409 2113 409 
Q 2538 409 2786 701 
Q 3034 994 3034 1497 
Q 3034 2003 2786 2293 
Q 2538 2584 2113 2584 
z
M 3366 4563 
L 3366 3988 
Q 3128 4100 2886 4159 
Q 2644 4219 2406 4219 
Q 1781 4219 1451 3797 
Q 1122 3375 1075 2522 
Q 1259 2794 1537 2939 
Q 1816 3084 2150 3084 
Q 2853 3084 3261 2657 
Q 3669 2231 3669 1497 
Q 3669 778 3244 343 
Q 2819 -91 2113 -91 
Q 1303 -91 875 529 
Q 447 1150 447 2328 
Q 447 3434 972 4092 
Q 1497 4750 2381 4750 
Q 2619 4750 2861 4703 
Q 3103 4656 3366 4563 
z
" transform="scale(0.015625)"/>
       </defs>
       <use xlink:href="#DejaVuSans-2212"/>
       <use xlink:href="#DejaVuSans-30" x="83.789062"/>
       <use xlink:href="#DejaVuSans-2e" x="147.412109"/>
       <use xlink:href="#DejaVuSans-36" x="179.199219"/>
      </g>
     </g>
    </g>
    <g id="xtick_2">
     <g id="line2d_2">
      <g>
       <use xlink:href="#m3ef0b08bdc" x="168.143141" y="239.08628" style="stroke: #000000; stroke-width: 0.8"/>
      </g>
     </g>
     <g id="text_2">
      <!-- −0.3 -->
      <g transform="translate(153.573454 255.204405) scale(0.12 -0.12)">
       <defs>
        <path id="DejaVuSans-33" d="M 2597 2516 
Q 3050 2419 3304 2112 
Q 3559 1806 3559 1356 
Q 3559 666 3084 287 
Q 2609 -91 1734 -91 
Q 1441 -91 1130 -33 
Q 819 25 488 141 
L 488 750 
Q 750 597 1062 519 
Q 1375 441 1716 441 
Q 2309 441 2620 675 
Q 2931 909 2931 1356 
Q 2931 1769 2642 2001 
Q 2353 2234 1838 2234 
L 1294 2234 
L 1294 2753 
L 1863 2753 
Q 2328 2753 2575 2939 
Q 2822 3125 2822 3475 
Q 2822 3834 2567 4026 
Q 2313 4219 1838 4219 
Q 1578 4219 1281 4162 
Q 984 4106 628 3988 
L 628 4550 
Q 988 4650 1302 4700 
Q 1616 4750 1894 4750 
Q 2613 4750 3031 4423 
Q 3450 4097 3450 3541 
Q 3450 3153 3228 2886 
Q 3006 2619 2597 2516 
z
" transform="scale(0.015625)"/>
       </defs>
       <use xlink:href="#DejaVuSans-2212"/>
       <use xlink:href="#DejaVuSans-30" x="83.789062"/>
       <use xlink:href="#DejaVuSans-2e" x="147.412109"/>
       <use xlink:href="#DejaVuSans-33" x="179.199219"/>
      </g>
     </g>
    </g>
    <g id="xtick_3">
     <g id="line2d_3">
      <g>
       <use xlink:href="#m3ef0b08bdc" x="255.929118" y="239.08628" style="stroke: #000000; stroke-width: 0.8"/>
      </g>
     </g>
     <g id="text_3">
      <!-- 0.0 -->
      <g transform="translate(246.387243 255.204405) scale(0.12 -0.12)">
       <use xlink:href="#DejaVuSans-30"/>
       <use xlink:href="#DejaVuSans-2e" x="63.623047"/>
       <use xlink:href="#DejaVuSans-30" x="95.410156"/>
      </g>
     </g>
    </g>
    <g id="xtick_4">
     <g id="line2d_4">
      <g>
       <use xlink:href="#m3ef0b08bdc" x="343.715094" y="239.08628" style="stroke: #000000; stroke-width: 0.8"/>
      </g>
     </g>
     <g id="text_4">
      <!-- 0.3 -->
      <g transform="translate(334.173219 255.204405) scale(0.12 -0.12)">
       <use xlink:href="#DejaVuSans-30"/>
       <use xlink:href="#DejaVuSans-2e" x="63.623047"/>
       <use xlink:href="#DejaVuSans-33" x="95.410156"/>
      </g>
     </g>
    </g>
    <g id="xtick_5">
     <g id="line2d_5">
      <g>
       <use xlink:href="#m3ef0b08bdc" x="431.50107" y="239.08628" style="stroke: #000000; stroke-width: 0.8"/>
      </g>
     </g>
     <g id="text_5">
      <!-- 0.6 -->
      <g transform="translate(421.959195 255.204405) scale(0.12 -0.12)">
       <use xlink:href="#DejaVuSans-30"/>
       <use xlink:href="#DejaVuSans-2e" x="63.623047"/>
       <use xlink:href="#DejaVuSans-36" x="95.410156"/>
      </g>
     </g>
    </g>
   </g>
   <g id="matplotlib.axis_2">
    <g id="ytick_1">
     <g id="line2d_6">
      <defs>
       <path id="m4744d1e1a8" d="M 0 0 
L -3.5 0 
" style="stroke: #000000; stroke-width: 0.8"/>
      </defs>
      <g>
       <use xlink:href="#m4744d1e1a8" x="62.79997" y="239.08628" style="stroke: #000000; stroke-width: 0.8"/>
      </g>
     </g>
     <g id="text_6">
      <!-- 0 -->
      <g transform="translate(48.16497 243.645343) scale(0.12 -0.12)">
       <use xlink:href="#DejaVuSans-30"/>
      </g>
     </g>
    </g>
    <g id="ytick_2">
     <g id="line2d_7">
      <g>
       <use xlink:href="#m4744d1e1a8" x="62.79997" y="222.662903" style="stroke: #000000; stroke-width: 0.8"/>
      </g>
     </g>
     <g id="text_7">
      <!-- 200 -->
      <g transform="translate(32.89497 227.221966) scale(0.12 -0.12)">
       <defs>
        <path id="DejaVuSans-32" d="M 1228 531 
L 3431 531 
L 3431 0 
L 469 0 
L 469 531 
Q 828 903 1448 1529 
Q 2069 2156 2228 2338 
Q 2531 2678 2651 2914 
Q 2772 3150 2772 3378 
Q 2772 3750 2511 3984 
Q 2250 4219 1831 4219 
Q 1534 4219 1204 4116 
Q 875 4013 500 3803 
L 500 4441 
Q 881 4594 1212 4672 
Q 1544 4750 1819 4750 
Q 2544 4750 2975 4387 
Q 3406 4025 3406 3419 
Q 3406 3131 3298 2873 
Q 3191 2616 2906 2266 
Q 2828 2175 2409 1742 
Q 1991 1309 1228 531 
z
" transform="scale(0.015625)"/>
       </defs>
       <use xlink:href="#DejaVuSans-32"/>
       <use xlink:href="#DejaVuSans-30" x="63.623047"/>
       <use xlink:href="#DejaVuSans-30" x="127.246094"/>
      </g>
     </g>
    </g>
    <g id="ytick_3">
     <g id="line2d_8">
      <g>
       <use xlink:href="#m4744d1e1a8" x="62.79997" y="206.239527" style="stroke: #000000; stroke-width: 0.8"/>
      </g>
     </g>
     <g id="text_8">
      <!-- 400 -->
      <g transform="translate(32.89497 210.798589) scale(0.12 -0.12)">
       <defs>
        <path id="DejaVuSans-34" d="M 2419 4116 
L 825 1625 
L 2419 1625 
L 2419 4116 
z
M 2253 4666 
L 3047 4666 
L 3047 1625 
L 3713 1625 
L 3713 1100 
L 3047 1100 
L 3047 0 
L 2419 0 
L 2419 1100 
L 313 1100 
L 313 1709 
L 2253 4666 
z
" transform="scale(0.015625)"/>
       </defs>
       <use xlink:href="#DejaVuSans-34"/>
       <use xlink:href="#DejaVuSans-30" x="63.623047"/>
       <use xlink:href="#DejaVuSans-30" x="127.246094"/>
      </g>
     </g>
    </g>
    <g id="ytick_4">
     <g id="line2d_9">
      <g>
       <use xlink:href="#m4744d1e1a8" x="62.79997" y="189.81615" style="stroke: #000000; stroke-width: 0.8"/>
      </g>
     </g>
     <g id="text_9">
      <!-- 600 -->
      <g transform="translate(32.89497 194.375212) scale(0.12 -0.12)">
       <use xlink:href="#DejaVuSans-36"/>
       <use xlink:href="#DejaVuSans-30" x="63.623047"/>
       <use xlink:href="#DejaVuSans-30" x="127.246094"/>
      </g>
     </g>
    </g>
    <g id="ytick_5">
     <g id="line2d_10">
      <g>
       <use xlink:href="#m4744d1e1a8" x="62.79997" y="173.392773" style="stroke: #000000; stroke-width: 0.8"/>
      </g>
     </g>
     <g id="text_10">
      <!-- 800 -->
      <g transform="translate(32.89497 177.951836) scale(0.12 -0.12)">
       <defs>
        <path id="DejaVuSans-38" d="M 2034 2216 
Q 1584 2216 1326 1975 
Q 1069 1734 1069 1313 
Q 1069 891 1326 650 
Q 1584 409 2034 409 
Q 2484 409 2743 651 
Q 3003 894 3003 1313 
Q 3003 1734 2745 1975 
Q 2488 2216 2034 2216 
z
M 1403 2484 
Q 997 2584 770 2862 
Q 544 3141 544 3541 
Q 544 4100 942 4425 
Q 1341 4750 2034 4750 
Q 2731 4750 3128 4425 
Q 3525 4100 3525 3541 
Q 3525 3141 3298 2862 
Q 3072 2584 2669 2484 
Q 3125 2378 3379 2068 
Q 3634 1759 3634 1313 
Q 3634 634 3220 271 
Q 2806 -91 2034 -91 
Q 1263 -91 848 271 
Q 434 634 434 1313 
Q 434 1759 690 2068 
Q 947 2378 1403 2484 
z
M 1172 3481 
Q 1172 3119 1398 2916 
Q 1625 2713 2034 2713 
Q 2441 2713 2670 2916 
Q 2900 3119 2900 3481 
Q 2900 3844 2670 4047 
Q 2441 4250 2034 4250 
Q 1625 4250 1398 4047 
Q 1172 3844 1172 3481 
z
" transform="scale(0.015625)"/>
       </defs>
       <use xlink:href="#DejaVuSans-38"/>
       <use xlink:href="#DejaVuSans-30" x="63.623047"/>
       <use xlink:href="#DejaVuSans-30" x="127.246094"/>
      </g>
     </g>
    </g>
    <g id="ytick_6">
     <g id="line2d_11">
      <g>
       <use xlink:href="#m4744d1e1a8" x="62.79997" y="156.969397" style="stroke: #000000; stroke-width: 0.8"/>
      </g>
     </g>
     <g id="text_11">
      <!-- 1000 -->
      <g transform="translate(25.25997 161.528459) scale(0.12 -0.12)">
       <defs>
        <path id="DejaVuSans-31" d="M 794 531 
L 1825 531 
L 1825 4091 
L 703 3866 
L 703 4441 
L 1819 4666 
L 2450 4666 
L 2450 531 
L 3481 531 
L 3481 0 
L 794 0 
L 794 531 
z
" transform="scale(0.015625)"/>
       </defs>
       <use xlink:href="#DejaVuSans-31"/>
       <use xlink:href="#DejaVuSans-30" x="63.623047"/>
       <use xlink:href="#DejaVuSans-30" x="127.246094"/>
       <use xlink:href="#DejaVuSans-30" x="190.869141"/>
      </g>
     </g>
    </g>
    <g id="ytick_7">
     <g id="line2d_12">
      <g>
       <use xlink:href="#m4744d1e1a8" x="62.79997" y="140.54602" style="stroke: #000000; stroke-width: 0.8"/>
      </g>
     </g>
     <g id="text_12">
      <!-- 1200 -->
      <g transform="translate(25.25997 145.105082) scale(0.12 -0.12)">
       <use xlink:href="#DejaVuSans-31"/>
       <use xlink:href="#DejaVuSans-32" x="63.623047"/>
       <use xlink:href="#DejaVuSans-30" x="127.246094"/>
       <use xlink:href="#DejaVuSans-30" x="190.869141"/>
      </g>
     </g>
    </g>
    <g id="ytick_8">
     <g id="line2d_13">
      <g>
       <use xlink:href="#m4744d1e1a8" x="62.79997" y="124.122643" style="stroke: #000000; stroke-width: 0.8"/>
      </g>
     </g>
     <g id="text_13">
      <!-- 1400 -->
      <g transform="translate(25.25997 128.681706) scale(0.12 -0.12)">
       <use xlink:href="#DejaVuSans-31"/>
       <use xlink:href="#DejaVuSans-34" x="63.623047"/>
       <use xlink:href="#DejaVuSans-30" x="127.246094"/>
       <use xlink:href="#DejaVuSans-30" x="190.869141"/>
      </g>
     </g>
    </g>
    <g id="ytick_9">
     <g id="line2d_14">
      <g>
       <use xlink:href="#m4744d1e1a8" x="62.79997" y="107.699266" style="stroke: #000000; stroke-width: 0.8"/>
      </g>
     </g>
     <g id="text_14">
      <!-- 1600 -->
      <g transform="translate(25.25997 112.258329) scale(0.12 -0.12)">
       <use xlink:href="#DejaVuSans-31"/>
       <use xlink:href="#DejaVuSans-36" x="63.623047"/>
       <use xlink:href="#DejaVuSans-30" x="127.246094"/>
       <use xlink:href="#DejaVuSans-30" x="190.869141"/>
      </g>
     </g>
    </g>
    <g id="ytick_10">
     <g id="line2d_15">
      <g>
       <use xlink:href="#m4744d1e1a8" x="62.79997" y="91.27589" style="stroke: #000000; stroke-width: 0.8"/>
      </g>
     </g>
     <g id="text_15">
      <!-- 1800 -->
      <g transform="translate(25.25997 95.834952) scale(0.12 -0.12)">
       <use xlink:href="#DejaVuSans-31"/>
       <use xlink:href="#DejaVuSans-38" x="63.623047"/>
       <use xlink:href="#DejaVuSans-30" x="127.246094"/>
       <use xlink:href="#DejaVuSans-30" x="190.869141"/>
      </g>
     </g>
    </g>
    <g id="ytick_11">
     <g id="line2d_16">
      <g>
       <use xlink:href="#m4744d1e1a8" x="62.79997" y="74.852513" style="stroke: #000000; stroke-width: 0.8"/>
      </g>
     </g>
     <g id="text_16">
      <!-- 2000 -->
      <g transform="translate(25.25997 79.411576) scale(0.12 -0.12)">
       <use xlink:href="#DejaVuSans-32"/>
       <use xlink:href="#DejaVuSans-30" x="63.623047"/>
       <use xlink:href="#DejaVuSans-30" x="127.246094"/>
       <use xlink:href="#DejaVuSans-30" x="190.869141"/>
      </g>
     </g>
    </g>
    <g id="ytick_12">
     <g id="line2d_17">
      <g>
       <use xlink:href="#m4744d1e1a8" x="62.79997" y="58.429136" style="stroke: #000000; stroke-width: 0.8"/>
      </g>
     </g>
     <g id="text_17">
      <!-- 2200 -->
      <g transform="translate(25.25997 62.988199) scale(0.12 -0.12)">
       <use xlink:href="#DejaVuSans-32"/>
       <use xlink:href="#DejaVuSans-32" x="63.623047"/>
       <use xlink:href="#DejaVuSans-30" x="127.246094"/>
       <use xlink:href="#DejaVuSans-30" x="190.869141"/>
      </g>
     </g>
    </g>
    <g id="ytick_13">
     <g id="line2d_18">
      <g>
       <use xlink:href="#m4744d1e1a8" x="62.79997" y="42.00576" style="stroke: #000000; stroke-width: 0.8"/>
      </g>
     </g>
     <g id="text_18">
      <!-- 2400 -->
      <g transform="translate(25.25997 46.564822) scale(0.12 -0.12)">
       <use xlink:href="#DejaVuSans-32"/>
       <use xlink:href="#DejaVuSans-34" x="63.623047"/>
       <use xlink:href="#DejaVuSans-30" x="127.246094"/>
       <use xlink:href="#DejaVuSans-30" x="190.869141"/>
      </g>
     </g>
    </g>
   </g>
   <g id="line2d_19">
    <path d="M 255.929118 239.08628 
L 255.929118 33.794071 
" clip-path="url(#pcf2053ae01)" style="fill: none; stroke-dasharray: 3.7,1.6; stroke-dashoffset: 0; stroke: #1d1d1d"/>
   </g>
   <g id="patch_43">
    <path d="M 62.79997 239.08628 
L 62.79997 33.794071 
" style="fill: none; stroke: #000000; stroke-width: 0.8; stroke-linejoin: miter; stroke-linecap: square"/>
   </g>
   <g id="patch_44">
    <path d="M 80.357165 239.08628 
L 431.50107 239.08628 
" style="fill: none; stroke: #000000; stroke-width: 0.8; stroke-linejoin: miter; stroke-linecap: square"/>
   </g>
   <g id="text_19">
    <!-- clockw. -->
    <g transform="translate(62.79997 16.608844) scale(0.14 -0.14)">
     <defs>
      <path id="DejaVuSans-63" d="M 3122 3366 
L 3122 2828 
Q 2878 2963 2633 3030 
Q 2388 3097 2138 3097 
Q 1578 3097 1268 2742 
Q 959 2388 959 1747 
Q 959 1106 1268 751 
Q 1578 397 2138 397 
Q 2388 397 2633 464 
Q 2878 531 3122 666 
L 3122 134 
Q 2881 22 2623 -34 
Q 2366 -91 2075 -91 
Q 1284 -91 818 406 
Q 353 903 353 1747 
Q 353 2603 823 3093 
Q 1294 3584 2113 3584 
Q 2378 3584 2631 3529 
Q 2884 3475 3122 3366 
z
" transform="scale(0.015625)"/>
      <path id="DejaVuSans-6c" d="M 603 4863 
L 1178 4863 
L 1178 0 
L 603 0 
L 603 4863 
z
" transform="scale(0.015625)"/>
      <path id="DejaVuSans-6f" d="M 1959 3097 
Q 1497 3097 1228 2736 
Q 959 2375 959 1747 
Q 959 1119 1226 758 
Q 1494 397 1959 397 
Q 2419 397 2687 759 
Q 2956 1122 2956 1747 
Q 2956 2369 2687 2733 
Q 2419 3097 1959 3097 
z
M 1959 3584 
Q 2709 3584 3137 3096 
Q 3566 2609 3566 1747 
Q 3566 888 3137 398 
Q 2709 -91 1959 -91 
Q 1206 -91 779 398 
Q 353 888 353 1747 
Q 353 2609 779 3096 
Q 1206 3584 1959 3584 
z
" transform="scale(0.015625)"/>
      <path id="DejaVuSans-6b" d="M 581 4863 
L 1159 4863 
L 1159 1991 
L 2875 3500 
L 3609 3500 
L 1753 1863 
L 3688 0 
L 2938 0 
L 1159 1709 
L 1159 0 
L 581 0 
L 581 4863 
z
" transform="scale(0.015625)"/>
      <path id="DejaVuSans-77" d="M 269 3500 
L 844 3500 
L 1563 769 
L 2278 3500 
L 2956 3500 
L 3675 769 
L 4391 3500 
L 4966 3500 
L 4050 0 
L 3372 0 
L 2619 2869 
L 1863 0 
L 1184 0 
L 269 3500 
z
" transform="scale(0.015625)"/>
     </defs>
     <use xlink:href="#DejaVuSans-63"/>
     <use xlink:href="#DejaVuSans-6c" x="54.980469"/>
     <use xlink:href="#DejaVuSans-6f" x="82.763672"/>
     <use xlink:href="#DejaVuSans-63" x="143.945312"/>
     <use xlink:href="#DejaVuSans-6b" x="198.925781"/>
     <use xlink:href="#DejaVuSans-77" x="256.835938"/>
     <use xlink:href="#DejaVuSans-2e" x="329.498047"/>
    </g>
   </g>
  </g>
  <g id="axes_2">
   <g id="patch_45">
    <path d="M 461.061465 239.08628 
L 847.31976 239.08628 
L 847.31976 3.00024 
L 461.061465 3.00024 
z
" style="fill: #ffffff"/>
   </g>
   <g id="patch_46">
    <path d="M 493.249656 239.08628 
L 501.296704 239.08628 
L 501.296704 239.08628 
L 493.249656 239.08628 
z
" clip-path="url(#p02092ee2bd)" style="fill: #7d96b0"/>
   </g>
   <g id="patch_47">
    <path d="M 501.296704 239.08628 
L 509.343752 239.08628 
L 509.343752 239.08628 
L 501.296704 239.08628 
z
" clip-path="url(#p02092ee2bd)" style="fill: #7d96b0"/>
   </g>
   <g id="patch_48">
    <path d="M 509.343752 239.08628 
L 517.3908 239.08628 
L 517.3908 239.08628 
L 509.343752 239.08628 
z
" clip-path="url(#p02092ee2bd)" style="fill: #7d96b0"/>
   </g>
   <g id="patch_49">
    <path d="M 517.3908 239.08628 
L 525.437847 239.08628 
L 525.437847 238.922046 
L 517.3908 238.922046 
z
" clip-path="url(#p02092ee2bd)" style="fill: #7d96b0"/>
   </g>
   <g id="patch_50">
    <path d="M 525.437847 239.08628 
L 533.484895 239.08628 
L 533.484895 238.757812 
L 525.437847 238.757812 
z
" clip-path="url(#p02092ee2bd)" style="fill: #7d96b0"/>
   </g>
   <g id="patch_51">
    <path d="M 533.484895 239.08628 
L 541.531943 239.08628 
L 541.531943 238.429345 
L 533.484895 238.429345 
z
" clip-path="url(#p02092ee2bd)" style="fill: #7d96b0"/>
   </g>
   <g id="patch_52">
    <path d="M 541.531943 239.08628 
L 549.578991 239.08628 
L 549.578991 237.526059 
L 541.531943 237.526059 
z
" clip-path="url(#p02092ee2bd)" style="fill: #7d96b0"/>
   </g>
   <g id="patch_53">
    <path d="M 549.578991 239.08628 
L 557.626039 239.08628 
L 557.626039 237.197592 
L 549.578991 237.197592 
z
" clip-path="url(#p02092ee2bd)" style="fill: #7d96b0"/>
   </g>
   <g id="patch_54">
    <path d="M 557.626039 239.08628 
L 565.673087 239.08628 
L 565.673087 236.869124 
L 557.626039 236.869124 
z
" clip-path="url(#p02092ee2bd)" style="fill: #7d96b0"/>
   </g>
   <g id="patch_55">
    <path d="M 565.673087 239.08628 
L 573.720134 239.08628 
L 573.720134 236.869124 
L 565.673087 236.869124 
z
" clip-path="url(#p02092ee2bd)" style="fill: #7d96b0"/>
   </g>
   <g id="patch_56">
    <path d="M 573.720134 239.08628 
L 581.767182 239.08628 
L 581.767182 237.526059 
L 573.720134 237.526059 
z
" clip-path="url(#p02092ee2bd)" style="fill: #7d96b0"/>
   </g>
   <g id="patch_57">
    <path d="M 581.767182 239.08628 
L 589.81423 239.08628 
L 589.81423 235.883722 
L 581.767182 235.883722 
z
" clip-path="url(#p02092ee2bd)" style="fill: #7d96b0"/>
   </g>
   <g id="patch_58">
    <path d="M 589.81423 239.08628 
L 597.861278 239.08628 
L 597.861278 235.226786 
L 589.81423 235.226786 
z
" clip-path="url(#p02092ee2bd)" style="fill: #7d96b0"/>
   </g>
   <g id="patch_59">
    <path d="M 597.861278 239.08628 
L 605.908326 239.08628 
L 605.908326 233.420215 
L 597.861278 233.420215 
z
" clip-path="url(#p02092ee2bd)" style="fill: #7d96b0"/>
   </g>
   <g id="patch_60">
    <path d="M 605.908326 239.08628 
L 613.955373 239.08628 
L 613.955373 228.328968 
L 605.908326 228.328968 
z
" clip-path="url(#p02092ee2bd)" style="fill: #7d96b0"/>
   </g>
   <g id="patch_61">
    <path d="M 613.955373 239.08628 
L 622.002421 239.08628 
L 622.002421 215.354501 
L 613.955373 215.354501 
z
" clip-path="url(#p02092ee2bd)" style="fill: #7d96b0"/>
   </g>
   <g id="patch_62">
    <path d="M 622.002421 239.08628 
L 630.049469 239.08628 
L 630.049469 187.763228 
L 622.002421 187.763228 
z
" clip-path="url(#p02092ee2bd)" style="fill: #7d96b0"/>
   </g>
   <g id="patch_63">
    <path d="M 630.049469 239.08628 
L 638.096517 239.08628 
L 638.096517 134.387254 
L 630.049469 134.387254 
z
" clip-path="url(#p02092ee2bd)" style="fill: #7d96b0"/>
   </g>
   <g id="patch_64">
    <path d="M 638.096517 239.08628 
L 646.143565 239.08628 
L 646.143565 74.195578 
L 638.096517 74.195578 
z
" clip-path="url(#p02092ee2bd)" style="fill: #7d96b0"/>
   </g>
   <g id="patch_65">
    <path d="M 646.143565 239.08628 
L 654.190613 239.08628 
L 654.190613 45.208318 
L 646.143565 45.208318 
z
" clip-path="url(#p02092ee2bd)" style="fill: #7d96b0"/>
   </g>
   <g id="patch_66">
    <path d="M 654.190613 239.08628 
L 662.23766 239.08628 
L 662.23766 73.045942 
L 654.190613 73.045942 
z
" clip-path="url(#p02092ee2bd)" style="fill: #7d96b0"/>
   </g>
   <g id="patch_67">
    <path d="M 662.23766 239.08628 
L 670.284708 239.08628 
L 670.284708 119.19563 
L 662.23766 119.19563 
z
" clip-path="url(#p02092ee2bd)" style="fill: #7d96b0"/>
   </g>
   <g id="patch_68">
    <path d="M 670.284708 239.08628 
L 678.331756 239.08628 
L 678.331756 178.155552 
L 670.284708 178.155552 
z
" clip-path="url(#p02092ee2bd)" style="fill: #7d96b0"/>
   </g>
   <g id="patch_69">
    <path d="M 678.331756 239.08628 
L 686.378804 239.08628 
L 686.378804 210.263254 
L 678.331756 210.263254 
z
" clip-path="url(#p02092ee2bd)" style="fill: #7d96b0"/>
   </g>
   <g id="patch_70">
    <path d="M 686.378804 239.08628 
L 694.425852 239.08628 
L 694.425852 224.551592 
L 686.378804 224.551592 
z
" clip-path="url(#p02092ee2bd)" style="fill: #7d96b0"/>
   </g>
   <g id="patch_71">
    <path d="M 694.425852 239.08628 
L 702.472899 239.08628 
L 702.472899 231.777877 
L 694.425852 231.777877 
z
" clip-path="url(#p02092ee2bd)" style="fill: #7d96b0"/>
   </g>
   <g id="patch_72">
    <path d="M 702.472899 239.08628 
L 710.519947 239.08628 
L 710.519947 235.308903 
L 702.472899 235.308903 
z
" clip-path="url(#p02092ee2bd)" style="fill: #7d96b0"/>
   </g>
   <g id="patch_73">
    <path d="M 710.519947 239.08628 
L 718.566995 239.08628 
L 718.566995 236.869124 
L 710.519947 236.869124 
z
" clip-path="url(#p02092ee2bd)" style="fill: #7d96b0"/>
   </g>
   <g id="patch_74">
    <path d="M 718.566995 239.08628 
L 726.614043 239.08628 
L 726.614043 236.787007 
L 718.566995 236.787007 
z
" clip-path="url(#p02092ee2bd)" style="fill: #7d96b0"/>
   </g>
   <g id="patch_75">
    <path d="M 726.614043 239.08628 
L 734.661091 239.08628 
L 734.661091 237.361825 
L 726.614043 237.361825 
z
" clip-path="url(#p02092ee2bd)" style="fill: #7d96b0"/>
   </g>
   <g id="patch_76">
    <path d="M 734.661091 239.08628 
L 742.708138 239.08628 
L 742.708138 237.690293 
L 734.661091 237.690293 
z
" clip-path="url(#p02092ee2bd)" style="fill: #7d96b0"/>
   </g>
   <g id="patch_77">
    <path d="M 742.708138 239.08628 
L 750.755186 239.08628 
L 750.755186 237.936644 
L 742.708138 237.936644 
z
" clip-path="url(#p02092ee2bd)" style="fill: #7d96b0"/>
   </g>
   <g id="patch_78">
    <path d="M 750.755186 239.08628 
L 758.802234 239.08628 
L 758.802234 238.511462 
L 750.755186 238.511462 
z
" clip-path="url(#p02092ee2bd)" style="fill: #7d96b0"/>
   </g>
   <g id="patch_79">
    <path d="M 758.802234 239.08628 
L 766.849282 239.08628 
L 766.849282 238.511462 
L 758.802234 238.511462 
z
" clip-path="url(#p02092ee2bd)" style="fill: #7d96b0"/>
   </g>
   <g id="patch_80">
    <path d="M 766.849282 239.08628 
L 774.89633 239.08628 
L 774.89633 238.757812 
L 766.849282 238.757812 
z
" clip-path="url(#p02092ee2bd)" style="fill: #7d96b0"/>
   </g>
   <g id="patch_81">
    <path d="M 774.89633 239.08628 
L 782.943377 239.08628 
L 782.943377 238.429345 
L 774.89633 238.429345 
z
" clip-path="url(#p02092ee2bd)" style="fill: #7d96b0"/>
   </g>
   <g id="patch_82">
    <path d="M 782.943378 239.08628 
L 790.990425 239.08628 
L 790.990425 238.922046 
L 782.943378 238.922046 
z
" clip-path="url(#p02092ee2bd)" style="fill: #7d96b0"/>
   </g>
   <g id="patch_83">
    <path d="M 790.990425 239.08628 
L 799.037473 239.08628 
L 799.037473 239.08628 
L 790.990425 239.08628 
z
" clip-path="url(#p02092ee2bd)" style="fill: #7d96b0"/>
   </g>
   <g id="patch_84">
    <path d="M 799.037473 239.08628 
L 807.084521 239.08628 
L 807.084521 238.757812 
L 799.037473 238.757812 
z
" clip-path="url(#p02092ee2bd)" style="fill: #7d96b0"/>
   </g>
   <g id="patch_85">
    <path d="M 807.084521 239.08628 
L 815.131569 239.08628 
L 815.131569 238.675696 
L 807.084521 238.675696 
z
" clip-path="url(#p02092ee2bd)" style="fill: #7d96b0"/>
   </g>
   <g id="matplotlib.axis_3">
    <g id="xtick_6">
     <g id="line2d_20">
      <g>
       <use xlink:href="#m3ef0b08bdc" x="478.61866" y="239.08628" style="stroke: #000000; stroke-width: 0.8"/>
      </g>
     </g>
     <g id="text_20">
      <!-- −0.6 -->
      <g transform="translate(464.048973 255.204405) scale(0.12 -0.12)">
       <use xlink:href="#DejaVuSans-2212"/>
       <use xlink:href="#DejaVuSans-30" x="83.789062"/>
       <use xlink:href="#DejaVuSans-2e" x="147.412109"/>
       <use xlink:href="#DejaVuSans-36" x="179.199219"/>
      </g>
     </g>
    </g>
    <g id="xtick_7">
     <g id="line2d_21">
      <g>
       <use xlink:href="#m3ef0b08bdc" x="566.404636" y="239.08628" style="stroke: #000000; stroke-width: 0.8"/>
      </g>
     </g>
     <g id="text_21">
      <!-- −0.3 -->
      <g transform="translate(551.834949 255.204405) scale(0.12 -0.12)">
       <use xlink:href="#DejaVuSans-2212"/>
       <use xlink:href="#DejaVuSans-30" x="83.789062"/>
       <use xlink:href="#DejaVuSans-2e" x="147.412109"/>
       <use xlink:href="#DejaVuSans-33" x="179.199219"/>
      </g>
     </g>
    </g>
    <g id="xtick_8">
     <g id="line2d_22">
      <g>
       <use xlink:href="#m3ef0b08bdc" x="654.190613" y="239.08628" style="stroke: #000000; stroke-width: 0.8"/>
      </g>
     </g>
     <g id="text_22">
      <!-- 0.0 -->
      <g transform="translate(644.648738 255.204405) scale(0.12 -0.12)">
       <use xlink:href="#DejaVuSans-30"/>
       <use xlink:href="#DejaVuSans-2e" x="63.623047"/>
       <use xlink:href="#DejaVuSans-30" x="95.410156"/>
      </g>
     </g>
    </g>
    <g id="xtick_9">
     <g id="line2d_23">
      <g>
       <use xlink:href="#m3ef0b08bdc" x="741.976589" y="239.08628" style="stroke: #000000; stroke-width: 0.8"/>
      </g>
     </g>
     <g id="text_23">
      <!-- 0.3 -->
      <g transform="translate(732.434714 255.204405) scale(0.12 -0.12)">
       <use xlink:href="#DejaVuSans-30"/>
       <use xlink:href="#DejaVuSans-2e" x="63.623047"/>
       <use xlink:href="#DejaVuSans-33" x="95.410156"/>
      </g>
     </g>
    </g>
    <g id="xtick_10">
     <g id="line2d_24">
      <g>
       <use xlink:href="#m3ef0b08bdc" x="829.762565" y="239.08628" style="stroke: #000000; stroke-width: 0.8"/>
      </g>
     </g>
     <g id="text_24">
      <!-- 0.6 -->
      <g transform="translate(820.22069 255.204405) scale(0.12 -0.12)">
       <use xlink:href="#DejaVuSans-30"/>
       <use xlink:href="#DejaVuSans-2e" x="63.623047"/>
       <use xlink:href="#DejaVuSans-36" x="95.410156"/>
      </g>
     </g>
    </g>
   </g>
   <g id="matplotlib.axis_4">
    <g id="ytick_14">
     <g id="line2d_25">
      <g>
       <use xlink:href="#m4744d1e1a8" x="461.061465" y="239.08628" style="stroke: #000000; stroke-width: 0.8"/>
      </g>
     </g>
    </g>
    <g id="ytick_15">
     <g id="line2d_26">
      <g>
       <use xlink:href="#m4744d1e1a8" x="461.061465" y="222.662903" style="stroke: #000000; stroke-width: 0.8"/>
      </g>
     </g>
    </g>
    <g id="ytick_16">
     <g id="line2d_27">
      <g>
       <use xlink:href="#m4744d1e1a8" x="461.061465" y="206.239527" style="stroke: #000000; stroke-width: 0.8"/>
      </g>
     </g>
    </g>
    <g id="ytick_17">
     <g id="line2d_28">
      <g>
       <use xlink:href="#m4744d1e1a8" x="461.061465" y="189.81615" style="stroke: #000000; stroke-width: 0.8"/>
      </g>
     </g>
    </g>
    <g id="ytick_18">
     <g id="line2d_29">
      <g>
       <use xlink:href="#m4744d1e1a8" x="461.061465" y="173.392773" style="stroke: #000000; stroke-width: 0.8"/>
      </g>
     </g>
    </g>
    <g id="ytick_19">
     <g id="line2d_30">
      <g>
       <use xlink:href="#m4744d1e1a8" x="461.061465" y="156.969397" style="stroke: #000000; stroke-width: 0.8"/>
      </g>
     </g>
    </g>
    <g id="ytick_20">
     <g id="line2d_31">
      <g>
       <use xlink:href="#m4744d1e1a8" x="461.061465" y="140.54602" style="stroke: #000000; stroke-width: 0.8"/>
      </g>
     </g>
    </g>
    <g id="ytick_21">
     <g id="line2d_32">
      <g>
       <use xlink:href="#m4744d1e1a8" x="461.061465" y="124.122643" style="stroke: #000000; stroke-width: 0.8"/>
      </g>
     </g>
    </g>
    <g id="ytick_22">
     <g id="line2d_33">
      <g>
       <use xlink:href="#m4744d1e1a8" x="461.061465" y="107.699266" style="stroke: #000000; stroke-width: 0.8"/>
      </g>
     </g>
    </g>
    <g id="ytick_23">
     <g id="line2d_34">
      <g>
       <use xlink:href="#m4744d1e1a8" x="461.061465" y="91.27589" style="stroke: #000000; stroke-width: 0.8"/>
      </g>
     </g>
    </g>
    <g id="ytick_24">
     <g id="line2d_35">
      <g>
       <use xlink:href="#m4744d1e1a8" x="461.061465" y="74.852513" style="stroke: #000000; stroke-width: 0.8"/>
      </g>
     </g>
    </g>
    <g id="ytick_25">
     <g id="line2d_36">
      <g>
       <use xlink:href="#m4744d1e1a8" x="461.061465" y="58.429136" style="stroke: #000000; stroke-width: 0.8"/>
      </g>
     </g>
    </g>
    <g id="ytick_26">
     <g id="line2d_37">
      <g>
       <use xlink:href="#m4744d1e1a8" x="461.061465" y="42.00576" style="stroke: #000000; stroke-width: 0.8"/>
      </g>
     </g>
    </g>
   </g>
   <g id="line2d_38">
    <path d="M 654.190613 239.08628 
L 654.190613 33.794071 
" clip-path="url(#p02092ee2bd)" style="fill: none; stroke-dasharray: 3.7,1.6; stroke-dashoffset: 0; stroke: #1d1d1d"/>
   </g>
   <g id="patch_86">
    <path d="M 461.061465 239.08628 
L 461.061465 33.794071 
" style="fill: none; stroke: #000000; stroke-width: 0.8; stroke-linejoin: miter; stroke-linecap: square"/>
   </g>
   <g id="patch_87">
    <path d="M 478.61866 239.08628 
L 829.762565 239.08628 
" style="fill: none; stroke: #000000; stroke-width: 0.8; stroke-linejoin: miter; stroke-linecap: square"/>
   </g>
   <g id="text_25">
    <!-- counterclockw. -->
    <g transform="translate(461.061465 16.608844) scale(0.14 -0.14)">
     <defs>
      <path id="DejaVuSans-75" d="M 544 1381 
L 544 3500 
L 1119 3500 
L 1119 1403 
Q 1119 906 1312 657 
Q 1506 409 1894 409 
Q 2359 409 2629 706 
Q 2900 1003 2900 1516 
L 2900 3500 
L 3475 3500 
L 3475 0 
L 2900 0 
L 2900 538 
Q 2691 219 2414 64 
Q 2138 -91 1772 -91 
Q 1169 -91 856 284 
Q 544 659 544 1381 
z
M 1991 3584 
L 1991 3584 
z
" transform="scale(0.015625)"/>
      <path id="DejaVuSans-6e" d="M 3513 2113 
L 3513 0 
L 2938 0 
L 2938 2094 
Q 2938 2591 2744 2837 
Q 2550 3084 2163 3084 
Q 1697 3084 1428 2787 
Q 1159 2491 1159 1978 
L 1159 0 
L 581 0 
L 581 3500 
L 1159 3500 
L 1159 2956 
Q 1366 3272 1645 3428 
Q 1925 3584 2291 3584 
Q 2894 3584 3203 3211 
Q 3513 2838 3513 2113 
z
" transform="scale(0.015625)"/>
      <path id="DejaVuSans-74" d="M 1172 4494 
L 1172 3500 
L 2356 3500 
L 2356 3053 
L 1172 3053 
L 1172 1153 
Q 1172 725 1289 603 
Q 1406 481 1766 481 
L 2356 481 
L 2356 0 
L 1766 0 
Q 1100 0 847 248 
Q 594 497 594 1153 
L 594 3053 
L 172 3053 
L 172 3500 
L 594 3500 
L 594 4494 
L 1172 4494 
z
" transform="scale(0.015625)"/>
      <path id="DejaVuSans-65" d="M 3597 1894 
L 3597 1613 
L 953 1613 
Q 991 1019 1311 708 
Q 1631 397 2203 397 
Q 2534 397 2845 478 
Q 3156 559 3463 722 
L 3463 178 
Q 3153 47 2828 -22 
Q 2503 -91 2169 -91 
Q 1331 -91 842 396 
Q 353 884 353 1716 
Q 353 2575 817 3079 
Q 1281 3584 2069 3584 
Q 2775 3584 3186 3129 
Q 3597 2675 3597 1894 
z
M 3022 2063 
Q 3016 2534 2758 2815 
Q 2500 3097 2075 3097 
Q 1594 3097 1305 2825 
Q 1016 2553 972 2059 
L 3022 2063 
z
" transform="scale(0.015625)"/>
      <path id="DejaVuSans-72" d="M 2631 2963 
Q 2534 3019 2420 3045 
Q 2306 3072 2169 3072 
Q 1681 3072 1420 2755 
Q 1159 2438 1159 1844 
L 1159 0 
L 581 0 
L 581 3500 
L 1159 3500 
L 1159 2956 
Q 1341 3275 1631 3429 
Q 1922 3584 2338 3584 
Q 2397 3584 2469 3576 
Q 2541 3569 2628 3553 
L 2631 2963 
z
" transform="scale(0.015625)"/>
     </defs>
     <use xlink:href="#DejaVuSans-63"/>
     <use xlink:href="#DejaVuSans-6f" x="54.980469"/>
     <use xlink:href="#DejaVuSans-75" x="116.162109"/>
     <use xlink:href="#DejaVuSans-6e" x="179.541016"/>
     <use xlink:href="#DejaVuSans-74" x="242.919922"/>
     <use xlink:href="#DejaVuSans-65" x="282.128906"/>
     <use xlink:href="#DejaVuSans-72" x="343.652344"/>
     <use xlink:href="#DejaVuSans-63" x="382.515625"/>
     <use xlink:href="#DejaVuSans-6c" x="437.496094"/>
     <use xlink:href="#DejaVuSans-6f" x="465.279297"/>
     <use xlink:href="#DejaVuSans-63" x="526.460938"/>
     <use xlink:href="#DejaVuSans-6b" x="581.441406"/>
     <use xlink:href="#DejaVuSans-77" x="639.351562"/>
     <use xlink:href="#DejaVuSans-2e" x="712.013672"/>
    </g>
   </g>
  </g>
  <g id="text_26">
   <!-- Pearson r -->
   <g transform="translate(385.668188 276.465885) scale(0.168 -0.168)">
    <defs>
     <path id="DejaVuSans-50" d="M 1259 4147 
L 1259 2394 
L 2053 2394 
Q 2494 2394 2734 2622 
Q 2975 2850 2975 3272 
Q 2975 3691 2734 3919 
Q 2494 4147 2053 4147 
L 1259 4147 
z
M 628 4666 
L 2053 4666 
Q 2838 4666 3239 4311 
Q 3641 3956 3641 3272 
Q 3641 2581 3239 2228 
Q 2838 1875 2053 1875 
L 1259 1875 
L 1259 0 
L 628 0 
L 628 4666 
z
" transform="scale(0.015625)"/>
     <path id="DejaVuSans-61" d="M 2194 1759 
Q 1497 1759 1228 1600 
Q 959 1441 959 1056 
Q 959 750 1161 570 
Q 1363 391 1709 391 
Q 2188 391 2477 730 
Q 2766 1069 2766 1631 
L 2766 1759 
L 2194 1759 
z
M 3341 1997 
L 3341 0 
L 2766 0 
L 2766 531 
Q 2569 213 2275 61 
Q 1981 -91 1556 -91 
Q 1019 -91 701 211 
Q 384 513 384 1019 
Q 384 1609 779 1909 
Q 1175 2209 1959 2209 
L 2766 2209 
L 2766 2266 
Q 2766 2663 2505 2880 
Q 2244 3097 1772 3097 
Q 1472 3097 1187 3025 
Q 903 2953 641 2809 
L 641 3341 
Q 956 3463 1253 3523 
Q 1550 3584 1831 3584 
Q 2591 3584 2966 3190 
Q 3341 2797 3341 1997 
z
" transform="scale(0.015625)"/>
     <path id="DejaVuSans-73" d="M 2834 3397 
L 2834 2853 
Q 2591 2978 2328 3040 
Q 2066 3103 1784 3103 
Q 1356 3103 1142 2972 
Q 928 2841 928 2578 
Q 928 2378 1081 2264 
Q 1234 2150 1697 2047 
L 1894 2003 
Q 2506 1872 2764 1633 
Q 3022 1394 3022 966 
Q 3022 478 2636 193 
Q 2250 -91 1575 -91 
Q 1294 -91 989 -36 
Q 684 19 347 128 
L 347 722 
Q 666 556 975 473 
Q 1284 391 1588 391 
Q 1994 391 2212 530 
Q 2431 669 2431 922 
Q 2431 1156 2273 1281 
Q 2116 1406 1581 1522 
L 1381 1569 
Q 847 1681 609 1914 
Q 372 2147 372 2553 
Q 372 3047 722 3315 
Q 1072 3584 1716 3584 
Q 2034 3584 2315 3537 
Q 2597 3491 2834 3397 
z
" transform="scale(0.015625)"/>
     <path id="DejaVuSans-20" transform="scale(0.015625)"/>
    </defs>
    <use xlink:href="#DejaVuSans-50"/>
    <use xlink:href="#DejaVuSans-65" x="56.677734"/>
    <use xlink:href="#DejaVuSans-61" x="118.201172"/>
    <use xlink:href="#DejaVuSans-72" x="179.480469"/>
    <use xlink:href="#DejaVuSans-73" x="220.59375"/>
    <use xlink:href="#DejaVuSans-6f" x="272.693359"/>
    <use xlink:href="#DejaVuSans-6e" x="333.875"/>
    <use xlink:href="#DejaVuSans-20" x="397.253906"/>
    <use xlink:href="#DejaVuSans-72" x="429.041016"/>
   </g>
  </g>
  <g id="text_27">
   <!-- Count -->
   <g transform="translate(15.765615 166.425375) rotate(-90) scale(0.168 -0.168)">
    <defs>
     <path id="DejaVuSans-43" d="M 4122 4306 
L 4122 3641 
Q 3803 3938 3442 4084 
Q 3081 4231 2675 4231 
Q 1875 4231 1450 3742 
Q 1025 3253 1025 2328 
Q 1025 1406 1450 917 
Q 1875 428 2675 428 
Q 3081 428 3442 575 
Q 3803 722 4122 1019 
L 4122 359 
Q 3791 134 3420 21 
Q 3050 -91 2638 -91 
Q 1578 -91 968 557 
Q 359 1206 359 2328 
Q 359 3453 968 4101 
Q 1578 4750 2638 4750 
Q 3056 4750 3426 4639 
Q 3797 4528 4122 4306 
z
" transform="scale(0.015625)"/>
    </defs>
    <use xlink:href="#DejaVuSans-43"/>
    <use xlink:href="#DejaVuSans-6f" x="69.824219"/>
    <use xlink:href="#DejaVuSans-75" x="131.005859"/>
    <use xlink:href="#DejaVuSans-6e" x="194.384766"/>
    <use xlink:href="#DejaVuSans-74" x="257.763672"/>
   </g>
  </g>
 </g>
 <defs>
  <clipPath id="pcf2053ae01">
   <rect x="62.79997" y="3.00024" width="386.258295" height="236.08604"/>
  </clipPath>
  <clipPath id="p02092ee2bd">
   <rect x="461.061465" y="3.00024" width="386.258295" height="236.08604"/>
  </clipPath>
 </defs>
</svg>
