<?xml version="1.0" encoding="utf-8" standalone="no"?>
<!DOCTYPE svg PUBLIC "-//W3C//DTD SVG 1.1//EN"
  "http://www.w3.org/Graphics/SVG/1.1/DTD/svg11.dtd">
<svg xmlns:xlink="http://www.w3.org/1999/xlink" width="481.68pt" height="339.84pt" viewBox="0 0 481.68 339.84" xmlns="http://www.w3.org/2000/svg" version="1.1">
 <metadata>
  <rdf:RDF xmlns:dc="http://purl.org/dc/elements/1.1/" xmlns:cc="http://creativecommons.org/ns#" xmlns:rdf="http://www.w3.org/1999/02/22-rdf-syntax-ns#">
   <cc:Work>
    <dc:type rdf:resource="http://purl.org/dc/dcmitype/StillImage"/>
    <dc:date>2022-11-23T13:18:50.332219</dc:date>
    <dc:format>image/svg+xml</dc:format>
    <dc:creator>
     <cc:Agent>
      <dc:title>Matplotlib v3.6.2, https://matplotlib.org/</dc:title>
     </cc:Agent>
    </dc:creator>
   </cc:Work>
  </rdf:RDF>
 </metadata>
 <defs>
  <style type="text/css">*{stroke-linejoin: round; stroke-linecap: butt}</style>
 </defs>
 <g id="figure_1">
  <g id="patch_1">
   <path d="M 0 339.84 
L 481.68 339.84 
L 481.68 0 
L 0 0 
z
" style="fill: #ffffff"/>
  </g>
  <g id="axes_1">
   <g id="patch_2">
    <path d="M 62.79997 295.96628 
L 264.675989 295.96628 
L 264.675989 23.638053 
L 62.79997 23.638053 
z
" style="fill: #ffffff"/>
   </g>
   <g id="patch_3">
    <path d="M 79.622972 295.96628 
L 83.828722 295.96628 
L 83.828722 295.96628 
L 79.622972 295.96628 
z
" clip-path="url(#p8ff0748b30)" style="fill: #7d96b0"/>
   </g>
   <g id="patch_4">
    <path d="M 83.828722 295.96628 
L 88.034472 295.96628 
L 88.034472 295.96628 
L 83.828722 295.96628 
z
" clip-path="url(#p8ff0748b30)" style="fill: #7d96b0"/>
   </g>
   <g id="patch_5">
    <path d="M 88.034472 295.96628 
L 92.240223 295.96628 
L 92.240223 295.96628 
L 88.034472 295.96628 
z
" clip-path="url(#p8ff0748b30)" style="fill: #7d96b0"/>
   </g>
   <g id="patch_6">
    <path d="M 92.240223 295.96628 
L 96.445973 295.96628 
L 96.445973 295.96628 
L 92.240223 295.96628 
z
" clip-path="url(#p8ff0748b30)" style="fill: #7d96b0"/>
   </g>
   <g id="patch_7">
    <path d="M 96.445973 295.96628 
L 100.651724 295.96628 
L 100.651724 295.455665 
L 96.445973 295.455665 
z
" clip-path="url(#p8ff0748b30)" style="fill: #7d96b0"/>
   </g>
   <g id="patch_8">
    <path d="M 100.651724 295.96628 
L 104.857474 295.96628 
L 104.857474 294.945049 
L 100.651724 294.945049 
z
" clip-path="url(#p8ff0748b30)" style="fill: #7d96b0"/>
   </g>
   <g id="patch_9">
    <path d="M 104.857474 295.96628 
L 109.063224 295.96628 
L 109.063224 294.094023 
L 104.857474 294.094023 
z
" clip-path="url(#p8ff0748b30)" style="fill: #7d96b0"/>
   </g>
   <g id="patch_10">
    <path d="M 109.063224 295.96628 
L 113.268975 295.96628 
L 113.268975 292.051562 
L 109.063224 292.051562 
z
" clip-path="url(#p8ff0748b30)" style="fill: #7d96b0"/>
   </g>
   <g id="patch_11">
    <path d="M 113.268975 295.96628 
L 117.474725 295.96628 
L 117.474725 293.413203 
L 113.268975 293.413203 
z
" clip-path="url(#p8ff0748b30)" style="fill: #7d96b0"/>
   </g>
   <g id="patch_12">
    <path d="M 117.474725 295.96628 
L 121.680475 295.96628 
L 121.680475 290.689921 
L 117.474725 290.689921 
z
" clip-path="url(#p8ff0748b30)" style="fill: #7d96b0"/>
   </g>
   <g id="patch_13">
    <path d="M 121.680475 295.96628 
L 125.886226 295.96628 
L 125.886226 290.860126 
L 121.680475 290.860126 
z
" clip-path="url(#p8ff0748b30)" style="fill: #7d96b0"/>
   </g>
   <g id="patch_14">
    <path d="M 125.886226 295.96628 
L 130.091976 295.96628 
L 130.091976 289.838895 
L 125.886226 289.838895 
z
" clip-path="url(#p8ff0748b30)" style="fill: #7d96b0"/>
   </g>
   <g id="patch_15">
    <path d="M 130.091976 295.96628 
L 134.297727 295.96628 
L 134.297727 286.945407 
L 130.091976 286.945407 
z
" clip-path="url(#p8ff0748b30)" style="fill: #7d96b0"/>
   </g>
   <g id="patch_16">
    <path d="M 134.297727 295.96628 
L 138.503477 295.96628 
L 138.503477 282.860484 
L 134.297727 282.860484 
z
" clip-path="url(#p8ff0748b30)" style="fill: #7d96b0"/>
   </g>
   <g id="patch_17">
    <path d="M 138.503477 295.96628 
L 142.709227 295.96628 
L 142.709227 273.328996 
L 138.503477 273.328996 
z
" clip-path="url(#p8ff0748b30)" style="fill: #7d96b0"/>
   </g>
   <g id="patch_18">
    <path d="M 142.709227 295.96628 
L 146.914978 295.96628 
L 146.914978 256.478687 
L 142.709227 256.478687 
z
" clip-path="url(#p8ff0748b30)" style="fill: #7d96b0"/>
   </g>
   <g id="patch_19">
    <path d="M 146.914978 295.96628 
L 151.120728 295.96628 
L 151.120728 212.735965 
L 146.914978 212.735965 
z
" clip-path="url(#p8ff0748b30)" style="fill: #7d96b0"/>
   </g>
   <g id="patch_20">
    <path d="M 151.120728 295.96628 
L 155.326479 295.96628 
L 155.326479 130.016266 
L 151.120728 130.016266 
z
" clip-path="url(#p8ff0748b30)" style="fill: #7d96b0"/>
   </g>
   <g id="patch_21">
    <path d="M 155.326479 295.96628 
L 159.532229 295.96628 
L 159.532229 11.042872 
L 155.326479 11.042872 
z
" clip-path="url(#p8ff0748b30)" style="fill: #7d96b0"/>
   </g>
   <g id="patch_22">
    <path d="M 159.532229 295.96628 
L 163.737979 295.96628 
L 163.737979 -94.143906 
L 159.532229 -94.143906 
z
" clip-path="url(#p8ff0748b30)" style="fill: #7d96b0"/>
   </g>
   <g id="patch_23">
    <path d="M 163.737979 295.96628 
L 167.94373 295.96628 
L 167.94373 -99.930881 
L 163.737979 -99.930881 
z
" clip-path="url(#p8ff0748b30)" style="fill: #7d96b0"/>
   </g>
   <g id="patch_24">
    <path d="M 167.94373 295.96628 
L 172.14948 295.96628 
L 172.14948 5.766513 
L 167.94373 5.766513 
z
" clip-path="url(#p8ff0748b30)" style="fill: #7d96b0"/>
   </g>
   <g id="patch_25">
    <path d="M 172.14948 295.96628 
L 176.355231 295.96628 
L 176.355231 132.399138 
L 172.14948 132.399138 
z
" clip-path="url(#p8ff0748b30)" style="fill: #7d96b0"/>
   </g>
   <g id="patch_26">
    <path d="M 176.355231 295.96628 
L 180.560981 295.96628 
L 180.560981 224.990736 
L 176.355231 224.990736 
z
" clip-path="url(#p8ff0748b30)" style="fill: #7d96b0"/>
   </g>
   <g id="patch_27">
    <path d="M 180.560981 295.96628 
L 184.766731 295.96628 
L 184.766731 265.669765 
L 180.560981 265.669765 
z
" clip-path="url(#p8ff0748b30)" style="fill: #7d96b0"/>
   </g>
   <g id="patch_28">
    <path d="M 184.766731 295.96628 
L 188.972482 295.96628 
L 188.972482 280.477612 
L 184.766731 280.477612 
z
" clip-path="url(#p8ff0748b30)" style="fill: #7d96b0"/>
   </g>
   <g id="patch_29">
    <path d="M 188.972482 295.96628 
L 193.178232 295.96628 
L 193.178232 284.39233 
L 188.972482 284.39233 
z
" clip-path="url(#p8ff0748b30)" style="fill: #7d96b0"/>
   </g>
   <g id="patch_30">
    <path d="M 193.178232 295.96628 
L 197.383982 295.96628 
L 197.383982 289.838895 
L 193.178232 289.838895 
z
" clip-path="url(#p8ff0748b30)" style="fill: #7d96b0"/>
   </g>
   <g id="patch_31">
    <path d="M 197.383982 295.96628 
L 201.589733 295.96628 
L 201.589733 291.030331 
L 197.383982 291.030331 
z
" clip-path="url(#p8ff0748b30)" style="fill: #7d96b0"/>
   </g>
   <g id="patch_32">
    <path d="M 201.589733 295.96628 
L 205.795483 295.96628 
L 205.795483 292.391972 
L 201.589733 292.391972 
z
" clip-path="url(#p8ff0748b30)" style="fill: #7d96b0"/>
   </g>
   <g id="patch_33">
    <path d="M 205.795483 295.96628 
L 210.001234 295.96628 
L 210.001234 292.221767 
L 205.795483 292.221767 
z
" clip-path="url(#p8ff0748b30)" style="fill: #7d96b0"/>
   </g>
   <g id="patch_34">
    <path d="M 210.001234 295.96628 
L 214.206984 295.96628 
L 214.206984 293.242998 
L 210.001234 293.242998 
z
" clip-path="url(#p8ff0748b30)" style="fill: #7d96b0"/>
   </g>
   <g id="patch_35">
    <path d="M 214.206984 295.96628 
L 218.412734 295.96628 
L 218.412734 293.583408 
L 214.206984 293.583408 
z
" clip-path="url(#p8ff0748b30)" style="fill: #7d96b0"/>
   </g>
   <g id="patch_36">
    <path d="M 218.412734 295.96628 
L 222.618485 295.96628 
L 222.618485 294.774844 
L 218.412734 294.774844 
z
" clip-path="url(#p8ff0748b30)" style="fill: #7d96b0"/>
   </g>
   <g id="patch_37">
    <path d="M 222.618485 295.96628 
L 226.824235 295.96628 
L 226.824235 293.923818 
L 222.618485 293.923818 
z
" clip-path="url(#p8ff0748b30)" style="fill: #7d96b0"/>
   </g>
   <g id="patch_38">
    <path d="M 226.824235 295.96628 
L 231.029986 295.96628 
L 231.029986 295.285459 
L 226.824235 295.285459 
z
" clip-path="url(#p8ff0748b30)" style="fill: #7d96b0"/>
   </g>
   <g id="patch_39">
    <path d="M 231.029986 295.96628 
L 235.235736 295.96628 
L 235.235736 294.604639 
L 231.029986 294.604639 
z
" clip-path="url(#p8ff0748b30)" style="fill: #7d96b0"/>
   </g>
   <g id="patch_40">
    <path d="M 235.235736 295.96628 
L 239.441486 295.96628 
L 239.441486 294.774844 
L 235.235736 294.774844 
z
" clip-path="url(#p8ff0748b30)" style="fill: #7d96b0"/>
   </g>
   <g id="patch_41">
    <path d="M 239.441486 295.96628 
L 243.647237 295.96628 
L 243.647237 295.115254 
L 239.441486 295.115254 
z
" clip-path="url(#p8ff0748b30)" style="fill: #7d96b0"/>
   </g>
   <g id="patch_42">
    <path d="M 243.647237 295.96628 
L 247.852987 295.96628 
L 247.852987 295.62587 
L 243.647237 295.62587 
z
" clip-path="url(#p8ff0748b30)" style="fill: #7d96b0"/>
   </g>
   <g id="matplotlib.axis_1">
    <g id="xtick_1">
     <g id="line2d_1">
      <defs>
       <path id="m3a307c75bc" d="M 0 0 
L 0 3.5 
" style="stroke: #000000; stroke-width: 0.8"/>
      </defs>
      <g>
       <use xlink:href="#m3a307c75bc" x="71.976153" y="295.96628" style="stroke: #000000; stroke-width: 0.8"/>
      </g>
     </g>
     <g id="text_1">
      <!-- −0.6 -->
      <g transform="translate(57.406465 312.084405) scale(0.12 -0.12)">
       <defs>
        <path id="DejaVuSans-2212" d="M 678 2272 
L 4684 2272 
L 4684 1741 
L 678 1741 
L 678 2272 
z
" transform="scale(0.015625)"/>
        <path id="DejaVuSans-30" d="M 2034 4250 
Q 1547 4250 1301 3770 
Q 1056 3291 1056 2328 
Q 1056 1369 1301 889 
Q 1547 409 2034 409 
Q 2525 409 2770 889 
Q 3016 1369 3016 2328 
Q 3016 3291 2770 3770 
Q 2525 4250 2034 4250 
z
M 2034 4750 
Q 2819 4750 3233 4129 
Q 3647 3509 3647 2328 
Q 3647 1150 3233 529 
Q 2819 -91 2034 -91 
Q 1250 -91 836 529 
Q 422 1150 422 2328 
Q 422 3509 836 4129 
Q 1250 4750 2034 4750 
z
" transform="scale(0.015625)"/>
        <path id="DejaVuSans-2e" d="M 684 794 
L 1344 794 
L 1344 0 
L 684 0 
L 684 794 
z
" transform="scale(0.015625)"/>
        <path id="DejaVuSans-36" d="M 2113 2584 
Q 1688 2584 1439 2293 
Q 1191 2003 1191 1497 
Q 1191 994 1439 701 
Q 1688 409 2113 409 
Q 2538 409 2786 701 
Q 3034 994 3034 1497 
Q 3034 2003 2786 2293 
Q 2538 2584 2113 2584 
z
M 3366 4563 
L 3366 3988 
Q 3128 4100 2886 4159 
Q 2644 4219 2406 4219 
Q 1781 4219 1451 3797 
Q 1122 3375 1075 2522 
Q 1259 2794 1537 2939 
Q 1816 3084 2150 3084 
Q 2853 3084 3261 2657 
Q 3669 2231 3669 1497 
Q 3669 778 3244 343 
Q 2819 -91 2113 -91 
Q 1303 -91 875 529 
Q 447 1150 447 2328 
Q 447 3434 972 4092 
Q 1497 4750 2381 4750 
Q 2619 4750 2861 4703 
Q 3103 4656 3366 4563 
z
" transform="scale(0.015625)"/>
       </defs>
       <use xlink:href="#DejaVuSans-2212"/>
       <use xlink:href="#DejaVuSans-30" x="83.789062"/>
       <use xlink:href="#DejaVuSans-2e" x="147.412109"/>
       <use xlink:href="#DejaVuSans-36" x="179.199219"/>
      </g>
     </g>
    </g>
    <g id="xtick_2">
     <g id="line2d_2">
      <g>
       <use xlink:href="#m3a307c75bc" x="117.857066" y="295.96628" style="stroke: #000000; stroke-width: 0.8"/>
      </g>
     </g>
     <g id="text_2">
      <!-- −0.3 -->
      <g transform="translate(103.287379 312.084405) scale(0.12 -0.12)">
       <defs>
        <path id="DejaVuSans-33" d="M 2597 2516 
Q 3050 2419 3304 2112 
Q 3559 1806 3559 1356 
Q 3559 666 3084 287 
Q 2609 -91 1734 -91 
Q 1441 -91 1130 -33 
Q 819 25 488 141 
L 488 750 
Q 750 597 1062 519 
Q 1375 441 1716 441 
Q 2309 441 2620 675 
Q 2931 909 2931 1356 
Q 2931 1769 2642 2001 
Q 2353 2234 1838 2234 
L 1294 2234 
L 1294 2753 
L 1863 2753 
Q 2328 2753 2575 2939 
Q 2822 3125 2822 3475 
Q 2822 3834 2567 4026 
Q 2313 4219 1838 4219 
Q 1578 4219 1281 4162 
Q 984 4106 628 3988 
L 628 4550 
Q 988 4650 1302 4700 
Q 1616 4750 1894 4750 
Q 2613 4750 3031 4423 
Q 3450 4097 3450 3541 
Q 3450 3153 3228 2886 
Q 3006 2619 2597 2516 
z
" transform="scale(0.015625)"/>
       </defs>
       <use xlink:href="#DejaVuSans-2212"/>
       <use xlink:href="#DejaVuSans-30" x="83.789062"/>
       <use xlink:href="#DejaVuSans-2e" x="147.412109"/>
       <use xlink:href="#DejaVuSans-33" x="179.199219"/>
      </g>
     </g>
    </g>
    <g id="xtick_3">
     <g id="line2d_3">
      <g>
       <use xlink:href="#m3a307c75bc" x="163.737979" y="295.96628" style="stroke: #000000; stroke-width: 0.8"/>
      </g>
     </g>
     <g id="text_3">
      <!-- 0.0 -->
      <g transform="translate(154.196104 312.084405) scale(0.12 -0.12)">
       <use xlink:href="#DejaVuSans-30"/>
       <use xlink:href="#DejaVuSans-2e" x="63.623047"/>
       <use xlink:href="#DejaVuSans-30" x="95.410156"/>
      </g>
     </g>
    </g>
    <g id="xtick_4">
     <g id="line2d_4">
      <g>
       <use xlink:href="#m3a307c75bc" x="209.618893" y="295.96628" style="stroke: #000000; stroke-width: 0.8"/>
      </g>
     </g>
     <g id="text_4">
      <!-- 0.3 -->
      <g transform="translate(200.077018 312.084405) scale(0.12 -0.12)">
       <use xlink:href="#DejaVuSans-30"/>
       <use xlink:href="#DejaVuSans-2e" x="63.623047"/>
       <use xlink:href="#DejaVuSans-33" x="95.410156"/>
      </g>
     </g>
    </g>
    <g id="xtick_5">
     <g id="line2d_5">
      <g>
       <use xlink:href="#m3a307c75bc" x="255.499806" y="295.96628" style="stroke: #000000; stroke-width: 0.8"/>
      </g>
     </g>
     <g id="text_5">
      <!-- 0.6 -->
      <g transform="translate(245.957931 312.084405) scale(0.12 -0.12)">
       <use xlink:href="#DejaVuSans-30"/>
       <use xlink:href="#DejaVuSans-2e" x="63.623047"/>
       <use xlink:href="#DejaVuSans-36" x="95.410156"/>
      </g>
     </g>
    </g>
   </g>
   <g id="matplotlib.axis_2">
    <g id="ytick_1">
     <g id="line2d_6">
      <defs>
       <path id="m99b35c2c1c" d="M 0 0 
L -3.5 0 
" style="stroke: #000000; stroke-width: 0.8"/>
      </defs>
      <g>
       <use xlink:href="#m99b35c2c1c" x="62.79997" y="295.96628" style="stroke: #000000; stroke-width: 0.8"/>
      </g>
     </g>
     <g id="text_6">
      <!-- 0 -->
      <g transform="translate(48.16497 300.525342) scale(0.12 -0.12)">
       <use xlink:href="#DejaVuSans-30"/>
      </g>
     </g>
    </g>
    <g id="ytick_2">
     <g id="line2d_7">
      <g>
       <use xlink:href="#m99b35c2c1c" x="62.79997" y="210.863709" style="stroke: #000000; stroke-width: 0.8"/>
      </g>
     </g>
     <g id="text_7">
      <!-- 500 -->
      <g transform="translate(32.89497 215.422771) scale(0.12 -0.12)">
       <defs>
        <path id="DejaVuSans-35" d="M 691 4666 
L 3169 4666 
L 3169 4134 
L 1269 4134 
L 1269 2991 
Q 1406 3038 1543 3061 
Q 1681 3084 1819 3084 
Q 2600 3084 3056 2656 
Q 3513 2228 3513 1497 
Q 3513 744 3044 326 
Q 2575 -91 1722 -91 
Q 1428 -91 1123 -41 
Q 819 9 494 109 
L 494 744 
Q 775 591 1075 516 
Q 1375 441 1709 441 
Q 2250 441 2565 725 
Q 2881 1009 2881 1497 
Q 2881 1984 2565 2268 
Q 2250 2553 1709 2553 
Q 1456 2553 1204 2497 
Q 953 2441 691 2322 
L 691 4666 
z
" transform="scale(0.015625)"/>
       </defs>
       <use xlink:href="#DejaVuSans-35"/>
       <use xlink:href="#DejaVuSans-30" x="63.623047"/>
       <use xlink:href="#DejaVuSans-30" x="127.246094"/>
      </g>
     </g>
    </g>
    <g id="ytick_3">
     <g id="line2d_8">
      <g>
       <use xlink:href="#m99b35c2c1c" x="62.79997" y="125.761138" style="stroke: #000000; stroke-width: 0.8"/>
      </g>
     </g>
     <g id="text_8">
      <!-- 1000 -->
      <g transform="translate(25.25997 130.3202) scale(0.12 -0.12)">
       <defs>
        <path id="DejaVuSans-31" d="M 794 531 
L 1825 531 
L 1825 4091 
L 703 3866 
L 703 4441 
L 1819 4666 
L 2450 4666 
L 2450 531 
L 3481 531 
L 3481 0 
L 794 0 
L 794 531 
z
" transform="scale(0.015625)"/>
       </defs>
       <use xlink:href="#DejaVuSans-31"/>
       <use xlink:href="#DejaVuSans-30" x="63.623047"/>
       <use xlink:href="#DejaVuSans-30" x="127.246094"/>
       <use xlink:href="#DejaVuSans-30" x="190.869141"/>
      </g>
     </g>
    </g>
   </g>
   <g id="line2d_9">
    <path d="M 163.737979 295.96628 
L 163.737979 40.658567 
" clip-path="url(#p8ff0748b30)" style="fill: none; stroke-dasharray: 3.7,1.6; stroke-dashoffset: 0; stroke: #1d1d1d"/>
   </g>
   <g id="patch_43">
    <path d="M 62.79997 295.96628 
L 62.79997 40.658567 
" style="fill: none; stroke: #000000; stroke-width: 0.8; stroke-linejoin: miter; stroke-linecap: square"/>
   </g>
   <g id="patch_44">
    <path d="M 71.976153 295.96628 
L 255.499806 295.96628 
" style="fill: none; stroke: #000000; stroke-width: 0.8; stroke-linejoin: miter; stroke-linecap: square"/>
   </g>
   <g id="text_9">
    <!-- clockw. -->
    <g transform="translate(62.79997 13.638053) scale(0.14 -0.14)">
     <defs>
      <path id="DejaVuSans-63" d="M 3122 3366 
L 3122 2828 
Q 2878 2963 2633 3030 
Q 2388 3097 2138 3097 
Q 1578 3097 1268 2742 
Q 959 2388 959 1747 
Q 959 1106 1268 751 
Q 1578 397 2138 397 
Q 2388 397 2633 464 
Q 2878 531 3122 666 
L 3122 134 
Q 2881 22 2623 -34 
Q 2366 -91 2075 -91 
Q 1284 -91 818 406 
Q 353 903 353 1747 
Q 353 2603 823 3093 
Q 1294 3584 2113 3584 
Q 2378 3584 2631 3529 
Q 2884 3475 3122 3366 
z
" transform="scale(0.015625)"/>
      <path id="DejaVuSans-6c" d="M 603 4863 
L 1178 4863 
L 1178 0 
L 603 0 
L 603 4863 
z
" transform="scale(0.015625)"/>
      <path id="DejaVuSans-6f" d="M 1959 3097 
Q 1497 3097 1228 2736 
Q 959 2375 959 1747 
Q 959 1119 1226 758 
Q 1494 397 1959 397 
Q 2419 397 2687 759 
Q 2956 1122 2956 1747 
Q 2956 2369 2687 2733 
Q 2419 3097 1959 3097 
z
M 1959 3584 
Q 2709 3584 3137 3096 
Q 3566 2609 3566 1747 
Q 3566 888 3137 398 
Q 2709 -91 1959 -91 
Q 1206 -91 779 398 
Q 353 888 353 1747 
Q 353 2609 779 3096 
Q 1206 3584 1959 3584 
z
" transform="scale(0.015625)"/>
      <path id="DejaVuSans-6b" d="M 581 4863 
L 1159 4863 
L 1159 1991 
L 2875 3500 
L 3609 3500 
L 1753 1863 
L 3688 0 
L 2938 0 
L 1159 1709 
L 1159 0 
L 581 0 
L 581 4863 
z
" transform="scale(0.015625)"/>
      <path id="DejaVuSans-77" d="M 269 3500 
L 844 3500 
L 1563 769 
L 2278 3500 
L 2956 3500 
L 3675 769 
L 4391 3500 
L 4966 3500 
L 4050 0 
L 3372 0 
L 2619 2869 
L 1863 0 
L 1184 0 
L 269 3500 
z
" transform="scale(0.015625)"/>
     </defs>
     <use xlink:href="#DejaVuSans-63"/>
     <use xlink:href="#DejaVuSans-6c" x="54.980469"/>
     <use xlink:href="#DejaVuSans-6f" x="82.763672"/>
     <use xlink:href="#DejaVuSans-63" x="143.945312"/>
     <use xlink:href="#DejaVuSans-6b" x="198.925781"/>
     <use xlink:href="#DejaVuSans-77" x="256.835938"/>
     <use xlink:href="#DejaVuSans-2e" x="329.498047"/>
    </g>
   </g>
  </g>
  <g id="axes_2">
   <g id="patch_45">
    <path d="M 276.437255 295.96628 
L 478.313273 295.96628 
L 478.313273 23.638053 
L 276.437255 23.638053 
z
" style="fill: #ffffff"/>
   </g>
   <g id="patch_46">
    <path d="M 293.260256 295.96628 
L 297.466007 295.96628 
L 297.466007 295.96628 
L 293.260256 295.96628 
z
" clip-path="url(#p2e5af5edcc)" style="fill: #7d96b0"/>
   </g>
   <g id="patch_47">
    <path d="M 297.466007 295.96628 
L 301.671757 295.96628 
L 301.671757 295.96628 
L 297.466007 295.96628 
z
" clip-path="url(#p2e5af5edcc)" style="fill: #7d96b0"/>
   </g>
   <g id="patch_48">
    <path d="M 301.671757 295.96628 
L 305.877507 295.96628 
L 305.877507 295.96628 
L 301.671757 295.96628 
z
" clip-path="url(#p2e5af5edcc)" style="fill: #7d96b0"/>
   </g>
   <g id="patch_49">
    <path d="M 305.877507 295.96628 
L 310.083258 295.96628 
L 310.083258 295.62587 
L 305.877507 295.62587 
z
" clip-path="url(#p2e5af5edcc)" style="fill: #7d96b0"/>
   </g>
   <g id="patch_50">
    <path d="M 310.083258 295.96628 
L 314.289008 295.96628 
L 314.289008 295.285459 
L 310.083258 295.285459 
z
" clip-path="url(#p2e5af5edcc)" style="fill: #7d96b0"/>
   </g>
   <g id="patch_51">
    <path d="M 314.289008 295.96628 
L 318.494758 295.96628 
L 318.494758 294.604639 
L 314.289008 294.604639 
z
" clip-path="url(#p2e5af5edcc)" style="fill: #7d96b0"/>
   </g>
   <g id="patch_52">
    <path d="M 318.494758 295.96628 
L 322.700509 295.96628 
L 322.700509 292.732382 
L 318.494758 292.732382 
z
" clip-path="url(#p2e5af5edcc)" style="fill: #7d96b0"/>
   </g>
   <g id="patch_53">
    <path d="M 322.700509 295.96628 
L 326.906259 295.96628 
L 326.906259 292.051562 
L 322.700509 292.051562 
z
" clip-path="url(#p2e5af5edcc)" style="fill: #7d96b0"/>
   </g>
   <g id="patch_54">
    <path d="M 326.906259 295.96628 
L 331.11201 295.96628 
L 331.11201 291.370741 
L 326.906259 291.370741 
z
" clip-path="url(#p2e5af5edcc)" style="fill: #7d96b0"/>
   </g>
   <g id="patch_55">
    <path d="M 331.11201 295.96628 
L 335.31776 295.96628 
L 335.31776 291.370741 
L 331.11201 291.370741 
z
" clip-path="url(#p2e5af5edcc)" style="fill: #7d96b0"/>
   </g>
   <g id="patch_56">
    <path d="M 335.31776 295.96628 
L 339.52351 295.96628 
L 339.52351 292.732382 
L 335.31776 292.732382 
z
" clip-path="url(#p2e5af5edcc)" style="fill: #7d96b0"/>
   </g>
   <g id="patch_57">
    <path d="M 339.52351 295.96628 
L 343.729261 295.96628 
L 343.729261 289.328279 
L 339.52351 289.328279 
z
" clip-path="url(#p2e5af5edcc)" style="fill: #7d96b0"/>
   </g>
   <g id="patch_58">
    <path d="M 343.729261 295.96628 
L 347.935011 295.96628 
L 347.935011 287.966638 
L 343.729261 287.966638 
z
" clip-path="url(#p2e5af5edcc)" style="fill: #7d96b0"/>
   </g>
   <g id="patch_59">
    <path d="M 347.935011 295.96628 
L 352.140762 295.96628 
L 352.140762 284.222125 
L 347.935011 284.222125 
z
" clip-path="url(#p2e5af5edcc)" style="fill: #7d96b0"/>
   </g>
   <g id="patch_60">
    <path d="M 352.140762 295.96628 
L 356.346512 295.96628 
L 356.346512 273.669406 
L 352.140762 273.669406 
z
" clip-path="url(#p2e5af5edcc)" style="fill: #7d96b0"/>
   </g>
   <g id="patch_61">
    <path d="M 356.346512 295.96628 
L 360.552262 295.96628 
L 360.552262 246.776994 
L 356.346512 246.776994 
z
" clip-path="url(#p2e5af5edcc)" style="fill: #7d96b0"/>
   </g>
   <g id="patch_62">
    <path d="M 360.552262 295.96628 
L 364.758013 295.96628 
L 364.758013 189.588066 
L 360.552262 189.588066 
z
" clip-path="url(#p2e5af5edcc)" style="fill: #7d96b0"/>
   </g>
   <g id="patch_63">
    <path d="M 364.758013 295.96628 
L 368.963763 295.96628 
L 368.963763 78.954724 
L 364.758013 78.954724 
z
" clip-path="url(#p2e5af5edcc)" style="fill: #7d96b0"/>
   </g>
   <g id="patch_64">
    <path d="M 368.963763 295.96628 
L 373.169514 295.96628 
L 373.169514 -45.805646 
L 368.963763 -45.805646 
z
" clip-path="url(#p2e5af5edcc)" style="fill: #7d96b0"/>
   </g>
   <g id="patch_65">
    <path d="M 373.169514 295.96628 
L 377.375264 295.96628 
L 377.375264 -105.888061 
L 373.169514 -105.888061 
z
" clip-path="url(#p2e5af5edcc)" style="fill: #7d96b0"/>
   </g>
   <g id="patch_66">
    <path d="M 377.375264 295.96628 
L 381.581014 295.96628 
L 381.581014 -48.188518 
L 377.375264 -48.188518 
z
" clip-path="url(#p2e5af5edcc)" style="fill: #7d96b0"/>
   </g>
   <g id="patch_67">
    <path d="M 381.581014 295.96628 
L 385.786765 295.96628 
L 385.786765 47.466772 
L 381.581014 47.466772 
z
" clip-path="url(#p2e5af5edcc)" style="fill: #7d96b0"/>
   </g>
   <g id="patch_68">
    <path d="M 385.786765 295.96628 
L 389.992515 295.96628 
L 389.992515 169.674064 
L 385.786765 169.674064 
z
" clip-path="url(#p2e5af5edcc)" style="fill: #7d96b0"/>
   </g>
   <g id="patch_69">
    <path d="M 389.992515 295.96628 
L 394.198266 295.96628 
L 394.198266 236.224275 
L 389.992515 236.224275 
z
" clip-path="url(#p2e5af5edcc)" style="fill: #7d96b0"/>
   </g>
   <g id="patch_70">
    <path d="M 394.198266 295.96628 
L 398.404016 295.96628 
L 398.404016 265.83997 
L 394.198266 265.83997 
z
" clip-path="url(#p2e5af5edcc)" style="fill: #7d96b0"/>
   </g>
   <g id="patch_71">
    <path d="M 398.404016 295.96628 
L 402.609766 295.96628 
L 402.609766 280.818022 
L 398.404016 280.818022 
z
" clip-path="url(#p2e5af5edcc)" style="fill: #7d96b0"/>
   </g>
   <g id="patch_72">
    <path d="M 402.609766 295.96628 
L 406.815517 295.96628 
L 406.815517 288.136843 
L 402.609766 288.136843 
z
" clip-path="url(#p2e5af5edcc)" style="fill: #7d96b0"/>
   </g>
   <g id="patch_73">
    <path d="M 406.815517 295.96628 
L 411.021267 295.96628 
L 411.021267 291.370741 
L 406.815517 291.370741 
z
" clip-path="url(#p2e5af5edcc)" style="fill: #7d96b0"/>
   </g>
   <g id="patch_74">
    <path d="M 411.021267 295.96628 
L 415.227017 295.96628 
L 415.227017 291.200536 
L 411.021267 291.200536 
z
" clip-path="url(#p2e5af5edcc)" style="fill: #7d96b0"/>
   </g>
   <g id="patch_75">
    <path d="M 415.227017 295.96628 
L 419.432768 295.96628 
L 419.432768 292.391972 
L 415.227017 292.391972 
z
" clip-path="url(#p2e5af5edcc)" style="fill: #7d96b0"/>
   </g>
   <g id="patch_76">
    <path d="M 419.432768 295.96628 
L 423.638518 295.96628 
L 423.638518 293.072793 
L 419.432768 293.072793 
z
" clip-path="url(#p2e5af5edcc)" style="fill: #7d96b0"/>
   </g>
   <g id="patch_77">
    <path d="M 423.638518 295.96628 
L 427.844269 295.96628 
L 427.844269 293.583408 
L 423.638518 293.583408 
z
" clip-path="url(#p2e5af5edcc)" style="fill: #7d96b0"/>
   </g>
   <g id="patch_78">
    <path d="M 427.844269 295.96628 
L 432.050019 295.96628 
L 432.050019 294.774844 
L 427.844269 294.774844 
z
" clip-path="url(#p2e5af5edcc)" style="fill: #7d96b0"/>
   </g>
   <g id="patch_79">
    <path d="M 432.050019 295.96628 
L 436.255769 295.96628 
L 436.255769 294.774844 
L 432.050019 294.774844 
z
" clip-path="url(#p2e5af5edcc)" style="fill: #7d96b0"/>
   </g>
   <g id="patch_80">
    <path d="M 436.255769 295.96628 
L 440.46152 295.96628 
L 440.46152 295.285459 
L 436.255769 295.285459 
z
" clip-path="url(#p2e5af5edcc)" style="fill: #7d96b0"/>
   </g>
   <g id="patch_81">
    <path d="M 440.46152 295.96628 
L 444.66727 295.96628 
L 444.66727 294.604639 
L 440.46152 294.604639 
z
" clip-path="url(#p2e5af5edcc)" style="fill: #7d96b0"/>
   </g>
   <g id="patch_82">
    <path d="M 444.66727 295.96628 
L 448.873021 295.96628 
L 448.873021 295.62587 
L 444.66727 295.62587 
z
" clip-path="url(#p2e5af5edcc)" style="fill: #7d96b0"/>
   </g>
   <g id="patch_83">
    <path d="M 448.873021 295.96628 
L 453.078771 295.96628 
L 453.078771 295.96628 
L 448.873021 295.96628 
z
" clip-path="url(#p2e5af5edcc)" style="fill: #7d96b0"/>
   </g>
   <g id="patch_84">
    <path d="M 453.078771 295.96628 
L 457.284521 295.96628 
L 457.284521 295.285459 
L 453.078771 295.285459 
z
" clip-path="url(#p2e5af5edcc)" style="fill: #7d96b0"/>
   </g>
   <g id="patch_85">
    <path d="M 457.284521 295.96628 
L 461.490272 295.96628 
L 461.490272 295.115254 
L 457.284521 295.115254 
z
" clip-path="url(#p2e5af5edcc)" style="fill: #7d96b0"/>
   </g>
   <g id="matplotlib.axis_3">
    <g id="xtick_6">
     <g id="line2d_10">
      <g>
       <use xlink:href="#m3a307c75bc" x="285.613437" y="295.96628" style="stroke: #000000; stroke-width: 0.8"/>
      </g>
     </g>
     <g id="text_10">
      <!-- −0.6 -->
      <g transform="translate(271.04375 312.084405) scale(0.12 -0.12)">
       <use xlink:href="#DejaVuSans-2212"/>
       <use xlink:href="#DejaVuSans-30" x="83.789062"/>
       <use xlink:href="#DejaVuSans-2e" x="147.412109"/>
       <use xlink:href="#DejaVuSans-36" x="179.199219"/>
      </g>
     </g>
    </g>
    <g id="xtick_7">
     <g id="line2d_11">
      <g>
       <use xlink:href="#m3a307c75bc" x="331.494351" y="295.96628" style="stroke: #000000; stroke-width: 0.8"/>
      </g>
     </g>
     <g id="text_11">
      <!-- −0.3 -->
      <g transform="translate(316.924663 312.084405) scale(0.12 -0.12)">
       <use xlink:href="#DejaVuSans-2212"/>
       <use xlink:href="#DejaVuSans-30" x="83.789062"/>
       <use xlink:href="#DejaVuSans-2e" x="147.412109"/>
       <use xlink:href="#DejaVuSans-33" x="179.199219"/>
      </g>
     </g>
    </g>
    <g id="xtick_8">
     <g id="line2d_12">
      <g>
       <use xlink:href="#m3a307c75bc" x="377.375264" y="295.96628" style="stroke: #000000; stroke-width: 0.8"/>
      </g>
     </g>
     <g id="text_12">
      <!-- 0.0 -->
      <g transform="translate(367.833389 312.084405) scale(0.12 -0.12)">
       <use xlink:href="#DejaVuSans-30"/>
       <use xlink:href="#DejaVuSans-2e" x="63.623047"/>
       <use xlink:href="#DejaVuSans-30" x="95.410156"/>
      </g>
     </g>
    </g>
    <g id="xtick_9">
     <g id="line2d_13">
      <g>
       <use xlink:href="#m3a307c75bc" x="423.256177" y="295.96628" style="stroke: #000000; stroke-width: 0.8"/>
      </g>
     </g>
     <g id="text_13">
      <!-- 0.3 -->
      <g transform="translate(413.714302 312.084405) scale(0.12 -0.12)">
       <use xlink:href="#DejaVuSans-30"/>
       <use xlink:href="#DejaVuSans-2e" x="63.623047"/>
       <use xlink:href="#DejaVuSans-33" x="95.410156"/>
      </g>
     </g>
    </g>
    <g id="xtick_10">
     <g id="line2d_14">
      <g>
       <use xlink:href="#m3a307c75bc" x="469.137091" y="295.96628" style="stroke: #000000; stroke-width: 0.8"/>
      </g>
     </g>
     <g id="text_14">
      <!-- 0.6 -->
      <g transform="translate(459.595216 312.084405) scale(0.12 -0.12)">
       <use xlink:href="#DejaVuSans-30"/>
       <use xlink:href="#DejaVuSans-2e" x="63.623047"/>
       <use xlink:href="#DejaVuSans-36" x="95.410156"/>
      </g>
     </g>
    </g>
   </g>
   <g id="matplotlib.axis_4">
    <g id="ytick_4">
     <g id="line2d_15">
      <g>
       <use xlink:href="#m99b35c2c1c" x="276.437255" y="295.96628" style="stroke: #000000; stroke-width: 0.8"/>
      </g>
     </g>
    </g>
    <g id="ytick_5">
     <g id="line2d_16">
      <g>
       <use xlink:href="#m99b35c2c1c" x="276.437255" y="210.863709" style="stroke: #000000; stroke-width: 0.8"/>
      </g>
     </g>
    </g>
    <g id="ytick_6">
     <g id="line2d_17">
      <g>
       <use xlink:href="#m99b35c2c1c" x="276.437255" y="125.761138" style="stroke: #000000; stroke-width: 0.8"/>
      </g>
     </g>
    </g>
   </g>
   <g id="line2d_18">
    <path d="M 377.375264 295.96628 
L 377.375264 40.658567 
" clip-path="url(#p2e5af5edcc)" style="fill: none; stroke-dasharray: 3.7,1.6; stroke-dashoffset: 0; stroke: #1d1d1d"/>
   </g>
   <g id="patch_86">
    <path d="M 276.437255 295.96628 
L 276.437255 40.658567 
" style="fill: none; stroke: #000000; stroke-width: 0.8; stroke-linejoin: miter; stroke-linecap: square"/>
   </g>
   <g id="patch_87">
    <path d="M 285.613437 295.96628 
L 469.137091 295.96628 
" style="fill: none; stroke: #000000; stroke-width: 0.8; stroke-linejoin: miter; stroke-linecap: square"/>
   </g>
   <g id="text_15">
    <!-- counterclockw. -->
    <g transform="translate(276.437255 13.638053) scale(0.14 -0.14)">
     <defs>
      <path id="DejaVuSans-75" d="M 544 1381 
L 544 3500 
L 1119 3500 
L 1119 1403 
Q 1119 906 1312 657 
Q 1506 409 1894 409 
Q 2359 409 2629 706 
Q 2900 1003 2900 1516 
L 2900 3500 
L 3475 3500 
L 3475 0 
L 2900 0 
L 2900 538 
Q 2691 219 2414 64 
Q 2138 -91 1772 -91 
Q 1169 -91 856 284 
Q 544 659 544 1381 
z
M 1991 3584 
L 1991 3584 
z
" transform="scale(0.015625)"/>
      <path id="DejaVuSans-6e" d="M 3513 2113 
L 3513 0 
L 2938 0 
L 2938 2094 
Q 2938 2591 2744 2837 
Q 2550 3084 2163 3084 
Q 1697 3084 1428 2787 
Q 1159 2491 1159 1978 
L 1159 0 
L 581 0 
L 581 3500 
L 1159 3500 
L 1159 2956 
Q 1366 3272 1645 3428 
Q 1925 3584 2291 3584 
Q 2894 3584 3203 3211 
Q 3513 2838 3513 2113 
z
" transform="scale(0.015625)"/>
      <path id="DejaVuSans-74" d="M 1172 4494 
L 1172 3500 
L 2356 3500 
L 2356 3053 
L 1172 3053 
L 1172 1153 
Q 1172 725 1289 603 
Q 1406 481 1766 481 
L 2356 481 
L 2356 0 
L 1766 0 
Q 1100 0 847 248 
Q 594 497 594 1153 
L 594 3053 
L 172 3053 
L 172 3500 
L 594 3500 
L 594 4494 
L 1172 4494 
z
" transform="scale(0.015625)"/>
      <path id="DejaVuSans-65" d="M 3597 1894 
L 3597 1613 
L 953 1613 
Q 991 1019 1311 708 
Q 1631 397 2203 397 
Q 2534 397 2845 478 
Q 3156 559 3463 722 
L 3463 178 
Q 3153 47 2828 -22 
Q 2503 -91 2169 -91 
Q 1331 -91 842 396 
Q 353 884 353 1716 
Q 353 2575 817 3079 
Q 1281 3584 2069 3584 
Q 2775 3584 3186 3129 
Q 3597 2675 3597 1894 
z
M 3022 2063 
Q 3016 2534 2758 2815 
Q 2500 3097 2075 3097 
Q 1594 3097 1305 2825 
Q 1016 2553 972 2059 
L 3022 2063 
z
" transform="scale(0.015625)"/>
      <path id="DejaVuSans-72" d="M 2631 2963 
Q 2534 3019 2420 3045 
Q 2306 3072 2169 3072 
Q 1681 3072 1420 2755 
Q 1159 2438 1159 1844 
L 1159 0 
L 581 0 
L 581 3500 
L 1159 3500 
L 1159 2956 
Q 1341 3275 1631 3429 
Q 1922 3584 2338 3584 
Q 2397 3584 2469 3576 
Q 2541 3569 2628 3553 
L 2631 2963 
z
" transform="scale(0.015625)"/>
     </defs>
     <use xlink:href="#DejaVuSans-63"/>
     <use xlink:href="#DejaVuSans-6f" x="54.980469"/>
     <use xlink:href="#DejaVuSans-75" x="116.162109"/>
     <use xlink:href="#DejaVuSans-6e" x="179.541016"/>
     <use xlink:href="#DejaVuSans-74" x="242.919922"/>
     <use xlink:href="#DejaVuSans-65" x="282.128906"/>
     <use xlink:href="#DejaVuSans-72" x="343.652344"/>
     <use xlink:href="#DejaVuSans-63" x="382.515625"/>
     <use xlink:href="#DejaVuSans-6c" x="437.496094"/>
     <use xlink:href="#DejaVuSans-6f" x="465.279297"/>
     <use xlink:href="#DejaVuSans-63" x="526.460938"/>
     <use xlink:href="#DejaVuSans-6b" x="581.441406"/>
     <use xlink:href="#DejaVuSans-77" x="639.351562"/>
     <use xlink:href="#DejaVuSans-2e" x="712.013672"/>
    </g>
   </g>
  </g>
  <g id="text_16">
   <!-- Pearson r -->
   <g transform="translate(201.348187 333.345885) scale(0.168 -0.168)">
    <defs>
     <path id="DejaVuSans-50" d="M 1259 4147 
L 1259 2394 
L 2053 2394 
Q 2494 2394 2734 2622 
Q 2975 2850 2975 3272 
Q 2975 3691 2734 3919 
Q 2494 4147 2053 4147 
L 1259 4147 
z
M 628 4666 
L 2053 4666 
Q 2838 4666 3239 4311 
Q 3641 3956 3641 3272 
Q 3641 2581 3239 2228 
Q 2838 1875 2053 1875 
L 1259 1875 
L 1259 0 
L 628 0 
L 628 4666 
z
" transform="scale(0.015625)"/>
     <path id="DejaVuSans-61" d="M 2194 1759 
Q 1497 1759 1228 1600 
Q 959 1441 959 1056 
Q 959 750 1161 570 
Q 1363 391 1709 391 
Q 2188 391 2477 730 
Q 2766 1069 2766 1631 
L 2766 1759 
L 2194 1759 
z
M 3341 1997 
L 3341 0 
L 2766 0 
L 2766 531 
Q 2569 213 2275 61 
Q 1981 -91 1556 -91 
Q 1019 -91 701 211 
Q 384 513 384 1019 
Q 384 1609 779 1909 
Q 1175 2209 1959 2209 
L 2766 2209 
L 2766 2266 
Q 2766 2663 2505 2880 
Q 2244 3097 1772 3097 
Q 1472 3097 1187 3025 
Q 903 2953 641 2809 
L 641 3341 
Q 956 3463 1253 3523 
Q 1550 3584 1831 3584 
Q 2591 3584 2966 3190 
Q 3341 2797 3341 1997 
z
" transform="scale(0.015625)"/>
     <path id="DejaVuSans-73" d="M 2834 3397 
L 2834 2853 
Q 2591 2978 2328 3040 
Q 2066 3103 1784 3103 
Q 1356 3103 1142 2972 
Q 928 2841 928 2578 
Q 928 2378 1081 2264 
Q 1234 2150 1697 2047 
L 1894 2003 
Q 2506 1872 2764 1633 
Q 3022 1394 3022 966 
Q 3022 478 2636 193 
Q 2250 -91 1575 -91 
Q 1294 -91 989 -36 
Q 684 19 347 128 
L 347 722 
Q 666 556 975 473 
Q 1284 391 1588 391 
Q 1994 391 2212 530 
Q 2431 669 2431 922 
Q 2431 1156 2273 1281 
Q 2116 1406 1581 1522 
L 1381 1569 
Q 847 1681 609 1914 
Q 372 2147 372 2553 
Q 372 3047 722 3315 
Q 1072 3584 1716 3584 
Q 2034 3584 2315 3537 
Q 2597 3491 2834 3397 
z
" transform="scale(0.015625)"/>
     <path id="DejaVuSans-20" transform="scale(0.015625)"/>
    </defs>
    <use xlink:href="#DejaVuSans-50"/>
    <use xlink:href="#DejaVuSans-65" x="56.677734"/>
    <use xlink:href="#DejaVuSans-61" x="118.201172"/>
    <use xlink:href="#DejaVuSans-72" x="179.480469"/>
    <use xlink:href="#DejaVuSans-73" x="220.59375"/>
    <use xlink:href="#DejaVuSans-6f" x="272.693359"/>
    <use xlink:href="#DejaVuSans-6e" x="333.875"/>
    <use xlink:href="#DejaVuSans-20" x="397.253906"/>
    <use xlink:href="#DejaVuSans-72" x="429.041016"/>
   </g>
  </g>
  <g id="text_17">
   <!-- Count -->
   <g transform="translate(15.765615 194.865375) rotate(-90) scale(0.168 -0.168)">
    <defs>
     <path id="DejaVuSans-43" d="M 4122 4306 
L 4122 3641 
Q 3803 3938 3442 4084 
Q 3081 4231 2675 4231 
Q 1875 4231 1450 3742 
Q 1025 3253 1025 2328 
Q 1025 1406 1450 917 
Q 1875 428 2675 428 
Q 3081 428 3442 575 
Q 3803 722 4122 1019 
L 4122 359 
Q 3791 134 3420 21 
Q 3050 -91 2638 -91 
Q 1578 -91 968 557 
Q 359 1206 359 2328 
Q 359 3453 968 4101 
Q 1578 4750 2638 4750 
Q 3056 4750 3426 4639 
Q 3797 4528 4122 4306 
z
" transform="scale(0.015625)"/>
    </defs>
    <use xlink:href="#DejaVuSans-43"/>
    <use xlink:href="#DejaVuSans-6f" x="69.824219"/>
    <use xlink:href="#DejaVuSans-75" x="131.005859"/>
    <use xlink:href="#DejaVuSans-6e" x="194.384766"/>
    <use xlink:href="#DejaVuSans-74" x="257.763672"/>
   </g>
  </g>
 </g>
 <defs>
  <clipPath id="p8ff0748b30">
   <rect x="62.79997" y="23.638053" width="201.876019" height="272.328227"/>
  </clipPath>
  <clipPath id="p2e5af5edcc">
   <rect x="276.437255" y="23.638053" width="201.876019" height="272.328227"/>
  </clipPath>
 </defs>
</svg>
