<?xml version="1.0" encoding="utf-8" standalone="no"?>
<!DOCTYPE svg PUBLIC "-//W3C//DTD SVG 1.1//EN"
  "http://www.w3.org/Graphics/SVG/1.1/DTD/svg11.dtd">
<svg xmlns:xlink="http://www.w3.org/1999/xlink" width="255.11811pt" height="170.07874pt" viewBox="0 0 255.11811 170.07874" xmlns="http://www.w3.org/2000/svg" version="1.1">
 <metadata>
  <rdf:RDF xmlns:dc="http://purl.org/dc/elements/1.1/" xmlns:cc="http://creativecommons.org/ns#" xmlns:rdf="http://www.w3.org/1999/02/22-rdf-syntax-ns#">
   <cc:Work>
    <dc:type rdf:resource="http://purl.org/dc/dcmitype/StillImage"/>
    <dc:date>2022-11-23T18:57:09.829937</dc:date>
    <dc:format>image/svg+xml</dc:format>
    <dc:creator>
     <cc:Agent>
      <dc:title>Matplotlib v3.6.2, https://matplotlib.org/</dc:title>
     </cc:Agent>
    </dc:creator>
   </cc:Work>
  </rdf:RDF>
 </metadata>
 <defs>
  <style type="text/css">*{stroke-linejoin: round; stroke-linecap: butt}</style>
 </defs>
 <g id="figure_1">
  <g id="patch_1">
   <path d="M 0 170.07874 
L 255.11811 170.07874 
L 255.11811 0 
L 0 0 
z
" style="fill: #ffffff"/>
  </g>
  <g id="axes_1">
   <g id="patch_2">
    <path d="M 62.79997 126.20502 
L 143.108012 126.20502 
L 143.108012 23.638053 
L 62.79997 23.638053 
z
" style="fill: #ffffff"/>
   </g>
   <g id="patch_3">
    <path d="M 69.492307 126.20502 
L 71.165391 126.20502 
L 71.165391 126.20502 
L 69.492307 126.20502 
z
" clip-path="url(#p08f715ba69)" style="fill: #7d96b0"/>
   </g>
   <g id="patch_4">
    <path d="M 71.165391 126.20502 
L 72.838475 126.20502 
L 72.838475 126.20502 
L 71.165391 126.20502 
z
" clip-path="url(#p08f715ba69)" style="fill: #7d96b0"/>
   </g>
   <g id="patch_5">
    <path d="M 72.838475 126.20502 
L 74.511559 126.20502 
L 74.511559 126.20502 
L 72.838475 126.20502 
z
" clip-path="url(#p08f715ba69)" style="fill: #7d96b0"/>
   </g>
   <g id="patch_6">
    <path d="M 74.511559 126.20502 
L 76.184644 126.20502 
L 76.184644 126.20502 
L 74.511559 126.20502 
z
" clip-path="url(#p08f715ba69)" style="fill: #7d96b0"/>
   </g>
   <g id="patch_7">
    <path d="M 76.184644 126.20502 
L 77.857728 126.20502 
L 77.857728 126.012707 
L 76.184644 126.012707 
z
" clip-path="url(#p08f715ba69)" style="fill: #7d96b0"/>
   </g>
   <g id="patch_8">
    <path d="M 77.857728 126.20502 
L 79.530812 126.20502 
L 79.530812 125.820394 
L 77.857728 125.820394 
z
" clip-path="url(#p08f715ba69)" style="fill: #7d96b0"/>
   </g>
   <g id="patch_9">
    <path d="M 79.530812 126.20502 
L 81.203896 126.20502 
L 81.203896 125.499872 
L 79.530812 125.499872 
z
" clip-path="url(#p08f715ba69)" style="fill: #7d96b0"/>
   </g>
   <g id="patch_10">
    <path d="M 81.203896 126.20502 
L 82.87698 126.20502 
L 82.87698 124.73062 
L 81.203896 124.73062 
z
" clip-path="url(#p08f715ba69)" style="fill: #7d96b0"/>
   </g>
   <g id="patch_11">
    <path d="M 82.87698 126.20502 
L 84.550065 126.20502 
L 84.550065 125.243455 
L 82.87698 125.243455 
z
" clip-path="url(#p08f715ba69)" style="fill: #7d96b0"/>
   </g>
   <g id="patch_12">
    <path d="M 84.550065 126.20502 
L 86.223149 126.20502 
L 86.223149 124.217785 
L 84.550065 124.217785 
z
" clip-path="url(#p08f715ba69)" style="fill: #7d96b0"/>
   </g>
   <g id="patch_13">
    <path d="M 86.223149 126.20502 
L 87.896233 126.20502 
L 87.896233 124.28189 
L 86.223149 124.28189 
z
" clip-path="url(#p08f715ba69)" style="fill: #7d96b0"/>
   </g>
   <g id="patch_14">
    <path d="M 87.896233 126.20502 
L 89.569317 126.20502 
L 89.569317 123.897263 
L 87.896233 123.897263 
z
" clip-path="url(#p08f715ba69)" style="fill: #7d96b0"/>
   </g>
   <g id="patch_15">
    <path d="M 89.569317 126.20502 
L 91.242401 126.20502 
L 91.242401 122.807489 
L 89.569317 122.807489 
z
" clip-path="url(#p08f715ba69)" style="fill: #7d96b0"/>
   </g>
   <g id="patch_16">
    <path d="M 91.242401 126.20502 
L 92.915486 126.20502 
L 92.915486 121.268985 
L 91.242401 121.268985 
z
" clip-path="url(#p08f715ba69)" style="fill: #7d96b0"/>
   </g>
   <g id="patch_17">
    <path d="M 92.915486 126.20502 
L 94.58857 126.20502 
L 94.58857 117.679141 
L 92.915486 117.679141 
z
" clip-path="url(#p08f715ba69)" style="fill: #7d96b0"/>
   </g>
   <g id="patch_18">
    <path d="M 94.58857 126.20502 
L 96.261654 126.20502 
L 96.261654 111.33281 
L 94.58857 111.33281 
z
" clip-path="url(#p08f715ba69)" style="fill: #7d96b0"/>
   </g>
   <g id="patch_19">
    <path d="M 96.261654 126.20502 
L 97.934738 126.20502 
L 97.934738 94.857991 
L 96.261654 94.857991 
z
" clip-path="url(#p08f715ba69)" style="fill: #7d96b0"/>
   </g>
   <g id="patch_20">
    <path d="M 97.934738 126.20502 
L 99.607822 126.20502 
L 99.607822 63.703274 
L 97.934738 63.703274 
z
" clip-path="url(#p08f715ba69)" style="fill: #7d96b0"/>
   </g>
   <g id="patch_21">
    <path d="M 99.607822 126.20502 
L 101.280907 126.20502 
L 101.280907 18.89433 
L 99.607822 18.89433 
z
" clip-path="url(#p08f715ba69)" style="fill: #7d96b0"/>
   </g>
   <g id="patch_22">
    <path d="M 101.280907 126.20502 
L 102.953991 126.20502 
L 102.953991 -20.722161 
L 101.280907 -20.722161 
z
" clip-path="url(#p08f715ba69)" style="fill: #7d96b0"/>
   </g>
   <g id="patch_23">
    <path d="M 102.953991 126.20502 
L 104.627075 126.20502 
L 104.627075 -22.901709 
L 102.953991 -22.901709 
z
" clip-path="url(#p08f715ba69)" style="fill: #7d96b0"/>
   </g>
   <g id="patch_24">
    <path d="M 104.627075 126.20502 
L 106.300159 126.20502 
L 106.300159 16.907095 
L 104.627075 16.907095 
z
" clip-path="url(#p08f715ba69)" style="fill: #7d96b0"/>
   </g>
   <g id="patch_25">
    <path d="M 106.300159 126.20502 
L 107.973243 126.20502 
L 107.973243 64.600735 
L 106.300159 64.600735 
z
" clip-path="url(#p08f715ba69)" style="fill: #7d96b0"/>
   </g>
   <g id="patch_26">
    <path d="M 107.973243 126.20502 
L 109.646328 126.20502 
L 109.646328 99.473504 
L 107.973243 99.473504 
z
" clip-path="url(#p08f715ba69)" style="fill: #7d96b0"/>
   </g>
   <g id="patch_27">
    <path d="M 109.646328 126.20502 
L 111.319412 126.20502 
L 111.319412 114.794445 
L 109.646328 114.794445 
z
" clip-path="url(#p08f715ba69)" style="fill: #7d96b0"/>
   </g>
   <g id="patch_28">
    <path d="M 111.319412 126.20502 
L 112.992496 126.20502 
L 112.992496 120.371524 
L 111.319412 120.371524 
z
" clip-path="url(#p08f715ba69)" style="fill: #7d96b0"/>
   </g>
   <g id="patch_29">
    <path d="M 112.992496 126.20502 
L 114.66558 126.20502 
L 114.66558 121.845924 
L 112.992496 121.845924 
z
" clip-path="url(#p08f715ba69)" style="fill: #7d96b0"/>
   </g>
   <g id="patch_30">
    <path d="M 114.66558 126.20502 
L 116.338664 126.20502 
L 116.338664 123.897263 
L 114.66558 123.897263 
z
" clip-path="url(#p08f715ba69)" style="fill: #7d96b0"/>
   </g>
   <g id="patch_31">
    <path d="M 116.338664 126.20502 
L 118.011749 126.20502 
L 118.011749 124.345994 
L 116.338664 124.345994 
z
" clip-path="url(#p08f715ba69)" style="fill: #7d96b0"/>
   </g>
   <g id="patch_32">
    <path d="M 118.011749 126.20502 
L 119.684833 126.20502 
L 119.684833 124.858829 
L 118.011749 124.858829 
z
" clip-path="url(#p08f715ba69)" style="fill: #7d96b0"/>
   </g>
   <g id="patch_33">
    <path d="M 119.684833 126.20502 
L 121.357917 126.20502 
L 121.357917 124.794724 
L 119.684833 124.794724 
z
" clip-path="url(#p08f715ba69)" style="fill: #7d96b0"/>
   </g>
   <g id="patch_34">
    <path d="M 121.357917 126.20502 
L 123.031001 126.20502 
L 123.031001 125.17935 
L 121.357917 125.17935 
z
" clip-path="url(#p08f715ba69)" style="fill: #7d96b0"/>
   </g>
   <g id="patch_35">
    <path d="M 123.031001 126.20502 
L 124.704085 126.20502 
L 124.704085 125.307559 
L 123.031001 125.307559 
z
" clip-path="url(#p08f715ba69)" style="fill: #7d96b0"/>
   </g>
   <g id="patch_36">
    <path d="M 124.704085 126.20502 
L 126.37717 126.20502 
L 126.37717 125.75629 
L 124.704085 125.75629 
z
" clip-path="url(#p08f715ba69)" style="fill: #7d96b0"/>
   </g>
   <g id="patch_37">
    <path d="M 126.37717 126.20502 
L 128.050254 126.20502 
L 128.050254 125.435768 
L 126.37717 125.435768 
z
" clip-path="url(#p08f715ba69)" style="fill: #7d96b0"/>
   </g>
   <g id="patch_38">
    <path d="M 128.050254 126.20502 
L 129.723338 126.20502 
L 129.723338 125.948603 
L 128.050254 125.948603 
z
" clip-path="url(#p08f715ba69)" style="fill: #7d96b0"/>
   </g>
   <g id="patch_39">
    <path d="M 129.723338 126.20502 
L 131.396422 126.20502 
L 131.396422 125.692185 
L 129.723338 125.692185 
z
" clip-path="url(#p08f715ba69)" style="fill: #7d96b0"/>
   </g>
   <g id="patch_40">
    <path d="M 131.396422 126.20502 
L 133.069506 126.20502 
L 133.069506 125.75629 
L 131.396422 125.75629 
z
" clip-path="url(#p08f715ba69)" style="fill: #7d96b0"/>
   </g>
   <g id="patch_41">
    <path d="M 133.069506 126.20502 
L 134.742591 126.20502 
L 134.742591 125.884498 
L 133.069506 125.884498 
z
" clip-path="url(#p08f715ba69)" style="fill: #7d96b0"/>
   </g>
   <g id="patch_42">
    <path d="M 134.742591 126.20502 
L 136.415675 126.20502 
L 136.415675 126.076811 
L 134.742591 126.076811 
z
" clip-path="url(#p08f715ba69)" style="fill: #7d96b0"/>
   </g>
   <g id="matplotlib.axis_1">
    <g id="xtick_1">
     <g id="line2d_1">
      <defs>
       <path id="m5a0dff074d" d="M 0 0 
L 0 3.5 
" style="stroke: #000000; stroke-width: 0.8"/>
      </defs>
      <g>
       <use xlink:href="#m5a0dff074d" x="66.450336" y="126.20502" style="stroke: #000000; stroke-width: 0.8"/>
      </g>
     </g>
     <g id="text_1">
      <!-- −0.6 -->
      <g transform="translate(51.880648 142.323145) scale(0.12 -0.12)">
       <defs>
        <path id="DejaVuSans-2212" d="M 678 2272 
L 4684 2272 
L 4684 1741 
L 678 1741 
L 678 2272 
z
" transform="scale(0.015625)"/>
        <path id="DejaVuSans-30" d="M 2034 4250 
Q 1547 4250 1301 3770 
Q 1056 3291 1056 2328 
Q 1056 1369 1301 889 
Q 1547 409 2034 409 
Q 2525 409 2770 889 
Q 3016 1369 3016 2328 
Q 3016 3291 2770 3770 
Q 2525 4250 2034 4250 
z
M 2034 4750 
Q 2819 4750 3233 4129 
Q 3647 3509 3647 2328 
Q 3647 1150 3233 529 
Q 2819 -91 2034 -91 
Q 1250 -91 836 529 
Q 422 1150 422 2328 
Q 422 3509 836 4129 
Q 1250 4750 2034 4750 
z
" transform="scale(0.015625)"/>
        <path id="DejaVuSans-2e" d="M 684 794 
L 1344 794 
L 1344 0 
L 684 0 
L 684 794 
z
" transform="scale(0.015625)"/>
        <path id="DejaVuSans-36" d="M 2113 2584 
Q 1688 2584 1439 2293 
Q 1191 2003 1191 1497 
Q 1191 994 1439 701 
Q 1688 409 2113 409 
Q 2538 409 2786 701 
Q 3034 994 3034 1497 
Q 3034 2003 2786 2293 
Q 2538 2584 2113 2584 
z
M 3366 4563 
L 3366 3988 
Q 3128 4100 2886 4159 
Q 2644 4219 2406 4219 
Q 1781 4219 1451 3797 
Q 1122 3375 1075 2522 
Q 1259 2794 1537 2939 
Q 1816 3084 2150 3084 
Q 2853 3084 3261 2657 
Q 3669 2231 3669 1497 
Q 3669 778 3244 343 
Q 2819 -91 2113 -91 
Q 1303 -91 875 529 
Q 447 1150 447 2328 
Q 447 3434 972 4092 
Q 1497 4750 2381 4750 
Q 2619 4750 2861 4703 
Q 3103 4656 3366 4563 
z
" transform="scale(0.015625)"/>
       </defs>
       <use xlink:href="#DejaVuSans-2212"/>
       <use xlink:href="#DejaVuSans-30" x="83.789062"/>
       <use xlink:href="#DejaVuSans-2e" x="147.412109"/>
       <use xlink:href="#DejaVuSans-36" x="179.199219"/>
      </g>
     </g>
    </g>
    <g id="xtick_2">
     <g id="line2d_2">
      <g>
       <use xlink:href="#m5a0dff074d" x="84.702163" y="126.20502" style="stroke: #000000; stroke-width: 0.8"/>
      </g>
     </g>
     <g id="text_2">
      <!-- −0.3 -->
      <g transform="translate(70.132476 142.323145) scale(0.12 -0.12)">
       <defs>
        <path id="DejaVuSans-33" d="M 2597 2516 
Q 3050 2419 3304 2112 
Q 3559 1806 3559 1356 
Q 3559 666 3084 287 
Q 2609 -91 1734 -91 
Q 1441 -91 1130 -33 
Q 819 25 488 141 
L 488 750 
Q 750 597 1062 519 
Q 1375 441 1716 441 
Q 2309 441 2620 675 
Q 2931 909 2931 1356 
Q 2931 1769 2642 2001 
Q 2353 2234 1838 2234 
L 1294 2234 
L 1294 2753 
L 1863 2753 
Q 2328 2753 2575 2939 
Q 2822 3125 2822 3475 
Q 2822 3834 2567 4026 
Q 2313 4219 1838 4219 
Q 1578 4219 1281 4162 
Q 984 4106 628 3988 
L 628 4550 
Q 988 4650 1302 4700 
Q 1616 4750 1894 4750 
Q 2613 4750 3031 4423 
Q 3450 4097 3450 3541 
Q 3450 3153 3228 2886 
Q 3006 2619 2597 2516 
z
" transform="scale(0.015625)"/>
       </defs>
       <use xlink:href="#DejaVuSans-2212"/>
       <use xlink:href="#DejaVuSans-30" x="83.789062"/>
       <use xlink:href="#DejaVuSans-2e" x="147.412109"/>
       <use xlink:href="#DejaVuSans-33" x="179.199219"/>
      </g>
     </g>
    </g>
    <g id="xtick_3">
     <g id="line2d_3">
      <g>
       <use xlink:href="#m5a0dff074d" x="102.953991" y="126.20502" style="stroke: #000000; stroke-width: 0.8"/>
      </g>
     </g>
     <g id="text_3">
      <!-- 0.0 -->
      <g transform="translate(93.412116 142.323145) scale(0.12 -0.12)">
       <use xlink:href="#DejaVuSans-30"/>
       <use xlink:href="#DejaVuSans-2e" x="63.623047"/>
       <use xlink:href="#DejaVuSans-30" x="95.410156"/>
      </g>
     </g>
    </g>
    <g id="xtick_4">
     <g id="line2d_4">
      <g>
       <use xlink:href="#m5a0dff074d" x="121.205818" y="126.20502" style="stroke: #000000; stroke-width: 0.8"/>
      </g>
     </g>
     <g id="text_4">
      <!-- 0.3 -->
      <g transform="translate(111.663943 142.323145) scale(0.12 -0.12)">
       <use xlink:href="#DejaVuSans-30"/>
       <use xlink:href="#DejaVuSans-2e" x="63.623047"/>
       <use xlink:href="#DejaVuSans-33" x="95.410156"/>
      </g>
     </g>
    </g>
    <g id="xtick_5">
     <g id="line2d_5">
      <g>
       <use xlink:href="#m5a0dff074d" x="139.457646" y="126.20502" style="stroke: #000000; stroke-width: 0.8"/>
      </g>
     </g>
     <g id="text_5">
      <!-- 0.6 -->
      <g transform="translate(129.915771 142.323145) scale(0.12 -0.12)">
       <use xlink:href="#DejaVuSans-30"/>
       <use xlink:href="#DejaVuSans-2e" x="63.623047"/>
       <use xlink:href="#DejaVuSans-36" x="95.410156"/>
      </g>
     </g>
    </g>
   </g>
   <g id="matplotlib.axis_2">
    <g id="ytick_1">
     <g id="line2d_6">
      <defs>
       <path id="m09e829354f" d="M 0 0 
L -3.5 0 
" style="stroke: #000000; stroke-width: 0.8"/>
      </defs>
      <g>
       <use xlink:href="#m09e829354f" x="62.79997" y="126.20502" style="stroke: #000000; stroke-width: 0.8"/>
      </g>
     </g>
     <g id="text_6">
      <!-- 0 -->
      <g transform="translate(48.16497 130.764083) scale(0.12 -0.12)">
       <use xlink:href="#DejaVuSans-30"/>
      </g>
     </g>
    </g>
    <g id="ytick_2">
     <g id="line2d_7">
      <g>
       <use xlink:href="#m09e829354f" x="62.79997" y="94.152843" style="stroke: #000000; stroke-width: 0.8"/>
      </g>
     </g>
     <g id="text_7">
      <!-- 500 -->
      <g transform="translate(32.89497 98.711905) scale(0.12 -0.12)">
       <defs>
        <path id="DejaVuSans-35" d="M 691 4666 
L 3169 4666 
L 3169 4134 
L 1269 4134 
L 1269 2991 
Q 1406 3038 1543 3061 
Q 1681 3084 1819 3084 
Q 2600 3084 3056 2656 
Q 3513 2228 3513 1497 
Q 3513 744 3044 326 
Q 2575 -91 1722 -91 
Q 1428 -91 1123 -41 
Q 819 9 494 109 
L 494 744 
Q 775 591 1075 516 
Q 1375 441 1709 441 
Q 2250 441 2565 725 
Q 2881 1009 2881 1497 
Q 2881 1984 2565 2268 
Q 2250 2553 1709 2553 
Q 1456 2553 1204 2497 
Q 953 2441 691 2322 
L 691 4666 
z
" transform="scale(0.015625)"/>
       </defs>
       <use xlink:href="#DejaVuSans-35"/>
       <use xlink:href="#DejaVuSans-30" x="63.623047"/>
       <use xlink:href="#DejaVuSans-30" x="127.246094"/>
      </g>
     </g>
    </g>
    <g id="ytick_3">
     <g id="line2d_8">
      <g>
       <use xlink:href="#m09e829354f" x="62.79997" y="62.100665" style="stroke: #000000; stroke-width: 0.8"/>
      </g>
     </g>
     <g id="text_8">
      <!-- 1000 -->
      <g transform="translate(25.25997 66.659728) scale(0.12 -0.12)">
       <defs>
        <path id="DejaVuSans-31" d="M 794 531 
L 1825 531 
L 1825 4091 
L 703 3866 
L 703 4441 
L 1819 4666 
L 2450 4666 
L 2450 531 
L 3481 531 
L 3481 0 
L 794 0 
L 794 531 
z
" transform="scale(0.015625)"/>
       </defs>
       <use xlink:href="#DejaVuSans-31"/>
       <use xlink:href="#DejaVuSans-30" x="63.623047"/>
       <use xlink:href="#DejaVuSans-30" x="127.246094"/>
       <use xlink:href="#DejaVuSans-30" x="190.869141"/>
      </g>
     </g>
    </g>
   </g>
   <g id="line2d_9">
    <path d="M 102.953991 126.20502 
L 102.953991 30.048488 
" clip-path="url(#p08f715ba69)" style="fill: none; stroke-dasharray: 3.7,1.6; stroke-dashoffset: 0; stroke: #1d1d1d"/>
   </g>
   <g id="patch_43">
    <path d="M 62.79997 126.20502 
L 62.79997 30.048488 
" style="fill: none; stroke: #000000; stroke-width: 0.8; stroke-linejoin: miter; stroke-linecap: square"/>
   </g>
   <g id="patch_44">
    <path d="M 66.450336 126.20502 
L 139.457646 126.20502 
" style="fill: none; stroke: #000000; stroke-width: 0.8; stroke-linejoin: miter; stroke-linecap: square"/>
   </g>
   <g id="text_9">
    <!-- clockw. -->
    <g transform="translate(62.79997 13.638053) scale(0.14 -0.14)">
     <defs>
      <path id="DejaVuSans-63" d="M 3122 3366 
L 3122 2828 
Q 2878 2963 2633 3030 
Q 2388 3097 2138 3097 
Q 1578 3097 1268 2742 
Q 959 2388 959 1747 
Q 959 1106 1268 751 
Q 1578 397 2138 397 
Q 2388 397 2633 464 
Q 2878 531 3122 666 
L 3122 134 
Q 2881 22 2623 -34 
Q 2366 -91 2075 -91 
Q 1284 -91 818 406 
Q 353 903 353 1747 
Q 353 2603 823 3093 
Q 1294 3584 2113 3584 
Q 2378 3584 2631 3529 
Q 2884 3475 3122 3366 
z
" transform="scale(0.015625)"/>
      <path id="DejaVuSans-6c" d="M 603 4863 
L 1178 4863 
L 1178 0 
L 603 0 
L 603 4863 
z
" transform="scale(0.015625)"/>
      <path id="DejaVuSans-6f" d="M 1959 3097 
Q 1497 3097 1228 2736 
Q 959 2375 959 1747 
Q 959 1119 1226 758 
Q 1494 397 1959 397 
Q 2419 397 2687 759 
Q 2956 1122 2956 1747 
Q 2956 2369 2687 2733 
Q 2419 3097 1959 3097 
z
M 1959 3584 
Q 2709 3584 3137 3096 
Q 3566 2609 3566 1747 
Q 3566 888 3137 398 
Q 2709 -91 1959 -91 
Q 1206 -91 779 398 
Q 353 888 353 1747 
Q 353 2609 779 3096 
Q 1206 3584 1959 3584 
z
" transform="scale(0.015625)"/>
      <path id="DejaVuSans-6b" d="M 581 4863 
L 1159 4863 
L 1159 1991 
L 2875 3500 
L 3609 3500 
L 1753 1863 
L 3688 0 
L 2938 0 
L 1159 1709 
L 1159 0 
L 581 0 
L 581 4863 
z
" transform="scale(0.015625)"/>
      <path id="DejaVuSans-77" d="M 269 3500 
L 844 3500 
L 1563 769 
L 2278 3500 
L 2956 3500 
L 3675 769 
L 4391 3500 
L 4966 3500 
L 4050 0 
L 3372 0 
L 2619 2869 
L 1863 0 
L 1184 0 
L 269 3500 
z
" transform="scale(0.015625)"/>
     </defs>
     <use xlink:href="#DejaVuSans-63"/>
     <use xlink:href="#DejaVuSans-6c" x="54.980469"/>
     <use xlink:href="#DejaVuSans-6f" x="82.763672"/>
     <use xlink:href="#DejaVuSans-63" x="143.945312"/>
     <use xlink:href="#DejaVuSans-6b" x="198.925781"/>
     <use xlink:href="#DejaVuSans-77" x="256.835938"/>
     <use xlink:href="#DejaVuSans-2e" x="329.498047"/>
    </g>
   </g>
  </g>
  <g id="axes_2">
   <g id="patch_45">
    <path d="M 165.918654 126.20502 
L 246.226695 126.20502 
L 246.226695 23.638053 
L 165.918654 23.638053 
z
" style="fill: #ffffff"/>
   </g>
   <g id="patch_46">
    <path d="M 172.610991 126.20502 
L 174.284075 126.20502 
L 174.284075 126.20502 
L 172.610991 126.20502 
z
" clip-path="url(#p52fb271100)" style="fill: #7d96b0"/>
   </g>
   <g id="patch_47">
    <path d="M 174.284075 126.20502 
L 175.957159 126.20502 
L 175.957159 126.20502 
L 174.284075 126.20502 
z
" clip-path="url(#p52fb271100)" style="fill: #7d96b0"/>
   </g>
   <g id="patch_48">
    <path d="M 175.957159 126.20502 
L 177.630243 126.20502 
L 177.630243 126.20502 
L 175.957159 126.20502 
z
" clip-path="url(#p52fb271100)" style="fill: #7d96b0"/>
   </g>
   <g id="patch_49">
    <path d="M 177.630243 126.20502 
L 179.303327 126.20502 
L 179.303327 126.076811 
L 177.630243 126.076811 
z
" clip-path="url(#p52fb271100)" style="fill: #7d96b0"/>
   </g>
   <g id="patch_50">
    <path d="M 179.303327 126.20502 
L 180.976412 126.20502 
L 180.976412 125.948603 
L 179.303327 125.948603 
z
" clip-path="url(#p52fb271100)" style="fill: #7d96b0"/>
   </g>
   <g id="patch_51">
    <path d="M 180.976412 126.20502 
L 182.649496 126.20502 
L 182.649496 125.692185 
L 180.976412 125.692185 
z
" clip-path="url(#p52fb271100)" style="fill: #7d96b0"/>
   </g>
   <g id="patch_52">
    <path d="M 182.649496 126.20502 
L 184.32258 126.20502 
L 184.32258 124.987037 
L 182.649496 124.987037 
z
" clip-path="url(#p52fb271100)" style="fill: #7d96b0"/>
   </g>
   <g id="patch_53">
    <path d="M 184.32258 126.20502 
L 185.995664 126.20502 
L 185.995664 124.73062 
L 184.32258 124.73062 
z
" clip-path="url(#p52fb271100)" style="fill: #7d96b0"/>
   </g>
   <g id="patch_54">
    <path d="M 185.995664 126.20502 
L 187.668748 126.20502 
L 187.668748 124.474203 
L 185.995664 124.474203 
z
" clip-path="url(#p52fb271100)" style="fill: #7d96b0"/>
   </g>
   <g id="patch_55">
    <path d="M 187.668748 126.20502 
L 189.341833 126.20502 
L 189.341833 124.474203 
L 187.668748 124.474203 
z
" clip-path="url(#p52fb271100)" style="fill: #7d96b0"/>
   </g>
   <g id="patch_56">
    <path d="M 189.341833 126.20502 
L 191.014917 126.20502 
L 191.014917 124.987037 
L 189.341833 124.987037 
z
" clip-path="url(#p52fb271100)" style="fill: #7d96b0"/>
   </g>
   <g id="patch_57">
    <path d="M 191.014917 126.20502 
L 192.688001 126.20502 
L 192.688001 123.70495 
L 191.014917 123.70495 
z
" clip-path="url(#p52fb271100)" style="fill: #7d96b0"/>
   </g>
   <g id="patch_58">
    <path d="M 192.688001 126.20502 
L 194.361085 126.20502 
L 194.361085 123.192115 
L 192.688001 123.192115 
z
" clip-path="url(#p52fb271100)" style="fill: #7d96b0"/>
   </g>
   <g id="patch_59">
    <path d="M 194.361085 126.20502 
L 196.034169 126.20502 
L 196.034169 121.78182 
L 194.361085 121.78182 
z
" clip-path="url(#p52fb271100)" style="fill: #7d96b0"/>
   </g>
   <g id="patch_60">
    <path d="M 196.034169 126.20502 
L 197.707254 126.20502 
L 197.707254 117.80735 
L 196.034169 117.80735 
z
" clip-path="url(#p52fb271100)" style="fill: #7d96b0"/>
   </g>
   <g id="patch_61">
    <path d="M 197.707254 126.20502 
L 199.380338 126.20502 
L 199.380338 107.678862 
L 197.707254 107.678862 
z
" clip-path="url(#p52fb271100)" style="fill: #7d96b0"/>
   </g>
   <g id="patch_62">
    <path d="M 199.380338 126.20502 
L 201.053422 126.20502 
L 201.053422 86.139798 
L 199.380338 86.139798 
z
" clip-path="url(#p52fb271100)" style="fill: #7d96b0"/>
   </g>
   <g id="patch_63">
    <path d="M 201.053422 126.20502 
L 202.726506 126.20502 
L 202.726506 44.471968 
L 201.053422 44.471968 
z
" clip-path="url(#p52fb271100)" style="fill: #7d96b0"/>
   </g>
   <g id="patch_64">
    <path d="M 202.726506 126.20502 
L 204.39959 126.20502 
L 204.39959 -2.516524 
L 202.726506 -2.516524 
z
" clip-path="url(#p52fb271100)" style="fill: #7d96b0"/>
   </g>
   <g id="patch_65">
    <path d="M 204.39959 126.20502 
L 206.072675 126.20502 
L 206.072675 -25.145361 
L 204.39959 -25.145361 
z
" clip-path="url(#p52fb271100)" style="fill: #7d96b0"/>
   </g>
   <g id="patch_66">
    <path d="M 206.072675 126.20502 
L 207.745759 126.20502 
L 207.745759 -3.413985 
L 206.072675 -3.413985 
z
" clip-path="url(#p52fb271100)" style="fill: #7d96b0"/>
   </g>
   <g id="patch_67">
    <path d="M 207.745759 126.20502 
L 209.418843 126.20502 
L 209.418843 32.612662 
L 207.745759 32.612662 
z
" clip-path="url(#p52fb271100)" style="fill: #7d96b0"/>
   </g>
   <g id="patch_68">
    <path d="M 209.418843 126.20502 
L 211.091927 126.20502 
L 211.091927 78.639589 
L 209.418843 78.639589 
z
" clip-path="url(#p52fb271100)" style="fill: #7d96b0"/>
   </g>
   <g id="patch_69">
    <path d="M 211.091927 126.20502 
L 212.765011 126.20502 
L 212.765011 103.704392 
L 211.091927 103.704392 
z
" clip-path="url(#p52fb271100)" style="fill: #7d96b0"/>
   </g>
   <g id="patch_70">
    <path d="M 212.765011 126.20502 
L 214.438096 126.20502 
L 214.438096 114.858549 
L 212.765011 114.858549 
z
" clip-path="url(#p52fb271100)" style="fill: #7d96b0"/>
   </g>
   <g id="patch_71">
    <path d="M 214.438096 126.20502 
L 216.11118 126.20502 
L 216.11118 120.499733 
L 214.438096 120.499733 
z
" clip-path="url(#p52fb271100)" style="fill: #7d96b0"/>
   </g>
   <g id="patch_72">
    <path d="M 216.11118 126.20502 
L 217.784264 126.20502 
L 217.784264 123.25622 
L 216.11118 123.25622 
z
" clip-path="url(#p52fb271100)" style="fill: #7d96b0"/>
   </g>
   <g id="patch_73">
    <path d="M 217.784264 126.20502 
L 219.457348 126.20502 
L 219.457348 124.474203 
L 217.784264 124.474203 
z
" clip-path="url(#p52fb271100)" style="fill: #7d96b0"/>
   </g>
   <g id="patch_74">
    <path d="M 219.457348 126.20502 
L 221.130432 126.20502 
L 221.130432 124.410098 
L 219.457348 124.410098 
z
" clip-path="url(#p52fb271100)" style="fill: #7d96b0"/>
   </g>
   <g id="patch_75">
    <path d="M 221.130432 126.20502 
L 222.803517 126.20502 
L 222.803517 124.858829 
L 221.130432 124.858829 
z
" clip-path="url(#p52fb271100)" style="fill: #7d96b0"/>
   </g>
   <g id="patch_76">
    <path d="M 222.803517 126.20502 
L 224.476601 126.20502 
L 224.476601 125.115246 
L 222.803517 125.115246 
z
" clip-path="url(#p52fb271100)" style="fill: #7d96b0"/>
   </g>
   <g id="patch_77">
    <path d="M 224.476601 126.20502 
L 226.149685 126.20502 
L 226.149685 125.307559 
L 224.476601 125.307559 
z
" clip-path="url(#p52fb271100)" style="fill: #7d96b0"/>
   </g>
   <g id="patch_78">
    <path d="M 226.149685 126.20502 
L 227.822769 126.20502 
L 227.822769 125.75629 
L 226.149685 125.75629 
z
" clip-path="url(#p52fb271100)" style="fill: #7d96b0"/>
   </g>
   <g id="patch_79">
    <path d="M 227.822769 126.20502 
L 229.495853 126.20502 
L 229.495853 125.75629 
L 227.822769 125.75629 
z
" clip-path="url(#p52fb271100)" style="fill: #7d96b0"/>
   </g>
   <g id="patch_80">
    <path d="M 229.495853 126.20502 
L 231.168938 126.20502 
L 231.168938 125.948603 
L 229.495853 125.948603 
z
" clip-path="url(#p52fb271100)" style="fill: #7d96b0"/>
   </g>
   <g id="patch_81">
    <path d="M 231.168938 126.20502 
L 232.842022 126.20502 
L 232.842022 125.692185 
L 231.168938 125.692185 
z
" clip-path="url(#p52fb271100)" style="fill: #7d96b0"/>
   </g>
   <g id="patch_82">
    <path d="M 232.842022 126.20502 
L 234.515106 126.20502 
L 234.515106 126.076811 
L 232.842022 126.076811 
z
" clip-path="url(#p52fb271100)" style="fill: #7d96b0"/>
   </g>
   <g id="patch_83">
    <path d="M 234.515106 126.20502 
L 236.18819 126.20502 
L 236.18819 126.20502 
L 234.515106 126.20502 
z
" clip-path="url(#p52fb271100)" style="fill: #7d96b0"/>
   </g>
   <g id="patch_84">
    <path d="M 236.18819 126.20502 
L 237.861274 126.20502 
L 237.861274 125.948603 
L 236.18819 125.948603 
z
" clip-path="url(#p52fb271100)" style="fill: #7d96b0"/>
   </g>
   <g id="patch_85">
    <path d="M 237.861274 126.20502 
L 239.534359 126.20502 
L 239.534359 125.884498 
L 237.861274 125.884498 
z
" clip-path="url(#p52fb271100)" style="fill: #7d96b0"/>
   </g>
   <g id="matplotlib.axis_3">
    <g id="xtick_6">
     <g id="line2d_10">
      <g>
       <use xlink:href="#m5a0dff074d" x="169.569019" y="126.20502" style="stroke: #000000; stroke-width: 0.8"/>
      </g>
     </g>
     <g id="text_10">
      <!-- −0.6 -->
      <g transform="translate(154.999332 142.323145) scale(0.12 -0.12)">
       <use xlink:href="#DejaVuSans-2212"/>
       <use xlink:href="#DejaVuSans-30" x="83.789062"/>
       <use xlink:href="#DejaVuSans-2e" x="147.412109"/>
       <use xlink:href="#DejaVuSans-36" x="179.199219"/>
      </g>
     </g>
    </g>
    <g id="xtick_7">
     <g id="line2d_11">
      <g>
       <use xlink:href="#m5a0dff074d" x="187.820847" y="126.20502" style="stroke: #000000; stroke-width: 0.8"/>
      </g>
     </g>
     <g id="text_11">
      <!-- −0.3 -->
      <g transform="translate(173.251159 142.323145) scale(0.12 -0.12)">
       <use xlink:href="#DejaVuSans-2212"/>
       <use xlink:href="#DejaVuSans-30" x="83.789062"/>
       <use xlink:href="#DejaVuSans-2e" x="147.412109"/>
       <use xlink:href="#DejaVuSans-33" x="179.199219"/>
      </g>
     </g>
    </g>
    <g id="xtick_8">
     <g id="line2d_12">
      <g>
       <use xlink:href="#m5a0dff074d" x="206.072675" y="126.20502" style="stroke: #000000; stroke-width: 0.8"/>
      </g>
     </g>
     <g id="text_12">
      <!-- 0.0 -->
      <g transform="translate(196.5308 142.323145) scale(0.12 -0.12)">
       <use xlink:href="#DejaVuSans-30"/>
       <use xlink:href="#DejaVuSans-2e" x="63.623047"/>
       <use xlink:href="#DejaVuSans-30" x="95.410156"/>
      </g>
     </g>
    </g>
    <g id="xtick_9">
     <g id="line2d_13">
      <g>
       <use xlink:href="#m5a0dff074d" x="224.324502" y="126.20502" style="stroke: #000000; stroke-width: 0.8"/>
      </g>
     </g>
     <g id="text_13">
      <!-- 0.3 -->
      <g transform="translate(214.782627 142.323145) scale(0.12 -0.12)">
       <use xlink:href="#DejaVuSans-30"/>
       <use xlink:href="#DejaVuSans-2e" x="63.623047"/>
       <use xlink:href="#DejaVuSans-33" x="95.410156"/>
      </g>
     </g>
    </g>
    <g id="xtick_10">
     <g id="line2d_14">
      <g>
       <use xlink:href="#m5a0dff074d" x="242.57633" y="126.20502" style="stroke: #000000; stroke-width: 0.8"/>
      </g>
     </g>
     <g id="text_14">
      <!-- 0.6 -->
      <g transform="translate(233.034455 142.323145) scale(0.12 -0.12)">
       <use xlink:href="#DejaVuSans-30"/>
       <use xlink:href="#DejaVuSans-2e" x="63.623047"/>
       <use xlink:href="#DejaVuSans-36" x="95.410156"/>
      </g>
     </g>
    </g>
   </g>
   <g id="matplotlib.axis_4">
    <g id="ytick_4">
     <g id="line2d_15">
      <g>
       <use xlink:href="#m09e829354f" x="165.918654" y="126.20502" style="stroke: #000000; stroke-width: 0.8"/>
      </g>
     </g>
    </g>
    <g id="ytick_5">
     <g id="line2d_16">
      <g>
       <use xlink:href="#m09e829354f" x="165.918654" y="94.152843" style="stroke: #000000; stroke-width: 0.8"/>
      </g>
     </g>
    </g>
    <g id="ytick_6">
     <g id="line2d_17">
      <g>
       <use xlink:href="#m09e829354f" x="165.918654" y="62.100665" style="stroke: #000000; stroke-width: 0.8"/>
      </g>
     </g>
    </g>
   </g>
   <g id="line2d_18">
    <path d="M 206.072675 126.20502 
L 206.072675 30.048488 
" clip-path="url(#p52fb271100)" style="fill: none; stroke-dasharray: 3.7,1.6; stroke-dashoffset: 0; stroke: #1d1d1d"/>
   </g>
   <g id="patch_86">
    <path d="M 165.918654 126.20502 
L 165.918654 30.048488 
" style="fill: none; stroke: #000000; stroke-width: 0.8; stroke-linejoin: miter; stroke-linecap: square"/>
   </g>
   <g id="patch_87">
    <path d="M 169.569019 126.20502 
L 242.57633 126.20502 
" style="fill: none; stroke: #000000; stroke-width: 0.8; stroke-linejoin: miter; stroke-linecap: square"/>
   </g>
   <g id="text_15">
    <!-- counterclockw. -->
    <g transform="translate(165.918654 13.638053) scale(0.14 -0.14)">
     <defs>
      <path id="DejaVuSans-75" d="M 544 1381 
L 544 3500 
L 1119 3500 
L 1119 1403 
Q 1119 906 1312 657 
Q 1506 409 1894 409 
Q 2359 409 2629 706 
Q 2900 1003 2900 1516 
L 2900 3500 
L 3475 3500 
L 3475 0 
L 2900 0 
L 2900 538 
Q 2691 219 2414 64 
Q 2138 -91 1772 -91 
Q 1169 -91 856 284 
Q 544 659 544 1381 
z
M 1991 3584 
L 1991 3584 
z
" transform="scale(0.015625)"/>
      <path id="DejaVuSans-6e" d="M 3513 2113 
L 3513 0 
L 2938 0 
L 2938 2094 
Q 2938 2591 2744 2837 
Q 2550 3084 2163 3084 
Q 1697 3084 1428 2787 
Q 1159 2491 1159 1978 
L 1159 0 
L 581 0 
L 581 3500 
L 1159 3500 
L 1159 2956 
Q 1366 3272 1645 3428 
Q 1925 3584 2291 3584 
Q 2894 3584 3203 3211 
Q 3513 2838 3513 2113 
z
" transform="scale(0.015625)"/>
      <path id="DejaVuSans-74" d="M 1172 4494 
L 1172 3500 
L 2356 3500 
L 2356 3053 
L 1172 3053 
L 1172 1153 
Q 1172 725 1289 603 
Q 1406 481 1766 481 
L 2356 481 
L 2356 0 
L 1766 0 
Q 1100 0 847 248 
Q 594 497 594 1153 
L 594 3053 
L 172 3053 
L 172 3500 
L 594 3500 
L 594 4494 
L 1172 4494 
z
" transform="scale(0.015625)"/>
      <path id="DejaVuSans-65" d="M 3597 1894 
L 3597 1613 
L 953 1613 
Q 991 1019 1311 708 
Q 1631 397 2203 397 
Q 2534 397 2845 478 
Q 3156 559 3463 722 
L 3463 178 
Q 3153 47 2828 -22 
Q 2503 -91 2169 -91 
Q 1331 -91 842 396 
Q 353 884 353 1716 
Q 353 2575 817 3079 
Q 1281 3584 2069 3584 
Q 2775 3584 3186 3129 
Q 3597 2675 3597 1894 
z
M 3022 2063 
Q 3016 2534 2758 2815 
Q 2500 3097 2075 3097 
Q 1594 3097 1305 2825 
Q 1016 2553 972 2059 
L 3022 2063 
z
" transform="scale(0.015625)"/>
      <path id="DejaVuSans-72" d="M 2631 2963 
Q 2534 3019 2420 3045 
Q 2306 3072 2169 3072 
Q 1681 3072 1420 2755 
Q 1159 2438 1159 1844 
L 1159 0 
L 581 0 
L 581 3500 
L 1159 3500 
L 1159 2956 
Q 1341 3275 1631 3429 
Q 1922 3584 2338 3584 
Q 2397 3584 2469 3576 
Q 2541 3569 2628 3553 
L 2631 2963 
z
" transform="scale(0.015625)"/>
     </defs>
     <use xlink:href="#DejaVuSans-63"/>
     <use xlink:href="#DejaVuSans-6f" x="54.980469"/>
     <use xlink:href="#DejaVuSans-75" x="116.162109"/>
     <use xlink:href="#DejaVuSans-6e" x="179.541016"/>
     <use xlink:href="#DejaVuSans-74" x="242.919922"/>
     <use xlink:href="#DejaVuSans-65" x="282.128906"/>
     <use xlink:href="#DejaVuSans-72" x="343.652344"/>
     <use xlink:href="#DejaVuSans-63" x="382.515625"/>
     <use xlink:href="#DejaVuSans-6c" x="437.496094"/>
     <use xlink:href="#DejaVuSans-6f" x="465.279297"/>
     <use xlink:href="#DejaVuSans-63" x="526.460938"/>
     <use xlink:href="#DejaVuSans-6b" x="581.441406"/>
     <use xlink:href="#DejaVuSans-77" x="639.351562"/>
     <use xlink:href="#DejaVuSans-2e" x="712.013672"/>
    </g>
   </g>
  </g>
  <g id="text_16">
   <!-- Pearson r -->
   <g transform="translate(88.067243 163.584625) scale(0.168 -0.168)">
    <defs>
     <path id="DejaVuSans-50" d="M 1259 4147 
L 1259 2394 
L 2053 2394 
Q 2494 2394 2734 2622 
Q 2975 2850 2975 3272 
Q 2975 3691 2734 3919 
Q 2494 4147 2053 4147 
L 1259 4147 
z
M 628 4666 
L 2053 4666 
Q 2838 4666 3239 4311 
Q 3641 3956 3641 3272 
Q 3641 2581 3239 2228 
Q 2838 1875 2053 1875 
L 1259 1875 
L 1259 0 
L 628 0 
L 628 4666 
z
" transform="scale(0.015625)"/>
     <path id="DejaVuSans-61" d="M 2194 1759 
Q 1497 1759 1228 1600 
Q 959 1441 959 1056 
Q 959 750 1161 570 
Q 1363 391 1709 391 
Q 2188 391 2477 730 
Q 2766 1069 2766 1631 
L 2766 1759 
L 2194 1759 
z
M 3341 1997 
L 3341 0 
L 2766 0 
L 2766 531 
Q 2569 213 2275 61 
Q 1981 -91 1556 -91 
Q 1019 -91 701 211 
Q 384 513 384 1019 
Q 384 1609 779 1909 
Q 1175 2209 1959 2209 
L 2766 2209 
L 2766 2266 
Q 2766 2663 2505 2880 
Q 2244 3097 1772 3097 
Q 1472 3097 1187 3025 
Q 903 2953 641 2809 
L 641 3341 
Q 956 3463 1253 3523 
Q 1550 3584 1831 3584 
Q 2591 3584 2966 3190 
Q 3341 2797 3341 1997 
z
" transform="scale(0.015625)"/>
     <path id="DejaVuSans-73" d="M 2834 3397 
L 2834 2853 
Q 2591 2978 2328 3040 
Q 2066 3103 1784 3103 
Q 1356 3103 1142 2972 
Q 928 2841 928 2578 
Q 928 2378 1081 2264 
Q 1234 2150 1697 2047 
L 1894 2003 
Q 2506 1872 2764 1633 
Q 3022 1394 3022 966 
Q 3022 478 2636 193 
Q 2250 -91 1575 -91 
Q 1294 -91 989 -36 
Q 684 19 347 128 
L 347 722 
Q 666 556 975 473 
Q 1284 391 1588 391 
Q 1994 391 2212 530 
Q 2431 669 2431 922 
Q 2431 1156 2273 1281 
Q 2116 1406 1581 1522 
L 1381 1569 
Q 847 1681 609 1914 
Q 372 2147 372 2553 
Q 372 3047 722 3315 
Q 1072 3584 1716 3584 
Q 2034 3584 2315 3537 
Q 2597 3491 2834 3397 
z
" transform="scale(0.015625)"/>
     <path id="DejaVuSans-20" transform="scale(0.015625)"/>
    </defs>
    <use xlink:href="#DejaVuSans-50"/>
    <use xlink:href="#DejaVuSans-65" x="56.677734"/>
    <use xlink:href="#DejaVuSans-61" x="118.201172"/>
    <use xlink:href="#DejaVuSans-72" x="179.480469"/>
    <use xlink:href="#DejaVuSans-73" x="220.59375"/>
    <use xlink:href="#DejaVuSans-6f" x="272.693359"/>
    <use xlink:href="#DejaVuSans-6e" x="333.875"/>
    <use xlink:href="#DejaVuSans-20" x="397.253906"/>
    <use xlink:href="#DejaVuSans-72" x="429.041016"/>
   </g>
  </g>
  <g id="text_17">
   <!-- Count -->
   <g transform="translate(15.765615 109.984745) rotate(-90) scale(0.168 -0.168)">
    <defs>
     <path id="DejaVuSans-43" d="M 4122 4306 
L 4122 3641 
Q 3803 3938 3442 4084 
Q 3081 4231 2675 4231 
Q 1875 4231 1450 3742 
Q 1025 3253 1025 2328 
Q 1025 1406 1450 917 
Q 1875 428 2675 428 
Q 3081 428 3442 575 
Q 3803 722 4122 1019 
L 4122 359 
Q 3791 134 3420 21 
Q 3050 -91 2638 -91 
Q 1578 -91 968 557 
Q 359 1206 359 2328 
Q 359 3453 968 4101 
Q 1578 4750 2638 4750 
Q 3056 4750 3426 4639 
Q 3797 4528 4122 4306 
z
" transform="scale(0.015625)"/>
    </defs>
    <use xlink:href="#DejaVuSans-43"/>
    <use xlink:href="#DejaVuSans-6f" x="69.824219"/>
    <use xlink:href="#DejaVuSans-75" x="131.005859"/>
    <use xlink:href="#DejaVuSans-6e" x="194.384766"/>
    <use xlink:href="#DejaVuSans-74" x="257.763672"/>
   </g>
  </g>
 </g>
 <defs>
  <clipPath id="p08f715ba69">
   <rect x="62.79997" y="23.638053" width="80.308042" height="102.566968"/>
  </clipPath>
  <clipPath id="p52fb271100">
   <rect x="165.918654" y="23.638053" width="80.308042" height="102.566968"/>
  </clipPath>
 </defs>
</svg>
