<?xml version="1.0" encoding="utf-8" standalone="no"?>
<!DOCTYPE svg PUBLIC "-//W3C//DTD SVG 1.1//EN"
  "http://www.w3.org/Graphics/SVG/1.1/DTD/svg11.dtd">
<svg xmlns:xlink="http://www.w3.org/1999/xlink" width="481.889764pt" height="340.15748pt" viewBox="0 0 481.889764 340.15748" xmlns="http://www.w3.org/2000/svg" version="1.1">
 <metadata>
  <rdf:RDF xmlns:dc="http://purl.org/dc/elements/1.1/" xmlns:cc="http://creativecommons.org/ns#" xmlns:rdf="http://www.w3.org/1999/02/22-rdf-syntax-ns#">
   <cc:Work>
    <dc:type rdf:resource="http://purl.org/dc/dcmitype/StillImage"/>
    <dc:date>2022-11-22T22:29:48.892146</dc:date>
    <dc:format>image/svg+xml</dc:format>
    <dc:creator>
     <cc:Agent>
      <dc:title>Matplotlib v3.6.2, https://matplotlib.org/</dc:title>
     </cc:Agent>
    </dc:creator>
   </cc:Work>
  </rdf:RDF>
 </metadata>
 <defs>
  <style type="text/css">*{stroke-linejoin: round; stroke-linecap: butt}</style>
 </defs>
 <g id="figure_1">
  <g id="patch_1">
   <path d="M 0 340.15748 
L 481.889764 340.15748 
L 481.889764 0 
L 0 0 
z
" style="fill: #ffffff"/>
  </g>
  <g id="axes_1">
   <g id="patch_2">
    <path d="M 46.633365 296.28376 
L 467.614214 296.28376 
L 467.614214 23.638053 
L 46.633365 23.638053 
z
" style="fill: #ffffff"/>
   </g>
   <g id="patch_3">
    <path d="M 48.717429 296.28376 
L 57.053683 296.28376 
L 57.053683 296.28376 
L 48.717429 296.28376 
z
" clip-path="url(#p20b5c72392)" style="fill: #ffffff; stroke: #a9a9a9; stroke-linejoin: miter"/>
   </g>
   <g id="patch_4">
    <path d="M 57.053683 296.28376 
L 65.389937 296.28376 
L 65.389937 296.28376 
L 57.053683 296.28376 
z
" clip-path="url(#p20b5c72392)" style="fill: #ffffff; stroke: #a9a9a9; stroke-linejoin: miter"/>
   </g>
   <g id="patch_5">
    <path d="M 65.389937 296.28376 
L 73.726192 296.28376 
L 73.726192 296.28376 
L 65.389937 296.28376 
z
" clip-path="url(#p20b5c72392)" style="fill: #ffffff; stroke: #a9a9a9; stroke-linejoin: miter"/>
   </g>
   <g id="patch_6">
    <path d="M 73.726192 296.28376 
L 82.062446 296.28376 
L 82.062446 296.28376 
L 73.726192 296.28376 
z
" clip-path="url(#p20b5c72392)" style="fill: #ffffff; stroke: #a9a9a9; stroke-linejoin: miter"/>
   </g>
   <g id="patch_7">
    <path d="M 82.062446 296.28376 
L 90.398701 296.28376 
L 90.398701 296.28376 
L 82.062446 296.28376 
z
" clip-path="url(#p20b5c72392)" style="fill: #ffffff; stroke: #a9a9a9; stroke-linejoin: miter"/>
   </g>
   <g id="patch_8">
    <path d="M 90.398701 296.28376 
L 98.734955 296.28376 
L 98.734955 296.28376 
L 90.398701 296.28376 
z
" clip-path="url(#p20b5c72392)" style="fill: #ffffff; stroke: #a9a9a9; stroke-linejoin: miter"/>
   </g>
   <g id="patch_9">
    <path d="M 98.734955 296.28376 
L 107.07121 296.28376 
L 107.07121 296.28376 
L 98.734955 296.28376 
z
" clip-path="url(#p20b5c72392)" style="fill: #ffffff; stroke: #a9a9a9; stroke-linejoin: miter"/>
   </g>
   <g id="patch_10">
    <path d="M 107.07121 296.28376 
L 115.407464 296.28376 
L 115.407464 296.28376 
L 107.07121 296.28376 
z
" clip-path="url(#p20b5c72392)" style="fill: #ffffff; stroke: #a9a9a9; stroke-linejoin: miter"/>
   </g>
   <g id="patch_11">
    <path d="M 115.407464 296.28376 
L 123.743718 296.28376 
L 123.743718 296.28376 
L 115.407464 296.28376 
z
" clip-path="url(#p20b5c72392)" style="fill: #ffffff; stroke: #a9a9a9; stroke-linejoin: miter"/>
   </g>
   <g id="patch_12">
    <path d="M 123.743718 296.28376 
L 132.079973 296.28376 
L 132.079973 296.28376 
L 123.743718 296.28376 
z
" clip-path="url(#p20b5c72392)" style="fill: #ffffff; stroke: #a9a9a9; stroke-linejoin: miter"/>
   </g>
   <g id="patch_13">
    <path d="M 132.079973 296.28376 
L 140.416227 296.28376 
L 140.416227 296.28376 
L 132.079973 296.28376 
z
" clip-path="url(#p20b5c72392)" style="fill: #ffffff; stroke: #a9a9a9; stroke-linejoin: miter"/>
   </g>
   <g id="patch_14">
    <path d="M 140.416227 296.28376 
L 148.752482 296.28376 
L 148.752482 296.28376 
L 140.416227 296.28376 
z
" clip-path="url(#p20b5c72392)" style="fill: #ffffff; stroke: #a9a9a9; stroke-linejoin: miter"/>
   </g>
   <g id="patch_15">
    <path d="M 148.752482 296.28376 
L 157.088736 296.28376 
L 157.088736 296.28376 
L 148.752482 296.28376 
z
" clip-path="url(#p20b5c72392)" style="fill: #ffffff; stroke: #a9a9a9; stroke-linejoin: miter"/>
   </g>
   <g id="patch_16">
    <path d="M 157.088736 296.28376 
L 165.424991 296.28376 
L 165.424991 296.28376 
L 157.088736 296.28376 
z
" clip-path="url(#p20b5c72392)" style="fill: #ffffff; stroke: #a9a9a9; stroke-linejoin: miter"/>
   </g>
   <g id="patch_17">
    <path d="M 165.424991 296.28376 
L 173.761245 296.28376 
L 173.761245 296.28376 
L 165.424991 296.28376 
z
" clip-path="url(#p20b5c72392)" style="fill: #ffffff; stroke: #a9a9a9; stroke-linejoin: miter"/>
   </g>
   <g id="patch_18">
    <path d="M 173.761245 296.28376 
L 182.097499 296.28376 
L 182.097499 296.28376 
L 173.761245 296.28376 
z
" clip-path="url(#p20b5c72392)" style="fill: #ffffff; stroke: #a9a9a9; stroke-linejoin: miter"/>
   </g>
   <g id="patch_19">
    <path d="M 182.097499 296.28376 
L 190.433754 296.28376 
L 190.433754 296.130902 
L 182.097499 296.130902 
z
" clip-path="url(#p20b5c72392)" style="fill: #ffffff; stroke: #a9a9a9; stroke-linejoin: miter"/>
   </g>
   <g id="patch_20">
    <path d="M 190.433754 296.28376 
L 198.770008 296.28376 
L 198.770008 295.825185 
L 190.433754 295.825185 
z
" clip-path="url(#p20b5c72392)" style="fill: #ffffff; stroke: #a9a9a9; stroke-linejoin: miter"/>
   </g>
   <g id="patch_21">
    <path d="M 198.770008 296.28376 
L 207.106263 296.28376 
L 207.106263 295.672327 
L 198.770008 295.672327 
z
" clip-path="url(#p20b5c72392)" style="fill: #ffffff; stroke: #a9a9a9; stroke-linejoin: miter"/>
   </g>
   <g id="patch_22">
    <path d="M 207.106263 296.28376 
L 215.442517 296.28376 
L 215.442517 295.672327 
L 207.106263 295.672327 
z
" clip-path="url(#p20b5c72392)" style="fill: #ffffff; stroke: #a9a9a9; stroke-linejoin: miter"/>
   </g>
   <g id="patch_23">
    <path d="M 215.442517 296.28376 
L 223.778772 296.28376 
L 223.778772 294.143744 
L 215.442517 294.143744 
z
" clip-path="url(#p20b5c72392)" style="fill: #ffffff; stroke: #a9a9a9; stroke-linejoin: miter"/>
   </g>
   <g id="patch_24">
    <path d="M 223.778772 296.28376 
L 232.115026 296.28376 
L 232.115026 292.920878 
L 223.778772 292.920878 
z
" clip-path="url(#p20b5c72392)" style="fill: #ffffff; stroke: #a9a9a9; stroke-linejoin: miter"/>
   </g>
   <g id="patch_25">
    <path d="M 232.115026 296.28376 
L 240.45128 296.28376 
L 240.45128 285.583679 
L 232.115026 285.583679 
z
" clip-path="url(#p20b5c72392)" style="fill: #ffffff; stroke: #a9a9a9; stroke-linejoin: miter"/>
   </g>
   <g id="patch_26">
    <path d="M 240.45128 296.28376 
L 248.787535 296.28376 
L 248.787535 258.374902 
L 240.45128 258.374902 
z
" clip-path="url(#p20b5c72392)" style="fill: #ffffff; stroke: #a9a9a9; stroke-linejoin: miter"/>
   </g>
   <g id="patch_27">
    <path d="M 248.787535 296.28376 
L 257.123789 296.28376 
L 257.123789 194.480132 
L 248.787535 194.480132 
z
" clip-path="url(#p20b5c72392)" style="fill: #ffffff; stroke: #a9a9a9; stroke-linejoin: miter"/>
   </g>
   <g id="patch_28">
    <path d="M 257.123789 296.28376 
L 265.460044 296.28376 
L 265.460044 97.109395 
L 257.123789 97.109395 
z
" clip-path="url(#p20b5c72392)" style="fill: #ffffff; stroke: #a9a9a9; stroke-linejoin: miter"/>
   </g>
   <g id="patch_29">
    <path d="M 265.460044 296.28376 
L 273.796298 296.28376 
L 273.796298 59.200536 
L 265.460044 59.200536 
z
" clip-path="url(#p20b5c72392)" style="fill: #ffffff; stroke: #a9a9a9; stroke-linejoin: miter"/>
   </g>
   <g id="patch_30">
    <path d="M 273.796298 296.28376 
L 282.132553 296.28376 
L 282.132553 70.970625 
L 273.796298 70.970625 
z
" clip-path="url(#p20b5c72392)" style="fill: #ffffff; stroke: #a9a9a9; stroke-linejoin: miter"/>
   </g>
   <g id="patch_31">
    <path d="M 282.132553 296.28376 
L 290.468807 296.28376 
L 290.468807 114.535241 
L 282.132553 114.535241 
z
" clip-path="url(#p20b5c72392)" style="fill: #ffffff; stroke: #a9a9a9; stroke-linejoin: miter"/>
   </g>
   <g id="patch_32">
    <path d="M 290.468807 296.28376 
L 298.805061 296.28376 
L 298.805061 157.029848 
L 290.468807 157.029848 
z
" clip-path="url(#p20b5c72392)" style="fill: #ffffff; stroke: #a9a9a9; stroke-linejoin: miter"/>
   </g>
   <g id="patch_33">
    <path d="M 298.805061 296.28376 
L 307.141316 296.28376 
L 307.141316 184.544343 
L 298.805061 184.544343 
z
" clip-path="url(#p20b5c72392)" style="fill: #ffffff; stroke: #a9a9a9; stroke-linejoin: miter"/>
   </g>
   <g id="patch_34">
    <path d="M 307.141316 296.28376 
L 315.47757 296.28376 
L 315.47757 210.530254 
L 307.141316 210.530254 
z
" clip-path="url(#p20b5c72392)" style="fill: #ffffff; stroke: #a9a9a9; stroke-linejoin: miter"/>
   </g>
   <g id="patch_35">
    <path d="M 315.47757 296.28376 
L 323.813825 296.28376 
L 323.813825 224.593217 
L 315.47757 224.593217 
z
" clip-path="url(#p20b5c72392)" style="fill: #ffffff; stroke: #a9a9a9; stroke-linejoin: miter"/>
   </g>
   <g id="patch_36">
    <path d="M 323.813825 296.28376 
L 332.150079 296.28376 
L 332.150079 236.821881 
L 323.813825 236.821881 
z
" clip-path="url(#p20b5c72392)" style="fill: #ffffff; stroke: #a9a9a9; stroke-linejoin: miter"/>
   </g>
   <g id="patch_37">
    <path d="M 332.150079 296.28376 
L 340.486334 296.28376 
L 340.486334 249.50912 
L 332.150079 249.50912 
z
" clip-path="url(#p20b5c72392)" style="fill: #ffffff; stroke: #a9a9a9; stroke-linejoin: miter"/>
   </g>
   <g id="patch_38">
    <path d="M 340.486334 296.28376 
L 348.822588 296.28376 
L 348.822588 256.387744 
L 340.486334 256.387744 
z
" clip-path="url(#p20b5c72392)" style="fill: #ffffff; stroke: #a9a9a9; stroke-linejoin: miter"/>
   </g>
   <g id="patch_39">
    <path d="M 348.822588 296.28376 
L 357.158842 296.28376 
L 357.158842 262.349218 
L 348.822588 262.349218 
z
" clip-path="url(#p20b5c72392)" style="fill: #ffffff; stroke: #a9a9a9; stroke-linejoin: miter"/>
   </g>
   <g id="patch_40">
    <path d="M 357.158842 296.28376 
L 365.495097 296.28376 
L 365.495097 264.336375 
L 357.158842 264.336375 
z
" clip-path="url(#p20b5c72392)" style="fill: #ffffff; stroke: #a9a9a9; stroke-linejoin: miter"/>
   </g>
   <g id="patch_41">
    <path d="M 365.495097 296.28376 
L 373.831351 296.28376 
L 373.831351 266.934967 
L 365.495097 266.934967 
z
" clip-path="url(#p20b5c72392)" style="fill: #ffffff; stroke: #a9a9a9; stroke-linejoin: miter"/>
   </g>
   <g id="patch_42">
    <path d="M 373.831351 296.28376 
L 382.167606 296.28376 
L 382.167606 272.89644 
L 373.831351 272.89644 
z
" clip-path="url(#p20b5c72392)" style="fill: #ffffff; stroke: #a9a9a9; stroke-linejoin: miter"/>
   </g>
   <g id="patch_43">
    <path d="M 382.167606 296.28376 
L 390.50386 296.28376 
L 390.50386 270.603566 
L 382.167606 270.603566 
z
" clip-path="url(#p20b5c72392)" style="fill: #ffffff; stroke: #a9a9a9; stroke-linejoin: miter"/>
   </g>
   <g id="patch_44">
    <path d="M 390.50386 296.28376 
L 398.840115 296.28376 
L 398.840115 270.450708 
L 390.50386 270.450708 
z
" clip-path="url(#p20b5c72392)" style="fill: #ffffff; stroke: #a9a9a9; stroke-linejoin: miter"/>
   </g>
   <g id="patch_45">
    <path d="M 398.840115 296.28376 
L 407.176369 296.28376 
L 407.176369 277.176473 
L 398.840115 277.176473 
z
" clip-path="url(#p20b5c72392)" style="fill: #ffffff; stroke: #a9a9a9; stroke-linejoin: miter"/>
   </g>
   <g id="patch_46">
    <path d="M 407.176369 296.28376 
L 415.512623 296.28376 
L 415.512623 276.870756 
L 407.176369 276.870756 
z
" clip-path="url(#p20b5c72392)" style="fill: #ffffff; stroke: #a9a9a9; stroke-linejoin: miter"/>
   </g>
   <g id="patch_47">
    <path d="M 415.512623 296.28376 
L 423.848878 296.28376 
L 423.848878 277.023614 
L 415.512623 277.023614 
z
" clip-path="url(#p20b5c72392)" style="fill: #ffffff; stroke: #a9a9a9; stroke-linejoin: miter"/>
   </g>
   <g id="patch_48">
    <path d="M 423.848878 296.28376 
L 432.185132 296.28376 
L 432.185132 278.705056 
L 423.848878 278.705056 
z
" clip-path="url(#p20b5c72392)" style="fill: #ffffff; stroke: #a9a9a9; stroke-linejoin: miter"/>
   </g>
   <g id="patch_49">
    <path d="M 432.185132 296.28376 
L 440.521387 296.28376 
L 440.521387 278.552197 
L 432.185132 278.552197 
z
" clip-path="url(#p20b5c72392)" style="fill: #ffffff; stroke: #a9a9a9; stroke-linejoin: miter"/>
   </g>
   <g id="patch_50">
    <path d="M 440.521387 296.28376 
L 448.857641 296.28376 
L 448.857641 284.972246 
L 440.521387 284.972246 
z
" clip-path="url(#p20b5c72392)" style="fill: #ffffff; stroke: #a9a9a9; stroke-linejoin: miter"/>
   </g>
   <g id="patch_51">
    <path d="M 448.857641 296.28376 
L 457.193896 296.28376 
L 457.193896 290.93372 
L 448.857641 290.93372 
z
" clip-path="url(#p20b5c72392)" style="fill: #ffffff; stroke: #a9a9a9; stroke-linejoin: miter"/>
   </g>
   <g id="patch_52">
    <path d="M 457.193896 296.28376 
L 465.53015 296.28376 
L 465.53015 295.672327 
L 457.193896 295.672327 
z
" clip-path="url(#p20b5c72392)" style="fill: #ffffff; stroke: #a9a9a9; stroke-linejoin: miter"/>
   </g>
   <g id="PolyCollection_1">
    <defs>
     <path id="m5c854edd26" d="M 332.71808 -97.268314 
L 332.71808 -43.87372 
L 333.553376 -43.87372 
L 334.388672 -43.87372 
L 335.223969 -43.87372 
L 336.059265 -43.87372 
L 336.894561 -43.87372 
L 337.729857 -43.87372 
L 338.565153 -43.87372 
L 339.400449 -43.87372 
L 340.235745 -43.87372 
L 341.071041 -43.87372 
L 341.906337 -43.87372 
L 342.741633 -43.87372 
L 343.576929 -43.87372 
L 344.412225 -43.87372 
L 345.247521 -43.87372 
L 346.082817 -43.87372 
L 346.918113 -43.87372 
L 347.753409 -43.87372 
L 348.588705 -43.87372 
L 349.424001 -43.87372 
L 350.259297 -43.87372 
L 351.094593 -43.87372 
L 351.929889 -43.87372 
L 352.765185 -43.87372 
L 353.600481 -43.87372 
L 354.435777 -43.87372 
L 355.271073 -43.87372 
L 356.106369 -43.87372 
L 356.941665 -43.87372 
L 357.776961 -43.87372 
L 358.612257 -43.87372 
L 359.447554 -43.87372 
L 360.28285 -43.87372 
L 361.118146 -43.87372 
L 361.953442 -43.87372 
L 362.788738 -43.87372 
L 363.624034 -43.87372 
L 364.45933 -43.87372 
L 365.294626 -43.87372 
L 366.129922 -43.87372 
L 366.965218 -43.87372 
L 367.800514 -43.87372 
L 368.63581 -43.87372 
L 369.471106 -43.87372 
L 370.306402 -43.87372 
L 371.141698 -43.87372 
L 371.976994 -43.87372 
L 372.81229 -43.87372 
L 373.647586 -43.87372 
L 374.482882 -43.87372 
L 375.318178 -43.87372 
L 376.153474 -43.87372 
L 376.98877 -43.87372 
L 377.824066 -43.87372 
L 378.659362 -43.87372 
L 379.494658 -43.87372 
L 380.329954 -43.87372 
L 381.16525 -43.87372 
L 382.000546 -43.87372 
L 382.835843 -43.87372 
L 383.671139 -43.87372 
L 384.506435 -43.87372 
L 385.341731 -43.87372 
L 386.177027 -43.87372 
L 387.012323 -43.87372 
L 387.847619 -43.87372 
L 388.682915 -43.87372 
L 389.518211 -43.87372 
L 390.353507 -43.87372 
L 391.188803 -43.87372 
L 392.024099 -43.87372 
L 392.859395 -43.87372 
L 393.694691 -43.87372 
L 394.529987 -43.87372 
L 395.365283 -43.87372 
L 396.200579 -43.87372 
L 397.035875 -43.87372 
L 397.871171 -43.87372 
L 398.706467 -43.87372 
L 399.541763 -43.87372 
L 400.377059 -43.87372 
L 401.212355 -43.87372 
L 402.047651 -43.87372 
L 402.882947 -43.87372 
L 403.718243 -43.87372 
L 404.553539 -43.87372 
L 405.388835 -43.87372 
L 406.224131 -43.87372 
L 407.059428 -43.87372 
L 407.894724 -43.87372 
L 408.73002 -43.87372 
L 409.565316 -43.87372 
L 410.400612 -43.87372 
L 411.235908 -43.87372 
L 412.071204 -43.87372 
L 412.9065 -43.87372 
L 413.741796 -43.87372 
L 414.577092 -43.87372 
L 415.412388 -43.87372 
L 416.247684 -43.87372 
L 417.08298 -43.87372 
L 417.918276 -43.87372 
L 418.753572 -43.87372 
L 419.588868 -43.87372 
L 420.424164 -43.87372 
L 421.25946 -43.87372 
L 422.094756 -43.87372 
L 422.930052 -43.87372 
L 423.765348 -43.87372 
L 424.600644 -43.87372 
L 425.43594 -43.87372 
L 426.271236 -43.87372 
L 427.106532 -43.87372 
L 427.941828 -43.87372 
L 428.777124 -43.87372 
L 429.61242 -43.87372 
L 430.447716 -43.87372 
L 431.283013 -43.87372 
L 432.118309 -43.87372 
L 432.953605 -43.87372 
L 433.788901 -43.87372 
L 434.624197 -43.87372 
L 435.459493 -43.87372 
L 436.294789 -43.87372 
L 437.130085 -43.87372 
L 437.965381 -43.87372 
L 438.800677 -43.87372 
L 439.635973 -43.87372 
L 440.471269 -43.87372 
L 441.306565 -43.87372 
L 442.141861 -43.87372 
L 442.977157 -43.87372 
L 443.812453 -43.87372 
L 444.647749 -43.87372 
L 445.483045 -43.87372 
L 446.318341 -43.87372 
L 447.153637 -43.87372 
L 447.988933 -43.87372 
L 448.824229 -43.87372 
L 449.659525 -43.87372 
L 450.494821 -43.87372 
L 451.330117 -43.87372 
L 452.165413 -43.87372 
L 453.000709 -43.87372 
L 453.836005 -43.87372 
L 454.671301 -43.87372 
L 455.506598 -43.87372 
L 456.341894 -43.87372 
L 457.17719 -43.87372 
L 458.012486 -43.87372 
L 458.847782 -43.87372 
L 459.683078 -43.87372 
L 460.518374 -43.87372 
L 461.35367 -43.87372 
L 462.188966 -43.87372 
L 463.024262 -43.87372 
L 463.859558 -43.87372 
L 464.694854 -43.87372 
L 465.53015 -43.87372 
L 465.53015 -44.116504 
L 465.53015 -44.116504 
L 464.694854 -44.222811 
L 463.859558 -44.361613 
L 463.024262 -44.537327 
L 462.188966 -44.753305 
L 461.35367 -45.011478 
L 460.518374 -45.312146 
L 459.683078 -45.653979 
L 458.847782 -46.034196 
L 458.012486 -46.448903 
L 457.17719 -46.893513 
L 456.341894 -47.363174 
L 455.506598 -47.853158 
L 454.671301 -48.359132 
L 453.836005 -48.877342 
L 453.000709 -49.404705 
L 452.165413 -49.938865 
L 451.330117 -50.478283 
L 450.494821 -51.022387 
L 449.659525 -51.571788 
L 448.824229 -52.128451 
L 447.988933 -52.695687 
L 447.153637 -53.277799 
L 446.318341 -53.879269 
L 445.483045 -54.503534 
L 444.647749 -55.151569 
L 443.812453 -55.820634 
L 442.977157 -56.50358 
L 442.141861 -57.18901 
L 441.306565 -57.862353 
L 440.471269 -58.507656 
L 439.635973 -59.109673 
L 438.800677 -59.655749 
L 437.965381 -60.137062 
L 437.130085 -60.54903 
L 436.294789 -60.89092 
L 435.459493 -61.164958 
L 434.624197 -61.37532 
L 433.788901 -61.52739 
L 432.953605 -61.627462 
L 432.118309 -61.682901 
L 431.283013 -61.70252 
L 430.447716 -61.696881 
L 429.61242 -61.678191 
L 428.777124 -61.659637 
L 427.941828 -61.654167 
L 427.106532 -61.672913 
L 426.271236 -61.723577 
L 425.43594 -61.809129 
L 424.600644 -61.927131 
L 423.765348 -62.069885 
L 422.930052 -62.225475 
L 422.094756 -62.379624 
L 421.25946 -62.518149 
L 420.424164 -62.629628 
L 419.588868 -62.70781 
L 418.753572 -62.75322 
L 417.918276 -62.773514 
L 417.08298 -62.782292 
L 416.247684 -62.796423 
L 415.412388 -62.832309 
L 414.577092 -62.901829 
L 413.741796 -63.008935 
L 412.9065 -63.147803 
L 412.071204 -63.303204 
L 411.235908 -63.45322 
L 410.400612 -63.573875 
L 409.565316 -63.644698 
L 408.73002 -63.653929 
L 407.894724 -63.602089 
L 407.059428 -63.503006 
L 406.224131 -63.382022 
L 405.388835 -63.271808 
L 404.553539 -63.206814 
L 403.718243 -63.217662 
L 402.882947 -63.326708 
L 402.047651 -63.545556 
L 401.212355 -63.874723 
L 400.377059 -64.30506 
L 399.541763 -64.820159 
L 398.706467 -65.398897 
L 397.871171 -66.017532 
L 397.035875 -66.651131 
L 396.200579 -67.274584 
L 395.365283 -67.863647 
L 394.529987 -68.39646 
L 393.694691 -68.855646 
L 392.859395 -69.23067 
L 392.024099 -69.519748 
L 391.188803 -69.730458 
L 390.353507 -69.878444 
L 389.518211 -69.984096 
L 388.682915 -70.067819 
L 387.847619 -70.144995 
L 387.012323 -70.222059 
L 386.177027 -70.294852 
L 385.341731 -70.349889 
L 384.506435 -70.368346 
L 383.671139 -70.331838 
L 382.835843 -70.228519 
L 382.000546 -70.057948 
L 381.16525 -69.83345 
L 380.329954 -69.58133 
L 379.494658 -69.337081 
L 378.659362 -69.13943 
L 377.824066 -69.023593 
L 376.98877 -69.015261 
L 376.153474 -69.126625 
L 375.318178 -69.355233 
L 374.482882 -69.685743 
L 373.647586 -70.09394 
L 372.81229 -70.55186 
L 371.976994 -71.03271 
L 371.141698 -71.514453 
L 370.306402 -71.981484 
L 369.471106 -72.4244 
L 368.63581 -72.838505 
L 367.800514 -73.221886 
L 366.965218 -73.573938 
L 366.129922 -73.894794 
L 365.294626 -74.185706 
L 364.45933 -74.449926 
L 363.624034 -74.693458 
L 362.788738 -74.9251 
L 361.953442 -75.155479 
L 361.118146 -75.395253 
L 360.28285 -75.652974 
L 359.447554 -75.933335 
L 358.612257 -76.236378 
L 357.776961 -76.55798 
L 356.941665 -76.891469 
L 356.106369 -77.229868 
L 355.271073 -77.568086 
L 354.435777 -77.904418 
L 353.600481 -78.241006 
L 352.765185 -78.583255 
L 351.929889 -78.938547 
L 351.094593 -79.314718 
L 350.259297 -79.718767 
L 349.424001 -80.15604 
L 348.588705 -80.629915 
L 347.753409 -81.141841 
L 346.918113 -81.691548 
L 346.082817 -82.277346 
L 345.247521 -82.896574 
L 344.412225 -83.546302 
L 343.576929 -84.224364 
L 342.741633 -84.930573 
L 341.906337 -85.667791 
L 341.071041 -86.442388 
L 340.235745 -87.263711 
L 339.400449 -88.142457 
L 338.565153 -89.088205 
L 337.729857 -90.106701 
L 336.894561 -91.197615 
L 336.059265 -92.353385 
L 335.223969 -93.559468 
L 334.388672 -94.795907 
L 333.553376 -96.039823 
L 332.71808 -97.268314 
z
" style="stroke: #8cb78d; stroke-opacity: 0.5"/>
    </defs>
    <g clip-path="url(#p20b5c72392)">
     <use xlink:href="#m5c854edd26" x="0" y="340.15748" style="fill: #8cb78d; fill-opacity: 0.5; stroke: #8cb78d; stroke-opacity: 0.5"/>
    </g>
   </g>
   <g id="matplotlib.axis_1">
    <g id="xtick_1">
     <g id="line2d_1">
      <defs>
       <path id="m2f1d644685" d="M 0 0 
L 0 3.5 
" style="stroke: #000000; stroke-width: 0.8"/>
      </defs>
      <g>
       <use xlink:href="#m2f1d644685" x="48.717429" y="296.28376" style="stroke: #000000; stroke-width: 0.8"/>
      </g>
     </g>
     <g id="text_1">
      <!-- −1.00 -->
      <g transform="translate(30.330241 312.401885) scale(0.12 -0.12)">
       <defs>
        <path id="DejaVuSans-2212" d="M 678 2272 
L 4684 2272 
L 4684 1741 
L 678 1741 
L 678 2272 
z
" transform="scale(0.015625)"/>
        <path id="DejaVuSans-31" d="M 794 531 
L 1825 531 
L 1825 4091 
L 703 3866 
L 703 4441 
L 1819 4666 
L 2450 4666 
L 2450 531 
L 3481 531 
L 3481 0 
L 794 0 
L 794 531 
z
" transform="scale(0.015625)"/>
        <path id="DejaVuSans-2e" d="M 684 794 
L 1344 794 
L 1344 0 
L 684 0 
L 684 794 
z
" transform="scale(0.015625)"/>
        <path id="DejaVuSans-30" d="M 2034 4250 
Q 1547 4250 1301 3770 
Q 1056 3291 1056 2328 
Q 1056 1369 1301 889 
Q 1547 409 2034 409 
Q 2525 409 2770 889 
Q 3016 1369 3016 2328 
Q 3016 3291 2770 3770 
Q 2525 4250 2034 4250 
z
M 2034 4750 
Q 2819 4750 3233 4129 
Q 3647 3509 3647 2328 
Q 3647 1150 3233 529 
Q 2819 -91 2034 -91 
Q 1250 -91 836 529 
Q 422 1150 422 2328 
Q 422 3509 836 4129 
Q 1250 4750 2034 4750 
z
" transform="scale(0.015625)"/>
       </defs>
       <use xlink:href="#DejaVuSans-2212"/>
       <use xlink:href="#DejaVuSans-31" x="83.789062"/>
       <use xlink:href="#DejaVuSans-2e" x="147.412109"/>
       <use xlink:href="#DejaVuSans-30" x="179.199219"/>
       <use xlink:href="#DejaVuSans-30" x="242.822266"/>
      </g>
     </g>
    </g>
    <g id="xtick_2">
     <g id="line2d_2">
      <g>
       <use xlink:href="#m2f1d644685" x="100.819019" y="296.28376" style="stroke: #000000; stroke-width: 0.8"/>
      </g>
     </g>
     <g id="text_2">
      <!-- −0.75 -->
      <g transform="translate(82.431831 312.401885) scale(0.12 -0.12)">
       <defs>
        <path id="DejaVuSans-37" d="M 525 4666 
L 3525 4666 
L 3525 4397 
L 1831 0 
L 1172 0 
L 2766 4134 
L 525 4134 
L 525 4666 
z
" transform="scale(0.015625)"/>
        <path id="DejaVuSans-35" d="M 691 4666 
L 3169 4666 
L 3169 4134 
L 1269 4134 
L 1269 2991 
Q 1406 3038 1543 3061 
Q 1681 3084 1819 3084 
Q 2600 3084 3056 2656 
Q 3513 2228 3513 1497 
Q 3513 744 3044 326 
Q 2575 -91 1722 -91 
Q 1428 -91 1123 -41 
Q 819 9 494 109 
L 494 744 
Q 775 591 1075 516 
Q 1375 441 1709 441 
Q 2250 441 2565 725 
Q 2881 1009 2881 1497 
Q 2881 1984 2565 2268 
Q 2250 2553 1709 2553 
Q 1456 2553 1204 2497 
Q 953 2441 691 2322 
L 691 4666 
z
" transform="scale(0.015625)"/>
       </defs>
       <use xlink:href="#DejaVuSans-2212"/>
       <use xlink:href="#DejaVuSans-30" x="83.789062"/>
       <use xlink:href="#DejaVuSans-2e" x="147.412109"/>
       <use xlink:href="#DejaVuSans-37" x="179.199219"/>
       <use xlink:href="#DejaVuSans-35" x="242.822266"/>
      </g>
     </g>
    </g>
    <g id="xtick_3">
     <g id="line2d_3">
      <g>
       <use xlink:href="#m2f1d644685" x="152.920609" y="296.28376" style="stroke: #000000; stroke-width: 0.8"/>
      </g>
     </g>
     <g id="text_3">
      <!-- −0.50 -->
      <g transform="translate(134.533421 312.401885) scale(0.12 -0.12)">
       <use xlink:href="#DejaVuSans-2212"/>
       <use xlink:href="#DejaVuSans-30" x="83.789062"/>
       <use xlink:href="#DejaVuSans-2e" x="147.412109"/>
       <use xlink:href="#DejaVuSans-35" x="179.199219"/>
       <use xlink:href="#DejaVuSans-30" x="242.822266"/>
      </g>
     </g>
    </g>
    <g id="xtick_4">
     <g id="line2d_4">
      <g>
       <use xlink:href="#m2f1d644685" x="205.022199" y="296.28376" style="stroke: #000000; stroke-width: 0.8"/>
      </g>
     </g>
     <g id="text_4">
      <!-- −0.25 -->
      <g transform="translate(186.635012 312.401885) scale(0.12 -0.12)">
       <defs>
        <path id="DejaVuSans-32" d="M 1228 531 
L 3431 531 
L 3431 0 
L 469 0 
L 469 531 
Q 828 903 1448 1529 
Q 2069 2156 2228 2338 
Q 2531 2678 2651 2914 
Q 2772 3150 2772 3378 
Q 2772 3750 2511 3984 
Q 2250 4219 1831 4219 
Q 1534 4219 1204 4116 
Q 875 4013 500 3803 
L 500 4441 
Q 881 4594 1212 4672 
Q 1544 4750 1819 4750 
Q 2544 4750 2975 4387 
Q 3406 4025 3406 3419 
Q 3406 3131 3298 2873 
Q 3191 2616 2906 2266 
Q 2828 2175 2409 1742 
Q 1991 1309 1228 531 
z
" transform="scale(0.015625)"/>
       </defs>
       <use xlink:href="#DejaVuSans-2212"/>
       <use xlink:href="#DejaVuSans-30" x="83.789062"/>
       <use xlink:href="#DejaVuSans-2e" x="147.412109"/>
       <use xlink:href="#DejaVuSans-32" x="179.199219"/>
       <use xlink:href="#DejaVuSans-35" x="242.822266"/>
      </g>
     </g>
    </g>
    <g id="xtick_5">
     <g id="line2d_5">
      <g>
       <use xlink:href="#m2f1d644685" x="257.123789" y="296.28376" style="stroke: #000000; stroke-width: 0.8"/>
      </g>
     </g>
     <g id="text_5">
      <!-- 0.00 -->
      <g transform="translate(243.764414 312.401885) scale(0.12 -0.12)">
       <use xlink:href="#DejaVuSans-30"/>
       <use xlink:href="#DejaVuSans-2e" x="63.623047"/>
       <use xlink:href="#DejaVuSans-30" x="95.410156"/>
       <use xlink:href="#DejaVuSans-30" x="159.033203"/>
      </g>
     </g>
    </g>
    <g id="xtick_6">
     <g id="line2d_6">
      <g>
       <use xlink:href="#m2f1d644685" x="309.225379" y="296.28376" style="stroke: #000000; stroke-width: 0.8"/>
      </g>
     </g>
     <g id="text_6">
      <!-- 0.25 -->
      <g transform="translate(295.866004 312.401885) scale(0.12 -0.12)">
       <use xlink:href="#DejaVuSans-30"/>
       <use xlink:href="#DejaVuSans-2e" x="63.623047"/>
       <use xlink:href="#DejaVuSans-32" x="95.410156"/>
       <use xlink:href="#DejaVuSans-35" x="159.033203"/>
      </g>
     </g>
    </g>
    <g id="xtick_7">
     <g id="line2d_7">
      <g>
       <use xlink:href="#m2f1d644685" x="361.32697" y="296.28376" style="stroke: #000000; stroke-width: 0.8"/>
      </g>
     </g>
     <g id="text_7">
      <!-- 0.50 -->
      <g transform="translate(347.967595 312.401885) scale(0.12 -0.12)">
       <use xlink:href="#DejaVuSans-30"/>
       <use xlink:href="#DejaVuSans-2e" x="63.623047"/>
       <use xlink:href="#DejaVuSans-35" x="95.410156"/>
       <use xlink:href="#DejaVuSans-30" x="159.033203"/>
      </g>
     </g>
    </g>
    <g id="xtick_8">
     <g id="line2d_8">
      <g>
       <use xlink:href="#m2f1d644685" x="413.42856" y="296.28376" style="stroke: #000000; stroke-width: 0.8"/>
      </g>
     </g>
     <g id="text_8">
      <!-- 0.75 -->
      <g transform="translate(400.069185 312.401885) scale(0.12 -0.12)">
       <use xlink:href="#DejaVuSans-30"/>
       <use xlink:href="#DejaVuSans-2e" x="63.623047"/>
       <use xlink:href="#DejaVuSans-37" x="95.410156"/>
       <use xlink:href="#DejaVuSans-35" x="159.033203"/>
      </g>
     </g>
    </g>
    <g id="xtick_9">
     <g id="line2d_9">
      <g>
       <use xlink:href="#m2f1d644685" x="465.53015" y="296.28376" style="stroke: #000000; stroke-width: 0.8"/>
      </g>
     </g>
     <g id="text_9">
      <!-- 1.00 -->
      <g transform="translate(452.170775 312.401885) scale(0.12 -0.12)">
       <use xlink:href="#DejaVuSans-31"/>
       <use xlink:href="#DejaVuSans-2e" x="63.623047"/>
       <use xlink:href="#DejaVuSans-30" x="95.410156"/>
       <use xlink:href="#DejaVuSans-30" x="159.033203"/>
      </g>
     </g>
    </g>
   </g>
   <g id="matplotlib.axis_2">
    <g id="ytick_1">
     <g id="line2d_10">
      <defs>
       <path id="m3c6d918c6c" d="M 0 0 
L -3.5 0 
" style="stroke: #000000; stroke-width: 0.8"/>
      </defs>
      <g>
       <use xlink:href="#m3c6d918c6c" x="46.633365" y="296.28376" style="stroke: #000000; stroke-width: 0.8"/>
      </g>
     </g>
     <g id="text_10">
      <!-- 0.0 -->
      <g transform="translate(20.549615 300.842823) scale(0.12 -0.12)">
       <use xlink:href="#DejaVuSans-30"/>
       <use xlink:href="#DejaVuSans-2e" x="63.623047"/>
       <use xlink:href="#DejaVuSans-30" x="95.410156"/>
      </g>
     </g>
    </g>
    <g id="ytick_2">
     <g id="line2d_11">
      <g>
       <use xlink:href="#m3c6d918c6c" x="46.633365" y="259.561082" style="stroke: #000000; stroke-width: 0.8"/>
      </g>
     </g>
     <g id="text_11">
      <!-- 0.5 -->
      <g transform="translate(20.549615 264.120145) scale(0.12 -0.12)">
       <use xlink:href="#DejaVuSans-30"/>
       <use xlink:href="#DejaVuSans-2e" x="63.623047"/>
       <use xlink:href="#DejaVuSans-35" x="95.410156"/>
      </g>
     </g>
    </g>
    <g id="ytick_3">
     <g id="line2d_12">
      <g>
       <use xlink:href="#m3c6d918c6c" x="46.633365" y="222.838404" style="stroke: #000000; stroke-width: 0.8"/>
      </g>
     </g>
     <g id="text_12">
      <!-- 1.0 -->
      <g transform="translate(20.549615 227.397467) scale(0.12 -0.12)">
       <use xlink:href="#DejaVuSans-31"/>
       <use xlink:href="#DejaVuSans-2e" x="63.623047"/>
       <use xlink:href="#DejaVuSans-30" x="95.410156"/>
      </g>
     </g>
    </g>
    <g id="ytick_4">
     <g id="line2d_13">
      <g>
       <use xlink:href="#m3c6d918c6c" x="46.633365" y="186.115726" style="stroke: #000000; stroke-width: 0.8"/>
      </g>
     </g>
     <g id="text_13">
      <!-- 1.5 -->
      <g transform="translate(20.549615 190.674788) scale(0.12 -0.12)">
       <use xlink:href="#DejaVuSans-31"/>
       <use xlink:href="#DejaVuSans-2e" x="63.623047"/>
       <use xlink:href="#DejaVuSans-35" x="95.410156"/>
      </g>
     </g>
    </g>
    <g id="ytick_5">
     <g id="line2d_14">
      <g>
       <use xlink:href="#m3c6d918c6c" x="46.633365" y="149.393048" style="stroke: #000000; stroke-width: 0.8"/>
      </g>
     </g>
     <g id="text_14">
      <!-- 2.0 -->
      <g transform="translate(20.549615 153.95211) scale(0.12 -0.12)">
       <use xlink:href="#DejaVuSans-32"/>
       <use xlink:href="#DejaVuSans-2e" x="63.623047"/>
       <use xlink:href="#DejaVuSans-30" x="95.410156"/>
      </g>
     </g>
    </g>
    <g id="ytick_6">
     <g id="line2d_15">
      <g>
       <use xlink:href="#m3c6d918c6c" x="46.633365" y="112.67037" style="stroke: #000000; stroke-width: 0.8"/>
      </g>
     </g>
     <g id="text_15">
      <!-- 2.5 -->
      <g transform="translate(20.549615 117.229432) scale(0.12 -0.12)">
       <use xlink:href="#DejaVuSans-32"/>
       <use xlink:href="#DejaVuSans-2e" x="63.623047"/>
       <use xlink:href="#DejaVuSans-35" x="95.410156"/>
      </g>
     </g>
    </g>
    <g id="ytick_7">
     <g id="line2d_16">
      <g>
       <use xlink:href="#m3c6d918c6c" x="46.633365" y="75.947692" style="stroke: #000000; stroke-width: 0.8"/>
      </g>
     </g>
     <g id="text_16">
      <!-- 3.0 -->
      <g transform="translate(20.549615 80.506754) scale(0.12 -0.12)">
       <defs>
        <path id="DejaVuSans-33" d="M 2597 2516 
Q 3050 2419 3304 2112 
Q 3559 1806 3559 1356 
Q 3559 666 3084 287 
Q 2609 -91 1734 -91 
Q 1441 -91 1130 -33 
Q 819 25 488 141 
L 488 750 
Q 750 597 1062 519 
Q 1375 441 1716 441 
Q 2309 441 2620 675 
Q 2931 909 2931 1356 
Q 2931 1769 2642 2001 
Q 2353 2234 1838 2234 
L 1294 2234 
L 1294 2753 
L 1863 2753 
Q 2328 2753 2575 2939 
Q 2822 3125 2822 3475 
Q 2822 3834 2567 4026 
Q 2313 4219 1838 4219 
Q 1578 4219 1281 4162 
Q 984 4106 628 3988 
L 628 4550 
Q 988 4650 1302 4700 
Q 1616 4750 1894 4750 
Q 2613 4750 3031 4423 
Q 3450 4097 3450 3541 
Q 3450 3153 3228 2886 
Q 3006 2619 2597 2516 
z
" transform="scale(0.015625)"/>
       </defs>
       <use xlink:href="#DejaVuSans-33"/>
       <use xlink:href="#DejaVuSans-2e" x="63.623047"/>
       <use xlink:href="#DejaVuSans-30" x="95.410156"/>
      </g>
     </g>
    </g>
    <g id="ytick_8">
     <g id="line2d_17">
      <g>
       <use xlink:href="#m3c6d918c6c" x="46.633365" y="39.225013" style="stroke: #000000; stroke-width: 0.8"/>
      </g>
     </g>
     <g id="text_17">
      <!-- 3.5 -->
      <g transform="translate(20.549615 43.784076) scale(0.12 -0.12)">
       <use xlink:href="#DejaVuSans-33"/>
       <use xlink:href="#DejaVuSans-2e" x="63.623047"/>
       <use xlink:href="#DejaVuSans-35" x="95.410156"/>
      </g>
     </g>
    </g>
    <g id="text_18">
     <!-- PDF -->
     <g transform="translate(13.638052 173.597781) rotate(-90) scale(0.14 -0.14)">
      <defs>
       <path id="DejaVuSans-50" d="M 1259 4147 
L 1259 2394 
L 2053 2394 
Q 2494 2394 2734 2622 
Q 2975 2850 2975 3272 
Q 2975 3691 2734 3919 
Q 2494 4147 2053 4147 
L 1259 4147 
z
M 628 4666 
L 2053 4666 
Q 2838 4666 3239 4311 
Q 3641 3956 3641 3272 
Q 3641 2581 3239 2228 
Q 2838 1875 2053 1875 
L 1259 1875 
L 1259 0 
L 628 0 
L 628 4666 
z
" transform="scale(0.015625)"/>
       <path id="DejaVuSans-44" d="M 1259 4147 
L 1259 519 
L 2022 519 
Q 2988 519 3436 956 
Q 3884 1394 3884 2338 
Q 3884 3275 3436 3711 
Q 2988 4147 2022 4147 
L 1259 4147 
z
M 628 4666 
L 1925 4666 
Q 3281 4666 3915 4102 
Q 4550 3538 4550 2338 
Q 4550 1131 3912 565 
Q 3275 0 1925 0 
L 628 0 
L 628 4666 
z
" transform="scale(0.015625)"/>
       <path id="DejaVuSans-46" d="M 628 4666 
L 3309 4666 
L 3309 4134 
L 1259 4134 
L 1259 2759 
L 3109 2759 
L 3109 2228 
L 1259 2228 
L 1259 0 
L 628 0 
L 628 4666 
z
" transform="scale(0.015625)"/>
      </defs>
      <use xlink:href="#DejaVuSans-50"/>
      <use xlink:href="#DejaVuSans-44" x="60.302734"/>
      <use xlink:href="#DejaVuSans-46" x="137.304688"/>
     </g>
    </g>
   </g>
   <g id="line2d_18">
    <path d="M 48.717429 296.28376 
L 182.364794 296.190784 
L 210.764859 295.466575 
L 214.106043 295.093965 
L 219.11782 294.464982 
L 223.2943 294.064467 
L 224.964892 293.661996 
L 226.635484 292.991416 
L 228.306076 292.057153 
L 229.976668 290.913417 
L 231.64726 289.581014 
L 233.317852 287.96908 
L 234.988444 285.86845 
L 235.82374 284.554844 
L 236.659036 283.026759 
L 238.329628 279.243296 
L 240.000221 274.404578 
L 241.670813 268.438508 
L 243.341405 261.243986 
L 245.011997 252.67797 
L 246.682589 242.617621 
L 248.353181 231.016425 
L 250.023773 217.866965 
L 251.694365 203.118706 
L 253.364957 186.720292 
L 255.870845 159.559748 
L 259.212029 123.130963 
L 260.882621 107.369954 
L 262.553214 94.192844 
L 264.223806 83.639772 
L 265.894398 75.396627 
L 267.56499 69.095061 
L 268.400286 66.604985 
L 269.235582 64.552861 
L 270.070878 62.954692 
L 270.906174 61.833382 
L 271.74147 61.21037 
L 272.576766 61.097531 
L 273.412062 61.491424 
L 274.247358 62.371511 
L 275.082654 63.703005 
L 275.91795 65.443762 
L 276.753246 67.55347 
L 278.423838 72.778578 
L 280.09443 79.346459 
L 281.765022 87.404938 
L 283.435614 96.97394 
L 286.776799 118.634006 
L 288.447391 129.020185 
L 290.117983 138.218297 
L 291.788575 146.10119 
L 293.459167 152.903582 
L 295.965055 161.899271 
L 304.318015 190.013852 
L 306.823903 197.778091 
L 308.494495 202.373506 
L 310.165087 206.365291 
L 311.83568 209.787695 
L 314.341568 214.281964 
L 317.682752 220.201588 
L 323.529824 230.962631 
L 325.200416 233.42342 
L 327.706304 236.486717 
L 330.212192 239.467825 
L 332.71808 242.889166 
L 336.894561 248.959865 
L 338.565153 251.069276 
L 340.235745 252.893769 
L 342.741633 255.226908 
L 345.247521 257.260907 
L 347.753409 259.015639 
L 350.259297 260.438713 
L 352.765185 261.574225 
L 359.447554 264.224145 
L 362.788738 265.232381 
L 366.129922 266.262686 
L 368.63581 267.318976 
L 371.141698 268.643027 
L 374.482882 270.471737 
L 376.153474 271.030855 
L 376.98877 271.14222 
L 378.659362 271.01805 
L 381.16525 270.324031 
L 382.835843 269.928962 
L 384.506435 269.789134 
L 387.012323 269.935422 
L 391.188803 270.427022 
L 392.859395 270.92681 
L 394.529987 271.76102 
L 396.200579 272.882897 
L 399.541763 275.337322 
L 401.212355 276.282757 
L 402.882947 276.830772 
L 404.553539 276.950667 
L 407.059428 276.654474 
L 408.73002 276.503552 
L 410.400612 276.583606 
L 416.247684 277.361057 
L 420.424164 277.527852 
L 422.930052 277.932006 
L 425.43594 278.348352 
L 427.941828 278.503313 
L 432.953605 278.530018 
L 434.624197 278.78216 
L 436.294789 279.26656 
L 437.965381 280.020418 
L 439.635973 281.047807 
L 442.141861 282.96847 
L 446.318341 286.278212 
L 449.659525 288.585692 
L 455.506598 292.304323 
L 458.012486 293.708577 
L 460.518374 294.845335 
L 462.188966 295.404175 
L 463.859558 295.795868 
L 465.53015 296.040976 
L 465.53015 296.040976 
" clip-path="url(#p20b5c72392)" style="fill: none; stroke: #7d96b0; stroke-width: 2; stroke-linecap: square"/>
   </g>
   <g id="line2d_19">
    <path d="M 257.123789 296.28376 
L 257.123789 23.638053 
" clip-path="url(#p20b5c72392)" style="fill: none; stroke-dasharray: 3.7,1.6; stroke-dashoffset: 0; stroke: #000000"/>
   </g>
   <g id="patch_53">
    <path d="M 46.633365 296.28376 
L 46.633365 23.638052 
" style="fill: none; stroke: #000000; stroke-width: 0.8; stroke-linejoin: miter; stroke-linecap: square"/>
   </g>
   <g id="patch_54">
    <path d="M 467.614214 296.28376 
L 467.614214 23.638052 
" style="fill: none; stroke: #000000; stroke-width: 0.8; stroke-linejoin: miter; stroke-linecap: square"/>
   </g>
   <g id="patch_55">
    <path d="M 46.633365 296.28376 
L 467.614214 296.28376 
" style="fill: none; stroke: #000000; stroke-width: 0.8; stroke-linejoin: miter; stroke-linecap: square"/>
   </g>
   <g id="patch_56">
    <path d="M 46.633365 23.638053 
L 467.614214 23.638053 
" style="fill: none; stroke: #000000; stroke-width: 0.8; stroke-linejoin: miter; stroke-linecap: square"/>
   </g>
   <g id="text_19">
    <!-- Area under PDF -->
    <g transform="translate(46.633365 13.638053) scale(0.14 -0.14)">
     <defs>
      <path id="DejaVuSans-41" d="M 2188 4044 
L 1331 1722 
L 3047 1722 
L 2188 4044 
z
M 1831 4666 
L 2547 4666 
L 4325 0 
L 3669 0 
L 3244 1197 
L 1141 1197 
L 716 0 
L 50 0 
L 1831 4666 
z
" transform="scale(0.015625)"/>
      <path id="DejaVuSans-72" d="M 2631 2963 
Q 2534 3019 2420 3045 
Q 2306 3072 2169 3072 
Q 1681 3072 1420 2755 
Q 1159 2438 1159 1844 
L 1159 0 
L 581 0 
L 581 3500 
L 1159 3500 
L 1159 2956 
Q 1341 3275 1631 3429 
Q 1922 3584 2338 3584 
Q 2397 3584 2469 3576 
Q 2541 3569 2628 3553 
L 2631 2963 
z
" transform="scale(0.015625)"/>
      <path id="DejaVuSans-65" d="M 3597 1894 
L 3597 1613 
L 953 1613 
Q 991 1019 1311 708 
Q 1631 397 2203 397 
Q 2534 397 2845 478 
Q 3156 559 3463 722 
L 3463 178 
Q 3153 47 2828 -22 
Q 2503 -91 2169 -91 
Q 1331 -91 842 396 
Q 353 884 353 1716 
Q 353 2575 817 3079 
Q 1281 3584 2069 3584 
Q 2775 3584 3186 3129 
Q 3597 2675 3597 1894 
z
M 3022 2063 
Q 3016 2534 2758 2815 
Q 2500 3097 2075 3097 
Q 1594 3097 1305 2825 
Q 1016 2553 972 2059 
L 3022 2063 
z
" transform="scale(0.015625)"/>
      <path id="DejaVuSans-61" d="M 2194 1759 
Q 1497 1759 1228 1600 
Q 959 1441 959 1056 
Q 959 750 1161 570 
Q 1363 391 1709 391 
Q 2188 391 2477 730 
Q 2766 1069 2766 1631 
L 2766 1759 
L 2194 1759 
z
M 3341 1997 
L 3341 0 
L 2766 0 
L 2766 531 
Q 2569 213 2275 61 
Q 1981 -91 1556 -91 
Q 1019 -91 701 211 
Q 384 513 384 1019 
Q 384 1609 779 1909 
Q 1175 2209 1959 2209 
L 2766 2209 
L 2766 2266 
Q 2766 2663 2505 2880 
Q 2244 3097 1772 3097 
Q 1472 3097 1187 3025 
Q 903 2953 641 2809 
L 641 3341 
Q 956 3463 1253 3523 
Q 1550 3584 1831 3584 
Q 2591 3584 2966 3190 
Q 3341 2797 3341 1997 
z
" transform="scale(0.015625)"/>
      <path id="DejaVuSans-20" transform="scale(0.015625)"/>
      <path id="DejaVuSans-75" d="M 544 1381 
L 544 3500 
L 1119 3500 
L 1119 1403 
Q 1119 906 1312 657 
Q 1506 409 1894 409 
Q 2359 409 2629 706 
Q 2900 1003 2900 1516 
L 2900 3500 
L 3475 3500 
L 3475 0 
L 2900 0 
L 2900 538 
Q 2691 219 2414 64 
Q 2138 -91 1772 -91 
Q 1169 -91 856 284 
Q 544 659 544 1381 
z
M 1991 3584 
L 1991 3584 
z
" transform="scale(0.015625)"/>
      <path id="DejaVuSans-6e" d="M 3513 2113 
L 3513 0 
L 2938 0 
L 2938 2094 
Q 2938 2591 2744 2837 
Q 2550 3084 2163 3084 
Q 1697 3084 1428 2787 
Q 1159 2491 1159 1978 
L 1159 0 
L 581 0 
L 581 3500 
L 1159 3500 
L 1159 2956 
Q 1366 3272 1645 3428 
Q 1925 3584 2291 3584 
Q 2894 3584 3203 3211 
Q 3513 2838 3513 2113 
z
" transform="scale(0.015625)"/>
      <path id="DejaVuSans-64" d="M 2906 2969 
L 2906 4863 
L 3481 4863 
L 3481 0 
L 2906 0 
L 2906 525 
Q 2725 213 2448 61 
Q 2172 -91 1784 -91 
Q 1150 -91 751 415 
Q 353 922 353 1747 
Q 353 2572 751 3078 
Q 1150 3584 1784 3584 
Q 2172 3584 2448 3432 
Q 2725 3281 2906 2969 
z
M 947 1747 
Q 947 1113 1208 752 
Q 1469 391 1925 391 
Q 2381 391 2643 752 
Q 2906 1113 2906 1747 
Q 2906 2381 2643 2742 
Q 2381 3103 1925 3103 
Q 1469 3103 1208 2742 
Q 947 2381 947 1747 
z
" transform="scale(0.015625)"/>
     </defs>
     <use xlink:href="#DejaVuSans-41"/>
     <use xlink:href="#DejaVuSans-72" x="68.408203"/>
     <use xlink:href="#DejaVuSans-65" x="107.271484"/>
     <use xlink:href="#DejaVuSans-61" x="168.794922"/>
     <use xlink:href="#DejaVuSans-20" x="230.074219"/>
     <use xlink:href="#DejaVuSans-75" x="261.861328"/>
     <use xlink:href="#DejaVuSans-6e" x="325.240234"/>
     <use xlink:href="#DejaVuSans-64" x="388.619141"/>
     <use xlink:href="#DejaVuSans-65" x="452.095703"/>
     <use xlink:href="#DejaVuSans-72" x="513.619141"/>
     <use xlink:href="#DejaVuSans-20" x="554.732422"/>
     <use xlink:href="#DejaVuSans-50" x="586.519531"/>
     <use xlink:href="#DejaVuSans-44" x="646.822266"/>
     <use xlink:href="#DejaVuSans-46" x="723.824219"/>
    </g>
   </g>
  </g>
  <g id="text_20">
   <!-- Pearson r -->
   <g transform="translate(201.453069 333.663365) scale(0.168 -0.168)">
    <defs>
     <path id="DejaVuSans-73" d="M 2834 3397 
L 2834 2853 
Q 2591 2978 2328 3040 
Q 2066 3103 1784 3103 
Q 1356 3103 1142 2972 
Q 928 2841 928 2578 
Q 928 2378 1081 2264 
Q 1234 2150 1697 2047 
L 1894 2003 
Q 2506 1872 2764 1633 
Q 3022 1394 3022 966 
Q 3022 478 2636 193 
Q 2250 -91 1575 -91 
Q 1294 -91 989 -36 
Q 684 19 347 128 
L 347 722 
Q 666 556 975 473 
Q 1284 391 1588 391 
Q 1994 391 2212 530 
Q 2431 669 2431 922 
Q 2431 1156 2273 1281 
Q 2116 1406 1581 1522 
L 1381 1569 
Q 847 1681 609 1914 
Q 372 2147 372 2553 
Q 372 3047 722 3315 
Q 1072 3584 1716 3584 
Q 2034 3584 2315 3537 
Q 2597 3491 2834 3397 
z
" transform="scale(0.015625)"/>
     <path id="DejaVuSans-6f" d="M 1959 3097 
Q 1497 3097 1228 2736 
Q 959 2375 959 1747 
Q 959 1119 1226 758 
Q 1494 397 1959 397 
Q 2419 397 2687 759 
Q 2956 1122 2956 1747 
Q 2956 2369 2687 2733 
Q 2419 3097 1959 3097 
z
M 1959 3584 
Q 2709 3584 3137 3096 
Q 3566 2609 3566 1747 
Q 3566 888 3137 398 
Q 2709 -91 1959 -91 
Q 1206 -91 779 398 
Q 353 888 353 1747 
Q 353 2609 779 3096 
Q 1206 3584 1959 3584 
z
" transform="scale(0.015625)"/>
    </defs>
    <use xlink:href="#DejaVuSans-50"/>
    <use xlink:href="#DejaVuSans-65" x="56.677734"/>
    <use xlink:href="#DejaVuSans-61" x="118.201172"/>
    <use xlink:href="#DejaVuSans-72" x="179.480469"/>
    <use xlink:href="#DejaVuSans-73" x="220.59375"/>
    <use xlink:href="#DejaVuSans-6f" x="272.693359"/>
    <use xlink:href="#DejaVuSans-6e" x="333.875"/>
    <use xlink:href="#DejaVuSans-20" x="397.253906"/>
    <use xlink:href="#DejaVuSans-72" x="429.041016"/>
   </g>
  </g>
 </g>
 <defs>
  <clipPath id="p20b5c72392">
   <rect x="46.633365" y="23.638053" width="420.980849" height="272.645708"/>
  </clipPath>
 </defs>
</svg>
