<?xml version="1.0" encoding="utf-8" standalone="no"?>
<!DOCTYPE svg PUBLIC "-//W3C//DTD SVG 1.1//EN"
  "http://www.w3.org/Graphics/SVG/1.1/DTD/svg11.dtd">
<svg xmlns:xlink="http://www.w3.org/1999/xlink" width="481.889764pt" height="340.15748pt" viewBox="0 0 481.889764 340.15748" xmlns="http://www.w3.org/2000/svg" version="1.1">
 <metadata>
  <rdf:RDF xmlns:dc="http://purl.org/dc/elements/1.1/" xmlns:cc="http://creativecommons.org/ns#" xmlns:rdf="http://www.w3.org/1999/02/22-rdf-syntax-ns#">
   <cc:Work>
    <dc:type rdf:resource="http://purl.org/dc/dcmitype/StillImage"/>
    <dc:date>2023-01-02T18:19:50.168298</dc:date>
    <dc:format>image/svg+xml</dc:format>
    <dc:creator>
     <cc:Agent>
      <dc:title>Matplotlib v3.6.2, https://matplotlib.org/</dc:title>
     </cc:Agent>
    </dc:creator>
   </cc:Work>
  </rdf:RDF>
 </metadata>
 <defs>
  <style type="text/css">*{stroke-linejoin: round; stroke-linecap: butt}</style>
 </defs>
 <g id="figure_1">
  <g id="patch_1">
   <path d="M 0 340.15748 
L 481.889764 340.15748 
L 481.889764 0 
L 0 0 
z
" style="fill: #ffffff"/>
  </g>
  <g id="axes_1">
   <g id="patch_2">
    <path d="M 46.633365 296.28376 
L 233.636584 296.28376 
L 233.636584 23.638053 
L 46.633365 23.638053 
z
" style="fill: #ffffff"/>
   </g>
   <g id="patch_3">
    <path d="M 47.559124 296.28376 
L 51.262158 296.28376 
L 51.262158 296.28376 
L 47.559124 296.28376 
z
" clip-path="url(#pd0258d8652)" style="fill: #ffffff; stroke: #a9a9a9; stroke-linejoin: miter"/>
   </g>
   <g id="patch_4">
    <path d="M 51.262158 296.28376 
L 54.965192 296.28376 
L 54.965192 296.28376 
L 51.262158 296.28376 
z
" clip-path="url(#pd0258d8652)" style="fill: #ffffff; stroke: #a9a9a9; stroke-linejoin: miter"/>
   </g>
   <g id="patch_5">
    <path d="M 54.965192 296.28376 
L 58.668226 296.28376 
L 58.668226 296.28376 
L 54.965192 296.28376 
z
" clip-path="url(#pd0258d8652)" style="fill: #ffffff; stroke: #a9a9a9; stroke-linejoin: miter"/>
   </g>
   <g id="patch_6">
    <path d="M 58.668226 296.28376 
L 62.37126 296.28376 
L 62.37126 296.28376 
L 58.668226 296.28376 
z
" clip-path="url(#pd0258d8652)" style="fill: #ffffff; stroke: #a9a9a9; stroke-linejoin: miter"/>
   </g>
   <g id="patch_7">
    <path d="M 62.37126 296.28376 
L 66.074294 296.28376 
L 66.074294 296.28376 
L 62.37126 296.28376 
z
" clip-path="url(#pd0258d8652)" style="fill: #ffffff; stroke: #a9a9a9; stroke-linejoin: miter"/>
   </g>
   <g id="patch_8">
    <path d="M 66.074294 296.28376 
L 69.777328 296.28376 
L 69.777328 296.28376 
L 66.074294 296.28376 
z
" clip-path="url(#pd0258d8652)" style="fill: #ffffff; stroke: #a9a9a9; stroke-linejoin: miter"/>
   </g>
   <g id="patch_9">
    <path d="M 69.777328 296.28376 
L 73.480362 296.28376 
L 73.480362 296.28376 
L 69.777328 296.28376 
z
" clip-path="url(#pd0258d8652)" style="fill: #ffffff; stroke: #a9a9a9; stroke-linejoin: miter"/>
   </g>
   <g id="patch_10">
    <path d="M 73.480362 296.28376 
L 77.183396 296.28376 
L 77.183396 296.28376 
L 73.480362 296.28376 
z
" clip-path="url(#pd0258d8652)" style="fill: #ffffff; stroke: #a9a9a9; stroke-linejoin: miter"/>
   </g>
   <g id="patch_11">
    <path d="M 77.183396 296.28376 
L 80.88643 296.28376 
L 80.88643 296.28376 
L 77.183396 296.28376 
z
" clip-path="url(#pd0258d8652)" style="fill: #ffffff; stroke: #a9a9a9; stroke-linejoin: miter"/>
   </g>
   <g id="patch_12">
    <path d="M 80.88643 296.28376 
L 84.589464 296.28376 
L 84.589464 296.28376 
L 80.88643 296.28376 
z
" clip-path="url(#pd0258d8652)" style="fill: #ffffff; stroke: #a9a9a9; stroke-linejoin: miter"/>
   </g>
   <g id="patch_13">
    <path d="M 84.589464 296.28376 
L 88.292498 296.28376 
L 88.292498 296.28376 
L 84.589464 296.28376 
z
" clip-path="url(#pd0258d8652)" style="fill: #ffffff; stroke: #a9a9a9; stroke-linejoin: miter"/>
   </g>
   <g id="patch_14">
    <path d="M 88.292498 296.28376 
L 91.995532 296.28376 
L 91.995532 296.28376 
L 88.292498 296.28376 
z
" clip-path="url(#pd0258d8652)" style="fill: #ffffff; stroke: #a9a9a9; stroke-linejoin: miter"/>
   </g>
   <g id="patch_15">
    <path d="M 91.995532 296.28376 
L 95.698566 296.28376 
L 95.698566 296.28376 
L 91.995532 296.28376 
z
" clip-path="url(#pd0258d8652)" style="fill: #ffffff; stroke: #a9a9a9; stroke-linejoin: miter"/>
   </g>
   <g id="patch_16">
    <path d="M 95.698566 296.28376 
L 99.4016 296.28376 
L 99.4016 296.28376 
L 95.698566 296.28376 
z
" clip-path="url(#pd0258d8652)" style="fill: #ffffff; stroke: #a9a9a9; stroke-linejoin: miter"/>
   </g>
   <g id="patch_17">
    <path d="M 99.4016 296.28376 
L 103.104634 296.28376 
L 103.104634 296.28376 
L 99.4016 296.28376 
z
" clip-path="url(#pd0258d8652)" style="fill: #ffffff; stroke: #a9a9a9; stroke-linejoin: miter"/>
   </g>
   <g id="patch_18">
    <path d="M 103.104634 296.28376 
L 106.807668 296.28376 
L 106.807668 296.28376 
L 103.104634 296.28376 
z
" clip-path="url(#pd0258d8652)" style="fill: #ffffff; stroke: #a9a9a9; stroke-linejoin: miter"/>
   </g>
   <g id="patch_19">
    <path d="M 106.807668 296.28376 
L 110.510702 296.28376 
L 110.510702 296.130902 
L 106.807668 296.130902 
z
" clip-path="url(#pd0258d8652)" style="fill: #ffffff; stroke: #a9a9a9; stroke-linejoin: miter"/>
   </g>
   <g id="patch_20">
    <path d="M 110.510702 296.28376 
L 114.213736 296.28376 
L 114.213736 295.825185 
L 110.510702 295.825185 
z
" clip-path="url(#pd0258d8652)" style="fill: #ffffff; stroke: #a9a9a9; stroke-linejoin: miter"/>
   </g>
   <g id="patch_21">
    <path d="M 114.213736 296.28376 
L 117.91677 296.28376 
L 117.91677 295.672327 
L 114.213736 295.672327 
z
" clip-path="url(#pd0258d8652)" style="fill: #ffffff; stroke: #a9a9a9; stroke-linejoin: miter"/>
   </g>
   <g id="patch_22">
    <path d="M 117.91677 296.28376 
L 121.619804 296.28376 
L 121.619804 295.672327 
L 117.91677 295.672327 
z
" clip-path="url(#pd0258d8652)" style="fill: #ffffff; stroke: #a9a9a9; stroke-linejoin: miter"/>
   </g>
   <g id="patch_23">
    <path d="M 121.619804 296.28376 
L 125.322838 296.28376 
L 125.322838 294.143744 
L 121.619804 294.143744 
z
" clip-path="url(#pd0258d8652)" style="fill: #ffffff; stroke: #a9a9a9; stroke-linejoin: miter"/>
   </g>
   <g id="patch_24">
    <path d="M 125.322838 296.28376 
L 129.025872 296.28376 
L 129.025872 292.920878 
L 125.322838 292.920878 
z
" clip-path="url(#pd0258d8652)" style="fill: #ffffff; stroke: #a9a9a9; stroke-linejoin: miter"/>
   </g>
   <g id="patch_25">
    <path d="M 129.025872 296.28376 
L 132.728906 296.28376 
L 132.728906 285.583679 
L 129.025872 285.583679 
z
" clip-path="url(#pd0258d8652)" style="fill: #ffffff; stroke: #a9a9a9; stroke-linejoin: miter"/>
   </g>
   <g id="patch_26">
    <path d="M 132.728906 296.28376 
L 136.43194 296.28376 
L 136.43194 258.374902 
L 132.728906 258.374902 
z
" clip-path="url(#pd0258d8652)" style="fill: #ffffff; stroke: #a9a9a9; stroke-linejoin: miter"/>
   </g>
   <g id="patch_27">
    <path d="M 136.43194 296.28376 
L 140.134974 296.28376 
L 140.134974 194.480132 
L 136.43194 194.480132 
z
" clip-path="url(#pd0258d8652)" style="fill: #ffffff; stroke: #a9a9a9; stroke-linejoin: miter"/>
   </g>
   <g id="patch_28">
    <path d="M 140.134974 296.28376 
L 143.838008 296.28376 
L 143.838008 97.109395 
L 140.134974 97.109395 
z
" clip-path="url(#pd0258d8652)" style="fill: #ffffff; stroke: #a9a9a9; stroke-linejoin: miter"/>
   </g>
   <g id="patch_29">
    <path d="M 143.838008 296.28376 
L 147.541042 296.28376 
L 147.541042 59.200536 
L 143.838008 59.200536 
z
" clip-path="url(#pd0258d8652)" style="fill: #ffffff; stroke: #a9a9a9; stroke-linejoin: miter"/>
   </g>
   <g id="patch_30">
    <path d="M 147.541042 296.28376 
L 151.244076 296.28376 
L 151.244076 70.970625 
L 147.541042 70.970625 
z
" clip-path="url(#pd0258d8652)" style="fill: #ffffff; stroke: #a9a9a9; stroke-linejoin: miter"/>
   </g>
   <g id="patch_31">
    <path d="M 151.244076 296.28376 
L 154.94711 296.28376 
L 154.94711 114.535241 
L 151.244076 114.535241 
z
" clip-path="url(#pd0258d8652)" style="fill: #ffffff; stroke: #a9a9a9; stroke-linejoin: miter"/>
   </g>
   <g id="patch_32">
    <path d="M 154.94711 296.28376 
L 158.650144 296.28376 
L 158.650144 157.029848 
L 154.94711 157.029848 
z
" clip-path="url(#pd0258d8652)" style="fill: #ffffff; stroke: #a9a9a9; stroke-linejoin: miter"/>
   </g>
   <g id="patch_33">
    <path d="M 158.650144 296.28376 
L 162.353178 296.28376 
L 162.353178 184.544343 
L 158.650144 184.544343 
z
" clip-path="url(#pd0258d8652)" style="fill: #ffffff; stroke: #a9a9a9; stroke-linejoin: miter"/>
   </g>
   <g id="patch_34">
    <path d="M 162.353178 296.28376 
L 166.056212 296.28376 
L 166.056212 210.530254 
L 162.353178 210.530254 
z
" clip-path="url(#pd0258d8652)" style="fill: #ffffff; stroke: #a9a9a9; stroke-linejoin: miter"/>
   </g>
   <g id="patch_35">
    <path d="M 166.056212 296.28376 
L 169.759247 296.28376 
L 169.759247 224.593217 
L 166.056212 224.593217 
z
" clip-path="url(#pd0258d8652)" style="fill: #ffffff; stroke: #a9a9a9; stroke-linejoin: miter"/>
   </g>
   <g id="patch_36">
    <path d="M 169.759247 296.28376 
L 173.462281 296.28376 
L 173.462281 236.821881 
L 169.759247 236.821881 
z
" clip-path="url(#pd0258d8652)" style="fill: #ffffff; stroke: #a9a9a9; stroke-linejoin: miter"/>
   </g>
   <g id="patch_37">
    <path d="M 173.462281 296.28376 
L 177.165315 296.28376 
L 177.165315 249.50912 
L 173.462281 249.50912 
z
" clip-path="url(#pd0258d8652)" style="fill: #ffffff; stroke: #a9a9a9; stroke-linejoin: miter"/>
   </g>
   <g id="patch_38">
    <path d="M 177.165315 296.28376 
L 180.868349 296.28376 
L 180.868349 256.387744 
L 177.165315 256.387744 
z
" clip-path="url(#pd0258d8652)" style="fill: #ffffff; stroke: #a9a9a9; stroke-linejoin: miter"/>
   </g>
   <g id="patch_39">
    <path d="M 180.868349 296.28376 
L 184.571383 296.28376 
L 184.571383 262.349218 
L 180.868349 262.349218 
z
" clip-path="url(#pd0258d8652)" style="fill: #ffffff; stroke: #a9a9a9; stroke-linejoin: miter"/>
   </g>
   <g id="patch_40">
    <path d="M 184.571383 296.28376 
L 188.274417 296.28376 
L 188.274417 264.336375 
L 184.571383 264.336375 
z
" clip-path="url(#pd0258d8652)" style="fill: #ffffff; stroke: #a9a9a9; stroke-linejoin: miter"/>
   </g>
   <g id="patch_41">
    <path d="M 188.274417 296.28376 
L 191.977451 296.28376 
L 191.977451 266.934967 
L 188.274417 266.934967 
z
" clip-path="url(#pd0258d8652)" style="fill: #ffffff; stroke: #a9a9a9; stroke-linejoin: miter"/>
   </g>
   <g id="patch_42">
    <path d="M 191.977451 296.28376 
L 195.680485 296.28376 
L 195.680485 272.89644 
L 191.977451 272.89644 
z
" clip-path="url(#pd0258d8652)" style="fill: #ffffff; stroke: #a9a9a9; stroke-linejoin: miter"/>
   </g>
   <g id="patch_43">
    <path d="M 195.680485 296.28376 
L 199.383519 296.28376 
L 199.383519 270.603566 
L 195.680485 270.603566 
z
" clip-path="url(#pd0258d8652)" style="fill: #ffffff; stroke: #a9a9a9; stroke-linejoin: miter"/>
   </g>
   <g id="patch_44">
    <path d="M 199.383519 296.28376 
L 203.086553 296.28376 
L 203.086553 270.450708 
L 199.383519 270.450708 
z
" clip-path="url(#pd0258d8652)" style="fill: #ffffff; stroke: #a9a9a9; stroke-linejoin: miter"/>
   </g>
   <g id="patch_45">
    <path d="M 203.086553 296.28376 
L 206.789587 296.28376 
L 206.789587 277.176473 
L 203.086553 277.176473 
z
" clip-path="url(#pd0258d8652)" style="fill: #ffffff; stroke: #a9a9a9; stroke-linejoin: miter"/>
   </g>
   <g id="patch_46">
    <path d="M 206.789587 296.28376 
L 210.492621 296.28376 
L 210.492621 276.870756 
L 206.789587 276.870756 
z
" clip-path="url(#pd0258d8652)" style="fill: #ffffff; stroke: #a9a9a9; stroke-linejoin: miter"/>
   </g>
   <g id="patch_47">
    <path d="M 210.492621 296.28376 
L 214.195655 296.28376 
L 214.195655 277.023614 
L 210.492621 277.023614 
z
" clip-path="url(#pd0258d8652)" style="fill: #ffffff; stroke: #a9a9a9; stroke-linejoin: miter"/>
   </g>
   <g id="patch_48">
    <path d="M 214.195655 296.28376 
L 217.898689 296.28376 
L 217.898689 278.705056 
L 214.195655 278.705056 
z
" clip-path="url(#pd0258d8652)" style="fill: #ffffff; stroke: #a9a9a9; stroke-linejoin: miter"/>
   </g>
   <g id="patch_49">
    <path d="M 217.898689 296.28376 
L 221.601723 296.28376 
L 221.601723 278.552197 
L 217.898689 278.552197 
z
" clip-path="url(#pd0258d8652)" style="fill: #ffffff; stroke: #a9a9a9; stroke-linejoin: miter"/>
   </g>
   <g id="patch_50">
    <path d="M 221.601723 296.28376 
L 225.304757 296.28376 
L 225.304757 284.972246 
L 221.601723 284.972246 
z
" clip-path="url(#pd0258d8652)" style="fill: #ffffff; stroke: #a9a9a9; stroke-linejoin: miter"/>
   </g>
   <g id="patch_51">
    <path d="M 225.304757 296.28376 
L 229.007791 296.28376 
L 229.007791 290.93372 
L 225.304757 290.93372 
z
" clip-path="url(#pd0258d8652)" style="fill: #ffffff; stroke: #a9a9a9; stroke-linejoin: miter"/>
   </g>
   <g id="patch_52">
    <path d="M 229.007791 296.28376 
L 232.710825 296.28376 
L 232.710825 295.672327 
L 229.007791 295.672327 
z
" clip-path="url(#pd0258d8652)" style="fill: #ffffff; stroke: #a9a9a9; stroke-linejoin: miter"/>
   </g>
   <g id="PolyCollection_1">
    <defs>
     <path id="mc881392cce" d="M 173.714591 -97.268314 
L 173.714591 -43.87372 
L 174.085637 -43.87372 
L 174.456682 -43.87372 
L 174.827728 -43.87372 
L 175.198773 -43.87372 
L 175.569819 -43.87372 
L 175.940864 -43.87372 
L 176.31191 -43.87372 
L 176.682955 -43.87372 
L 177.054001 -43.87372 
L 177.425046 -43.87372 
L 177.796092 -43.87372 
L 178.167137 -43.87372 
L 178.538183 -43.87372 
L 178.909228 -43.87372 
L 179.280274 -43.87372 
L 179.651319 -43.87372 
L 180.022365 -43.87372 
L 180.39341 -43.87372 
L 180.764456 -43.87372 
L 181.135501 -43.87372 
L 181.506547 -43.87372 
L 181.877592 -43.87372 
L 182.248638 -43.87372 
L 182.619683 -43.87372 
L 182.990729 -43.87372 
L 183.361774 -43.87372 
L 183.73282 -43.87372 
L 184.103865 -43.87372 
L 184.474911 -43.87372 
L 184.845956 -43.87372 
L 185.217002 -43.87372 
L 185.588047 -43.87372 
L 185.959093 -43.87372 
L 186.330138 -43.87372 
L 186.701184 -43.87372 
L 187.072229 -43.87372 
L 187.443275 -43.87372 
L 187.81432 -43.87372 
L 188.185366 -43.87372 
L 188.556411 -43.87372 
L 188.927457 -43.87372 
L 189.298502 -43.87372 
L 189.669548 -43.87372 
L 190.040593 -43.87372 
L 190.411639 -43.87372 
L 190.782684 -43.87372 
L 191.15373 -43.87372 
L 191.524775 -43.87372 
L 191.895821 -43.87372 
L 192.266866 -43.87372 
L 192.637912 -43.87372 
L 193.008957 -43.87372 
L 193.380003 -43.87372 
L 193.751048 -43.87372 
L 194.122094 -43.87372 
L 194.493139 -43.87372 
L 194.864185 -43.87372 
L 195.23523 -43.87372 
L 195.606276 -43.87372 
L 195.977321 -43.87372 
L 196.348367 -43.87372 
L 196.719412 -43.87372 
L 197.090458 -43.87372 
L 197.461503 -43.87372 
L 197.832549 -43.87372 
L 198.203594 -43.87372 
L 198.57464 -43.87372 
L 198.945685 -43.87372 
L 199.316731 -43.87372 
L 199.687776 -43.87372 
L 200.058822 -43.87372 
L 200.429867 -43.87372 
L 200.800913 -43.87372 
L 201.171958 -43.87372 
L 201.543004 -43.87372 
L 201.914049 -43.87372 
L 202.285095 -43.87372 
L 202.65614 -43.87372 
L 203.027186 -43.87372 
L 203.398231 -43.87372 
L 203.769277 -43.87372 
L 204.140322 -43.87372 
L 204.511368 -43.87372 
L 204.882413 -43.87372 
L 205.253458 -43.87372 
L 205.624504 -43.87372 
L 205.995549 -43.87372 
L 206.366595 -43.87372 
L 206.73764 -43.87372 
L 207.108686 -43.87372 
L 207.479731 -43.87372 
L 207.850777 -43.87372 
L 208.221822 -43.87372 
L 208.592868 -43.87372 
L 208.963913 -43.87372 
L 209.334959 -43.87372 
L 209.706004 -43.87372 
L 210.07705 -43.87372 
L 210.448095 -43.87372 
L 210.819141 -43.87372 
L 211.190186 -43.87372 
L 211.561232 -43.87372 
L 211.932277 -43.87372 
L 212.303323 -43.87372 
L 212.674368 -43.87372 
L 213.045414 -43.87372 
L 213.416459 -43.87372 
L 213.787505 -43.87372 
L 214.15855 -43.87372 
L 214.529596 -43.87372 
L 214.900641 -43.87372 
L 215.271687 -43.87372 
L 215.642732 -43.87372 
L 216.013778 -43.87372 
L 216.384823 -43.87372 
L 216.755869 -43.87372 
L 217.126914 -43.87372 
L 217.49796 -43.87372 
L 217.869005 -43.87372 
L 218.240051 -43.87372 
L 218.611096 -43.87372 
L 218.982142 -43.87372 
L 219.353187 -43.87372 
L 219.724233 -43.87372 
L 220.095278 -43.87372 
L 220.466324 -43.87372 
L 220.837369 -43.87372 
L 221.208415 -43.87372 
L 221.57946 -43.87372 
L 221.950506 -43.87372 
L 222.321551 -43.87372 
L 222.692597 -43.87372 
L 223.063642 -43.87372 
L 223.434688 -43.87372 
L 223.805733 -43.87372 
L 224.176779 -43.87372 
L 224.547824 -43.87372 
L 224.91887 -43.87372 
L 225.289915 -43.87372 
L 225.660961 -43.87372 
L 226.032006 -43.87372 
L 226.403052 -43.87372 
L 226.774097 -43.87372 
L 227.145143 -43.87372 
L 227.516188 -43.87372 
L 227.887234 -43.87372 
L 228.258279 -43.87372 
L 228.629325 -43.87372 
L 229.00037 -43.87372 
L 229.371416 -43.87372 
L 229.742461 -43.87372 
L 230.113507 -43.87372 
L 230.484552 -43.87372 
L 230.855598 -43.87372 
L 231.226643 -43.87372 
L 231.597689 -43.87372 
L 231.968734 -43.87372 
L 232.33978 -43.87372 
L 232.710825 -43.87372 
L 232.710825 -44.116504 
L 232.710825 -44.116504 
L 232.33978 -44.222811 
L 231.968734 -44.361613 
L 231.597689 -44.537327 
L 231.226643 -44.753305 
L 230.855598 -45.011478 
L 230.484552 -45.312146 
L 230.113507 -45.653979 
L 229.742461 -46.034196 
L 229.371416 -46.448903 
L 229.00037 -46.893513 
L 228.629325 -47.363174 
L 228.258279 -47.853158 
L 227.887234 -48.359132 
L 227.516188 -48.877342 
L 227.145143 -49.404705 
L 226.774097 -49.938865 
L 226.403052 -50.478283 
L 226.032006 -51.022387 
L 225.660961 -51.571788 
L 225.289915 -52.128451 
L 224.91887 -52.695687 
L 224.547824 -53.277799 
L 224.176779 -53.879269 
L 223.805733 -54.503534 
L 223.434688 -55.151569 
L 223.063642 -55.820634 
L 222.692597 -56.50358 
L 222.321551 -57.18901 
L 221.950506 -57.862353 
L 221.57946 -58.507656 
L 221.208415 -59.109673 
L 220.837369 -59.655749 
L 220.466324 -60.137062 
L 220.095278 -60.54903 
L 219.724233 -60.89092 
L 219.353187 -61.164958 
L 218.982142 -61.37532 
L 218.611096 -61.52739 
L 218.240051 -61.627462 
L 217.869005 -61.682901 
L 217.49796 -61.70252 
L 217.126914 -61.696881 
L 216.755869 -61.678191 
L 216.384823 -61.659637 
L 216.013778 -61.654167 
L 215.642732 -61.672913 
L 215.271687 -61.723577 
L 214.900641 -61.809129 
L 214.529596 -61.927131 
L 214.15855 -62.069885 
L 213.787505 -62.225475 
L 213.416459 -62.379624 
L 213.045414 -62.518149 
L 212.674368 -62.629628 
L 212.303323 -62.70781 
L 211.932277 -62.75322 
L 211.561232 -62.773514 
L 211.190186 -62.782292 
L 210.819141 -62.796423 
L 210.448095 -62.832309 
L 210.07705 -62.901829 
L 209.706004 -63.008935 
L 209.334959 -63.147803 
L 208.963913 -63.303204 
L 208.592868 -63.45322 
L 208.221822 -63.573875 
L 207.850777 -63.644698 
L 207.479731 -63.653929 
L 207.108686 -63.602089 
L 206.73764 -63.503006 
L 206.366595 -63.382022 
L 205.995549 -63.271808 
L 205.624504 -63.206814 
L 205.253458 -63.217662 
L 204.882413 -63.326708 
L 204.511368 -63.545556 
L 204.140322 -63.874723 
L 203.769277 -64.30506 
L 203.398231 -64.820159 
L 203.027186 -65.398897 
L 202.65614 -66.017532 
L 202.285095 -66.651131 
L 201.914049 -67.274584 
L 201.543004 -67.863647 
L 201.171958 -68.39646 
L 200.800913 -68.855646 
L 200.429867 -69.23067 
L 200.058822 -69.519748 
L 199.687776 -69.730458 
L 199.316731 -69.878444 
L 198.945685 -69.984096 
L 198.57464 -70.067819 
L 198.203594 -70.144995 
L 197.832549 -70.222059 
L 197.461503 -70.294852 
L 197.090458 -70.349889 
L 196.719412 -70.368346 
L 196.348367 -70.331838 
L 195.977321 -70.228519 
L 195.606276 -70.057948 
L 195.23523 -69.83345 
L 194.864185 -69.58133 
L 194.493139 -69.337081 
L 194.122094 -69.13943 
L 193.751048 -69.023593 
L 193.380003 -69.015261 
L 193.008957 -69.126625 
L 192.637912 -69.355233 
L 192.266866 -69.685743 
L 191.895821 -70.09394 
L 191.524775 -70.55186 
L 191.15373 -71.03271 
L 190.782684 -71.514453 
L 190.411639 -71.981484 
L 190.040593 -72.4244 
L 189.669548 -72.838505 
L 189.298502 -73.221886 
L 188.927457 -73.573938 
L 188.556411 -73.894794 
L 188.185366 -74.185706 
L 187.81432 -74.449926 
L 187.443275 -74.693458 
L 187.072229 -74.9251 
L 186.701184 -75.155479 
L 186.330138 -75.395253 
L 185.959093 -75.652974 
L 185.588047 -75.933335 
L 185.217002 -76.236378 
L 184.845956 -76.55798 
L 184.474911 -76.891469 
L 184.103865 -77.229868 
L 183.73282 -77.568086 
L 183.361774 -77.904418 
L 182.990729 -78.241006 
L 182.619683 -78.583255 
L 182.248638 -78.938547 
L 181.877592 -79.314718 
L 181.506547 -79.718767 
L 181.135501 -80.15604 
L 180.764456 -80.629915 
L 180.39341 -81.141841 
L 180.022365 -81.691548 
L 179.651319 -82.277346 
L 179.280274 -82.896574 
L 178.909228 -83.546302 
L 178.538183 -84.224364 
L 178.167137 -84.930573 
L 177.796092 -85.667791 
L 177.425046 -86.442388 
L 177.054001 -87.263711 
L 176.682955 -88.142457 
L 176.31191 -89.088205 
L 175.940864 -90.106701 
L 175.569819 -91.197615 
L 175.198773 -92.353385 
L 174.827728 -93.559468 
L 174.456682 -94.795907 
L 174.085637 -96.039823 
L 173.714591 -97.268314 
z
" style="stroke: #8cb78d; stroke-opacity: 0.5"/>
    </defs>
    <g clip-path="url(#pd0258d8652)">
     <use xlink:href="#mc881392cce" x="0" y="340.15748" style="fill: #8cb78d; fill-opacity: 0.5; stroke: #8cb78d; stroke-opacity: 0.5"/>
    </g>
   </g>
   <g id="matplotlib.axis_1">
    <g id="xtick_1">
     <g id="line2d_1">
      <defs>
       <path id="ma20d023e23" d="M 0 0 
L 0 3.5 
" style="stroke: #000000; stroke-width: 0.8"/>
      </defs>
      <g>
       <use xlink:href="#ma20d023e23" x="47.559124" y="296.28376" style="stroke: #000000; stroke-width: 0.8"/>
      </g>
     </g>
     <g id="text_1">
      <!-- −1.0 -->
      <g transform="translate(32.989436 312.401885) scale(0.12 -0.12)">
       <defs>
        <path id="DejaVuSans-2212" d="M 678 2272 
L 4684 2272 
L 4684 1741 
L 678 1741 
L 678 2272 
z
" transform="scale(0.015625)"/>
        <path id="DejaVuSans-31" d="M 794 531 
L 1825 531 
L 1825 4091 
L 703 3866 
L 703 4441 
L 1819 4666 
L 2450 4666 
L 2450 531 
L 3481 531 
L 3481 0 
L 794 0 
L 794 531 
z
" transform="scale(0.015625)"/>
        <path id="DejaVuSans-2e" d="M 684 794 
L 1344 794 
L 1344 0 
L 684 0 
L 684 794 
z
" transform="scale(0.015625)"/>
        <path id="DejaVuSans-30" d="M 2034 4250 
Q 1547 4250 1301 3770 
Q 1056 3291 1056 2328 
Q 1056 1369 1301 889 
Q 1547 409 2034 409 
Q 2525 409 2770 889 
Q 3016 1369 3016 2328 
Q 3016 3291 2770 3770 
Q 2525 4250 2034 4250 
z
M 2034 4750 
Q 2819 4750 3233 4129 
Q 3647 3509 3647 2328 
Q 3647 1150 3233 529 
Q 2819 -91 2034 -91 
Q 1250 -91 836 529 
Q 422 1150 422 2328 
Q 422 3509 836 4129 
Q 1250 4750 2034 4750 
z
" transform="scale(0.015625)"/>
       </defs>
       <use xlink:href="#DejaVuSans-2212"/>
       <use xlink:href="#DejaVuSans-31" x="83.789062"/>
       <use xlink:href="#DejaVuSans-2e" x="147.412109"/>
       <use xlink:href="#DejaVuSans-30" x="179.199219"/>
      </g>
     </g>
    </g>
    <g id="xtick_2">
     <g id="line2d_2">
      <g>
       <use xlink:href="#ma20d023e23" x="93.847049" y="296.28376" style="stroke: #000000; stroke-width: 0.8"/>
      </g>
     </g>
     <g id="text_2">
      <!-- −0.5 -->
      <g transform="translate(79.277361 312.401885) scale(0.12 -0.12)">
       <defs>
        <path id="DejaVuSans-35" d="M 691 4666 
L 3169 4666 
L 3169 4134 
L 1269 4134 
L 1269 2991 
Q 1406 3038 1543 3061 
Q 1681 3084 1819 3084 
Q 2600 3084 3056 2656 
Q 3513 2228 3513 1497 
Q 3513 744 3044 326 
Q 2575 -91 1722 -91 
Q 1428 -91 1123 -41 
Q 819 9 494 109 
L 494 744 
Q 775 591 1075 516 
Q 1375 441 1709 441 
Q 2250 441 2565 725 
Q 2881 1009 2881 1497 
Q 2881 1984 2565 2268 
Q 2250 2553 1709 2553 
Q 1456 2553 1204 2497 
Q 953 2441 691 2322 
L 691 4666 
z
" transform="scale(0.015625)"/>
       </defs>
       <use xlink:href="#DejaVuSans-2212"/>
       <use xlink:href="#DejaVuSans-30" x="83.789062"/>
       <use xlink:href="#DejaVuSans-2e" x="147.412109"/>
       <use xlink:href="#DejaVuSans-35" x="179.199219"/>
      </g>
     </g>
    </g>
    <g id="xtick_3">
     <g id="line2d_3">
      <g>
       <use xlink:href="#ma20d023e23" x="140.134974" y="296.28376" style="stroke: #000000; stroke-width: 0.8"/>
      </g>
     </g>
     <g id="text_3">
      <!-- 0.0 -->
      <g transform="translate(130.593099 312.401885) scale(0.12 -0.12)">
       <use xlink:href="#DejaVuSans-30"/>
       <use xlink:href="#DejaVuSans-2e" x="63.623047"/>
       <use xlink:href="#DejaVuSans-30" x="95.410156"/>
      </g>
     </g>
    </g>
    <g id="xtick_4">
     <g id="line2d_4">
      <g>
       <use xlink:href="#ma20d023e23" x="186.4229" y="296.28376" style="stroke: #000000; stroke-width: 0.8"/>
      </g>
     </g>
     <g id="text_4">
      <!-- 0.5 -->
      <g transform="translate(176.881025 312.401885) scale(0.12 -0.12)">
       <use xlink:href="#DejaVuSans-30"/>
       <use xlink:href="#DejaVuSans-2e" x="63.623047"/>
       <use xlink:href="#DejaVuSans-35" x="95.410156"/>
      </g>
     </g>
    </g>
    <g id="xtick_5">
     <g id="line2d_5">
      <g>
       <use xlink:href="#ma20d023e23" x="232.710825" y="296.28376" style="stroke: #000000; stroke-width: 0.8"/>
      </g>
     </g>
     <g id="text_5">
      <!-- 1.0 -->
      <g transform="translate(223.16895 312.401885) scale(0.12 -0.12)">
       <use xlink:href="#DejaVuSans-31"/>
       <use xlink:href="#DejaVuSans-2e" x="63.623047"/>
       <use xlink:href="#DejaVuSans-30" x="95.410156"/>
      </g>
     </g>
    </g>
   </g>
   <g id="matplotlib.axis_2">
    <g id="ytick_1">
     <g id="line2d_6">
      <defs>
       <path id="maf4b174cf8" d="M 0 0 
L -3.5 0 
" style="stroke: #000000; stroke-width: 0.8"/>
      </defs>
      <g>
       <use xlink:href="#maf4b174cf8" x="46.633365" y="296.28376" style="stroke: #000000; stroke-width: 0.8"/>
      </g>
     </g>
     <g id="text_6">
      <!-- 0.0 -->
      <g transform="translate(20.549615 300.842823) scale(0.12 -0.12)">
       <use xlink:href="#DejaVuSans-30"/>
       <use xlink:href="#DejaVuSans-2e" x="63.623047"/>
       <use xlink:href="#DejaVuSans-30" x="95.410156"/>
      </g>
     </g>
    </g>
    <g id="ytick_2">
     <g id="line2d_7">
      <g>
       <use xlink:href="#maf4b174cf8" x="46.633365" y="259.561082" style="stroke: #000000; stroke-width: 0.8"/>
      </g>
     </g>
     <g id="text_7">
      <!-- 0.5 -->
      <g transform="translate(20.549615 264.120145) scale(0.12 -0.12)">
       <use xlink:href="#DejaVuSans-30"/>
       <use xlink:href="#DejaVuSans-2e" x="63.623047"/>
       <use xlink:href="#DejaVuSans-35" x="95.410156"/>
      </g>
     </g>
    </g>
    <g id="ytick_3">
     <g id="line2d_8">
      <g>
       <use xlink:href="#maf4b174cf8" x="46.633365" y="222.838404" style="stroke: #000000; stroke-width: 0.8"/>
      </g>
     </g>
     <g id="text_8">
      <!-- 1.0 -->
      <g transform="translate(20.549615 227.397467) scale(0.12 -0.12)">
       <use xlink:href="#DejaVuSans-31"/>
       <use xlink:href="#DejaVuSans-2e" x="63.623047"/>
       <use xlink:href="#DejaVuSans-30" x="95.410156"/>
      </g>
     </g>
    </g>
    <g id="ytick_4">
     <g id="line2d_9">
      <g>
       <use xlink:href="#maf4b174cf8" x="46.633365" y="186.115726" style="stroke: #000000; stroke-width: 0.8"/>
      </g>
     </g>
     <g id="text_9">
      <!-- 1.5 -->
      <g transform="translate(20.549615 190.674788) scale(0.12 -0.12)">
       <use xlink:href="#DejaVuSans-31"/>
       <use xlink:href="#DejaVuSans-2e" x="63.623047"/>
       <use xlink:href="#DejaVuSans-35" x="95.410156"/>
      </g>
     </g>
    </g>
    <g id="ytick_5">
     <g id="line2d_10">
      <g>
       <use xlink:href="#maf4b174cf8" x="46.633365" y="149.393048" style="stroke: #000000; stroke-width: 0.8"/>
      </g>
     </g>
     <g id="text_10">
      <!-- 2.0 -->
      <g transform="translate(20.549615 153.95211) scale(0.12 -0.12)">
       <defs>
        <path id="DejaVuSans-32" d="M 1228 531 
L 3431 531 
L 3431 0 
L 469 0 
L 469 531 
Q 828 903 1448 1529 
Q 2069 2156 2228 2338 
Q 2531 2678 2651 2914 
Q 2772 3150 2772 3378 
Q 2772 3750 2511 3984 
Q 2250 4219 1831 4219 
Q 1534 4219 1204 4116 
Q 875 4013 500 3803 
L 500 4441 
Q 881 4594 1212 4672 
Q 1544 4750 1819 4750 
Q 2544 4750 2975 4387 
Q 3406 4025 3406 3419 
Q 3406 3131 3298 2873 
Q 3191 2616 2906 2266 
Q 2828 2175 2409 1742 
Q 1991 1309 1228 531 
z
" transform="scale(0.015625)"/>
       </defs>
       <use xlink:href="#DejaVuSans-32"/>
       <use xlink:href="#DejaVuSans-2e" x="63.623047"/>
       <use xlink:href="#DejaVuSans-30" x="95.410156"/>
      </g>
     </g>
    </g>
    <g id="ytick_6">
     <g id="line2d_11">
      <g>
       <use xlink:href="#maf4b174cf8" x="46.633365" y="112.67037" style="stroke: #000000; stroke-width: 0.8"/>
      </g>
     </g>
     <g id="text_11">
      <!-- 2.5 -->
      <g transform="translate(20.549615 117.229432) scale(0.12 -0.12)">
       <use xlink:href="#DejaVuSans-32"/>
       <use xlink:href="#DejaVuSans-2e" x="63.623047"/>
       <use xlink:href="#DejaVuSans-35" x="95.410156"/>
      </g>
     </g>
    </g>
    <g id="ytick_7">
     <g id="line2d_12">
      <g>
       <use xlink:href="#maf4b174cf8" x="46.633365" y="75.947692" style="stroke: #000000; stroke-width: 0.8"/>
      </g>
     </g>
     <g id="text_12">
      <!-- 3.0 -->
      <g transform="translate(20.549615 80.506754) scale(0.12 -0.12)">
       <defs>
        <path id="DejaVuSans-33" d="M 2597 2516 
Q 3050 2419 3304 2112 
Q 3559 1806 3559 1356 
Q 3559 666 3084 287 
Q 2609 -91 1734 -91 
Q 1441 -91 1130 -33 
Q 819 25 488 141 
L 488 750 
Q 750 597 1062 519 
Q 1375 441 1716 441 
Q 2309 441 2620 675 
Q 2931 909 2931 1356 
Q 2931 1769 2642 2001 
Q 2353 2234 1838 2234 
L 1294 2234 
L 1294 2753 
L 1863 2753 
Q 2328 2753 2575 2939 
Q 2822 3125 2822 3475 
Q 2822 3834 2567 4026 
Q 2313 4219 1838 4219 
Q 1578 4219 1281 4162 
Q 984 4106 628 3988 
L 628 4550 
Q 988 4650 1302 4700 
Q 1616 4750 1894 4750 
Q 2613 4750 3031 4423 
Q 3450 4097 3450 3541 
Q 3450 3153 3228 2886 
Q 3006 2619 2597 2516 
z
" transform="scale(0.015625)"/>
       </defs>
       <use xlink:href="#DejaVuSans-33"/>
       <use xlink:href="#DejaVuSans-2e" x="63.623047"/>
       <use xlink:href="#DejaVuSans-30" x="95.410156"/>
      </g>
     </g>
    </g>
    <g id="ytick_8">
     <g id="line2d_13">
      <g>
       <use xlink:href="#maf4b174cf8" x="46.633365" y="39.225013" style="stroke: #000000; stroke-width: 0.8"/>
      </g>
     </g>
     <g id="text_13">
      <!-- 3.5 -->
      <g transform="translate(20.549615 43.784076) scale(0.12 -0.12)">
       <use xlink:href="#DejaVuSans-33"/>
       <use xlink:href="#DejaVuSans-2e" x="63.623047"/>
       <use xlink:href="#DejaVuSans-35" x="95.410156"/>
      </g>
     </g>
    </g>
    <g id="text_14">
     <!-- PDF -->
     <g transform="translate(13.638052 173.597781) rotate(-90) scale(0.14 -0.14)">
      <defs>
       <path id="DejaVuSans-50" d="M 1259 4147 
L 1259 2394 
L 2053 2394 
Q 2494 2394 2734 2622 
Q 2975 2850 2975 3272 
Q 2975 3691 2734 3919 
Q 2494 4147 2053 4147 
L 1259 4147 
z
M 628 4666 
L 2053 4666 
Q 2838 4666 3239 4311 
Q 3641 3956 3641 3272 
Q 3641 2581 3239 2228 
Q 2838 1875 2053 1875 
L 1259 1875 
L 1259 0 
L 628 0 
L 628 4666 
z
" transform="scale(0.015625)"/>
       <path id="DejaVuSans-44" d="M 1259 4147 
L 1259 519 
L 2022 519 
Q 2988 519 3436 956 
Q 3884 1394 3884 2338 
Q 3884 3275 3436 3711 
Q 2988 4147 2022 4147 
L 1259 4147 
z
M 628 4666 
L 1925 4666 
Q 3281 4666 3915 4102 
Q 4550 3538 4550 2338 
Q 4550 1131 3912 565 
Q 3275 0 1925 0 
L 628 0 
L 628 4666 
z
" transform="scale(0.015625)"/>
       <path id="DejaVuSans-46" d="M 628 4666 
L 3309 4666 
L 3309 4134 
L 1259 4134 
L 1259 2759 
L 3109 2759 
L 3109 2228 
L 1259 2228 
L 1259 0 
L 628 0 
L 628 4666 
z
" transform="scale(0.015625)"/>
      </defs>
      <use xlink:href="#DejaVuSans-50"/>
      <use xlink:href="#DejaVuSans-44" x="60.302734"/>
      <use xlink:href="#DejaVuSans-46" x="137.304688"/>
     </g>
    </g>
   </g>
   <g id="line2d_14">
    <path d="M 47.559124 296.28376 
L 106.926403 296.190784 
L 119.541949 295.466575 
L 121.026131 295.093965 
L 123.252404 294.464982 
L 125.107632 294.064467 
L 125.849723 293.661996 
L 126.591814 292.991416 
L 127.70495 291.508251 
L 128.818087 289.581014 
L 129.560178 287.96908 
L 130.302269 285.86845 
L 131.04436 283.026759 
L 131.786451 279.243296 
L 132.528542 274.404578 
L 133.270633 268.438508 
L 134.383769 257.141546 
L 135.496906 242.617621 
L 136.610042 224.63684 
L 137.723179 203.118706 
L 139.207361 168.855665 
L 141.433634 114.950656 
L 142.54677 94.192844 
L 143.288861 83.639772 
L 144.030952 75.396627 
L 144.773043 69.095061 
L 145.515134 64.552861 
L 146.257225 61.833382 
L 146.62827 61.21037 
L 146.999316 61.097531 
L 147.370361 61.491424 
L 147.741407 62.371511 
L 148.483498 65.443762 
L 149.225589 70.002617 
L 149.96768 75.886825 
L 150.709771 83.180765 
L 151.822907 96.97394 
L 154.791271 138.218297 
L 155.904408 149.614772 
L 157.38859 161.899271 
L 161.841136 195.285535 
L 162.954272 202.373506 
L 164.067409 208.138751 
L 165.551591 214.281964 
L 167.777864 223.348677 
L 169.633091 230.962631 
L 170.746228 234.50485 
L 173.714591 242.889166 
L 175.940864 250.050779 
L 177.054001 252.893769 
L 178.538183 255.933117 
L 180.022365 258.465933 
L 181.135501 260.001441 
L 182.248638 261.218933 
L 185.217002 263.921103 
L 186.701184 265.002001 
L 188.556411 266.262686 
L 189.669548 267.318976 
L 191.15373 269.124771 
L 192.266866 270.471737 
L 193.008957 271.030855 
L 193.380003 271.14222 
L 194.122094 271.01805 
L 195.23523 270.324031 
L 195.977321 269.928962 
L 196.719412 269.789134 
L 197.832549 269.935422 
L 199.687776 270.427022 
L 200.429867 270.92681 
L 201.171958 271.76102 
L 202.285095 273.506349 
L 203.769277 275.85242 
L 204.511368 276.611924 
L 205.253458 276.939818 
L 205.995549 276.885672 
L 207.479731 276.503552 
L 208.221822 276.583606 
L 210.819141 277.361057 
L 212.674368 277.527852 
L 214.15855 278.087595 
L 215.271687 278.433903 
L 216.384823 278.497844 
L 217.869005 278.47458 
L 218.611096 278.63009 
L 219.353187 278.992523 
L 220.095278 279.60845 
L 220.837369 280.501731 
L 221.950506 282.295127 
L 224.91887 287.461794 
L 227.887234 291.798349 
L 229.371416 293.708577 
L 230.484552 294.845335 
L 231.597689 295.620154 
L 232.710825 296.040976 
L 232.710825 296.040976 
" clip-path="url(#pd0258d8652)" style="fill: none; stroke: #7d96b0; stroke-width: 2; stroke-linecap: square"/>
   </g>
   <g id="line2d_15">
    <path d="M 140.134974 296.28376 
L 140.134974 23.638053 
" clip-path="url(#pd0258d8652)" style="fill: none; stroke-dasharray: 3.7,1.6; stroke-dashoffset: 0; stroke: #000000"/>
   </g>
   <g id="patch_53">
    <path d="M 46.633365 296.28376 
L 46.633365 23.638052 
" style="fill: none; stroke: #000000; stroke-width: 0.8; stroke-linejoin: miter; stroke-linecap: square"/>
   </g>
   <g id="patch_54">
    <path d="M 233.636584 296.28376 
L 233.636584 23.638052 
" style="fill: none; stroke: #000000; stroke-width: 0.8; stroke-linejoin: miter; stroke-linecap: square"/>
   </g>
   <g id="patch_55">
    <path d="M 46.633365 296.28376 
L 233.636584 296.28376 
" style="fill: none; stroke: #000000; stroke-width: 0.8; stroke-linejoin: miter; stroke-linecap: square"/>
   </g>
   <g id="patch_56">
    <path d="M 46.633365 23.638053 
L 233.636584 23.638053 
" style="fill: none; stroke: #000000; stroke-width: 0.8; stroke-linejoin: miter; stroke-linecap: square"/>
   </g>
   <g id="text_15">
    <!-- Area under PDF -->
    <g transform="translate(46.633365 13.638053) scale(0.14 -0.14)">
     <defs>
      <path id="DejaVuSans-41" d="M 2188 4044 
L 1331 1722 
L 3047 1722 
L 2188 4044 
z
M 1831 4666 
L 2547 4666 
L 4325 0 
L 3669 0 
L 3244 1197 
L 1141 1197 
L 716 0 
L 50 0 
L 1831 4666 
z
" transform="scale(0.015625)"/>
      <path id="DejaVuSans-72" d="M 2631 2963 
Q 2534 3019 2420 3045 
Q 2306 3072 2169 3072 
Q 1681 3072 1420 2755 
Q 1159 2438 1159 1844 
L 1159 0 
L 581 0 
L 581 3500 
L 1159 3500 
L 1159 2956 
Q 1341 3275 1631 3429 
Q 1922 3584 2338 3584 
Q 2397 3584 2469 3576 
Q 2541 3569 2628 3553 
L 2631 2963 
z
" transform="scale(0.015625)"/>
      <path id="DejaVuSans-65" d="M 3597 1894 
L 3597 1613 
L 953 1613 
Q 991 1019 1311 708 
Q 1631 397 2203 397 
Q 2534 397 2845 478 
Q 3156 559 3463 722 
L 3463 178 
Q 3153 47 2828 -22 
Q 2503 -91 2169 -91 
Q 1331 -91 842 396 
Q 353 884 353 1716 
Q 353 2575 817 3079 
Q 1281 3584 2069 3584 
Q 2775 3584 3186 3129 
Q 3597 2675 3597 1894 
z
M 3022 2063 
Q 3016 2534 2758 2815 
Q 2500 3097 2075 3097 
Q 1594 3097 1305 2825 
Q 1016 2553 972 2059 
L 3022 2063 
z
" transform="scale(0.015625)"/>
      <path id="DejaVuSans-61" d="M 2194 1759 
Q 1497 1759 1228 1600 
Q 959 1441 959 1056 
Q 959 750 1161 570 
Q 1363 391 1709 391 
Q 2188 391 2477 730 
Q 2766 1069 2766 1631 
L 2766 1759 
L 2194 1759 
z
M 3341 1997 
L 3341 0 
L 2766 0 
L 2766 531 
Q 2569 213 2275 61 
Q 1981 -91 1556 -91 
Q 1019 -91 701 211 
Q 384 513 384 1019 
Q 384 1609 779 1909 
Q 1175 2209 1959 2209 
L 2766 2209 
L 2766 2266 
Q 2766 2663 2505 2880 
Q 2244 3097 1772 3097 
Q 1472 3097 1187 3025 
Q 903 2953 641 2809 
L 641 3341 
Q 956 3463 1253 3523 
Q 1550 3584 1831 3584 
Q 2591 3584 2966 3190 
Q 3341 2797 3341 1997 
z
" transform="scale(0.015625)"/>
      <path id="DejaVuSans-20" transform="scale(0.015625)"/>
      <path id="DejaVuSans-75" d="M 544 1381 
L 544 3500 
L 1119 3500 
L 1119 1403 
Q 1119 906 1312 657 
Q 1506 409 1894 409 
Q 2359 409 2629 706 
Q 2900 1003 2900 1516 
L 2900 3500 
L 3475 3500 
L 3475 0 
L 2900 0 
L 2900 538 
Q 2691 219 2414 64 
Q 2138 -91 1772 -91 
Q 1169 -91 856 284 
Q 544 659 544 1381 
z
M 1991 3584 
L 1991 3584 
z
" transform="scale(0.015625)"/>
      <path id="DejaVuSans-6e" d="M 3513 2113 
L 3513 0 
L 2938 0 
L 2938 2094 
Q 2938 2591 2744 2837 
Q 2550 3084 2163 3084 
Q 1697 3084 1428 2787 
Q 1159 2491 1159 1978 
L 1159 0 
L 581 0 
L 581 3500 
L 1159 3500 
L 1159 2956 
Q 1366 3272 1645 3428 
Q 1925 3584 2291 3584 
Q 2894 3584 3203 3211 
Q 3513 2838 3513 2113 
z
" transform="scale(0.015625)"/>
      <path id="DejaVuSans-64" d="M 2906 2969 
L 2906 4863 
L 3481 4863 
L 3481 0 
L 2906 0 
L 2906 525 
Q 2725 213 2448 61 
Q 2172 -91 1784 -91 
Q 1150 -91 751 415 
Q 353 922 353 1747 
Q 353 2572 751 3078 
Q 1150 3584 1784 3584 
Q 2172 3584 2448 3432 
Q 2725 3281 2906 2969 
z
M 947 1747 
Q 947 1113 1208 752 
Q 1469 391 1925 391 
Q 2381 391 2643 752 
Q 2906 1113 2906 1747 
Q 2906 2381 2643 2742 
Q 2381 3103 1925 3103 
Q 1469 3103 1208 2742 
Q 947 2381 947 1747 
z
" transform="scale(0.015625)"/>
     </defs>
     <use xlink:href="#DejaVuSans-41"/>
     <use xlink:href="#DejaVuSans-72" x="68.408203"/>
     <use xlink:href="#DejaVuSans-65" x="107.271484"/>
     <use xlink:href="#DejaVuSans-61" x="168.794922"/>
     <use xlink:href="#DejaVuSans-20" x="230.074219"/>
     <use xlink:href="#DejaVuSans-75" x="261.861328"/>
     <use xlink:href="#DejaVuSans-6e" x="325.240234"/>
     <use xlink:href="#DejaVuSans-64" x="388.619141"/>
     <use xlink:href="#DejaVuSans-65" x="452.095703"/>
     <use xlink:href="#DejaVuSans-72" x="513.619141"/>
     <use xlink:href="#DejaVuSans-20" x="554.732422"/>
     <use xlink:href="#DejaVuSans-50" x="586.519531"/>
     <use xlink:href="#DejaVuSans-44" x="646.822266"/>
     <use xlink:href="#DejaVuSans-46" x="723.824219"/>
    </g>
   </g>
  </g>
  <g id="axes_2">
   <g id="patch_57">
    <path d="M 291.886305 296.28376 
L 478.889524 296.28376 
L 478.889524 23.638053 
L 291.886305 23.638053 
z
" style="fill: #ffffff"/>
   </g>
   <g id="matplotlib.axis_3">
    <g id="xtick_6">
     <g id="line2d_16">
      <g>
       <use xlink:href="#ma20d023e23" x="307.469907" y="296.28376" style="stroke: #000000; stroke-width: 0.8"/>
      </g>
     </g>
     <g id="text_16">
      <!-- −1.0 -->
      <g transform="translate(292.900219 312.401885) scale(0.12 -0.12)">
       <use xlink:href="#DejaVuSans-2212"/>
       <use xlink:href="#DejaVuSans-31" x="83.789062"/>
       <use xlink:href="#DejaVuSans-2e" x="147.412109"/>
       <use xlink:href="#DejaVuSans-30" x="179.199219"/>
      </g>
     </g>
    </g>
    <g id="xtick_7">
     <g id="line2d_17">
      <g>
       <use xlink:href="#ma20d023e23" x="346.507142" y="296.28376" style="stroke: #000000; stroke-width: 0.8"/>
      </g>
     </g>
     <g id="text_17">
      <!-- −0.5 -->
      <g transform="translate(331.937454 312.401885) scale(0.12 -0.12)">
       <use xlink:href="#DejaVuSans-2212"/>
       <use xlink:href="#DejaVuSans-30" x="83.789062"/>
       <use xlink:href="#DejaVuSans-2e" x="147.412109"/>
       <use xlink:href="#DejaVuSans-35" x="179.199219"/>
      </g>
     </g>
    </g>
    <g id="xtick_8">
     <g id="line2d_18">
      <g>
       <use xlink:href="#ma20d023e23" x="385.544376" y="296.28376" style="stroke: #000000; stroke-width: 0.8"/>
      </g>
     </g>
     <g id="text_18">
      <!-- 0.0 -->
      <g transform="translate(376.002501 312.401885) scale(0.12 -0.12)">
       <use xlink:href="#DejaVuSans-30"/>
       <use xlink:href="#DejaVuSans-2e" x="63.623047"/>
       <use xlink:href="#DejaVuSans-30" x="95.410156"/>
      </g>
     </g>
    </g>
    <g id="xtick_9">
     <g id="line2d_19">
      <g>
       <use xlink:href="#ma20d023e23" x="424.581611" y="296.28376" style="stroke: #000000; stroke-width: 0.8"/>
      </g>
     </g>
     <g id="text_19">
      <!-- 0.5 -->
      <g transform="translate(415.039736 312.401885) scale(0.12 -0.12)">
       <use xlink:href="#DejaVuSans-30"/>
       <use xlink:href="#DejaVuSans-2e" x="63.623047"/>
       <use xlink:href="#DejaVuSans-35" x="95.410156"/>
      </g>
     </g>
    </g>
    <g id="xtick_10">
     <g id="line2d_20">
      <g>
       <use xlink:href="#ma20d023e23" x="463.618846" y="296.28376" style="stroke: #000000; stroke-width: 0.8"/>
      </g>
     </g>
     <g id="text_20">
      <!-- 1.0 -->
      <g transform="translate(454.076971 312.401885) scale(0.12 -0.12)">
       <use xlink:href="#DejaVuSans-31"/>
       <use xlink:href="#DejaVuSans-2e" x="63.623047"/>
       <use xlink:href="#DejaVuSans-30" x="95.410156"/>
      </g>
     </g>
    </g>
   </g>
   <g id="matplotlib.axis_4">
    <g id="ytick_9">
     <g id="line2d_21">
      <g>
       <use xlink:href="#maf4b174cf8" x="291.886305" y="265.057496" style="stroke: #000000; stroke-width: 0.8"/>
      </g>
     </g>
     <g id="text_21">
      <!-- 0.0 -->
      <g transform="translate(265.802555 269.616559) scale(0.12 -0.12)">
       <use xlink:href="#DejaVuSans-30"/>
       <use xlink:href="#DejaVuSans-2e" x="63.623047"/>
       <use xlink:href="#DejaVuSans-30" x="95.410156"/>
      </g>
     </g>
    </g>
    <g id="ytick_10">
     <g id="line2d_22">
      <g>
       <use xlink:href="#maf4b174cf8" x="291.886305" y="212.565416" style="stroke: #000000; stroke-width: 0.8"/>
      </g>
     </g>
     <g id="text_22">
      <!-- 0.2 -->
      <g transform="translate(265.802555 217.124478) scale(0.12 -0.12)">
       <use xlink:href="#DejaVuSans-30"/>
       <use xlink:href="#DejaVuSans-2e" x="63.623047"/>
       <use xlink:href="#DejaVuSans-32" x="95.410156"/>
      </g>
     </g>
    </g>
    <g id="ytick_11">
     <g id="line2d_23">
      <g>
       <use xlink:href="#maf4b174cf8" x="291.886305" y="160.073335" style="stroke: #000000; stroke-width: 0.8"/>
      </g>
     </g>
     <g id="text_23">
      <!-- 0.4 -->
      <g transform="translate(265.802555 164.632398) scale(0.12 -0.12)">
       <defs>
        <path id="DejaVuSans-34" d="M 2419 4116 
L 825 1625 
L 2419 1625 
L 2419 4116 
z
M 2253 4666 
L 3047 4666 
L 3047 1625 
L 3713 1625 
L 3713 1100 
L 3047 1100 
L 3047 0 
L 2419 0 
L 2419 1100 
L 313 1100 
L 313 1709 
L 2253 4666 
z
" transform="scale(0.015625)"/>
       </defs>
       <use xlink:href="#DejaVuSans-30"/>
       <use xlink:href="#DejaVuSans-2e" x="63.623047"/>
       <use xlink:href="#DejaVuSans-34" x="95.410156"/>
      </g>
     </g>
    </g>
    <g id="ytick_12">
     <g id="line2d_24">
      <g>
       <use xlink:href="#maf4b174cf8" x="291.886305" y="107.581255" style="stroke: #000000; stroke-width: 0.8"/>
      </g>
     </g>
     <g id="text_24">
      <!-- 0.6 -->
      <g transform="translate(265.802555 112.140317) scale(0.12 -0.12)">
       <defs>
        <path id="DejaVuSans-36" d="M 2113 2584 
Q 1688 2584 1439 2293 
Q 1191 2003 1191 1497 
Q 1191 994 1439 701 
Q 1688 409 2113 409 
Q 2538 409 2786 701 
Q 3034 994 3034 1497 
Q 3034 2003 2786 2293 
Q 2538 2584 2113 2584 
z
M 3366 4563 
L 3366 3988 
Q 3128 4100 2886 4159 
Q 2644 4219 2406 4219 
Q 1781 4219 1451 3797 
Q 1122 3375 1075 2522 
Q 1259 2794 1537 2939 
Q 1816 3084 2150 3084 
Q 2853 3084 3261 2657 
Q 3669 2231 3669 1497 
Q 3669 778 3244 343 
Q 2819 -91 2113 -91 
Q 1303 -91 875 529 
Q 447 1150 447 2328 
Q 447 3434 972 4092 
Q 1497 4750 2381 4750 
Q 2619 4750 2861 4703 
Q 3103 4656 3366 4563 
z
" transform="scale(0.015625)"/>
       </defs>
       <use xlink:href="#DejaVuSans-30"/>
       <use xlink:href="#DejaVuSans-2e" x="63.623047"/>
       <use xlink:href="#DejaVuSans-36" x="95.410156"/>
      </g>
     </g>
    </g>
    <g id="ytick_13">
     <g id="line2d_25">
      <g>
       <use xlink:href="#maf4b174cf8" x="291.886305" y="55.089174" style="stroke: #000000; stroke-width: 0.8"/>
      </g>
     </g>
     <g id="text_25">
      <!-- 0.8 -->
      <g transform="translate(265.802555 59.648237) scale(0.12 -0.12)">
       <defs>
        <path id="DejaVuSans-38" d="M 2034 2216 
Q 1584 2216 1326 1975 
Q 1069 1734 1069 1313 
Q 1069 891 1326 650 
Q 1584 409 2034 409 
Q 2484 409 2743 651 
Q 3003 894 3003 1313 
Q 3003 1734 2745 1975 
Q 2488 2216 2034 2216 
z
M 1403 2484 
Q 997 2584 770 2862 
Q 544 3141 544 3541 
Q 544 4100 942 4425 
Q 1341 4750 2034 4750 
Q 2731 4750 3128 4425 
Q 3525 4100 3525 3541 
Q 3525 3141 3298 2862 
Q 3072 2584 2669 2484 
Q 3125 2378 3379 2068 
Q 3634 1759 3634 1313 
Q 3634 634 3220 271 
Q 2806 -91 2034 -91 
Q 1263 -91 848 271 
Q 434 634 434 1313 
Q 434 1759 690 2068 
Q 947 2378 1403 2484 
z
M 1172 3481 
Q 1172 3119 1398 2916 
Q 1625 2713 2034 2713 
Q 2441 2713 2670 2916 
Q 2900 3119 2900 3481 
Q 2900 3844 2670 4047 
Q 2441 4250 2034 4250 
Q 1625 4250 1398 4047 
Q 1172 3844 1172 3481 
z
" transform="scale(0.015625)"/>
       </defs>
       <use xlink:href="#DejaVuSans-30"/>
       <use xlink:href="#DejaVuSans-2e" x="63.623047"/>
       <use xlink:href="#DejaVuSans-38" x="95.410156"/>
      </g>
     </g>
    </g>
    <g id="text_26">
     <!-- AUC-thresh -->
     <g transform="translate(258.890993 199.576531) rotate(-90) scale(0.14 -0.14)">
      <defs>
       <path id="DejaVuSans-55" d="M 556 4666 
L 1191 4666 
L 1191 1831 
Q 1191 1081 1462 751 
Q 1734 422 2344 422 
Q 2950 422 3222 751 
Q 3494 1081 3494 1831 
L 3494 4666 
L 4128 4666 
L 4128 1753 
Q 4128 841 3676 375 
Q 3225 -91 2344 -91 
Q 1459 -91 1007 375 
Q 556 841 556 1753 
L 556 4666 
z
" transform="scale(0.015625)"/>
       <path id="DejaVuSans-43" d="M 4122 4306 
L 4122 3641 
Q 3803 3938 3442 4084 
Q 3081 4231 2675 4231 
Q 1875 4231 1450 3742 
Q 1025 3253 1025 2328 
Q 1025 1406 1450 917 
Q 1875 428 2675 428 
Q 3081 428 3442 575 
Q 3803 722 4122 1019 
L 4122 359 
Q 3791 134 3420 21 
Q 3050 -91 2638 -91 
Q 1578 -91 968 557 
Q 359 1206 359 2328 
Q 359 3453 968 4101 
Q 1578 4750 2638 4750 
Q 3056 4750 3426 4639 
Q 3797 4528 4122 4306 
z
" transform="scale(0.015625)"/>
       <path id="DejaVuSans-2d" d="M 313 2009 
L 1997 2009 
L 1997 1497 
L 313 1497 
L 313 2009 
z
" transform="scale(0.015625)"/>
       <path id="DejaVuSans-74" d="M 1172 4494 
L 1172 3500 
L 2356 3500 
L 2356 3053 
L 1172 3053 
L 1172 1153 
Q 1172 725 1289 603 
Q 1406 481 1766 481 
L 2356 481 
L 2356 0 
L 1766 0 
Q 1100 0 847 248 
Q 594 497 594 1153 
L 594 3053 
L 172 3053 
L 172 3500 
L 594 3500 
L 594 4494 
L 1172 4494 
z
" transform="scale(0.015625)"/>
       <path id="DejaVuSans-68" d="M 3513 2113 
L 3513 0 
L 2938 0 
L 2938 2094 
Q 2938 2591 2744 2837 
Q 2550 3084 2163 3084 
Q 1697 3084 1428 2787 
Q 1159 2491 1159 1978 
L 1159 0 
L 581 0 
L 581 4863 
L 1159 4863 
L 1159 2956 
Q 1366 3272 1645 3428 
Q 1925 3584 2291 3584 
Q 2894 3584 3203 3211 
Q 3513 2838 3513 2113 
z
" transform="scale(0.015625)"/>
       <path id="DejaVuSans-73" d="M 2834 3397 
L 2834 2853 
Q 2591 2978 2328 3040 
Q 2066 3103 1784 3103 
Q 1356 3103 1142 2972 
Q 928 2841 928 2578 
Q 928 2378 1081 2264 
Q 1234 2150 1697 2047 
L 1894 2003 
Q 2506 1872 2764 1633 
Q 3022 1394 3022 966 
Q 3022 478 2636 193 
Q 2250 -91 1575 -91 
Q 1294 -91 989 -36 
Q 684 19 347 128 
L 347 722 
Q 666 556 975 473 
Q 1284 391 1588 391 
Q 1994 391 2212 530 
Q 2431 669 2431 922 
Q 2431 1156 2273 1281 
Q 2116 1406 1581 1522 
L 1381 1569 
Q 847 1681 609 1914 
Q 372 2147 372 2553 
Q 372 3047 722 3315 
Q 1072 3584 1716 3584 
Q 2034 3584 2315 3537 
Q 2597 3491 2834 3397 
z
" transform="scale(0.015625)"/>
      </defs>
      <use xlink:href="#DejaVuSans-41"/>
      <use xlink:href="#DejaVuSans-55" x="68.408203"/>
      <use xlink:href="#DejaVuSans-43" x="141.601562"/>
      <use xlink:href="#DejaVuSans-2d" x="211.425781"/>
      <use xlink:href="#DejaVuSans-74" x="247.509766"/>
      <use xlink:href="#DejaVuSans-68" x="286.71875"/>
      <use xlink:href="#DejaVuSans-72" x="350.097656"/>
      <use xlink:href="#DejaVuSans-65" x="388.960938"/>
      <use xlink:href="#DejaVuSans-73" x="450.484375"/>
      <use xlink:href="#DejaVuSans-68" x="502.583984"/>
     </g>
    </g>
   </g>
   <g id="line2d_26">
    <path d="M 307.469907 55.097173 
L 364.422025 55.205281 
L 370.680499 55.44986 
L 374.435584 55.845661 
L 376.000203 56.212312 
L 377.251898 56.69391 
L 378.190669 57.233947 
L 379.12944 58.019045 
L 380.068211 59.152574 
L 381.006982 60.751362 
L 381.945754 62.950638 
L 382.884525 65.897698 
L 383.823296 69.743944 
L 384.762067 74.645201 
L 385.700838 80.721445 
L 386.952533 90.620062 
L 388.517152 105.246917 
L 391.020542 131.423027 
L 394.462703 167.333957 
L 396.340245 184.424879 
L 397.904864 196.604118 
L 399.782406 209.23887 
L 401.659948 220.301921 
L 403.537491 229.912948 
L 405.415033 238.193607 
L 407.292575 245.502244 
L 409.170118 252.036113 
L 411.04766 257.781117 
L 413.238126 263.727014 
L 413.55105 264.517047 
L 413.863974 264.82464 
L 415.741516 260.550831 
L 417.619058 256.814278 
L 419.809524 252.926457 
L 422.625838 248.422052 
L 425.755075 243.859598 
L 428.571389 240.113991 
L 431.700626 236.434475 
L 438.584948 228.448488 
L 441.088338 226.161959 
L 448.598507 219.614401 
L 453.91821 215.389097 
L 455.482829 214.412864 
L 457.047448 213.672349 
L 458.92499 213.057217 
L 460.802532 212.713028 
L 462.992999 212.575649 
L 463.305922 212.569655 
L 463.305922 212.569655 
" clip-path="url(#pf1279bc56e)" style="fill: none; stroke: #7d96b0; stroke-width: 2; stroke-linecap: square"/>
   </g>
   <g id="line2d_27">
    <path d="M 413.863974 296.28376 
L 413.863974 23.638053 
" clip-path="url(#pf1279bc56e)" style="fill: none; stroke-dasharray: 3.7,1.6; stroke-dashoffset: 0; stroke: #1d1d1d"/>
   </g>
   <g id="patch_58">
    <path d="M 291.886305 296.28376 
L 291.886305 23.638052 
" style="fill: none; stroke: #000000; stroke-width: 0.8; stroke-linejoin: miter; stroke-linecap: square"/>
   </g>
   <g id="patch_59">
    <path d="M 478.889524 296.28376 
L 478.889524 23.638052 
" style="fill: none; stroke: #000000; stroke-width: 0.8; stroke-linejoin: miter; stroke-linecap: square"/>
   </g>
   <g id="patch_60">
    <path d="M 291.886305 296.28376 
L 478.889524 296.28376 
" style="fill: none; stroke: #000000; stroke-width: 0.8; stroke-linejoin: miter; stroke-linecap: square"/>
   </g>
   <g id="patch_61">
    <path d="M 291.886305 23.638053 
L 478.889524 23.638053 
" style="fill: none; stroke: #000000; stroke-width: 0.8; stroke-linejoin: miter; stroke-linecap: square"/>
   </g>
   <g id="text_27">
    <!-- Difference gradient -->
    <g transform="translate(291.886305 13.638053) scale(0.14 -0.14)">
     <defs>
      <path id="DejaVuSans-69" d="M 603 3500 
L 1178 3500 
L 1178 0 
L 603 0 
L 603 3500 
z
M 603 4863 
L 1178 4863 
L 1178 4134 
L 603 4134 
L 603 4863 
z
" transform="scale(0.015625)"/>
      <path id="DejaVuSans-66" d="M 2375 4863 
L 2375 4384 
L 1825 4384 
Q 1516 4384 1395 4259 
Q 1275 4134 1275 3809 
L 1275 3500 
L 2222 3500 
L 2222 3053 
L 1275 3053 
L 1275 0 
L 697 0 
L 697 3053 
L 147 3053 
L 147 3500 
L 697 3500 
L 697 3744 
Q 697 4328 969 4595 
Q 1241 4863 1831 4863 
L 2375 4863 
z
" transform="scale(0.015625)"/>
      <path id="DejaVuSans-63" d="M 3122 3366 
L 3122 2828 
Q 2878 2963 2633 3030 
Q 2388 3097 2138 3097 
Q 1578 3097 1268 2742 
Q 959 2388 959 1747 
Q 959 1106 1268 751 
Q 1578 397 2138 397 
Q 2388 397 2633 464 
Q 2878 531 3122 666 
L 3122 134 
Q 2881 22 2623 -34 
Q 2366 -91 2075 -91 
Q 1284 -91 818 406 
Q 353 903 353 1747 
Q 353 2603 823 3093 
Q 1294 3584 2113 3584 
Q 2378 3584 2631 3529 
Q 2884 3475 3122 3366 
z
" transform="scale(0.015625)"/>
      <path id="DejaVuSans-67" d="M 2906 1791 
Q 2906 2416 2648 2759 
Q 2391 3103 1925 3103 
Q 1463 3103 1205 2759 
Q 947 2416 947 1791 
Q 947 1169 1205 825 
Q 1463 481 1925 481 
Q 2391 481 2648 825 
Q 2906 1169 2906 1791 
z
M 3481 434 
Q 3481 -459 3084 -895 
Q 2688 -1331 1869 -1331 
Q 1566 -1331 1297 -1286 
Q 1028 -1241 775 -1147 
L 775 -588 
Q 1028 -725 1275 -790 
Q 1522 -856 1778 -856 
Q 2344 -856 2625 -561 
Q 2906 -266 2906 331 
L 2906 616 
Q 2728 306 2450 153 
Q 2172 0 1784 0 
Q 1141 0 747 490 
Q 353 981 353 1791 
Q 353 2603 747 3093 
Q 1141 3584 1784 3584 
Q 2172 3584 2450 3431 
Q 2728 3278 2906 2969 
L 2906 3500 
L 3481 3500 
L 3481 434 
z
" transform="scale(0.015625)"/>
     </defs>
     <use xlink:href="#DejaVuSans-44"/>
     <use xlink:href="#DejaVuSans-69" x="77.001953"/>
     <use xlink:href="#DejaVuSans-66" x="104.785156"/>
     <use xlink:href="#DejaVuSans-66" x="139.990234"/>
     <use xlink:href="#DejaVuSans-65" x="175.195312"/>
     <use xlink:href="#DejaVuSans-72" x="236.71875"/>
     <use xlink:href="#DejaVuSans-65" x="275.582031"/>
     <use xlink:href="#DejaVuSans-6e" x="337.105469"/>
     <use xlink:href="#DejaVuSans-63" x="400.484375"/>
     <use xlink:href="#DejaVuSans-65" x="455.464844"/>
     <use xlink:href="#DejaVuSans-20" x="516.988281"/>
     <use xlink:href="#DejaVuSans-67" x="548.775391"/>
     <use xlink:href="#DejaVuSans-72" x="612.251953"/>
     <use xlink:href="#DejaVuSans-61" x="653.365234"/>
     <use xlink:href="#DejaVuSans-64" x="714.644531"/>
     <use xlink:href="#DejaVuSans-69" x="778.121094"/>
     <use xlink:href="#DejaVuSans-65" x="805.904297"/>
     <use xlink:href="#DejaVuSans-6e" x="867.427734"/>
     <use xlink:href="#DejaVuSans-74" x="930.806641"/>
    </g>
   </g>
   <g id="PathCollection_1">
    <defs>
     <path id="m959ceb3da4" d="M 0 3 
C 0.795609 3 1.55874 2.683901 2.12132 2.12132 
C 2.683901 1.55874 3 0.795609 3 0 
C 3 -0.795609 2.683901 -1.55874 2.12132 -2.12132 
C 1.55874 -2.683901 0.795609 -3 0 -3 
C -0.795609 -3 -1.55874 -2.683901 -2.12132 -2.12132 
C -2.683901 -1.55874 -3 -0.795609 -3 0 
C -3 0.795609 -2.683901 1.55874 -2.12132 2.12132 
C -1.55874 2.683901 -0.795609 3 0 3 
z
" style="stroke: #8cb78d"/>
    </defs>
    <g clip-path="url(#pf1279bc56e)">
     <use xlink:href="#m959ceb3da4" x="413.863974" y="264.82464" style="fill: #8cb78d; stroke: #8cb78d"/>
    </g>
   </g>
  </g>
  <g id="text_28">
   <!-- Pearson r -->
   <g transform="translate(201.453069 333.663365) scale(0.168 -0.168)">
    <defs>
     <path id="DejaVuSans-6f" d="M 1959 3097 
Q 1497 3097 1228 2736 
Q 959 2375 959 1747 
Q 959 1119 1226 758 
Q 1494 397 1959 397 
Q 2419 397 2687 759 
Q 2956 1122 2956 1747 
Q 2956 2369 2687 2733 
Q 2419 3097 1959 3097 
z
M 1959 3584 
Q 2709 3584 3137 3096 
Q 3566 2609 3566 1747 
Q 3566 888 3137 398 
Q 2709 -91 1959 -91 
Q 1206 -91 779 398 
Q 353 888 353 1747 
Q 353 2609 779 3096 
Q 1206 3584 1959 3584 
z
" transform="scale(0.015625)"/>
    </defs>
    <use xlink:href="#DejaVuSans-50"/>
    <use xlink:href="#DejaVuSans-65" x="56.677734"/>
    <use xlink:href="#DejaVuSans-61" x="118.201172"/>
    <use xlink:href="#DejaVuSans-72" x="179.480469"/>
    <use xlink:href="#DejaVuSans-73" x="220.59375"/>
    <use xlink:href="#DejaVuSans-6f" x="272.693359"/>
    <use xlink:href="#DejaVuSans-6e" x="333.875"/>
    <use xlink:href="#DejaVuSans-20" x="397.253906"/>
    <use xlink:href="#DejaVuSans-72" x="429.041016"/>
   </g>
  </g>
 </g>
 <defs>
  <clipPath id="pd0258d8652">
   <rect x="46.633365" y="23.638053" width="187.003219" height="272.645708"/>
  </clipPath>
  <clipPath id="pf1279bc56e">
   <rect x="291.886305" y="23.638053" width="187.003219" height="272.645708"/>
  </clipPath>
 </defs>
</svg>
