<?xml version="1.0" encoding="utf-8" standalone="no"?>
<!DOCTYPE svg PUBLIC "-//W3C//DTD SVG 1.1//EN"
  "http://www.w3.org/Graphics/SVG/1.1/DTD/svg11.dtd">
<svg xmlns:xlink="http://www.w3.org/1999/xlink" width="481.68pt" height="339.84pt" viewBox="0 0 481.68 339.84" xmlns="http://www.w3.org/2000/svg" version="1.1">
 <metadata>
  <rdf:RDF xmlns:dc="http://purl.org/dc/elements/1.1/" xmlns:cc="http://creativecommons.org/ns#" xmlns:rdf="http://www.w3.org/1999/02/22-rdf-syntax-ns#">
   <cc:Work>
    <dc:type rdf:resource="http://purl.org/dc/dcmitype/StillImage"/>
    <dc:date>2022-11-23T13:04:29.090049</dc:date>
    <dc:format>image/svg+xml</dc:format>
    <dc:creator>
     <cc:Agent>
      <dc:title>Matplotlib v3.6.2, https://matplotlib.org/</dc:title>
     </cc:Agent>
    </dc:creator>
   </cc:Work>
  </rdf:RDF>
 </metadata>
 <defs>
  <style type="text/css">*{stroke-linejoin: round; stroke-linecap: butt}</style>
 </defs>
 <g id="figure_1">
  <g id="patch_1">
   <path d="M 0 339.84 
L 481.68 339.84 
L 481.68 0 
L 0 0 
z
" style="fill: #ffffff"/>
  </g>
  <g id="axes_1">
   <g id="patch_2">
    <path d="M 46.633365 295.96628 
L 467.403405 295.96628 
L 467.403405 23.638053 
L 46.633365 23.638053 
z
" style="fill: #ffffff"/>
   </g>
   <g id="patch_3">
    <path d="M 48.716385 295.96628 
L 57.048465 295.96628 
L 57.048465 295.96628 
L 48.716385 295.96628 
z
" clip-path="url(#p0f94edc361)" style="fill: #ffffff; stroke: #a9a9a9; stroke-linejoin: miter"/>
   </g>
   <g id="patch_4">
    <path d="M 57.048465 295.96628 
L 65.380545 295.96628 
L 65.380545 295.96628 
L 57.048465 295.96628 
z
" clip-path="url(#p0f94edc361)" style="fill: #ffffff; stroke: #a9a9a9; stroke-linejoin: miter"/>
   </g>
   <g id="patch_5">
    <path d="M 65.380545 295.96628 
L 73.712625 295.96628 
L 73.712625 295.96628 
L 65.380545 295.96628 
z
" clip-path="url(#p0f94edc361)" style="fill: #ffffff; stroke: #a9a9a9; stroke-linejoin: miter"/>
   </g>
   <g id="patch_6">
    <path d="M 73.712625 295.96628 
L 82.044705 295.96628 
L 82.044705 295.96628 
L 73.712625 295.96628 
z
" clip-path="url(#p0f94edc361)" style="fill: #ffffff; stroke: #a9a9a9; stroke-linejoin: miter"/>
   </g>
   <g id="patch_7">
    <path d="M 82.044705 295.96628 
L 90.376785 295.96628 
L 90.376785 295.96628 
L 82.044705 295.96628 
z
" clip-path="url(#p0f94edc361)" style="fill: #ffffff; stroke: #a9a9a9; stroke-linejoin: miter"/>
   </g>
   <g id="patch_8">
    <path d="M 90.376785 295.96628 
L 98.708865 295.96628 
L 98.708865 295.96628 
L 90.376785 295.96628 
z
" clip-path="url(#p0f94edc361)" style="fill: #ffffff; stroke: #a9a9a9; stroke-linejoin: miter"/>
   </g>
   <g id="patch_9">
    <path d="M 98.708865 295.96628 
L 107.040945 295.96628 
L 107.040945 295.96628 
L 98.708865 295.96628 
z
" clip-path="url(#p0f94edc361)" style="fill: #ffffff; stroke: #a9a9a9; stroke-linejoin: miter"/>
   </g>
   <g id="patch_10">
    <path d="M 107.040945 295.96628 
L 115.373025 295.96628 
L 115.373025 295.96628 
L 107.040945 295.96628 
z
" clip-path="url(#p0f94edc361)" style="fill: #ffffff; stroke: #a9a9a9; stroke-linejoin: miter"/>
   </g>
   <g id="patch_11">
    <path d="M 115.373025 295.96628 
L 123.705105 295.96628 
L 123.705105 295.96628 
L 115.373025 295.96628 
z
" clip-path="url(#p0f94edc361)" style="fill: #ffffff; stroke: #a9a9a9; stroke-linejoin: miter"/>
   </g>
   <g id="patch_12">
    <path d="M 123.705105 295.96628 
L 132.037185 295.96628 
L 132.037185 295.96628 
L 123.705105 295.96628 
z
" clip-path="url(#p0f94edc361)" style="fill: #ffffff; stroke: #a9a9a9; stroke-linejoin: miter"/>
   </g>
   <g id="patch_13">
    <path d="M 132.037185 295.96628 
L 140.369265 295.96628 
L 140.369265 295.96628 
L 132.037185 295.96628 
z
" clip-path="url(#p0f94edc361)" style="fill: #ffffff; stroke: #a9a9a9; stroke-linejoin: miter"/>
   </g>
   <g id="patch_14">
    <path d="M 140.369265 295.96628 
L 148.701345 295.96628 
L 148.701345 295.96628 
L 140.369265 295.96628 
z
" clip-path="url(#p0f94edc361)" style="fill: #ffffff; stroke: #a9a9a9; stroke-linejoin: miter"/>
   </g>
   <g id="patch_15">
    <path d="M 148.701345 295.96628 
L 157.033425 295.96628 
L 157.033425 295.96628 
L 148.701345 295.96628 
z
" clip-path="url(#p0f94edc361)" style="fill: #ffffff; stroke: #a9a9a9; stroke-linejoin: miter"/>
   </g>
   <g id="patch_16">
    <path d="M 157.033425 295.96628 
L 165.365505 295.96628 
L 165.365505 295.96628 
L 157.033425 295.96628 
z
" clip-path="url(#p0f94edc361)" style="fill: #ffffff; stroke: #a9a9a9; stroke-linejoin: miter"/>
   </g>
   <g id="patch_17">
    <path d="M 165.365505 295.96628 
L 173.697585 295.96628 
L 173.697585 295.96628 
L 165.365505 295.96628 
z
" clip-path="url(#p0f94edc361)" style="fill: #ffffff; stroke: #a9a9a9; stroke-linejoin: miter"/>
   </g>
   <g id="patch_18">
    <path d="M 173.697585 295.96628 
L 182.029665 295.96628 
L 182.029665 295.96628 
L 173.697585 295.96628 
z
" clip-path="url(#p0f94edc361)" style="fill: #ffffff; stroke: #a9a9a9; stroke-linejoin: miter"/>
   </g>
   <g id="patch_19">
    <path d="M 182.029665 295.96628 
L 190.361745 295.96628 
L 190.361745 295.8136 
L 182.029665 295.8136 
z
" clip-path="url(#p0f94edc361)" style="fill: #ffffff; stroke: #a9a9a9; stroke-linejoin: miter"/>
   </g>
   <g id="patch_20">
    <path d="M 190.361745 295.96628 
L 198.693825 295.96628 
L 198.693825 295.508239 
L 190.361745 295.508239 
z
" clip-path="url(#p0f94edc361)" style="fill: #ffffff; stroke: #a9a9a9; stroke-linejoin: miter"/>
   </g>
   <g id="patch_21">
    <path d="M 198.693825 295.96628 
L 207.025905 295.96628 
L 207.025905 295.355559 
L 198.693825 295.355559 
z
" clip-path="url(#p0f94edc361)" style="fill: #ffffff; stroke: #a9a9a9; stroke-linejoin: miter"/>
   </g>
   <g id="patch_22">
    <path d="M 207.025905 295.96628 
L 215.357985 295.96628 
L 215.357985 295.355559 
L 207.025905 295.355559 
z
" clip-path="url(#p0f94edc361)" style="fill: #ffffff; stroke: #a9a9a9; stroke-linejoin: miter"/>
   </g>
   <g id="patch_23">
    <path d="M 215.357985 295.96628 
L 223.690065 295.96628 
L 223.690065 293.828756 
L 215.357985 293.828756 
z
" clip-path="url(#p0f94edc361)" style="fill: #ffffff; stroke: #a9a9a9; stroke-linejoin: miter"/>
   </g>
   <g id="patch_24">
    <path d="M 223.690065 295.96628 
L 232.022145 295.96628 
L 232.022145 292.607313 
L 223.690065 292.607313 
z
" clip-path="url(#p0f94edc361)" style="fill: #ffffff; stroke: #a9a9a9; stroke-linejoin: miter"/>
   </g>
   <g id="patch_25">
    <path d="M 232.022145 295.96628 
L 240.354225 295.96628 
L 240.354225 285.278659 
L 232.022145 285.278659 
z
" clip-path="url(#p0f94edc361)" style="fill: #ffffff; stroke: #a9a9a9; stroke-linejoin: miter"/>
   </g>
   <g id="patch_26">
    <path d="M 240.354225 295.96628 
L 248.686305 295.96628 
L 248.686305 258.101564 
L 240.354225 258.101564 
z
" clip-path="url(#p0f94edc361)" style="fill: #ffffff; stroke: #a9a9a9; stroke-linejoin: miter"/>
   </g>
   <g id="patch_27">
    <path d="M 248.686305 295.96628 
L 257.018385 295.96628 
L 257.018385 194.281196 
L 248.686305 194.281196 
z
" clip-path="url(#p0f94edc361)" style="fill: #ffffff; stroke: #a9a9a9; stroke-linejoin: miter"/>
   </g>
   <g id="patch_28">
    <path d="M 257.018385 295.96628 
L 265.350465 295.96628 
L 265.350465 97.023841 
L 257.018385 97.023841 
z
" clip-path="url(#p0f94edc361)" style="fill: #ffffff; stroke: #a9a9a9; stroke-linejoin: miter"/>
   </g>
   <g id="patch_29">
    <path d="M 265.350465 295.96628 
L 273.682545 295.96628 
L 273.682545 59.159126 
L 265.350465 59.159126 
z
" clip-path="url(#p0f94edc361)" style="fill: #ffffff; stroke: #a9a9a9; stroke-linejoin: miter"/>
   </g>
   <g id="patch_30">
    <path d="M 273.682545 295.96628 
L 282.014625 295.96628 
L 282.014625 70.915509 
L 273.682545 70.915509 
z
" clip-path="url(#p0f94edc361)" style="fill: #ffffff; stroke: #a9a9a9; stroke-linejoin: miter"/>
   </g>
   <g id="patch_31">
    <path d="M 282.014625 295.96628 
L 290.346705 295.96628 
L 290.346705 114.429396 
L 282.014625 114.429396 
z
" clip-path="url(#p0f94edc361)" style="fill: #ffffff; stroke: #a9a9a9; stroke-linejoin: miter"/>
   </g>
   <g id="patch_32">
    <path d="M 290.346705 295.96628 
L 298.678785 295.96628 
L 298.678785 156.874521 
L 290.346705 156.874521 
z
" clip-path="url(#p0f94edc361)" style="fill: #ffffff; stroke: #a9a9a9; stroke-linejoin: miter"/>
   </g>
   <g id="patch_33">
    <path d="M 298.678785 295.96628 
L 307.010865 295.96628 
L 307.010865 184.356976 
L 298.678785 184.356976 
z
" clip-path="url(#p0f94edc361)" style="fill: #ffffff; stroke: #a9a9a9; stroke-linejoin: miter"/>
   </g>
   <g id="patch_34">
    <path d="M 307.010865 295.96628 
L 315.342945 295.96628 
L 315.342945 210.312628 
L 307.010865 210.312628 
z
" clip-path="url(#p0f94edc361)" style="fill: #ffffff; stroke: #a9a9a9; stroke-linejoin: miter"/>
   </g>
   <g id="patch_35">
    <path d="M 315.342945 295.96628 
L 323.675025 295.96628 
L 323.675025 224.359217 
L 315.342945 224.359217 
z
" clip-path="url(#p0f94edc361)" style="fill: #ffffff; stroke: #a9a9a9; stroke-linejoin: miter"/>
   </g>
   <g id="patch_36">
    <path d="M 323.675025 295.96628 
L 332.007105 295.96628 
L 332.007105 236.573641 
L 323.675025 236.573641 
z
" clip-path="url(#p0f94edc361)" style="fill: #ffffff; stroke: #a9a9a9; stroke-linejoin: miter"/>
   </g>
   <g id="patch_37">
    <path d="M 332.007105 295.96628 
L 340.339185 295.96628 
L 340.339185 249.246106 
L 332.007105 249.246106 
z
" clip-path="url(#p0f94edc361)" style="fill: #ffffff; stroke: #a9a9a9; stroke-linejoin: miter"/>
   </g>
   <g id="patch_38">
    <path d="M 340.339185 295.96628 
L 348.671265 295.96628 
L 348.671265 256.11672 
L 340.339185 256.11672 
z
" clip-path="url(#p0f94edc361)" style="fill: #ffffff; stroke: #a9a9a9; stroke-linejoin: miter"/>
   </g>
   <g id="patch_39">
    <path d="M 348.671265 295.96628 
L 357.003345 295.96628 
L 357.003345 262.071252 
L 348.671265 262.071252 
z
" clip-path="url(#p0f94edc361)" style="fill: #ffffff; stroke: #a9a9a9; stroke-linejoin: miter"/>
   </g>
   <g id="patch_40">
    <path d="M 357.003345 295.96628 
L 365.335425 295.96628 
L 365.335425 264.056096 
L 357.003345 264.056096 
z
" clip-path="url(#p0f94edc361)" style="fill: #ffffff; stroke: #a9a9a9; stroke-linejoin: miter"/>
   </g>
   <g id="patch_41">
    <path d="M 365.335425 295.96628 
L 373.667505 295.96628 
L 373.667505 266.651661 
L 365.335425 266.651661 
z
" clip-path="url(#p0f94edc361)" style="fill: #ffffff; stroke: #a9a9a9; stroke-linejoin: miter"/>
   </g>
   <g id="patch_42">
    <path d="M 373.667505 295.96628 
L 381.999585 295.96628 
L 381.999585 272.606193 
L 373.667505 272.606193 
z
" clip-path="url(#p0f94edc361)" style="fill: #ffffff; stroke: #a9a9a9; stroke-linejoin: miter"/>
   </g>
   <g id="patch_43">
    <path d="M 381.999585 295.96628 
L 390.331665 295.96628 
L 390.331665 270.315989 
L 381.999585 270.315989 
z
" clip-path="url(#p0f94edc361)" style="fill: #ffffff; stroke: #a9a9a9; stroke-linejoin: miter"/>
   </g>
   <g id="patch_44">
    <path d="M 390.331665 295.96628 
L 398.663745 295.96628 
L 398.663745 270.163308 
L 390.331665 270.163308 
z
" clip-path="url(#p0f94edc361)" style="fill: #ffffff; stroke: #a9a9a9; stroke-linejoin: miter"/>
   </g>
   <g id="patch_45">
    <path d="M 398.663745 295.96628 
L 406.995825 295.96628 
L 406.995825 276.881242 
L 398.663745 276.881242 
z
" clip-path="url(#p0f94edc361)" style="fill: #ffffff; stroke: #a9a9a9; stroke-linejoin: miter"/>
   </g>
   <g id="patch_46">
    <path d="M 406.995825 295.96628 
L 415.327905 295.96628 
L 415.327905 276.575881 
L 406.995825 276.575881 
z
" clip-path="url(#p0f94edc361)" style="fill: #ffffff; stroke: #a9a9a9; stroke-linejoin: miter"/>
   </g>
   <g id="patch_47">
    <path d="M 415.327905 295.96628 
L 423.659985 295.96628 
L 423.659985 276.728561 
L 415.327905 276.728561 
z
" clip-path="url(#p0f94edc361)" style="fill: #ffffff; stroke: #a9a9a9; stroke-linejoin: miter"/>
   </g>
   <g id="patch_48">
    <path d="M 423.659985 295.96628 
L 431.992065 295.96628 
L 431.992065 278.408045 
L 423.659985 278.408045 
z
" clip-path="url(#p0f94edc361)" style="fill: #ffffff; stroke: #a9a9a9; stroke-linejoin: miter"/>
   </g>
   <g id="patch_49">
    <path d="M 431.992065 295.96628 
L 440.324145 295.96628 
L 440.324145 278.255365 
L 431.992065 278.255365 
z
" clip-path="url(#p0f94edc361)" style="fill: #ffffff; stroke: #a9a9a9; stroke-linejoin: miter"/>
   </g>
   <g id="patch_50">
    <path d="M 440.324145 295.96628 
L 448.656225 295.96628 
L 448.656225 284.667937 
L 440.324145 284.667937 
z
" clip-path="url(#p0f94edc361)" style="fill: #ffffff; stroke: #a9a9a9; stroke-linejoin: miter"/>
   </g>
   <g id="patch_51">
    <path d="M 448.656225 295.96628 
L 456.988305 295.96628 
L 456.988305 290.622469 
L 448.656225 290.622469 
z
" clip-path="url(#p0f94edc361)" style="fill: #ffffff; stroke: #a9a9a9; stroke-linejoin: miter"/>
   </g>
   <g id="patch_52">
    <path d="M 456.988305 295.96628 
L 465.320385 295.96628 
L 465.320385 295.355559 
L 456.988305 295.355559 
z
" clip-path="url(#p0f94edc361)" style="fill: #ffffff; stroke: #a9a9a9; stroke-linejoin: miter"/>
   </g>
   <g id="PolyCollection_1">
    <defs>
     <path id="m43c617d54e" d="M 332.574822 -97.206139 
L 332.574822 -43.87372 
L 333.409699 -43.87372 
L 334.244577 -43.87372 
L 335.079455 -43.87372 
L 335.914333 -43.87372 
L 336.74921 -43.87372 
L 337.584088 -43.87372 
L 338.418966 -43.87372 
L 339.253844 -43.87372 
L 340.088721 -43.87372 
L 340.923599 -43.87372 
L 341.758477 -43.87372 
L 342.593355 -43.87372 
L 343.428232 -43.87372 
L 344.26311 -43.87372 
L 345.097988 -43.87372 
L 345.932866 -43.87372 
L 346.767743 -43.87372 
L 347.602621 -43.87372 
L 348.437499 -43.87372 
L 349.272377 -43.87372 
L 350.107254 -43.87372 
L 350.942132 -43.87372 
L 351.77701 -43.87372 
L 352.611888 -43.87372 
L 353.446765 -43.87372 
L 354.281643 -43.87372 
L 355.116521 -43.87372 
L 355.951399 -43.87372 
L 356.786276 -43.87372 
L 357.621154 -43.87372 
L 358.456032 -43.87372 
L 359.29091 -43.87372 
L 360.125788 -43.87372 
L 360.960665 -43.87372 
L 361.795543 -43.87372 
L 362.630421 -43.87372 
L 363.465299 -43.87372 
L 364.300176 -43.87372 
L 365.135054 -43.87372 
L 365.969932 -43.87372 
L 366.80481 -43.87372 
L 367.639687 -43.87372 
L 368.474565 -43.87372 
L 369.309443 -43.87372 
L 370.144321 -43.87372 
L 370.979198 -43.87372 
L 371.814076 -43.87372 
L 372.648954 -43.87372 
L 373.483832 -43.87372 
L 374.318709 -43.87372 
L 375.153587 -43.87372 
L 375.988465 -43.87372 
L 376.823343 -43.87372 
L 377.65822 -43.87372 
L 378.493098 -43.87372 
L 379.327976 -43.87372 
L 380.162854 -43.87372 
L 380.997731 -43.87372 
L 381.832609 -43.87372 
L 382.667487 -43.87372 
L 383.502365 -43.87372 
L 384.337242 -43.87372 
L 385.17212 -43.87372 
L 386.006998 -43.87372 
L 386.841876 -43.87372 
L 387.676753 -43.87372 
L 388.511631 -43.87372 
L 389.346509 -43.87372 
L 390.181387 -43.87372 
L 391.016264 -43.87372 
L 391.851142 -43.87372 
L 392.68602 -43.87372 
L 393.520898 -43.87372 
L 394.355775 -43.87372 
L 395.190653 -43.87372 
L 396.025531 -43.87372 
L 396.860409 -43.87372 
L 397.695286 -43.87372 
L 398.530164 -43.87372 
L 399.365042 -43.87372 
L 400.19992 -43.87372 
L 401.034797 -43.87372 
L 401.869675 -43.87372 
L 402.704553 -43.87372 
L 403.539431 -43.87372 
L 404.374309 -43.87372 
L 405.209186 -43.87372 
L 406.044064 -43.87372 
L 406.878942 -43.87372 
L 407.71382 -43.87372 
L 408.548697 -43.87372 
L 409.383575 -43.87372 
L 410.218453 -43.87372 
L 411.053331 -43.87372 
L 411.888208 -43.87372 
L 412.723086 -43.87372 
L 413.557964 -43.87372 
L 414.392842 -43.87372 
L 415.227719 -43.87372 
L 416.062597 -43.87372 
L 416.897475 -43.87372 
L 417.732353 -43.87372 
L 418.56723 -43.87372 
L 419.402108 -43.87372 
L 420.236986 -43.87372 
L 421.071864 -43.87372 
L 421.906741 -43.87372 
L 422.741619 -43.87372 
L 423.576497 -43.87372 
L 424.411375 -43.87372 
L 425.246252 -43.87372 
L 426.08113 -43.87372 
L 426.916008 -43.87372 
L 427.750886 -43.87372 
L 428.585763 -43.87372 
L 429.420641 -43.87372 
L 430.255519 -43.87372 
L 431.090397 -43.87372 
L 431.925274 -43.87372 
L 432.760152 -43.87372 
L 433.59503 -43.87372 
L 434.429908 -43.87372 
L 435.264785 -43.87372 
L 436.099663 -43.87372 
L 436.934541 -43.87372 
L 437.769419 -43.87372 
L 438.604296 -43.87372 
L 439.439174 -43.87372 
L 440.274052 -43.87372 
L 441.10893 -43.87372 
L 441.943807 -43.87372 
L 442.778685 -43.87372 
L 443.613563 -43.87372 
L 444.448441 -43.87372 
L 445.283318 -43.87372 
L 446.118196 -43.87372 
L 446.953074 -43.87372 
L 447.787952 -43.87372 
L 448.62283 -43.87372 
L 449.457707 -43.87372 
L 450.292585 -43.87372 
L 451.127463 -43.87372 
L 451.962341 -43.87372 
L 452.797218 -43.87372 
L 453.632096 -43.87372 
L 454.466974 -43.87372 
L 455.301852 -43.87372 
L 456.136729 -43.87372 
L 456.971607 -43.87372 
L 457.806485 -43.87372 
L 458.641363 -43.87372 
L 459.47624 -43.87372 
L 460.311118 -43.87372 
L 461.145996 -43.87372 
L 461.980874 -43.87372 
L 462.815751 -43.87372 
L 463.650629 -43.87372 
L 464.485507 -43.87372 
L 465.320385 -43.87372 
L 465.320385 -44.116222 
L 465.320385 -44.116222 
L 464.485507 -44.222405 
L 463.650629 -44.361045 
L 462.815751 -44.536554 
L 461.980874 -44.752281 
L 461.145996 -45.010153 
L 460.311118 -45.310471 
L 459.47624 -45.651906 
L 458.641363 -46.03168 
L 457.806485 -46.445905 
L 456.971607 -46.889996 
L 456.136729 -47.359111 
L 455.301852 -47.848524 
L 454.466974 -48.353909 
L 453.632096 -48.871516 
L 452.797218 -49.398265 
L 451.962341 -49.931803 
L 451.127463 -50.470592 
L 450.292585 -51.014063 
L 449.457707 -51.562824 
L 448.62283 -52.118839 
L 447.787952 -52.685414 
L 446.953074 -53.266848 
L 446.118196 -53.867618 
L 445.283318 -54.491156 
L 444.448441 -55.138436 
L 443.613563 -55.806722 
L 442.778685 -56.488874 
L 441.943807 -57.173505 
L 441.10893 -57.846064 
L 440.274052 -58.490615 
L 439.439174 -59.091932 
L 438.604296 -59.637372 
L 437.769419 -60.118125 
L 436.934541 -60.529612 
L 436.099663 -60.871105 
L 435.264785 -61.144823 
L 434.429908 -61.354941 
L 433.59503 -61.506833 
L 432.760152 -61.606789 
L 431.925274 -61.662163 
L 431.090397 -61.681759 
L 430.255519 -61.676127 
L 429.420641 -61.657458 
L 428.585763 -61.638926 
L 427.750886 -61.633463 
L 426.916008 -61.652187 
L 426.08113 -61.702792 
L 425.246252 -61.788244 
L 424.411375 -61.906109 
L 423.576497 -62.048697 
L 422.741619 -62.204105 
L 421.906741 -62.358075 
L 421.071864 -62.496439 
L 420.236986 -62.607788 
L 419.402108 -62.685879 
L 418.56723 -62.731236 
L 417.732353 -62.751506 
L 416.897475 -62.760274 
L 416.062597 -62.774389 
L 415.227719 -62.810233 
L 414.392842 -62.879672 
L 413.557964 -62.986653 
L 412.723086 -63.125359 
L 411.888208 -63.28058 
L 411.053331 -63.430421 
L 410.218453 -63.550935 
L 409.383575 -63.621676 
L 408.548697 -63.630896 
L 407.71382 -63.579116 
L 406.878942 -63.480149 
L 406.044064 -63.359306 
L 405.209186 -63.24922 
L 404.374309 -63.184301 
L 403.539431 -63.195137 
L 402.704553 -63.304057 
L 401.869675 -63.52265 
L 401.034797 -63.851433 
L 400.19992 -64.281269 
L 399.365042 -64.795768 
L 398.530164 -65.373832 
L 397.695286 -65.991747 
L 396.860409 -66.624608 
L 396.025531 -67.247335 
L 395.190653 -67.835712 
L 394.355775 -68.367905 
L 393.520898 -68.826556 
L 392.68602 -69.201144 
L 391.851142 -69.489884 
L 391.016264 -69.70035 
L 390.181387 -69.848163 
L 389.346509 -69.953692 
L 388.511631 -70.037317 
L 387.676753 -70.114404 
L 386.841876 -70.191378 
L 386.006998 -70.264086 
L 385.17212 -70.319059 
L 384.337242 -70.337494 
L 383.502365 -70.301029 
L 382.667487 -70.19783 
L 381.832609 -70.027458 
L 380.997731 -69.803221 
L 380.162854 -69.551395 
L 379.327976 -69.307431 
L 378.493098 -69.11001 
L 377.65822 -68.994307 
L 376.823343 -68.985985 
L 375.988465 -69.097219 
L 375.153587 -69.325561 
L 374.318709 -69.655687 
L 373.483832 -70.063408 
L 372.648954 -70.520795 
L 371.814076 -71.001084 
L 370.979198 -71.482267 
L 370.144321 -71.948754 
L 369.309443 -72.391155 
L 368.474565 -72.804777 
L 367.639687 -73.187712 
L 366.80481 -73.539354 
L 365.969932 -73.859837 
L 365.135054 -74.15041 
L 364.300176 -74.414321 
L 363.465299 -74.65757 
L 362.630421 -74.888942 
L 361.795543 -75.119053 
L 360.960665 -75.358548 
L 360.125788 -75.615969 
L 359.29091 -75.896003 
L 358.456032 -76.198693 
L 357.621154 -76.519921 
L 356.786276 -76.853021 
L 355.951399 -77.191027 
L 355.116521 -77.528851 
L 354.281643 -77.864791 
L 353.446765 -78.200987 
L 352.611888 -78.542838 
L 351.77701 -78.897716 
L 350.942132 -79.273449 
L 350.107254 -79.677027 
L 349.272377 -80.113791 
L 348.437499 -80.587114 
L 347.602621 -81.098445 
L 346.767743 -81.647511 
L 345.932866 -82.232627 
L 345.097988 -82.851134 
L 344.26311 -83.500105 
L 343.428232 -84.177378 
L 342.593355 -84.882764 
L 341.758477 -85.619124 
L 340.923599 -86.392819 
L 340.088721 -87.213186 
L 339.253844 -88.090908 
L 338.418966 -89.035555 
L 337.584088 -90.052866 
L 336.74921 -91.142509 
L 335.914333 -92.296933 
L 335.079455 -93.501611 
L 334.244577 -94.736611 
L 333.409699 -95.979078 
L 332.574822 -97.206139 
z
" style="stroke: #8cb78d; stroke-opacity: 0.5"/>
    </defs>
    <g clip-path="url(#p0f94edc361)">
     <use xlink:href="#m43c617d54e" x="0" y="339.84" style="fill: #8cb78d; fill-opacity: 0.5; stroke: #8cb78d; stroke-opacity: 0.5"/>
    </g>
   </g>
   <g id="matplotlib.axis_1">
    <g id="xtick_1">
     <g id="line2d_1">
      <defs>
       <path id="m394dda7b11" d="M 0 0 
L 0 3.5 
" style="stroke: #000000; stroke-width: 0.8"/>
      </defs>
      <g>
       <use xlink:href="#m394dda7b11" x="48.716385" y="295.96628" style="stroke: #000000; stroke-width: 0.8"/>
      </g>
     </g>
     <g id="text_1">
      <!-- −1.00 -->
      <g transform="translate(30.329197 312.084405) scale(0.12 -0.12)">
       <defs>
        <path id="DejaVuSans-2212" d="M 678 2272 
L 4684 2272 
L 4684 1741 
L 678 1741 
L 678 2272 
z
" transform="scale(0.015625)"/>
        <path id="DejaVuSans-31" d="M 794 531 
L 1825 531 
L 1825 4091 
L 703 3866 
L 703 4441 
L 1819 4666 
L 2450 4666 
L 2450 531 
L 3481 531 
L 3481 0 
L 794 0 
L 794 531 
z
" transform="scale(0.015625)"/>
        <path id="DejaVuSans-2e" d="M 684 794 
L 1344 794 
L 1344 0 
L 684 0 
L 684 794 
z
" transform="scale(0.015625)"/>
        <path id="DejaVuSans-30" d="M 2034 4250 
Q 1547 4250 1301 3770 
Q 1056 3291 1056 2328 
Q 1056 1369 1301 889 
Q 1547 409 2034 409 
Q 2525 409 2770 889 
Q 3016 1369 3016 2328 
Q 3016 3291 2770 3770 
Q 2525 4250 2034 4250 
z
M 2034 4750 
Q 2819 4750 3233 4129 
Q 3647 3509 3647 2328 
Q 3647 1150 3233 529 
Q 2819 -91 2034 -91 
Q 1250 -91 836 529 
Q 422 1150 422 2328 
Q 422 3509 836 4129 
Q 1250 4750 2034 4750 
z
" transform="scale(0.015625)"/>
       </defs>
       <use xlink:href="#DejaVuSans-2212"/>
       <use xlink:href="#DejaVuSans-31" x="83.789062"/>
       <use xlink:href="#DejaVuSans-2e" x="147.412109"/>
       <use xlink:href="#DejaVuSans-30" x="179.199219"/>
       <use xlink:href="#DejaVuSans-30" x="242.822266"/>
      </g>
     </g>
    </g>
    <g id="xtick_2">
     <g id="line2d_2">
      <g>
       <use xlink:href="#m394dda7b11" x="100.791885" y="295.96628" style="stroke: #000000; stroke-width: 0.8"/>
      </g>
     </g>
     <g id="text_2">
      <!-- −0.75 -->
      <g transform="translate(82.404697 312.084405) scale(0.12 -0.12)">
       <defs>
        <path id="DejaVuSans-37" d="M 525 4666 
L 3525 4666 
L 3525 4397 
L 1831 0 
L 1172 0 
L 2766 4134 
L 525 4134 
L 525 4666 
z
" transform="scale(0.015625)"/>
        <path id="DejaVuSans-35" d="M 691 4666 
L 3169 4666 
L 3169 4134 
L 1269 4134 
L 1269 2991 
Q 1406 3038 1543 3061 
Q 1681 3084 1819 3084 
Q 2600 3084 3056 2656 
Q 3513 2228 3513 1497 
Q 3513 744 3044 326 
Q 2575 -91 1722 -91 
Q 1428 -91 1123 -41 
Q 819 9 494 109 
L 494 744 
Q 775 591 1075 516 
Q 1375 441 1709 441 
Q 2250 441 2565 725 
Q 2881 1009 2881 1497 
Q 2881 1984 2565 2268 
Q 2250 2553 1709 2553 
Q 1456 2553 1204 2497 
Q 953 2441 691 2322 
L 691 4666 
z
" transform="scale(0.015625)"/>
       </defs>
       <use xlink:href="#DejaVuSans-2212"/>
       <use xlink:href="#DejaVuSans-30" x="83.789062"/>
       <use xlink:href="#DejaVuSans-2e" x="147.412109"/>
       <use xlink:href="#DejaVuSans-37" x="179.199219"/>
       <use xlink:href="#DejaVuSans-35" x="242.822266"/>
      </g>
     </g>
    </g>
    <g id="xtick_3">
     <g id="line2d_3">
      <g>
       <use xlink:href="#m394dda7b11" x="152.867385" y="295.96628" style="stroke: #000000; stroke-width: 0.8"/>
      </g>
     </g>
     <g id="text_3">
      <!-- −0.50 -->
      <g transform="translate(134.480197 312.084405) scale(0.12 -0.12)">
       <use xlink:href="#DejaVuSans-2212"/>
       <use xlink:href="#DejaVuSans-30" x="83.789062"/>
       <use xlink:href="#DejaVuSans-2e" x="147.412109"/>
       <use xlink:href="#DejaVuSans-35" x="179.199219"/>
       <use xlink:href="#DejaVuSans-30" x="242.822266"/>
      </g>
     </g>
    </g>
    <g id="xtick_4">
     <g id="line2d_4">
      <g>
       <use xlink:href="#m394dda7b11" x="204.942885" y="295.96628" style="stroke: #000000; stroke-width: 0.8"/>
      </g>
     </g>
     <g id="text_4">
      <!-- −0.25 -->
      <g transform="translate(186.555697 312.084405) scale(0.12 -0.12)">
       <defs>
        <path id="DejaVuSans-32" d="M 1228 531 
L 3431 531 
L 3431 0 
L 469 0 
L 469 531 
Q 828 903 1448 1529 
Q 2069 2156 2228 2338 
Q 2531 2678 2651 2914 
Q 2772 3150 2772 3378 
Q 2772 3750 2511 3984 
Q 2250 4219 1831 4219 
Q 1534 4219 1204 4116 
Q 875 4013 500 3803 
L 500 4441 
Q 881 4594 1212 4672 
Q 1544 4750 1819 4750 
Q 2544 4750 2975 4387 
Q 3406 4025 3406 3419 
Q 3406 3131 3298 2873 
Q 3191 2616 2906 2266 
Q 2828 2175 2409 1742 
Q 1991 1309 1228 531 
z
" transform="scale(0.015625)"/>
       </defs>
       <use xlink:href="#DejaVuSans-2212"/>
       <use xlink:href="#DejaVuSans-30" x="83.789062"/>
       <use xlink:href="#DejaVuSans-2e" x="147.412109"/>
       <use xlink:href="#DejaVuSans-32" x="179.199219"/>
       <use xlink:href="#DejaVuSans-35" x="242.822266"/>
      </g>
     </g>
    </g>
    <g id="xtick_5">
     <g id="line2d_5">
      <g>
       <use xlink:href="#m394dda7b11" x="257.018385" y="295.96628" style="stroke: #000000; stroke-width: 0.8"/>
      </g>
     </g>
     <g id="text_5">
      <!-- 0.00 -->
      <g transform="translate(243.65901 312.084405) scale(0.12 -0.12)">
       <use xlink:href="#DejaVuSans-30"/>
       <use xlink:href="#DejaVuSans-2e" x="63.623047"/>
       <use xlink:href="#DejaVuSans-30" x="95.410156"/>
       <use xlink:href="#DejaVuSans-30" x="159.033203"/>
      </g>
     </g>
    </g>
    <g id="xtick_6">
     <g id="line2d_6">
      <g>
       <use xlink:href="#m394dda7b11" x="309.093885" y="295.96628" style="stroke: #000000; stroke-width: 0.8"/>
      </g>
     </g>
     <g id="text_6">
      <!-- 0.25 -->
      <g transform="translate(295.73451 312.084405) scale(0.12 -0.12)">
       <use xlink:href="#DejaVuSans-30"/>
       <use xlink:href="#DejaVuSans-2e" x="63.623047"/>
       <use xlink:href="#DejaVuSans-32" x="95.410156"/>
       <use xlink:href="#DejaVuSans-35" x="159.033203"/>
      </g>
     </g>
    </g>
    <g id="xtick_7">
     <g id="line2d_7">
      <g>
       <use xlink:href="#m394dda7b11" x="361.169385" y="295.96628" style="stroke: #000000; stroke-width: 0.8"/>
      </g>
     </g>
     <g id="text_7">
      <!-- 0.50 -->
      <g transform="translate(347.81001 312.084405) scale(0.12 -0.12)">
       <use xlink:href="#DejaVuSans-30"/>
       <use xlink:href="#DejaVuSans-2e" x="63.623047"/>
       <use xlink:href="#DejaVuSans-35" x="95.410156"/>
       <use xlink:href="#DejaVuSans-30" x="159.033203"/>
      </g>
     </g>
    </g>
    <g id="xtick_8">
     <g id="line2d_8">
      <g>
       <use xlink:href="#m394dda7b11" x="413.244885" y="295.96628" style="stroke: #000000; stroke-width: 0.8"/>
      </g>
     </g>
     <g id="text_8">
      <!-- 0.75 -->
      <g transform="translate(399.88551 312.084405) scale(0.12 -0.12)">
       <use xlink:href="#DejaVuSans-30"/>
       <use xlink:href="#DejaVuSans-2e" x="63.623047"/>
       <use xlink:href="#DejaVuSans-37" x="95.410156"/>
       <use xlink:href="#DejaVuSans-35" x="159.033203"/>
      </g>
     </g>
    </g>
    <g id="xtick_9">
     <g id="line2d_9">
      <g>
       <use xlink:href="#m394dda7b11" x="465.320385" y="295.96628" style="stroke: #000000; stroke-width: 0.8"/>
      </g>
     </g>
     <g id="text_9">
      <!-- 1.00 -->
      <g transform="translate(451.96101 312.084405) scale(0.12 -0.12)">
       <use xlink:href="#DejaVuSans-31"/>
       <use xlink:href="#DejaVuSans-2e" x="63.623047"/>
       <use xlink:href="#DejaVuSans-30" x="95.410156"/>
       <use xlink:href="#DejaVuSans-30" x="159.033203"/>
      </g>
     </g>
    </g>
   </g>
   <g id="matplotlib.axis_2">
    <g id="ytick_1">
     <g id="line2d_10">
      <defs>
       <path id="m9126226278" d="M 0 0 
L -3.5 0 
" style="stroke: #000000; stroke-width: 0.8"/>
      </defs>
      <g>
       <use xlink:href="#m9126226278" x="46.633365" y="295.96628" style="stroke: #000000; stroke-width: 0.8"/>
      </g>
     </g>
     <g id="text_10">
      <!-- 0.0 -->
      <g transform="translate(20.549615 300.525342) scale(0.12 -0.12)">
       <use xlink:href="#DejaVuSans-30"/>
       <use xlink:href="#DejaVuSans-2e" x="63.623047"/>
       <use xlink:href="#DejaVuSans-30" x="95.410156"/>
      </g>
     </g>
    </g>
    <g id="ytick_2">
     <g id="line2d_11">
      <g>
       <use xlink:href="#m9126226278" x="46.633365" y="259.286363" style="stroke: #000000; stroke-width: 0.8"/>
      </g>
     </g>
     <g id="text_11">
      <!-- 0.5 -->
      <g transform="translate(20.549615 263.845426) scale(0.12 -0.12)">
       <use xlink:href="#DejaVuSans-30"/>
       <use xlink:href="#DejaVuSans-2e" x="63.623047"/>
       <use xlink:href="#DejaVuSans-35" x="95.410156"/>
      </g>
     </g>
    </g>
    <g id="ytick_3">
     <g id="line2d_12">
      <g>
       <use xlink:href="#m9126226278" x="46.633365" y="222.606447" style="stroke: #000000; stroke-width: 0.8"/>
      </g>
     </g>
     <g id="text_12">
      <!-- 1.0 -->
      <g transform="translate(20.549615 227.165509) scale(0.12 -0.12)">
       <use xlink:href="#DejaVuSans-31"/>
       <use xlink:href="#DejaVuSans-2e" x="63.623047"/>
       <use xlink:href="#DejaVuSans-30" x="95.410156"/>
      </g>
     </g>
    </g>
    <g id="ytick_4">
     <g id="line2d_13">
      <g>
       <use xlink:href="#m9126226278" x="46.633365" y="185.92653" style="stroke: #000000; stroke-width: 0.8"/>
      </g>
     </g>
     <g id="text_13">
      <!-- 1.5 -->
      <g transform="translate(20.549615 190.485592) scale(0.12 -0.12)">
       <use xlink:href="#DejaVuSans-31"/>
       <use xlink:href="#DejaVuSans-2e" x="63.623047"/>
       <use xlink:href="#DejaVuSans-35" x="95.410156"/>
      </g>
     </g>
    </g>
    <g id="ytick_5">
     <g id="line2d_14">
      <g>
       <use xlink:href="#m9126226278" x="46.633365" y="149.246613" style="stroke: #000000; stroke-width: 0.8"/>
      </g>
     </g>
     <g id="text_14">
      <!-- 2.0 -->
      <g transform="translate(20.549615 153.805676) scale(0.12 -0.12)">
       <use xlink:href="#DejaVuSans-32"/>
       <use xlink:href="#DejaVuSans-2e" x="63.623047"/>
       <use xlink:href="#DejaVuSans-30" x="95.410156"/>
      </g>
     </g>
    </g>
    <g id="ytick_6">
     <g id="line2d_15">
      <g>
       <use xlink:href="#m9126226278" x="46.633365" y="112.566697" style="stroke: #000000; stroke-width: 0.8"/>
      </g>
     </g>
     <g id="text_15">
      <!-- 2.5 -->
      <g transform="translate(20.549615 117.125759) scale(0.12 -0.12)">
       <use xlink:href="#DejaVuSans-32"/>
       <use xlink:href="#DejaVuSans-2e" x="63.623047"/>
       <use xlink:href="#DejaVuSans-35" x="95.410156"/>
      </g>
     </g>
    </g>
    <g id="ytick_7">
     <g id="line2d_16">
      <g>
       <use xlink:href="#m9126226278" x="46.633365" y="75.88678" style="stroke: #000000; stroke-width: 0.8"/>
      </g>
     </g>
     <g id="text_16">
      <!-- 3.0 -->
      <g transform="translate(20.549615 80.445842) scale(0.12 -0.12)">
       <defs>
        <path id="DejaVuSans-33" d="M 2597 2516 
Q 3050 2419 3304 2112 
Q 3559 1806 3559 1356 
Q 3559 666 3084 287 
Q 2609 -91 1734 -91 
Q 1441 -91 1130 -33 
Q 819 25 488 141 
L 488 750 
Q 750 597 1062 519 
Q 1375 441 1716 441 
Q 2309 441 2620 675 
Q 2931 909 2931 1356 
Q 2931 1769 2642 2001 
Q 2353 2234 1838 2234 
L 1294 2234 
L 1294 2753 
L 1863 2753 
Q 2328 2753 2575 2939 
Q 2822 3125 2822 3475 
Q 2822 3834 2567 4026 
Q 2313 4219 1838 4219 
Q 1578 4219 1281 4162 
Q 984 4106 628 3988 
L 628 4550 
Q 988 4650 1302 4700 
Q 1616 4750 1894 4750 
Q 2613 4750 3031 4423 
Q 3450 4097 3450 3541 
Q 3450 3153 3228 2886 
Q 3006 2619 2597 2516 
z
" transform="scale(0.015625)"/>
       </defs>
       <use xlink:href="#DejaVuSans-33"/>
       <use xlink:href="#DejaVuSans-2e" x="63.623047"/>
       <use xlink:href="#DejaVuSans-30" x="95.410156"/>
      </g>
     </g>
    </g>
    <g id="ytick_8">
     <g id="line2d_17">
      <g>
       <use xlink:href="#m9126226278" x="46.633365" y="39.206863" style="stroke: #000000; stroke-width: 0.8"/>
      </g>
     </g>
     <g id="text_17">
      <!-- 3.5 -->
      <g transform="translate(20.549615 43.765926) scale(0.12 -0.12)">
       <use xlink:href="#DejaVuSans-33"/>
       <use xlink:href="#DejaVuSans-2e" x="63.623047"/>
       <use xlink:href="#DejaVuSans-35" x="95.410156"/>
      </g>
     </g>
    </g>
    <g id="text_18">
     <!-- PDF -->
     <g transform="translate(13.638052 173.439041) rotate(-90) scale(0.14 -0.14)">
      <defs>
       <path id="DejaVuSans-50" d="M 1259 4147 
L 1259 2394 
L 2053 2394 
Q 2494 2394 2734 2622 
Q 2975 2850 2975 3272 
Q 2975 3691 2734 3919 
Q 2494 4147 2053 4147 
L 1259 4147 
z
M 628 4666 
L 2053 4666 
Q 2838 4666 3239 4311 
Q 3641 3956 3641 3272 
Q 3641 2581 3239 2228 
Q 2838 1875 2053 1875 
L 1259 1875 
L 1259 0 
L 628 0 
L 628 4666 
z
" transform="scale(0.015625)"/>
       <path id="DejaVuSans-44" d="M 1259 4147 
L 1259 519 
L 2022 519 
Q 2988 519 3436 956 
Q 3884 1394 3884 2338 
Q 3884 3275 3436 3711 
Q 2988 4147 2022 4147 
L 1259 4147 
z
M 628 4666 
L 1925 4666 
Q 3281 4666 3915 4102 
Q 4550 3538 4550 2338 
Q 4550 1131 3912 565 
Q 3275 0 1925 0 
L 628 0 
L 628 4666 
z
" transform="scale(0.015625)"/>
       <path id="DejaVuSans-46" d="M 628 4666 
L 3309 4666 
L 3309 4134 
L 1259 4134 
L 1259 2759 
L 3109 2759 
L 3109 2228 
L 1259 2228 
L 1259 0 
L 628 0 
L 628 4666 
z
" transform="scale(0.015625)"/>
      </defs>
      <use xlink:href="#DejaVuSans-50"/>
      <use xlink:href="#DejaVuSans-44" x="60.302734"/>
      <use xlink:href="#DejaVuSans-46" x="137.304688"/>
     </g>
    </g>
   </g>
   <g id="line2d_18">
    <path d="M 48.716385 295.96628 
L 183.131704 295.855269 
L 210.682669 295.150047 
L 214.02218 294.777871 
L 219.031447 294.149619 
L 223.205836 293.749571 
L 224.875591 293.347568 
L 226.545347 292.677769 
L 228.215102 291.744594 
L 229.884858 290.60219 
L 231.554613 289.271338 
L 233.224369 287.661281 
L 234.894124 285.563098 
L 235.729002 284.251021 
L 236.56388 282.724715 
L 238.233635 278.945658 
L 239.903391 274.112574 
L 241.573146 268.153452 
L 243.242902 260.967308 
L 244.912657 252.411266 
L 246.582413 242.362632 
L 248.252168 230.774945 
L 249.921924 217.640797 
L 251.591679 202.909711 
L 253.261435 186.530392 
L 255.766068 159.401475 
L 259.105579 123.015109 
L 260.775335 107.272453 
L 262.44509 94.110687 
L 264.114846 83.569904 
L 265.784601 75.336357 
L 267.454357 69.042129 
L 268.289234 66.554952 
L 269.124112 64.505218 
L 269.95899 62.90891 
L 270.793868 61.788906 
L 271.628746 61.16662 
L 272.463623 61.053912 
L 273.298501 61.447346 
L 274.133379 62.326408 
L 274.968257 63.656352 
L 275.803134 65.395081 
L 276.638012 67.502333 
L 278.307768 72.721356 
L 279.977523 79.28159 
L 281.647279 87.330685 
L 283.317034 96.888544 
L 286.656545 118.523389 
L 288.326301 128.897474 
L 289.996056 138.084875 
L 291.665812 145.958588 
L 293.335567 152.75306 
L 295.8402 161.738273 
L 304.188978 189.820117 
L 306.693611 197.575315 
L 308.363367 202.165379 
L 310.033122 206.152516 
L 311.702878 209.570934 
L 314.207511 214.05997 
L 317.547022 219.972701 
L 323.391166 230.721213 
L 325.060922 233.179137 
L 327.565555 236.238867 
L 330.070188 239.216503 
L 332.574822 242.633861 
L 336.74921 248.697491 
L 338.418966 250.804445 
L 340.088721 252.626814 
L 342.593355 254.957236 
L 345.097988 256.988866 
L 347.602621 258.741555 
L 350.107254 260.162973 
L 352.611888 261.297162 
L 359.29091 263.943997 
L 362.630421 264.951058 
L 365.969932 265.980163 
L 368.474565 267.035223 
L 370.979198 268.357733 
L 374.318709 270.184313 
L 375.988465 270.742781 
L 376.823343 270.854015 
L 378.493098 270.72999 
L 380.997731 270.036779 
L 382.667487 269.64217 
L 384.337242 269.502506 
L 386.841876 269.648622 
L 391.016264 270.13965 
L 392.68602 270.638856 
L 394.355775 271.472095 
L 396.025531 272.592665 
L 399.365042 275.044232 
L 401.034797 275.988567 
L 402.704553 276.535943 
L 404.374309 276.655699 
L 406.878942 276.359851 
L 408.548697 276.209104 
L 410.218453 276.289065 
L 416.062597 277.065611 
L 420.236986 277.232212 
L 422.741619 277.635895 
L 425.246252 278.051756 
L 427.750886 278.206537 
L 432.760152 278.233211 
L 434.429908 278.485059 
L 436.099663 278.968895 
L 437.769419 279.721875 
L 439.439174 280.748068 
L 441.943807 282.666495 
L 446.118196 285.972382 
L 449.457707 288.277176 
L 455.301852 291.991476 
L 457.806485 293.394095 
L 460.311118 294.529529 
L 461.980874 295.087719 
L 463.650629 295.478955 
L 465.320385 295.723778 
L 465.320385 295.723778 
" clip-path="url(#p0f94edc361)" style="fill: none; stroke: #7d96b0; stroke-width: 2; stroke-linecap: square"/>
   </g>
   <g id="line2d_19">
    <path d="M 257.018385 295.96628 
L 257.018385 23.638053 
" clip-path="url(#p0f94edc361)" style="fill: none; stroke-dasharray: 3.7,1.6; stroke-dashoffset: 0; stroke: #000000"/>
   </g>
   <g id="patch_53">
    <path d="M 46.633365 295.96628 
L 46.633365 23.638053 
" style="fill: none; stroke: #000000; stroke-width: 0.8; stroke-linejoin: miter; stroke-linecap: square"/>
   </g>
   <g id="patch_54">
    <path d="M 46.633365 295.96628 
L 467.403405 295.96628 
" style="fill: none; stroke: #000000; stroke-width: 0.8; stroke-linejoin: miter; stroke-linecap: square"/>
   </g>
   <g id="text_19">
    <!-- Area under PDF -->
    <g transform="translate(46.633365 13.638053) scale(0.14 -0.14)">
     <defs>
      <path id="DejaVuSans-41" d="M 2188 4044 
L 1331 1722 
L 3047 1722 
L 2188 4044 
z
M 1831 4666 
L 2547 4666 
L 4325 0 
L 3669 0 
L 3244 1197 
L 1141 1197 
L 716 0 
L 50 0 
L 1831 4666 
z
" transform="scale(0.015625)"/>
      <path id="DejaVuSans-72" d="M 2631 2963 
Q 2534 3019 2420 3045 
Q 2306 3072 2169 3072 
Q 1681 3072 1420 2755 
Q 1159 2438 1159 1844 
L 1159 0 
L 581 0 
L 581 3500 
L 1159 3500 
L 1159 2956 
Q 1341 3275 1631 3429 
Q 1922 3584 2338 3584 
Q 2397 3584 2469 3576 
Q 2541 3569 2628 3553 
L 2631 2963 
z
" transform="scale(0.015625)"/>
      <path id="DejaVuSans-65" d="M 3597 1894 
L 3597 1613 
L 953 1613 
Q 991 1019 1311 708 
Q 1631 397 2203 397 
Q 2534 397 2845 478 
Q 3156 559 3463 722 
L 3463 178 
Q 3153 47 2828 -22 
Q 2503 -91 2169 -91 
Q 1331 -91 842 396 
Q 353 884 353 1716 
Q 353 2575 817 3079 
Q 1281 3584 2069 3584 
Q 2775 3584 3186 3129 
Q 3597 2675 3597 1894 
z
M 3022 2063 
Q 3016 2534 2758 2815 
Q 2500 3097 2075 3097 
Q 1594 3097 1305 2825 
Q 1016 2553 972 2059 
L 3022 2063 
z
" transform="scale(0.015625)"/>
      <path id="DejaVuSans-61" d="M 2194 1759 
Q 1497 1759 1228 1600 
Q 959 1441 959 1056 
Q 959 750 1161 570 
Q 1363 391 1709 391 
Q 2188 391 2477 730 
Q 2766 1069 2766 1631 
L 2766 1759 
L 2194 1759 
z
M 3341 1997 
L 3341 0 
L 2766 0 
L 2766 531 
Q 2569 213 2275 61 
Q 1981 -91 1556 -91 
Q 1019 -91 701 211 
Q 384 513 384 1019 
Q 384 1609 779 1909 
Q 1175 2209 1959 2209 
L 2766 2209 
L 2766 2266 
Q 2766 2663 2505 2880 
Q 2244 3097 1772 3097 
Q 1472 3097 1187 3025 
Q 903 2953 641 2809 
L 641 3341 
Q 956 3463 1253 3523 
Q 1550 3584 1831 3584 
Q 2591 3584 2966 3190 
Q 3341 2797 3341 1997 
z
" transform="scale(0.015625)"/>
      <path id="DejaVuSans-20" transform="scale(0.015625)"/>
      <path id="DejaVuSans-75" d="M 544 1381 
L 544 3500 
L 1119 3500 
L 1119 1403 
Q 1119 906 1312 657 
Q 1506 409 1894 409 
Q 2359 409 2629 706 
Q 2900 1003 2900 1516 
L 2900 3500 
L 3475 3500 
L 3475 0 
L 2900 0 
L 2900 538 
Q 2691 219 2414 64 
Q 2138 -91 1772 -91 
Q 1169 -91 856 284 
Q 544 659 544 1381 
z
M 1991 3584 
L 1991 3584 
z
" transform="scale(0.015625)"/>
      <path id="DejaVuSans-6e" d="M 3513 2113 
L 3513 0 
L 2938 0 
L 2938 2094 
Q 2938 2591 2744 2837 
Q 2550 3084 2163 3084 
Q 1697 3084 1428 2787 
Q 1159 2491 1159 1978 
L 1159 0 
L 581 0 
L 581 3500 
L 1159 3500 
L 1159 2956 
Q 1366 3272 1645 3428 
Q 1925 3584 2291 3584 
Q 2894 3584 3203 3211 
Q 3513 2838 3513 2113 
z
" transform="scale(0.015625)"/>
      <path id="DejaVuSans-64" d="M 2906 2969 
L 2906 4863 
L 3481 4863 
L 3481 0 
L 2906 0 
L 2906 525 
Q 2725 213 2448 61 
Q 2172 -91 1784 -91 
Q 1150 -91 751 415 
Q 353 922 353 1747 
Q 353 2572 751 3078 
Q 1150 3584 1784 3584 
Q 2172 3584 2448 3432 
Q 2725 3281 2906 2969 
z
M 947 1747 
Q 947 1113 1208 752 
Q 1469 391 1925 391 
Q 2381 391 2643 752 
Q 2906 1113 2906 1747 
Q 2906 2381 2643 2742 
Q 2381 3103 1925 3103 
Q 1469 3103 1208 2742 
Q 947 2381 947 1747 
z
" transform="scale(0.015625)"/>
     </defs>
     <use xlink:href="#DejaVuSans-41"/>
     <use xlink:href="#DejaVuSans-72" x="68.408203"/>
     <use xlink:href="#DejaVuSans-65" x="107.271484"/>
     <use xlink:href="#DejaVuSans-61" x="168.794922"/>
     <use xlink:href="#DejaVuSans-20" x="230.074219"/>
     <use xlink:href="#DejaVuSans-75" x="261.861328"/>
     <use xlink:href="#DejaVuSans-6e" x="325.240234"/>
     <use xlink:href="#DejaVuSans-64" x="388.619141"/>
     <use xlink:href="#DejaVuSans-65" x="452.095703"/>
     <use xlink:href="#DejaVuSans-72" x="513.619141"/>
     <use xlink:href="#DejaVuSans-20" x="554.732422"/>
     <use xlink:href="#DejaVuSans-50" x="586.519531"/>
     <use xlink:href="#DejaVuSans-44" x="646.822266"/>
     <use xlink:href="#DejaVuSans-46" x="723.824219"/>
    </g>
   </g>
  </g>
  <g id="text_20">
   <!-- Pearson r -->
   <g transform="translate(201.348187 333.345885) scale(0.168 -0.168)">
    <defs>
     <path id="DejaVuSans-73" d="M 2834 3397 
L 2834 2853 
Q 2591 2978 2328 3040 
Q 2066 3103 1784 3103 
Q 1356 3103 1142 2972 
Q 928 2841 928 2578 
Q 928 2378 1081 2264 
Q 1234 2150 1697 2047 
L 1894 2003 
Q 2506 1872 2764 1633 
Q 3022 1394 3022 966 
Q 3022 478 2636 193 
Q 2250 -91 1575 -91 
Q 1294 -91 989 -36 
Q 684 19 347 128 
L 347 722 
Q 666 556 975 473 
Q 1284 391 1588 391 
Q 1994 391 2212 530 
Q 2431 669 2431 922 
Q 2431 1156 2273 1281 
Q 2116 1406 1581 1522 
L 1381 1569 
Q 847 1681 609 1914 
Q 372 2147 372 2553 
Q 372 3047 722 3315 
Q 1072 3584 1716 3584 
Q 2034 3584 2315 3537 
Q 2597 3491 2834 3397 
z
" transform="scale(0.015625)"/>
     <path id="DejaVuSans-6f" d="M 1959 3097 
Q 1497 3097 1228 2736 
Q 959 2375 959 1747 
Q 959 1119 1226 758 
Q 1494 397 1959 397 
Q 2419 397 2687 759 
Q 2956 1122 2956 1747 
Q 2956 2369 2687 2733 
Q 2419 3097 1959 3097 
z
M 1959 3584 
Q 2709 3584 3137 3096 
Q 3566 2609 3566 1747 
Q 3566 888 3137 398 
Q 2709 -91 1959 -91 
Q 1206 -91 779 398 
Q 353 888 353 1747 
Q 353 2609 779 3096 
Q 1206 3584 1959 3584 
z
" transform="scale(0.015625)"/>
    </defs>
    <use xlink:href="#DejaVuSans-50"/>
    <use xlink:href="#DejaVuSans-65" x="56.677734"/>
    <use xlink:href="#DejaVuSans-61" x="118.201172"/>
    <use xlink:href="#DejaVuSans-72" x="179.480469"/>
    <use xlink:href="#DejaVuSans-73" x="220.59375"/>
    <use xlink:href="#DejaVuSans-6f" x="272.693359"/>
    <use xlink:href="#DejaVuSans-6e" x="333.875"/>
    <use xlink:href="#DejaVuSans-20" x="397.253906"/>
    <use xlink:href="#DejaVuSans-72" x="429.041016"/>
   </g>
  </g>
 </g>
 <defs>
  <clipPath id="p0f94edc361">
   <rect x="46.633365" y="23.638053" width="420.77004" height="272.328227"/>
  </clipPath>
 </defs>
</svg>
