<?xml version="1.0" encoding="utf-8" standalone="no"?>
<!DOCTYPE svg PUBLIC "-//W3C//DTD SVG 1.1//EN"
  "http://www.w3.org/Graphics/SVG/1.1/DTD/svg11.dtd">
<svg xmlns:xlink="http://www.w3.org/1999/xlink" width="170.07874pt" height="170.07874pt" viewBox="0 0 170.07874 170.07874" xmlns="http://www.w3.org/2000/svg" version="1.1">
 <metadata>
  <rdf:RDF xmlns:dc="http://purl.org/dc/elements/1.1/" xmlns:cc="http://creativecommons.org/ns#" xmlns:rdf="http://www.w3.org/1999/02/22-rdf-syntax-ns#">
   <cc:Work>
    <dc:type rdf:resource="http://purl.org/dc/dcmitype/StillImage"/>
    <dc:date>2022-11-23T19:19:18.531716</dc:date>
    <dc:format>image/svg+xml</dc:format>
    <dc:creator>
     <cc:Agent>
      <dc:title>Matplotlib v3.6.2, https://matplotlib.org/</dc:title>
     </cc:Agent>
    </dc:creator>
   </cc:Work>
  </rdf:RDF>
 </metadata>
 <defs>
  <style type="text/css">*{stroke-linejoin: round; stroke-linecap: butt}</style>
 </defs>
 <g id="figure_1">
  <g id="patch_1">
   <path d="M 0 170.07874 
L 170.07874 170.07874 
L 170.07874 0 
L 0 0 
z
" style="fill: #ffffff"/>
  </g>
  <g id="axes_1">
   <g id="patch_2">
    <path d="M 35.184615 128.914895 
L 167.0785 128.914895 
L 167.0785 3.00024 
L 35.184615 3.00024 
z
" style="fill: #ffffff"/>
   </g>
   <g id="patch_3">
    <path d="M 46.175772 114.358608 
L 48.374004 114.358608 
L 48.374004 113.589898 
L 46.175772 113.589898 
z
" clip-path="url(#pcab8480526)" style="fill: #ffffff; stroke: #a9a9a9; stroke-linejoin: miter"/>
   </g>
   <g id="patch_4">
    <path d="M 48.374004 114.358608 
L 50.572235 114.358608 
L 50.572235 113.782075 
L 48.374004 113.782075 
z
" clip-path="url(#pcab8480526)" style="fill: #ffffff; stroke: #a9a9a9; stroke-linejoin: miter"/>
   </g>
   <g id="patch_5">
    <path d="M 50.572235 114.358608 
L 52.770466 114.358608 
L 52.770466 113.013366 
L 50.572235 113.013366 
z
" clip-path="url(#pcab8480526)" style="fill: #ffffff; stroke: #a9a9a9; stroke-linejoin: miter"/>
   </g>
   <g id="patch_6">
    <path d="M 52.770466 114.358608 
L 54.968698 114.358608 
L 54.968698 111.764212 
L 52.770466 111.764212 
z
" clip-path="url(#pcab8480526)" style="fill: #ffffff; stroke: #a9a9a9; stroke-linejoin: miter"/>
   </g>
   <g id="patch_7">
    <path d="M 54.968698 114.358608 
L 57.166929 114.358608 
L 57.166929 109.458083 
L 54.968698 109.458083 
z
" clip-path="url(#pcab8480526)" style="fill: #ffffff; stroke: #a9a9a9; stroke-linejoin: miter"/>
   </g>
   <g id="patch_8">
    <path d="M 57.166929 114.358608 
L 59.365161 114.358608 
L 59.365161 103.212316 
L 57.166929 103.212316 
z
" clip-path="url(#pcab8480526)" style="fill: #ffffff; stroke: #a9a9a9; stroke-linejoin: miter"/>
   </g>
   <g id="patch_9">
    <path d="M 59.365161 114.358608 
L 61.563392 114.358608 
L 61.563392 92.354291 
L 59.365161 92.354291 
z
" clip-path="url(#pcab8480526)" style="fill: #ffffff; stroke: #a9a9a9; stroke-linejoin: miter"/>
   </g>
   <g id="patch_10">
    <path d="M 61.563392 114.358608 
L 63.761623 114.358608 
L 63.761623 78.22925 
L 61.563392 78.22925 
z
" clip-path="url(#pcab8480526)" style="fill: #ffffff; stroke: #a9a9a9; stroke-linejoin: miter"/>
   </g>
   <g id="patch_11">
    <path d="M 63.761623 114.358608 
L 65.959855 114.358608 
L 65.959855 49.690901 
L 63.761623 49.690901 
z
" clip-path="url(#pcab8480526)" style="fill: #ffffff; stroke: #a9a9a9; stroke-linejoin: miter"/>
   </g>
   <g id="patch_12">
    <path d="M 65.959855 114.358608 
L 68.158086 114.358608 
L 68.158086 35.277593 
L 65.959855 35.277593 
z
" clip-path="url(#pcab8480526)" style="fill: #ffffff; stroke: #a9a9a9; stroke-linejoin: miter"/>
   </g>
   <g id="patch_13">
    <path d="M 68.158086 114.358608 
L 70.356318 114.358608 
L 70.356318 28.359206 
L 68.158086 28.359206 
z
" clip-path="url(#pcab8480526)" style="fill: #ffffff; stroke: #a9a9a9; stroke-linejoin: miter"/>
   </g>
   <g id="patch_14">
    <path d="M 70.356318 114.358608 
L 72.554549 114.358608 
L 72.554549 21.440818 
L 70.356318 21.440818 
z
" clip-path="url(#pcab8480526)" style="fill: #ffffff; stroke: #a9a9a9; stroke-linejoin: miter"/>
   </g>
   <g id="patch_15">
    <path d="M 72.554549 114.358608 
L 74.752781 114.358608 
L 74.752781 29.224004 
L 72.554549 29.224004 
z
" clip-path="url(#pcab8480526)" style="fill: #ffffff; stroke: #a9a9a9; stroke-linejoin: miter"/>
   </g>
   <g id="patch_16">
    <path d="M 74.752781 114.358608 
L 76.951012 114.358608 
L 76.951012 36.046303 
L 74.752781 36.046303 
z
" clip-path="url(#pcab8480526)" style="fill: #ffffff; stroke: #a9a9a9; stroke-linejoin: miter"/>
   </g>
   <g id="patch_17">
    <path d="M 76.951012 114.358608 
L 79.149243 114.358608 
L 79.149243 51.804853 
L 76.951012 51.804853 
z
" clip-path="url(#pcab8480526)" style="fill: #ffffff; stroke: #a9a9a9; stroke-linejoin: miter"/>
   </g>
   <g id="patch_18">
    <path d="M 79.149243 114.358608 
L 81.347475 114.358608 
L 81.347475 60.837192 
L 79.149243 60.837192 
z
" clip-path="url(#pcab8480526)" style="fill: #ffffff; stroke: #a9a9a9; stroke-linejoin: miter"/>
   </g>
   <g id="patch_19">
    <path d="M 81.347475 114.358608 
L 83.545706 114.358608 
L 83.545706 64.776829 
L 81.347475 64.776829 
z
" clip-path="url(#pcab8480526)" style="fill: #ffffff; stroke: #a9a9a9; stroke-linejoin: miter"/>
   </g>
   <g id="patch_20">
    <path d="M 83.545706 114.358608 
L 85.743938 114.358608 
L 85.743938 74.001346 
L 83.545706 74.001346 
z
" clip-path="url(#pcab8480526)" style="fill: #ffffff; stroke: #a9a9a9; stroke-linejoin: miter"/>
   </g>
   <g id="patch_21">
    <path d="M 85.743938 114.358608 
L 87.942169 114.358608 
L 87.942169 78.901871 
L 85.743938 78.901871 
z
" clip-path="url(#pcab8480526)" style="fill: #ffffff; stroke: #a9a9a9; stroke-linejoin: miter"/>
   </g>
   <g id="patch_22">
    <path d="M 87.942169 114.358608 
L 90.1404 114.358608 
L 90.1404 81.592355 
L 87.942169 81.592355 
z
" clip-path="url(#pcab8480526)" style="fill: #ffffff; stroke: #a9a9a9; stroke-linejoin: miter"/>
   </g>
   <g id="patch_23">
    <path d="M 90.1404 114.358608 
L 92.338632 114.358608 
L 92.338632 86.012436 
L 90.1404 86.012436 
z
" clip-path="url(#pcab8480526)" style="fill: #ffffff; stroke: #a9a9a9; stroke-linejoin: miter"/>
   </g>
   <g id="patch_24">
    <path d="M 92.338632 114.358608 
L 94.536863 114.358608 
L 94.536863 91.201227 
L 92.338632 91.201227 
z
" clip-path="url(#pcab8480526)" style="fill: #ffffff; stroke: #a9a9a9; stroke-linejoin: miter"/>
   </g>
   <g id="patch_25">
    <path d="M 94.536863 114.358608 
L 96.735095 114.358608 
L 96.735095 91.009049 
L 94.536863 91.009049 
z
" clip-path="url(#pcab8480526)" style="fill: #ffffff; stroke: #a9a9a9; stroke-linejoin: miter"/>
   </g>
   <g id="patch_26">
    <path d="M 96.735095 114.358608 
L 98.933326 114.358608 
L 98.933326 94.179977 
L 96.735095 94.179977 
z
" clip-path="url(#pcab8480526)" style="fill: #ffffff; stroke: #a9a9a9; stroke-linejoin: miter"/>
   </g>
   <g id="patch_27">
    <path d="M 98.933326 114.358608 
L 101.131558 114.358608 
L 101.131558 97.543082 
L 98.933326 97.543082 
z
" clip-path="url(#pcab8480526)" style="fill: #ffffff; stroke: #a9a9a9; stroke-linejoin: miter"/>
   </g>
   <g id="patch_28">
    <path d="M 101.131558 114.358608 
L 103.329789 114.358608 
L 103.329789 99.080501 
L 101.131558 99.080501 
z
" clip-path="url(#pcab8480526)" style="fill: #ffffff; stroke: #a9a9a9; stroke-linejoin: miter"/>
   </g>
   <g id="patch_29">
    <path d="M 103.329789 114.358608 
L 105.52802 114.358608 
L 105.52802 100.329655 
L 103.329789 100.329655 
z
" clip-path="url(#pcab8480526)" style="fill: #ffffff; stroke: #a9a9a9; stroke-linejoin: miter"/>
   </g>
   <g id="patch_30">
    <path d="M 105.52802 114.358608 
L 107.726252 114.358608 
L 107.726252 101.098365 
L 105.52802 101.098365 
z
" clip-path="url(#pcab8480526)" style="fill: #ffffff; stroke: #a9a9a9; stroke-linejoin: miter"/>
   </g>
   <g id="patch_31">
    <path d="M 107.726252 114.358608 
L 109.924483 114.358608 
L 109.924483 102.539695 
L 107.726252 102.539695 
z
" clip-path="url(#pcab8480526)" style="fill: #ffffff; stroke: #a9a9a9; stroke-linejoin: miter"/>
   </g>
   <g id="patch_32">
    <path d="M 109.924483 114.358608 
L 112.122715 114.358608 
L 112.122715 102.251429 
L 109.924483 102.251429 
z
" clip-path="url(#pcab8480526)" style="fill: #ffffff; stroke: #a9a9a9; stroke-linejoin: miter"/>
   </g>
   <g id="patch_33">
    <path d="M 112.122715 114.358608 
L 114.320946 114.358608 
L 114.320946 103.404494 
L 112.122715 103.404494 
z
" clip-path="url(#pcab8480526)" style="fill: #ffffff; stroke: #a9a9a9; stroke-linejoin: miter"/>
   </g>
   <g id="patch_34">
    <path d="M 114.320946 114.358608 
L 116.519178 114.358608 
L 116.519178 103.884937 
L 114.320946 103.884937 
z
" clip-path="url(#pcab8480526)" style="fill: #ffffff; stroke: #a9a9a9; stroke-linejoin: miter"/>
   </g>
   <g id="patch_35">
    <path d="M 116.519178 114.358608 
L 118.717409 114.358608 
L 118.717409 106.479333 
L 116.519178 106.479333 
z
" clip-path="url(#pcab8480526)" style="fill: #ffffff; stroke: #a9a9a9; stroke-linejoin: miter"/>
   </g>
   <g id="patch_36">
    <path d="M 118.717409 114.358608 
L 120.91564 114.358608 
L 120.91564 103.020139 
L 118.717409 103.020139 
z
" clip-path="url(#pcab8480526)" style="fill: #ffffff; stroke: #a9a9a9; stroke-linejoin: miter"/>
   </g>
   <g id="patch_37">
    <path d="M 120.91564 114.358608 
L 123.113872 114.358608 
L 123.113872 105.710623 
L 120.91564 105.710623 
z
" clip-path="url(#pcab8480526)" style="fill: #ffffff; stroke: #a9a9a9; stroke-linejoin: miter"/>
   </g>
   <g id="patch_38">
    <path d="M 123.113872 114.358608 
L 125.312103 114.358608 
L 125.312103 103.308405 
L 123.113872 103.308405 
z
" clip-path="url(#pcab8480526)" style="fill: #ffffff; stroke: #a9a9a9; stroke-linejoin: miter"/>
   </g>
   <g id="patch_39">
    <path d="M 125.312103 114.358608 
L 127.510335 114.358608 
L 127.510335 106.191067 
L 125.312103 106.191067 
z
" clip-path="url(#pcab8480526)" style="fill: #ffffff; stroke: #a9a9a9; stroke-linejoin: miter"/>
   </g>
   <g id="patch_40">
    <path d="M 127.510335 114.358608 
L 129.708566 114.358608 
L 129.708566 108.20893 
L 127.510335 108.20893 
z
" clip-path="url(#pcab8480526)" style="fill: #ffffff; stroke: #a9a9a9; stroke-linejoin: miter"/>
   </g>
   <g id="patch_41">
    <path d="M 129.708566 114.358608 
L 131.906797 114.358608 
L 131.906797 105.518446 
L 129.708566 105.518446 
z
" clip-path="url(#pcab8480526)" style="fill: #ffffff; stroke: #a9a9a9; stroke-linejoin: miter"/>
   </g>
   <g id="patch_42">
    <path d="M 131.906797 114.358608 
L 134.105029 114.358608 
L 134.105029 108.112841 
L 131.906797 108.112841 
z
" clip-path="url(#pcab8480526)" style="fill: #ffffff; stroke: #a9a9a9; stroke-linejoin: miter"/>
   </g>
   <g id="patch_43">
    <path d="M 134.105029 114.358608 
L 136.30326 114.358608 
L 136.30326 106.767599 
L 134.105029 106.767599 
z
" clip-path="url(#pcab8480526)" style="fill: #ffffff; stroke: #a9a9a9; stroke-linejoin: miter"/>
   </g>
   <g id="patch_44">
    <path d="M 136.30326 114.358608 
L 138.501492 114.358608 
L 138.501492 107.344131 
L 136.30326 107.344131 
z
" clip-path="url(#pcab8480526)" style="fill: #ffffff; stroke: #a9a9a9; stroke-linejoin: miter"/>
   </g>
   <g id="patch_45">
    <path d="M 138.501492 114.358608 
L 140.699723 114.358608 
L 140.699723 108.401107 
L 138.501492 108.401107 
z
" clip-path="url(#pcab8480526)" style="fill: #ffffff; stroke: #a9a9a9; stroke-linejoin: miter"/>
   </g>
   <g id="patch_46">
    <path d="M 140.699723 114.358608 
L 142.897955 114.358608 
L 142.897955 107.055865 
L 140.699723 107.055865 
z
" clip-path="url(#pcab8480526)" style="fill: #ffffff; stroke: #a9a9a9; stroke-linejoin: miter"/>
   </g>
   <g id="patch_47">
    <path d="M 142.897955 114.358608 
L 145.096186 114.358608 
L 145.096186 107.920663 
L 142.897955 107.920663 
z
" clip-path="url(#pcab8480526)" style="fill: #ffffff; stroke: #a9a9a9; stroke-linejoin: miter"/>
   </g>
   <g id="patch_48">
    <path d="M 145.096186 114.358608 
L 147.294417 114.358608 
L 147.294417 109.938527 
L 145.096186 109.938527 
z
" clip-path="url(#pcab8480526)" style="fill: #ffffff; stroke: #a9a9a9; stroke-linejoin: miter"/>
   </g>
   <g id="patch_49">
    <path d="M 147.294417 114.358608 
L 149.492649 114.358608 
L 149.492649 110.707236 
L 147.294417 110.707236 
z
" clip-path="url(#pcab8480526)" style="fill: #ffffff; stroke: #a9a9a9; stroke-linejoin: miter"/>
   </g>
   <g id="patch_50">
    <path d="M 149.492649 114.358608 
L 151.69088 114.358608 
L 151.69088 112.436833 
L 149.492649 112.436833 
z
" clip-path="url(#pcab8480526)" style="fill: #ffffff; stroke: #a9a9a9; stroke-linejoin: miter"/>
   </g>
   <g id="patch_51">
    <path d="M 151.69088 114.358608 
L 153.889112 114.358608 
L 153.889112 113.493809 
L 151.69088 113.493809 
z
" clip-path="url(#pcab8480526)" style="fill: #ffffff; stroke: #a9a9a9; stroke-linejoin: miter"/>
   </g>
   <g id="patch_52">
    <path d="M 153.889112 114.358608 
L 156.087343 114.358608 
L 156.087343 114.358608 
L 153.889112 114.358608 
z
" clip-path="url(#pcab8480526)" style="fill: #ffffff; stroke: #a9a9a9; stroke-linejoin: miter"/>
   </g>
   <g id="PolyCollection_1">
    <defs>
     <path id="mb51534aba1" d="M 97.497207 -76.082784 
L 97.497207 -55.692459 
L 97.717471 -55.692459 
L 97.937734 -55.692459 
L 98.157998 -55.692459 
L 98.378262 -55.692459 
L 98.598525 -55.692459 
L 98.818789 -55.692459 
L 99.039053 -55.692459 
L 99.259316 -55.692459 
L 99.47958 -55.692459 
L 99.699844 -55.692459 
L 99.920107 -55.692459 
L 100.140371 -55.692459 
L 100.360635 -55.692459 
L 100.580898 -55.692459 
L 100.801162 -55.692459 
L 101.021426 -55.692459 
L 101.241689 -55.692459 
L 101.461953 -55.692459 
L 101.682217 -55.692459 
L 101.90248 -55.692459 
L 102.122744 -55.692459 
L 102.343008 -55.692459 
L 102.563271 -55.692459 
L 102.783535 -55.692459 
L 103.003799 -55.692459 
L 103.224062 -55.692459 
L 103.444326 -55.692459 
L 103.66459 -55.692459 
L 103.884853 -55.692459 
L 104.105117 -55.692459 
L 104.325381 -55.692459 
L 104.545644 -55.692459 
L 104.765908 -55.692459 
L 104.986172 -55.692459 
L 105.206435 -55.692459 
L 105.426699 -55.692459 
L 105.646963 -55.692459 
L 105.867226 -55.692459 
L 106.08749 -55.692459 
L 106.307754 -55.692459 
L 106.528017 -55.692459 
L 106.748281 -55.692459 
L 106.968545 -55.692459 
L 107.188808 -55.692459 
L 107.409072 -55.692459 
L 107.629336 -55.692459 
L 107.849599 -55.692459 
L 108.069863 -55.692459 
L 108.290127 -55.692459 
L 108.51039 -55.692459 
L 108.730654 -55.692459 
L 108.950918 -55.692459 
L 109.171182 -55.692459 
L 109.391445 -55.692459 
L 109.611709 -55.692459 
L 109.831973 -55.692459 
L 110.052236 -55.692459 
L 110.2725 -55.692459 
L 110.492764 -55.692459 
L 110.713027 -55.692459 
L 110.933291 -55.692459 
L 111.153555 -55.692459 
L 111.373818 -55.692459 
L 111.594082 -55.692459 
L 111.814346 -55.692459 
L 112.034609 -55.692459 
L 112.254873 -55.692459 
L 112.475137 -55.692459 
L 112.6954 -55.692459 
L 112.915664 -55.692459 
L 113.135928 -55.692459 
L 113.356191 -55.692459 
L 113.576455 -55.692459 
L 113.796719 -55.692459 
L 114.016982 -55.692459 
L 114.237246 -55.692459 
L 114.45751 -55.692459 
L 114.677773 -55.692459 
L 114.898037 -55.692459 
L 115.118301 -55.692459 
L 115.338564 -55.692459 
L 115.558828 -55.692459 
L 115.779092 -55.692459 
L 115.999355 -55.692459 
L 116.219619 -55.692459 
L 116.439883 -55.692459 
L 116.660146 -55.692459 
L 116.88041 -55.692459 
L 117.100674 -55.692459 
L 117.320937 -55.692459 
L 117.541201 -55.692459 
L 117.761465 -55.692459 
L 117.981728 -55.692459 
L 118.201992 -55.692459 
L 118.422256 -55.692459 
L 118.642519 -55.692459 
L 118.862783 -55.692459 
L 119.083047 -55.692459 
L 119.30331 -55.692459 
L 119.523574 -55.692459 
L 119.743838 -55.692459 
L 119.964101 -55.692459 
L 120.184365 -55.692459 
L 120.404629 -55.692459 
L 120.624892 -55.692459 
L 120.845156 -55.692459 
L 121.06542 -55.692459 
L 121.285683 -55.692459 
L 121.505947 -55.692459 
L 121.726211 -55.692459 
L 121.946474 -55.692459 
L 122.166738 -55.692459 
L 122.387002 -55.692459 
L 122.607265 -55.692459 
L 122.827529 -55.692459 
L 123.047793 -55.692459 
L 123.268056 -55.692459 
L 123.48832 -55.692459 
L 123.708584 -55.692459 
L 123.928847 -55.692459 
L 124.149111 -55.692459 
L 124.369375 -55.692459 
L 124.589638 -55.692459 
L 124.809902 -55.692459 
L 125.030166 -55.692459 
L 125.250429 -55.692459 
L 125.470693 -55.692459 
L 125.690957 -55.692459 
L 125.91122 -55.692459 
L 126.131484 -55.692459 
L 126.351748 -55.692459 
L 126.572011 -55.692459 
L 126.792275 -55.692459 
L 127.012539 -55.692459 
L 127.232802 -55.692459 
L 127.453066 -55.692459 
L 127.67333 -55.692459 
L 127.893593 -55.692459 
L 128.113857 -55.692459 
L 128.334121 -55.692459 
L 128.554384 -55.692459 
L 128.774648 -55.692459 
L 128.994912 -55.692459 
L 129.215175 -55.692459 
L 129.435439 -55.692459 
L 129.655703 -55.692459 
L 129.875966 -55.692459 
L 130.09623 -55.692459 
L 130.316494 -55.692459 
L 130.536757 -55.692459 
L 130.757021 -55.692459 
L 130.977285 -55.692459 
L 131.197548 -55.692459 
L 131.417812 -55.692459 
L 131.638076 -55.692459 
L 131.858339 -55.692459 
L 132.078603 -55.692459 
L 132.298867 -55.692459 
L 132.51913 -55.692459 
L 132.739394 -55.692459 
L 132.959658 -55.692459 
L 133.179921 -55.692459 
L 133.400185 -55.692459 
L 133.620449 -55.692459 
L 133.840712 -55.692459 
L 134.060976 -55.692459 
L 134.28124 -55.692459 
L 134.501503 -55.692459 
L 134.721767 -55.692459 
L 134.942031 -55.692459 
L 135.162294 -55.692459 
L 135.382558 -55.692459 
L 135.602822 -55.692459 
L 135.823085 -55.692459 
L 136.043349 -55.692459 
L 136.263613 -55.692459 
L 136.483876 -55.692459 
L 136.70414 -55.692459 
L 136.924404 -55.692459 
L 137.144668 -55.692459 
L 137.364931 -55.692459 
L 137.585195 -55.692459 
L 137.805459 -55.692459 
L 138.025722 -55.692459 
L 138.245986 -55.692459 
L 138.46625 -55.692459 
L 138.686513 -55.692459 
L 138.906777 -55.692459 
L 139.127041 -55.692459 
L 139.347304 -55.692459 
L 139.567568 -55.692459 
L 139.787832 -55.692459 
L 140.008095 -55.692459 
L 140.228359 -55.692459 
L 140.448623 -55.692459 
L 140.668886 -55.692459 
L 140.88915 -55.692459 
L 141.109414 -55.692459 
L 141.329677 -55.692459 
L 141.549941 -55.692459 
L 141.770205 -55.692459 
L 141.990468 -55.692459 
L 142.210732 -55.692459 
L 142.430996 -55.692459 
L 142.651259 -55.692459 
L 142.871523 -55.692459 
L 143.091787 -55.692459 
L 143.31205 -55.692459 
L 143.532314 -55.692459 
L 143.752578 -55.692459 
L 143.972841 -55.692459 
L 144.193105 -55.692459 
L 144.413369 -55.692459 
L 144.633632 -55.692459 
L 144.853896 -55.692459 
L 145.07416 -55.692459 
L 145.294423 -55.692459 
L 145.514687 -55.692459 
L 145.734951 -55.692459 
L 145.955214 -55.692459 
L 146.175478 -55.692459 
L 146.395742 -55.692459 
L 146.616005 -55.692459 
L 146.836269 -55.692459 
L 147.056533 -55.692459 
L 147.276796 -55.692459 
L 147.49706 -55.692459 
L 147.717324 -55.692459 
L 147.937587 -55.692459 
L 148.157851 -55.692459 
L 148.378115 -55.692459 
L 148.598378 -55.692459 
L 148.818642 -55.692459 
L 149.038906 -55.692459 
L 149.259169 -55.692459 
L 149.479433 -55.692459 
L 149.699697 -55.692459 
L 149.91996 -55.692459 
L 150.140224 -55.692459 
L 150.360488 -55.692459 
L 150.580751 -55.692459 
L 150.801015 -55.692459 
L 151.021279 -55.692459 
L 151.241542 -55.692459 
L 151.461806 -55.692459 
L 151.68207 -55.692459 
L 151.902333 -55.692459 
L 152.122597 -55.692459 
L 152.342861 -55.692459 
L 152.563124 -55.692459 
L 152.783388 -55.692459 
L 153.003652 -55.692459 
L 153.223915 -55.692459 
L 153.444179 -55.692459 
L 153.664443 -55.692459 
L 153.884706 -55.692459 
L 154.10497 -55.692459 
L 154.325234 -55.692459 
L 154.545497 -55.692459 
L 154.765761 -55.692459 
L 154.986025 -55.692459 
L 155.206288 -55.692459 
L 155.426552 -55.692459 
L 155.646816 -55.692459 
L 155.867079 -55.692459 
L 156.087343 -55.692459 
L 156.087343 -55.783938 
L 156.087343 -55.783938 
L 155.867079 -55.806605 
L 155.646816 -55.833416 
L 155.426552 -55.864769 
L 155.206288 -55.901025 
L 154.986025 -55.9425 
L 154.765761 -55.989447 
L 154.545497 -56.04205 
L 154.325234 -56.100414 
L 154.10497 -56.164565 
L 153.884706 -56.234445 
L 153.664443 -56.309919 
L 153.444179 -56.390782 
L 153.223915 -56.476763 
L 153.003652 -56.567544 
L 152.783388 -56.662765 
L 152.563124 -56.762044 
L 152.342861 -56.864986 
L 152.122597 -56.971193 
L 151.902333 -57.080279 
L 151.68207 -57.191875 
L 151.461806 -57.305636 
L 151.241542 -57.421245 
L 151.021279 -57.538418 
L 150.801015 -57.656904 
L 150.580751 -57.776485 
L 150.360488 -57.896982 
L 150.140224 -58.018255 
L 149.91996 -58.140207 
L 149.699697 -58.26279 
L 149.479433 -58.386013 
L 149.259169 -58.509943 
L 149.038906 -58.634719 
L 148.818642 -58.760546 
L 148.598378 -58.887696 
L 148.378115 -59.016497 
L 148.157851 -59.147314 
L 147.937587 -59.280523 
L 147.717324 -59.416479 
L 147.49706 -59.555469 
L 147.276796 -59.697677 
L 147.056533 -59.843137 
L 146.836269 -59.991698 
L 146.616005 -60.143 
L 146.395742 -60.29646 
L 146.175478 -60.451277 
L 145.955214 -60.606455 
L 145.734951 -60.760837 
L 145.514687 -60.91316 
L 145.294423 -61.062112 
L 145.07416 -61.206395 
L 144.853896 -61.344787 
L 144.633632 -61.476196 
L 144.413369 -61.599704 
L 144.193105 -61.714588 
L 143.972841 -61.82034 
L 143.752578 -61.916658 
L 143.532314 -62.003429 
L 143.31205 -62.080708 
L 143.091787 -62.148682 
L 142.871523 -62.207642 
L 142.651259 -62.257957 
L 142.430996 -62.300051 
L 142.210732 -62.334392 
L 141.990468 -62.361492 
L 141.770205 -62.38191 
L 141.549941 -62.396263 
L 141.329677 -62.405239 
L 141.109414 -62.409611 
L 140.88915 -62.410238 
L 140.668886 -62.408066 
L 140.448623 -62.404117 
L 140.228359 -62.39946 
L 140.008095 -62.395187 
L 139.787832 -62.39236 
L 139.567568 -62.391972 
L 139.347304 -62.394894 
L 139.127041 -62.401827 
L 138.906777 -62.413263 
L 138.686513 -62.429446 
L 138.46625 -62.45036 
L 138.245986 -62.475714 
L 138.025722 -62.504958 
L 137.805459 -62.537304 
L 137.585195 -62.571771 
L 137.364931 -62.607235 
L 137.144668 -62.642504 
L 136.924404 -62.676386 
L 136.70414 -62.707774 
L 136.483876 -62.735721 
L 136.263613 -62.759517 
L 136.043349 -62.778746 
L 135.823085 -62.79333 
L 135.602822 -62.803549 
L 135.382558 -62.810034 
L 135.162294 -62.813732 
L 134.942031 -62.815843 
L 134.721767 -62.817733 
L 134.501503 -62.820826 
L 134.28124 -62.826484 
L 134.060976 -62.835885 
L 133.840712 -62.849907 
L 133.620449 -62.869033 
L 133.400185 -62.893283 
L 133.179921 -62.922179 
L 132.959658 -62.95476 
L 132.739394 -62.989635 
L 132.51913 -63.025072 
L 132.298867 -63.059135 
L 132.078603 -63.089835 
L 131.858339 -63.1153 
L 131.638076 -63.133941 
L 131.417812 -63.144604 
L 131.197548 -63.146689 
L 130.977285 -63.14023 
L 130.757021 -63.125931 
L 130.536757 -63.105138 
L 130.316494 -63.079774 
L 130.09623 -63.052222 
L 129.875966 -63.025179 
L 129.655703 -63.001484 
L 129.435439 -62.983953 
L 129.215175 -62.975204 
L 128.994912 -62.97752 
L 128.774648 -62.992737 
L 128.554384 -63.02217 
L 128.334121 -63.066579 
L 128.113857 -63.126173 
L 127.893593 -63.200646 
L 127.67333 -63.289238 
L 127.453066 -63.390805 
L 127.232802 -63.503903 
L 127.012539 -63.62686 
L 126.792275 -63.757842 
L 126.572011 -63.894908 
L 126.351748 -64.036049 
L 126.131484 -64.179221 
L 125.91122 -64.322371 
L 125.690957 -64.463465 
L 125.470693 -64.60052 
L 125.250429 -64.731648 
L 125.030166 -64.855114 
L 124.809902 -64.9694 
L 124.589638 -65.073275 
L 124.369375 -65.165869 
L 124.149111 -65.24673 
L 123.928847 -65.315864 
L 123.708584 -65.373742 
L 123.48832 -65.421282 
L 123.268056 -65.459778 
L 123.047793 -65.490805 
L 122.827529 -65.51609 
L 122.607265 -65.537361 
L 122.387002 -65.556193 
L 122.166738 -65.573865 
L 121.946474 -65.591239 
L 121.726211 -65.608678 
L 121.505947 -65.62601 
L 121.285683 -65.64255 
L 121.06542 -65.657176 
L 120.845156 -65.668442 
L 120.624892 -65.674743 
L 120.404629 -65.674494 
L 120.184365 -65.666315 
L 119.964101 -65.64921 
L 119.743838 -65.622711 
L 119.523574 -65.586987 
L 119.30331 -65.542896 
L 119.083047 -65.491981 
L 118.862783 -65.43641 
L 118.642519 -65.378856 
L 118.422256 -65.322345 
L 118.201992 -65.270066 
L 117.981728 -65.225166 
L 117.761465 -65.190551 
L 117.541201 -65.168705 
L 117.320937 -65.161543 
L 117.100674 -65.170301 
L 116.88041 -65.195494 
L 116.660146 -65.236909 
L 116.439883 -65.293664 
L 116.219619 -65.364308 
L 115.999355 -65.446946 
L 115.779092 -65.539401 
L 115.558828 -65.639363 
L 115.338564 -65.744543 
L 115.118301 -65.852796 
L 114.898037 -65.962223 
L 114.677773 -66.071227 
L 114.45751 -66.17854 
L 114.237246 -66.283212 
L 114.016982 -66.384579 
L 113.796719 -66.482207 
L 113.576455 -66.575836 
L 113.356191 -66.665321 
L 113.135928 -66.750585 
L 112.915664 -66.831594 
L 112.6954 -66.908347 
L 112.475137 -66.980877 
L 112.254873 -67.049282 
L 112.034609 -67.113743 
L 111.814346 -67.174564 
L 111.594082 -67.232182 
L 111.373818 -67.287185 
L 111.153555 -67.340294 
L 110.933291 -67.39234 
L 110.713027 -67.444214 
L 110.492764 -67.496811 
L 110.2725 -67.550965 
L 110.052236 -67.607384 
L 109.831973 -67.666597 
L 109.611709 -67.728915 
L 109.391445 -67.794417 
L 109.171182 -67.862953 
L 108.950918 -67.934177 
L 108.730654 -68.007595 
L 108.51039 -68.082626 
L 108.290127 -68.15868 
L 108.069863 -68.235215 
L 107.849599 -68.311808 
L 107.629336 -68.388194 
L 107.409072 -68.464295 
L 107.188808 -68.540227 
L 106.968545 -68.616288 
L 106.748281 -68.692925 
L 106.528017 -68.7707 
L 106.307754 -68.850241 
L 106.08749 -68.932198 
L 105.867226 -69.017198 
L 105.646963 -69.105816 
L 105.426699 -69.198551 
L 105.206435 -69.295806 
L 104.986172 -69.397891 
L 104.765908 -69.505013 
L 104.545644 -69.617291 
L 104.325381 -69.734752 
L 104.105117 -69.857349 
L 103.884853 -69.984962 
L 103.66459 -70.117412 
L 103.444326 -70.25448 
L 103.224062 -70.39592 
L 103.003799 -70.541492 
L 102.783535 -70.690991 
L 102.563271 -70.844285 
L 102.343008 -71.001352 
L 102.122744 -71.162312 
L 101.90248 -71.327452 
L 101.682217 -71.497236 
L 101.461953 -71.672295 
L 101.241689 -71.853402 
L 101.021426 -72.041418 
L 100.801162 -72.237231 
L 100.580898 -72.441675 
L 100.360635 -72.655449 
L 100.140371 -72.879034 
L 99.920107 -73.112631 
L 99.699844 -73.356105 
L 99.47958 -73.608959 
L 99.259316 -73.870338 
L 99.039053 -74.139047 
L 98.818789 -74.413602 
L 98.598525 -74.692297 
L 98.378262 -74.973279 
L 98.157998 -75.254636 
L 97.937734 -75.534488 
L 97.717471 -75.811063 
L 97.497207 -76.082784 
z
" style="stroke: #7d96b0; stroke-opacity: 0.5"/>
    </defs>
    <g clip-path="url(#pcab8480526)">
     <use xlink:href="#mb51534aba1" x="0" y="170.07874" style="fill: #7d96b0; fill-opacity: 0.5; stroke: #7d96b0; stroke-opacity: 0.5"/>
    </g>
   </g>
   <g id="matplotlib.axis_1">
    <g id="xtick_1">
     <g id="line2d_1">
      <defs>
       <path id="m3455a622bd" d="M 0 0 
L 0 3.5 
" style="stroke: #000000; stroke-width: 0.8"/>
      </defs>
      <g>
       <use xlink:href="#m3455a622bd" x="46.175772" y="128.914895" style="stroke: #000000; stroke-width: 0.8"/>
      </g>
     </g>
     <g id="text_1">
      <!-- −0.2 -->
      <g transform="translate(31.606085 145.03302) scale(0.12 -0.12)">
       <defs>
        <path id="DejaVuSans-2212" d="M 678 2272 
L 4684 2272 
L 4684 1741 
L 678 1741 
L 678 2272 
z
" transform="scale(0.015625)"/>
        <path id="DejaVuSans-30" d="M 2034 4250 
Q 1547 4250 1301 3770 
Q 1056 3291 1056 2328 
Q 1056 1369 1301 889 
Q 1547 409 2034 409 
Q 2525 409 2770 889 
Q 3016 1369 3016 2328 
Q 3016 3291 2770 3770 
Q 2525 4250 2034 4250 
z
M 2034 4750 
Q 2819 4750 3233 4129 
Q 3647 3509 3647 2328 
Q 3647 1150 3233 529 
Q 2819 -91 2034 -91 
Q 1250 -91 836 529 
Q 422 1150 422 2328 
Q 422 3509 836 4129 
Q 1250 4750 2034 4750 
z
" transform="scale(0.015625)"/>
        <path id="DejaVuSans-2e" d="M 684 794 
L 1344 794 
L 1344 0 
L 684 0 
L 684 794 
z
" transform="scale(0.015625)"/>
        <path id="DejaVuSans-32" d="M 1228 531 
L 3431 531 
L 3431 0 
L 469 0 
L 469 531 
Q 828 903 1448 1529 
Q 2069 2156 2228 2338 
Q 2531 2678 2651 2914 
Q 2772 3150 2772 3378 
Q 2772 3750 2511 3984 
Q 2250 4219 1831 4219 
Q 1534 4219 1204 4116 
Q 875 4013 500 3803 
L 500 4441 
Q 881 4594 1212 4672 
Q 1544 4750 1819 4750 
Q 2544 4750 2975 4387 
Q 3406 4025 3406 3419 
Q 3406 3131 3298 2873 
Q 3191 2616 2906 2266 
Q 2828 2175 2409 1742 
Q 1991 1309 1228 531 
z
" transform="scale(0.015625)"/>
       </defs>
       <use xlink:href="#DejaVuSans-2212"/>
       <use xlink:href="#DejaVuSans-30" x="83.789062"/>
       <use xlink:href="#DejaVuSans-2e" x="147.412109"/>
       <use xlink:href="#DejaVuSans-32" x="179.199219"/>
      </g>
     </g>
    </g>
    <g id="xtick_2">
     <g id="line2d_2">
      <g>
       <use xlink:href="#m3455a622bd" x="91.97226" y="128.914895" style="stroke: #000000; stroke-width: 0.8"/>
      </g>
     </g>
     <g id="text_2">
      <!-- 0.3 -->
      <g transform="translate(82.430385 145.03302) scale(0.12 -0.12)">
       <defs>
        <path id="DejaVuSans-33" d="M 2597 2516 
Q 3050 2419 3304 2112 
Q 3559 1806 3559 1356 
Q 3559 666 3084 287 
Q 2609 -91 1734 -91 
Q 1441 -91 1130 -33 
Q 819 25 488 141 
L 488 750 
Q 750 597 1062 519 
Q 1375 441 1716 441 
Q 2309 441 2620 675 
Q 2931 909 2931 1356 
Q 2931 1769 2642 2001 
Q 2353 2234 1838 2234 
L 1294 2234 
L 1294 2753 
L 1863 2753 
Q 2328 2753 2575 2939 
Q 2822 3125 2822 3475 
Q 2822 3834 2567 4026 
Q 2313 4219 1838 4219 
Q 1578 4219 1281 4162 
Q 984 4106 628 3988 
L 628 4550 
Q 988 4650 1302 4700 
Q 1616 4750 1894 4750 
Q 2613 4750 3031 4423 
Q 3450 4097 3450 3541 
Q 3450 3153 3228 2886 
Q 3006 2619 2597 2516 
z
" transform="scale(0.015625)"/>
       </defs>
       <use xlink:href="#DejaVuSans-30"/>
       <use xlink:href="#DejaVuSans-2e" x="63.623047"/>
       <use xlink:href="#DejaVuSans-33" x="95.410156"/>
      </g>
     </g>
    </g>
    <g id="xtick_3">
     <g id="line2d_3">
      <g>
       <use xlink:href="#m3455a622bd" x="137.768748" y="128.914895" style="stroke: #000000; stroke-width: 0.8"/>
      </g>
     </g>
     <g id="text_3">
      <!-- 0.8 -->
      <g transform="translate(128.226873 145.03302) scale(0.12 -0.12)">
       <defs>
        <path id="DejaVuSans-38" d="M 2034 2216 
Q 1584 2216 1326 1975 
Q 1069 1734 1069 1313 
Q 1069 891 1326 650 
Q 1584 409 2034 409 
Q 2484 409 2743 651 
Q 3003 894 3003 1313 
Q 3003 1734 2745 1975 
Q 2488 2216 2034 2216 
z
M 1403 2484 
Q 997 2584 770 2862 
Q 544 3141 544 3541 
Q 544 4100 942 4425 
Q 1341 4750 2034 4750 
Q 2731 4750 3128 4425 
Q 3525 4100 3525 3541 
Q 3525 3141 3298 2862 
Q 3072 2584 2669 2484 
Q 3125 2378 3379 2068 
Q 3634 1759 3634 1313 
Q 3634 634 3220 271 
Q 2806 -91 2034 -91 
Q 1263 -91 848 271 
Q 434 634 434 1313 
Q 434 1759 690 2068 
Q 947 2378 1403 2484 
z
M 1172 3481 
Q 1172 3119 1398 2916 
Q 1625 2713 2034 2713 
Q 2441 2713 2670 2916 
Q 2900 3119 2900 3481 
Q 2900 3844 2670 4047 
Q 2441 4250 2034 4250 
Q 1625 4250 1398 4047 
Q 1172 3844 1172 3481 
z
" transform="scale(0.015625)"/>
       </defs>
       <use xlink:href="#DejaVuSans-30"/>
       <use xlink:href="#DejaVuSans-2e" x="63.623047"/>
       <use xlink:href="#DejaVuSans-38" x="95.410156"/>
      </g>
     </g>
    </g>
   </g>
   <g id="matplotlib.axis_2">
    <g id="ytick_1">
     <g id="line2d_4">
      <defs>
       <path id="m97c1bab010" d="M 0 0 
L -3.5 0 
" style="stroke: #000000; stroke-width: 0.8"/>
      </defs>
      <g>
       <use xlink:href="#m97c1bab010" x="35.184615" y="114.386281" style="stroke: #000000; stroke-width: 0.8"/>
      </g>
     </g>
     <g id="text_4">
      <!-- 0 -->
      <g transform="translate(20.549615 118.945344) scale(0.12 -0.12)">
       <use xlink:href="#DejaVuSans-30"/>
      </g>
     </g>
    </g>
    <g id="ytick_2">
     <g id="line2d_5">
      <g>
       <use xlink:href="#m97c1bab010" x="35.184615" y="86.712731" style="stroke: #000000; stroke-width: 0.8"/>
      </g>
     </g>
     <g id="text_5">
      <!-- 1 -->
      <g transform="translate(20.549615 91.271793) scale(0.12 -0.12)">
       <defs>
        <path id="DejaVuSans-31" d="M 794 531 
L 1825 531 
L 1825 4091 
L 703 3866 
L 703 4441 
L 1819 4666 
L 2450 4666 
L 2450 531 
L 3481 531 
L 3481 0 
L 794 0 
L 794 531 
z
" transform="scale(0.015625)"/>
       </defs>
       <use xlink:href="#DejaVuSans-31"/>
      </g>
     </g>
    </g>
    <g id="ytick_3">
     <g id="line2d_6">
      <g>
       <use xlink:href="#m97c1bab010" x="35.184615" y="59.03918" style="stroke: #000000; stroke-width: 0.8"/>
      </g>
     </g>
     <g id="text_6">
      <!-- 2 -->
      <g transform="translate(20.549615 63.598242) scale(0.12 -0.12)">
       <use xlink:href="#DejaVuSans-32"/>
      </g>
     </g>
    </g>
    <g id="ytick_4">
     <g id="line2d_7">
      <g>
       <use xlink:href="#m97c1bab010" x="35.184615" y="31.365629" style="stroke: #000000; stroke-width: 0.8"/>
      </g>
     </g>
     <g id="text_7">
      <!-- 3 -->
      <g transform="translate(20.549615 35.924692) scale(0.12 -0.12)">
       <use xlink:href="#DejaVuSans-33"/>
      </g>
     </g>
    </g>
    <g id="text_8">
     <!-- PDF -->
     <g transform="translate(13.638053 79.594443) rotate(-90) scale(0.14 -0.14)">
      <defs>
       <path id="DejaVuSans-50" d="M 1259 4147 
L 1259 2394 
L 2053 2394 
Q 2494 2394 2734 2622 
Q 2975 2850 2975 3272 
Q 2975 3691 2734 3919 
Q 2494 4147 2053 4147 
L 1259 4147 
z
M 628 4666 
L 2053 4666 
Q 2838 4666 3239 4311 
Q 3641 3956 3641 3272 
Q 3641 2581 3239 2228 
Q 2838 1875 2053 1875 
L 1259 1875 
L 1259 0 
L 628 0 
L 628 4666 
z
" transform="scale(0.015625)"/>
       <path id="DejaVuSans-44" d="M 1259 4147 
L 1259 519 
L 2022 519 
Q 2988 519 3436 956 
Q 3884 1394 3884 2338 
Q 3884 3275 3436 3711 
Q 2988 4147 2022 4147 
L 1259 4147 
z
M 628 4666 
L 1925 4666 
Q 3281 4666 3915 4102 
Q 4550 3538 4550 2338 
Q 4550 1131 3912 565 
Q 3275 0 1925 0 
L 628 0 
L 628 4666 
z
" transform="scale(0.015625)"/>
       <path id="DejaVuSans-46" d="M 628 4666 
L 3309 4666 
L 3309 4134 
L 1259 4134 
L 1259 2759 
L 3109 2759 
L 3109 2228 
L 1259 2228 
L 1259 0 
L 628 0 
L 628 4666 
z
" transform="scale(0.015625)"/>
      </defs>
      <use xlink:href="#DejaVuSans-50"/>
      <use xlink:href="#DejaVuSans-44" x="60.302734"/>
      <use xlink:href="#DejaVuSans-46" x="137.304688"/>
     </g>
    </g>
   </g>
   <g id="line2d_8">
    <path d="M 46.175772 113.866232 
L 51.021573 113.175745 
L 52.343155 112.499268 
L 53.664737 111.574327 
L 54.545792 110.724428 
L 55.426846 109.513222 
L 56.307901 107.801635 
L 57.188956 105.513959 
L 58.07001 102.600059 
L 58.951065 98.981778 
L 60.052383 93.337644 
L 61.153702 86.387833 
L 62.25502 78.0963 
L 63.576602 66.372519 
L 65.999502 44.319022 
L 66.880557 38.240239 
L 67.761612 33.577982 
L 68.642666 30.126503 
L 69.523721 27.677403 
L 70.184512 26.469984 
L 70.625039 25.985302 
L 71.065567 25.772593 
L 71.506094 25.836715 
L 71.946621 26.169838 
L 72.387149 26.751942 
L 73.04794 28.033272 
L 73.928994 30.395577 
L 74.810049 33.495662 
L 75.691104 37.419264 
L 77.012686 44.557652 
L 78.554531 52.809484 
L 79.65585 57.522288 
L 80.757168 61.304807 
L 82.959805 67.795601 
L 86.26376 77.085881 
L 87.585342 80.078987 
L 88.68666 82.03304 
L 93.972988 90.164304 
L 95.074307 91.414779 
L 97.497207 93.995956 
L 100.580898 97.637065 
L 101.90248 98.751288 
L 103.66459 99.961328 
L 105.206435 100.782934 
L 107.188808 101.538513 
L 110.492764 102.581929 
L 112.915664 103.247146 
L 114.677773 104.007513 
L 116.439883 104.785076 
L 117.320937 104.917198 
L 118.201992 104.808674 
L 120.184365 104.412425 
L 121.505947 104.452731 
L 123.708584 104.704998 
L 124.589638 105.005465 
L 125.690957 105.615275 
L 127.67333 106.789503 
L 128.554384 107.05657 
L 129.435439 107.094787 
L 132.078603 106.988905 
L 134.721767 107.261008 
L 136.70414 107.370966 
L 139.567568 107.686768 
L 142.430996 107.778689 
L 143.532314 108.075311 
L 144.633632 108.602544 
L 146.395742 109.78228 
L 148.598378 111.191044 
L 152.122597 113.107547 
L 153.884706 113.844295 
L 155.206288 114.177715 
L 156.087343 114.294802 
L 156.087343 114.294802 
" clip-path="url(#pcab8480526)" style="fill: none; stroke: #1d1d1d; stroke-width: 2; stroke-linecap: square"/>
   </g>
   <g id="line2d_9">
    <path d="M 97.497207 114.386281 
L 97.497207 17.528854 
" clip-path="url(#pcab8480526)" style="fill: none; stroke-dasharray: 3.7,1.6; stroke-dashoffset: 0; stroke: #000000"/>
   </g>
   <g id="patch_53">
    <path d="M 35.184615 114.386281 
L 35.184615 17.528854 
" style="fill: none; stroke: #000000; stroke-width: 0.8; stroke-linejoin: miter; stroke-linecap: square"/>
   </g>
   <g id="patch_54">
    <path d="M 46.175772 128.914895 
L 156.087343 128.914895 
" style="fill: none; stroke: #000000; stroke-width: 0.8; stroke-linejoin: miter; stroke-linecap: square"/>
   </g>
  </g>
  <g id="text_9">
   <!-- Pearson r -->
   <g transform="translate(52.129526 164.166938) scale(0.14 -0.14)">
    <defs>
     <path id="DejaVuSans-65" d="M 3597 1894 
L 3597 1613 
L 953 1613 
Q 991 1019 1311 708 
Q 1631 397 2203 397 
Q 2534 397 2845 478 
Q 3156 559 3463 722 
L 3463 178 
Q 3153 47 2828 -22 
Q 2503 -91 2169 -91 
Q 1331 -91 842 396 
Q 353 884 353 1716 
Q 353 2575 817 3079 
Q 1281 3584 2069 3584 
Q 2775 3584 3186 3129 
Q 3597 2675 3597 1894 
z
M 3022 2063 
Q 3016 2534 2758 2815 
Q 2500 3097 2075 3097 
Q 1594 3097 1305 2825 
Q 1016 2553 972 2059 
L 3022 2063 
z
" transform="scale(0.015625)"/>
     <path id="DejaVuSans-61" d="M 2194 1759 
Q 1497 1759 1228 1600 
Q 959 1441 959 1056 
Q 959 750 1161 570 
Q 1363 391 1709 391 
Q 2188 391 2477 730 
Q 2766 1069 2766 1631 
L 2766 1759 
L 2194 1759 
z
M 3341 1997 
L 3341 0 
L 2766 0 
L 2766 531 
Q 2569 213 2275 61 
Q 1981 -91 1556 -91 
Q 1019 -91 701 211 
Q 384 513 384 1019 
Q 384 1609 779 1909 
Q 1175 2209 1959 2209 
L 2766 2209 
L 2766 2266 
Q 2766 2663 2505 2880 
Q 2244 3097 1772 3097 
Q 1472 3097 1187 3025 
Q 903 2953 641 2809 
L 641 3341 
Q 956 3463 1253 3523 
Q 1550 3584 1831 3584 
Q 2591 3584 2966 3190 
Q 3341 2797 3341 1997 
z
" transform="scale(0.015625)"/>
     <path id="DejaVuSans-72" d="M 2631 2963 
Q 2534 3019 2420 3045 
Q 2306 3072 2169 3072 
Q 1681 3072 1420 2755 
Q 1159 2438 1159 1844 
L 1159 0 
L 581 0 
L 581 3500 
L 1159 3500 
L 1159 2956 
Q 1341 3275 1631 3429 
Q 1922 3584 2338 3584 
Q 2397 3584 2469 3576 
Q 2541 3569 2628 3553 
L 2631 2963 
z
" transform="scale(0.015625)"/>
     <path id="DejaVuSans-73" d="M 2834 3397 
L 2834 2853 
Q 2591 2978 2328 3040 
Q 2066 3103 1784 3103 
Q 1356 3103 1142 2972 
Q 928 2841 928 2578 
Q 928 2378 1081 2264 
Q 1234 2150 1697 2047 
L 1894 2003 
Q 2506 1872 2764 1633 
Q 3022 1394 3022 966 
Q 3022 478 2636 193 
Q 2250 -91 1575 -91 
Q 1294 -91 989 -36 
Q 684 19 347 128 
L 347 722 
Q 666 556 975 473 
Q 1284 391 1588 391 
Q 1994 391 2212 530 
Q 2431 669 2431 922 
Q 2431 1156 2273 1281 
Q 2116 1406 1581 1522 
L 1381 1569 
Q 847 1681 609 1914 
Q 372 2147 372 2553 
Q 372 3047 722 3315 
Q 1072 3584 1716 3584 
Q 2034 3584 2315 3537 
Q 2597 3491 2834 3397 
z
" transform="scale(0.015625)"/>
     <path id="DejaVuSans-6f" d="M 1959 3097 
Q 1497 3097 1228 2736 
Q 959 2375 959 1747 
Q 959 1119 1226 758 
Q 1494 397 1959 397 
Q 2419 397 2687 759 
Q 2956 1122 2956 1747 
Q 2956 2369 2687 2733 
Q 2419 3097 1959 3097 
z
M 1959 3584 
Q 2709 3584 3137 3096 
Q 3566 2609 3566 1747 
Q 3566 888 3137 398 
Q 2709 -91 1959 -91 
Q 1206 -91 779 398 
Q 353 888 353 1747 
Q 353 2609 779 3096 
Q 1206 3584 1959 3584 
z
" transform="scale(0.015625)"/>
     <path id="DejaVuSans-6e" d="M 3513 2113 
L 3513 0 
L 2938 0 
L 2938 2094 
Q 2938 2591 2744 2837 
Q 2550 3084 2163 3084 
Q 1697 3084 1428 2787 
Q 1159 2491 1159 1978 
L 1159 0 
L 581 0 
L 581 3500 
L 1159 3500 
L 1159 2956 
Q 1366 3272 1645 3428 
Q 1925 3584 2291 3584 
Q 2894 3584 3203 3211 
Q 3513 2838 3513 2113 
z
" transform="scale(0.015625)"/>
     <path id="DejaVuSans-20" transform="scale(0.015625)"/>
    </defs>
    <use xlink:href="#DejaVuSans-50"/>
    <use xlink:href="#DejaVuSans-65" x="56.677734"/>
    <use xlink:href="#DejaVuSans-61" x="118.201172"/>
    <use xlink:href="#DejaVuSans-72" x="179.480469"/>
    <use xlink:href="#DejaVuSans-73" x="220.59375"/>
    <use xlink:href="#DejaVuSans-6f" x="272.693359"/>
    <use xlink:href="#DejaVuSans-6e" x="333.875"/>
    <use xlink:href="#DejaVuSans-20" x="397.253906"/>
    <use xlink:href="#DejaVuSans-72" x="429.041016"/>
   </g>
  </g>
 </g>
 <defs>
  <clipPath id="pcab8480526">
   <rect x="35.184615" y="3.00024" width="131.893885" height="125.914655"/>
  </clipPath>
 </defs>
</svg>
