<?xml version="1.0" encoding="utf-8" standalone="no"?>
<!DOCTYPE svg PUBLIC "-//W3C//DTD SVG 1.1//EN"
  "http://www.w3.org/Graphics/SVG/1.1/DTD/svg11.dtd">
<svg xmlns:xlink="http://www.w3.org/1999/xlink" width="566.64pt" height="339.84pt" viewBox="0 0 566.64 339.84" xmlns="http://www.w3.org/2000/svg" version="1.1">
 <metadata>
  <rdf:RDF xmlns:dc="http://purl.org/dc/elements/1.1/" xmlns:cc="http://creativecommons.org/ns#" xmlns:rdf="http://www.w3.org/1999/02/22-rdf-syntax-ns#">
   <cc:Work>
    <dc:type rdf:resource="http://purl.org/dc/dcmitype/StillImage"/>
    <dc:date>2022-11-23T23:34:23.563648</dc:date>
    <dc:format>image/svg+xml</dc:format>
    <dc:creator>
     <cc:Agent>
      <dc:title>Matplotlib v3.6.2, https://matplotlib.org/</dc:title>
     </cc:Agent>
    </dc:creator>
   </cc:Work>
  </rdf:RDF>
 </metadata>
 <defs>
  <style type="text/css">*{stroke-linejoin: round; stroke-linecap: butt}</style>
 </defs>
 <g id="figure_1">
  <g id="patch_1">
   <path d="M 0 339.84 
L 566.64 339.84 
L 566.64 0 
L 0 0 
z
" style="fill: #ffffff"/>
  </g>
  <g id="axes_1">
   <g id="patch_2">
    <path d="M 39.89497 144.73302 
L 563.63976 144.73302 
L 563.63976 23.638053 
L 39.89497 23.638053 
z
" style="fill: #ffffff"/>
   </g>
   <g id="matplotlib.axis_1">
    <g id="xtick_1">
     <g id="line2d_1">
      <defs>
       <path id="m8677e0aaa7" d="M 0 0 
L 0 3.5 
" style="stroke: #000000; stroke-width: 0.8"/>
      </defs>
      <g>
       <use xlink:href="#m8677e0aaa7" x="81.812739" y="144.73302" style="stroke: #000000; stroke-width: 0.8"/>
      </g>
     </g>
    </g>
    <g id="xtick_2">
     <g id="line2d_2">
      <g>
       <use xlink:href="#m8677e0aaa7" x="127.276696" y="144.73302" style="stroke: #000000; stroke-width: 0.8"/>
      </g>
     </g>
    </g>
    <g id="xtick_3">
     <g id="line2d_3">
      <g>
       <use xlink:href="#m8677e0aaa7" x="172.740654" y="144.73302" style="stroke: #000000; stroke-width: 0.8"/>
      </g>
     </g>
    </g>
    <g id="xtick_4">
     <g id="line2d_4">
      <g>
       <use xlink:href="#m8677e0aaa7" x="218.204611" y="144.73302" style="stroke: #000000; stroke-width: 0.8"/>
      </g>
     </g>
    </g>
    <g id="xtick_5">
     <g id="line2d_5">
      <g>
       <use xlink:href="#m8677e0aaa7" x="263.668569" y="144.73302" style="stroke: #000000; stroke-width: 0.8"/>
      </g>
     </g>
    </g>
    <g id="xtick_6">
     <g id="line2d_6">
      <g>
       <use xlink:href="#m8677e0aaa7" x="309.132526" y="144.73302" style="stroke: #000000; stroke-width: 0.8"/>
      </g>
     </g>
    </g>
    <g id="xtick_7">
     <g id="line2d_7">
      <g>
       <use xlink:href="#m8677e0aaa7" x="354.596484" y="144.73302" style="stroke: #000000; stroke-width: 0.8"/>
      </g>
     </g>
    </g>
    <g id="xtick_8">
     <g id="line2d_8">
      <g>
       <use xlink:href="#m8677e0aaa7" x="400.060441" y="144.73302" style="stroke: #000000; stroke-width: 0.8"/>
      </g>
     </g>
    </g>
    <g id="xtick_9">
     <g id="line2d_9">
      <g>
       <use xlink:href="#m8677e0aaa7" x="445.524399" y="144.73302" style="stroke: #000000; stroke-width: 0.8"/>
      </g>
     </g>
    </g>
    <g id="xtick_10">
     <g id="line2d_10">
      <g>
       <use xlink:href="#m8677e0aaa7" x="490.988356" y="144.73302" style="stroke: #000000; stroke-width: 0.8"/>
      </g>
     </g>
    </g>
   </g>
   <g id="matplotlib.axis_2">
    <g id="ytick_1">
     <g id="line2d_11">
      <defs>
       <path id="maeb97d0d11" d="M 0 0 
L -3.5 0 
" style="stroke: #000000; stroke-width: 0.8"/>
      </defs>
      <g>
       <use xlink:href="#maeb97d0d11" x="39.89497" y="130.760524" style="stroke: #000000; stroke-width: 0.8"/>
      </g>
     </g>
     <g id="text_1">
      <!-- 0 -->
      <g transform="translate(25.25997 135.319586) scale(0.12 -0.12)">
       <defs>
        <path id="DejaVuSans-30" d="M 2034 4250 
Q 1547 4250 1301 3770 
Q 1056 3291 1056 2328 
Q 1056 1369 1301 889 
Q 1547 409 2034 409 
Q 2525 409 2770 889 
Q 3016 1369 3016 2328 
Q 3016 3291 2770 3770 
Q 2525 4250 2034 4250 
z
M 2034 4750 
Q 2819 4750 3233 4129 
Q 3647 3509 3647 2328 
Q 3647 1150 3233 529 
Q 2819 -91 2034 -91 
Q 1250 -91 836 529 
Q 422 1150 422 2328 
Q 422 3509 836 4129 
Q 1250 4750 2034 4750 
z
" transform="scale(0.015625)"/>
       </defs>
       <use xlink:href="#DejaVuSans-30"/>
      </g>
     </g>
    </g>
    <g id="ytick_2">
     <g id="line2d_12">
      <g>
       <use xlink:href="#maeb97d0d11" x="39.89497" y="89.894428" style="stroke: #000000; stroke-width: 0.8"/>
      </g>
     </g>
     <g id="text_2">
      <!-- 2 -->
      <g transform="translate(25.25997 94.45349) scale(0.12 -0.12)">
       <defs>
        <path id="DejaVuSans-32" d="M 1228 531 
L 3431 531 
L 3431 0 
L 469 0 
L 469 531 
Q 828 903 1448 1529 
Q 2069 2156 2228 2338 
Q 2531 2678 2651 2914 
Q 2772 3150 2772 3378 
Q 2772 3750 2511 3984 
Q 2250 4219 1831 4219 
Q 1534 4219 1204 4116 
Q 875 4013 500 3803 
L 500 4441 
Q 881 4594 1212 4672 
Q 1544 4750 1819 4750 
Q 2544 4750 2975 4387 
Q 3406 4025 3406 3419 
Q 3406 3131 3298 2873 
Q 3191 2616 2906 2266 
Q 2828 2175 2409 1742 
Q 1991 1309 1228 531 
z
" transform="scale(0.015625)"/>
       </defs>
       <use xlink:href="#DejaVuSans-32"/>
      </g>
     </g>
    </g>
    <g id="ytick_3">
     <g id="line2d_13">
      <g>
       <use xlink:href="#maeb97d0d11" x="39.89497" y="49.028332" style="stroke: #000000; stroke-width: 0.8"/>
      </g>
     </g>
     <g id="text_3">
      <!-- 4 -->
      <g transform="translate(25.25997 53.587394) scale(0.12 -0.12)">
       <defs>
        <path id="DejaVuSans-34" d="M 2419 4116 
L 825 1625 
L 2419 1625 
L 2419 4116 
z
M 2253 4666 
L 3047 4666 
L 3047 1625 
L 3713 1625 
L 3713 1100 
L 3047 1100 
L 3047 0 
L 2419 0 
L 2419 1100 
L 313 1100 
L 313 1709 
L 2253 4666 
z
" transform="scale(0.015625)"/>
       </defs>
       <use xlink:href="#DejaVuSans-34"/>
      </g>
     </g>
    </g>
   </g>
   <g id="line2d_14">
    <path d="M 83.540369 122.807836 
L 87.177486 124.626243 
L 90.814602 126.634968 
L 94.451719 115.40897 
L 98.088836 105.758921 
L 101.725952 122.124733 
L 105.363069 126.025193 
L 109.000185 94.385848 
L 112.637302 88.152528 
L 116.274419 80.718088 
L 119.911535 81.164156 
L 123.548652 117.147957 
L 127.185768 123.69492 
L 130.822885 90.752254 
L 134.460002 81.418382 
L 138.097118 96.90701 
L 141.734235 99.718086 
L 145.371351 120.665955 
L 149.008468 124.290434 
L 152.645585 98.804089 
L 156.282701 88.71134 
L 159.919818 82.754926 
L 163.556934 77.183284 
L 167.194051 119.153889 
L 170.831167 123.799814 
L 174.468284 125.702828 
L 178.105401 127.115774 
L 181.742517 122.721685 
L 185.379634 121.702099 
L 189.01675 124.462339 
L 192.653867 126.832296 
L 196.290984 101.047374 
L 199.9281 87.170634 
L 203.565217 118.810234 
L 207.202333 125.519315 
L 210.83945 121.114573 
L 214.476567 120.519715 
L 218.113683 124.778586 
L 221.7508 125.911205 
L 225.387916 95.541398 
L 229.025033 82.730665 
L 232.66215 79.421192 
L 236.299266 85.850328 
L 239.936383 96.424208 
L 243.573499 102.173064 
L 247.210616 88.801338 
L 250.847733 89.949135 
L 254.484849 119.286967 
L 258.121966 121.799594 
L 261.759082 89.829648 
L 265.396199 86.345773 
L 269.033316 79.849759 
L 272.670432 83.509534 
L 276.307549 98.716305 
L 279.944665 107.104379 
L 283.581782 94.524528 
L 287.218899 81.839488 
L 290.856015 118.192908 
L 294.493132 124.93485 
L 298.130248 92.640651 
L 301.767365 82.710904 
L 305.404482 119.450072 
L 309.041598 124.459604 
L 312.678715 119.82665 
L 316.315831 121.875493 
L 319.952948 93.821231 
L 323.590065 72.61142 
L 327.227181 112.721143 
L 330.864298 122.365167 
L 334.501414 104.883417 
L 338.138531 100.590299 
L 341.775648 121.878711 
L 345.412764 123.477581 
L 349.049881 127.585575 
L 352.686997 129.403577 
L 356.324114 129.130564 
L 359.961231 127.959474 
L 363.598347 129.005593 
L 367.235464 124.917059 
L 370.87258 91.425658 
L 374.509697 86.193987 
L 378.146814 82.358144 
L 381.78393 87.948494 
L 385.421047 114.836765 
L 389.058163 122.818189 
L 392.69528 101.58924 
L 396.332397 94.457181 
L 399.969513 114.646412 
L 403.60663 119.076045 
L 407.243746 122.326784 
L 410.880863 126.174309 
L 414.51798 128.291241 
L 418.155096 128.036987 
L 421.792213 129.840275 
L 425.429329 128.818268 
L 429.066446 130.040115 
L 432.703562 130.464055 
L 436.340679 102.169914 
L 439.977796 84.664136 
L 443.614912 86.805196 
L 447.252029 85.666839 
L 450.889145 118.826469 
L 454.526262 124.790162 
L 458.163379 123.672291 
L 461.800495 127.136718 
L 465.437612 101.412234 
L 469.074728 86.278792 
L 472.711845 117.05096 
L 476.348962 122.465993 
L 479.986078 126.321988 
L 483.623195 129.040169 
L 487.260311 126.444825 
L 490.897428 126.696611 
L 494.534545 125.628118 
L 498.171661 123.868237 
L 501.808778 125.395442 
L 505.445894 130.760524 
L 509.083011 92.506869 
L 512.720128 87.226957 
L 516.357244 117.053098 
L 519.994361 123.726331 
" clip-path="url(#pc0faf3e07a)" style="fill: none; stroke: #1f77b4; stroke-opacity: 0.6; stroke-width: 1.5; stroke-linecap: square"/>
   </g>
   <g id="line2d_15">
    <path d="M 83.540369 124.572151 
L 87.177486 122.947931 
L 90.814602 125.24316 
L 94.451719 96.583139 
L 98.088836 77.917513 
L 101.725952 121.246542 
L 105.363069 125.911252 
L 109.000185 77.008739 
L 112.637302 75.078039 
L 116.274419 75.480785 
L 119.911535 81.669922 
L 123.548652 125.004207 
L 127.185768 128.141431 
L 130.822885 97.184561 
L 134.460002 97.12013 
L 138.097118 93.204584 
L 141.734235 102.909783 
L 145.371351 121.646303 
L 149.008468 117.208252 
L 152.645585 105.166319 
L 156.282701 98.488419 
L 159.919818 93.021045 
L 163.556934 98.033572 
L 167.194051 123.179887 
L 170.831167 129.489769 
L 174.468284 122.691261 
L 178.105401 128.350696 
L 181.742517 126.502513 
L 185.379634 128.09148 
L 189.01675 125.178879 
L 192.653867 130.127564 
L 196.290984 113.890893 
L 199.9281 100.06983 
L 203.565217 123.162988 
L 207.202333 126.836964 
L 210.83945 123.240195 
L 214.476567 117.705422 
L 218.113683 123.240682 
L 221.7508 130.082512 
L 225.387916 93.028532 
L 229.025033 91.055563 
L 232.66215 99.36937 
L 236.299266 102.454872 
L 239.936383 98.32627 
L 243.573499 94.518259 
L 247.210616 123.389357 
L 250.847733 122.75712 
L 254.484849 127.559825 
L 258.121966 123.786796 
L 261.759082 107.743496 
L 265.396199 103.719003 
L 269.033316 102.515478 
L 272.670432 94.983801 
L 276.307549 97.174361 
L 279.944665 88.261294 
L 283.581782 88.161758 
L 287.218899 100.009232 
L 290.856015 125.349073 
L 294.493132 127.626064 
L 298.130248 90.827849 
L 301.767365 98.416717 
L 305.404482 124.698255 
L 309.041598 125.771979 
L 312.678715 123.797951 
L 316.315831 124.564851 
L 319.952948 92.329362 
L 323.590065 90.626331 
L 327.227181 125.285688 
L 330.864298 129.393672 
L 334.501414 119.655101 
L 338.138531 122.081244 
L 341.775648 124.531858 
L 345.412764 127.211529 
L 349.049881 128.17577 
L 352.686997 125.349656 
L 356.324114 123.80861 
L 359.961231 126.521838 
L 363.598347 130.471008 
L 367.235464 126.902015 
L 370.87258 85.701073 
L 374.509697 95.220902 
L 378.146814 87.390131 
L 381.78393 97.672996 
L 385.421047 121.567133 
L 389.058163 123.920783 
L 392.69528 96.071487 
L 396.332397 94.105206 
L 399.969513 118.724738 
L 403.60663 109.095204 
L 407.243746 130.760524 
L 410.880863 125.32119 
L 414.51798 127.105002 
L 418.155096 126.063837 
L 421.792213 127.445152 
L 425.429329 129.877543 
L 429.066446 128.12656 
L 432.703562 124.149671 
L 436.340679 96.14343 
L 439.977796 89.798194 
L 443.614912 87.718925 
L 447.252029 90.591392 
L 450.889145 122.394714 
L 454.526262 124.662568 
L 458.163379 123.545188 
L 461.800495 126.995284 
L 465.437612 102.650815 
L 469.074728 83.866534 
L 472.711845 125.305073 
L 476.348962 126.41733 
L 479.986078 120.650137 
L 483.623195 124.571313 
L 487.260311 124.917027 
L 490.897428 123.466417 
L 494.534545 129.02006 
L 498.171661 122.6401 
L 501.808778 123.936165 
L 505.445894 124.243984 
L 509.083011 94.973402 
L 512.720128 90.123841 
L 516.357244 125.66139 
L 519.994361 121.718308 
" clip-path="url(#pc0faf3e07a)" style="fill: none; stroke: #ff7f0e; stroke-opacity: 0.6; stroke-width: 1.5; stroke-linecap: square"/>
   </g>
   <g id="line2d_16">
    <path d="M 83.540369 125.259683 
L 87.177486 124.630131 
L 90.814602 128.093198 
L 94.451719 92.168441 
L 98.088836 81.320582 
L 101.725952 118.759681 
L 105.363069 123.670029 
L 109.000185 100.044976 
L 112.637302 96.331711 
L 116.274419 92.932268 
L 119.911535 78.701151 
L 123.548652 125.938304 
L 127.185768 127.191371 
L 130.822885 81.829696 
L 134.460002 81.752125 
L 138.097118 89.697566 
L 141.734235 95.613218 
L 145.371351 120.002942 
L 149.008468 125.231741 
L 152.645585 100.14986 
L 156.282701 97.829572 
L 159.919818 92.196393 
L 163.556934 96.455461 
L 167.194051 124.238763 
L 170.831167 125.510513 
L 174.468284 126.215792 
L 178.105401 127.143323 
L 181.742517 125.571115 
L 185.379634 121.820509 
L 189.01675 124.132254 
L 192.653867 128.867525 
L 196.290984 82.128621 
L 199.9281 95.317969 
L 203.565217 118.177191 
L 207.202333 126.035771 
L 210.83945 113.382272 
L 214.476567 118.176627 
L 218.113683 127.100784 
L 221.7508 121.175052 
L 225.387916 109.815531 
L 229.025033 102.281879 
L 232.66215 99.350885 
L 236.299266 102.07562 
L 239.936383 113.223607 
L 243.573499 109.675756 
L 247.210616 93.850941 
L 250.847733 100.218867 
L 254.484849 124.91429 
L 258.121966 127.585325 
L 261.759082 94.361718 
L 265.396199 96.769026 
L 269.033316 97.068876 
L 272.670432 93.039473 
L 276.307549 117.848436 
L 279.944665 119.411142 
L 283.581782 110.133164 
L 287.218899 101.852147 
L 290.856015 126.554066 
L 294.493132 129.395608 
L 298.130248 115.461019 
L 301.767365 110.47217 
L 305.404482 127.61748 
L 309.041598 128.690384 
L 312.678715 126.678501 
L 316.315831 117.584899 
L 319.952948 101.323301 
L 323.590065 95.280789 
L 327.227181 123.62036 
L 330.864298 123.312393 
L 334.501414 110.988271 
L 338.138531 102.885595 
L 341.775648 126.299338 
L 345.412764 129.881332 
L 349.049881 130.760524 
L 352.686997 121.818762 
L 356.324114 123.718921 
L 359.961231 130.010277 
L 363.598347 124.723859 
L 367.235464 126.236742 
L 370.87258 90.795366 
L 374.509697 94.116638 
L 378.146814 92.099062 
L 381.78393 93.081064 
L 385.421047 121.233033 
L 389.058163 123.51866 
L 392.69528 99.909234 
L 396.332397 106.099747 
L 399.969513 121.263322 
L 403.60663 127.62408 
L 407.243746 126.464521 
L 410.880863 128.107162 
L 414.51798 124.130576 
L 418.155096 128.325781 
L 421.792213 129.00895 
L 425.429329 127.594325 
L 429.066446 121.583762 
L 432.703562 118.825183 
L 436.340679 81.397586 
L 439.977796 90.415521 
L 443.614912 85.609404 
L 447.252029 92.902742 
L 450.889145 120.875464 
L 454.526262 124.531788 
L 458.163379 127.329949 
L 461.800495 129.219575 
L 465.437612 76.898348 
L 469.074728 91.456666 
L 472.711845 126.520503 
L 476.348962 116.104172 
L 479.986078 123.157378 
L 483.623195 123.511155 
L 487.260311 129.244263 
L 490.897428 129.615985 
L 494.534545 125.449499 
L 498.171661 119.46057 
L 501.808778 124.773032 
L 505.445894 125.631888 
L 509.083011 93.988305 
L 512.720128 90.723749 
L 516.357244 125.504859 
L 519.994361 117.839756 
" clip-path="url(#pc0faf3e07a)" style="fill: none; stroke: #2ca02c; stroke-opacity: 0.6; stroke-width: 1.5; stroke-linecap: square"/>
   </g>
   <g id="line2d_17">
    <path d="M 83.540369 123.532234 
L 87.177486 128.724792 
L 90.814602 122.074373 
L 94.451719 114.7209 
L 98.088836 116.64606 
L 101.725952 127.113626 
L 105.363069 125.421895 
L 109.000185 96.513937 
L 112.637302 96.483478 
L 116.274419 65.808176 
L 119.911535 68.202245 
L 123.548652 123.593446 
L 127.185768 128.529587 
L 130.822885 94.047084 
L 134.460002 106.845473 
L 138.097118 101.845337 
L 141.734235 115.741384 
L 145.371351 127.49681 
L 149.008468 125.386095 
L 152.645585 72.193739 
L 156.282701 104.269549 
L 159.919818 75.659268 
L 163.556934 90.051053 
L 167.194051 124.038645 
L 170.831167 128.698973 
L 174.468284 129.264338 
L 178.105401 128.174078 
L 181.742517 127.594813 
L 185.379634 127.523876 
L 189.01675 120.107838 
L 192.653867 127.792455 
L 196.290984 104.555475 
L 199.9281 115.939996 
L 203.565217 125.117569 
L 207.202333 122.039659 
L 210.83945 126.229329 
L 214.476567 118.519201 
L 218.113683 116.097646 
L 221.7508 123.758158 
L 225.387916 84.754416 
L 229.025033 100.295765 
L 232.66215 89.360832 
L 236.299266 104.964876 
L 239.936383 96.594903 
L 243.573499 118.659756 
L 247.210616 109.102996 
L 250.847733 117.071775 
L 254.484849 125.800285 
L 258.121966 129.784971 
L 261.759082 101.299979 
L 265.396199 111.631266 
L 269.033316 87.231984 
L 272.670432 104.094971 
L 276.307549 109.002861 
L 279.944665 119.400754 
L 283.581782 68.126358 
L 287.218899 94.318121 
L 290.856015 127.071758 
L 294.493132 122.714626 
L 298.130248 81.40984 
L 301.767365 101.896681 
L 305.404482 126.219192 
L 309.041598 123.220383 
L 312.678715 121.403741 
L 316.315831 116.234794 
L 319.952948 79.635427 
L 323.590065 101.968718 
L 327.227181 125.337681 
L 330.864298 124.455276 
L 334.501414 112.615945 
L 338.138531 120.066083 
L 341.775648 130.760524 
L 345.412764 127.767823 
L 349.049881 124.75883 
L 352.686997 122.550941 
L 356.324114 118.308382 
L 359.961231 123.473716 
L 363.598347 121.6839 
L 367.235464 123.416939 
L 370.87258 85.282543 
L 374.509697 102.530448 
L 378.146814 93.692238 
L 381.78393 104.580613 
L 385.421047 125.970361 
L 389.058163 124.227649 
L 392.69528 103.560541 
L 396.332397 115.474724 
L 399.969513 113.75282 
L 403.60663 125.959405 
L 407.243746 122.8224 
L 410.880863 116.491321 
L 414.51798 123.485695 
L 418.155096 124.675315 
L 421.792213 127.190141 
L 425.429329 127.324532 
L 429.066446 125.537751 
L 432.703562 125.015855 
L 436.340679 81.140384 
L 439.977796 103.396793 
L 443.614912 86.066602 
L 447.252029 99.055416 
L 450.889145 121.760817 
L 454.526262 120.655175 
L 458.163379 124.764075 
L 461.800495 122.201321 
L 465.437612 100.536774 
L 469.074728 113.463314 
L 472.711845 127.599719 
L 476.348962 117.506008 
L 479.986078 122.037693 
L 483.623195 125.870107 
L 487.260311 128.265175 
L 490.897428 127.578243 
L 494.534545 128.016826 
L 498.171661 123.731248 
L 501.808778 118.716973 
L 505.445894 119.755817 
L 509.083011 98.298155 
L 512.720128 113.499812 
L 516.357244 123.151388 
L 519.994361 121.550245 
" clip-path="url(#pc0faf3e07a)" style="fill: none; stroke: #d62728; stroke-opacity: 0.6; stroke-width: 1.5; stroke-linecap: square"/>
   </g>
   <g id="line2d_18">
    <path d="M 83.540369 121.689929 
L 87.177486 116.376384 
L 90.814602 120.098182 
L 94.451719 77.976729 
L 98.088836 107.450222 
L 101.725952 123.457789 
L 105.363069 112.013667 
L 109.000185 37.610549 
L 112.637302 75.608652 
L 116.274419 73.710555 
L 119.911535 74.436322 
L 123.548652 123.197515 
L 127.185768 125.991974 
L 130.822885 82.441741 
L 134.460002 88.681239 
L 138.097118 88.540335 
L 141.734235 92.778967 
L 145.371351 124.264686 
L 149.008468 122.764507 
L 152.645585 77.999676 
L 156.282701 78.97551 
L 159.919818 79.863069 
L 163.556934 107.806676 
L 167.194051 123.486321 
L 170.831167 123.459955 
L 174.468284 119.519664 
L 178.105401 117.895533 
L 181.742517 126.419119 
L 185.379634 126.470435 
L 189.01675 122.712773 
L 192.653867 126.283361 
L 196.290984 97.539721 
L 199.9281 101.54608 
L 203.565217 121.721916 
L 207.202333 124.605621 
L 210.83945 109.575863 
L 214.476567 113.103277 
L 218.113683 126.5931 
L 221.7508 128.691034 
L 225.387916 59.709298 
L 229.025033 86.129632 
L 232.66215 74.156571 
L 236.299266 98.127972 
L 239.936383 113.104569 
L 243.573499 114.065992 
L 247.210616 78.853523 
L 250.847733 85.997032 
L 254.484849 122.527294 
L 258.121966 126.203417 
L 261.759082 81.118849 
L 265.396199 98.047035 
L 269.033316 82.256119 
L 272.670432 93.051315 
L 276.307549 112.384087 
L 279.944665 118.250616 
L 283.581782 88.172454 
L 287.218899 98.410007 
L 290.856015 129.875494 
L 294.493132 129.975147 
L 298.130248 83.453825 
L 301.767365 101.53512 
L 305.404482 127.746125 
L 309.041598 124.68127 
L 312.678715 127.138811 
L 316.315831 126.756682 
L 319.952948 74.677854 
L 323.590065 99.067649 
L 327.227181 129.419429 
L 330.864298 128.678998 
L 334.501414 110.938177 
L 338.138531 115.412856 
L 341.775648 121.376033 
L 345.412764 128.223974 
L 349.049881 128.02146 
L 352.686997 124.956151 
L 356.324114 128.462221 
L 359.961231 127.279096 
L 363.598347 130.760524 
L 367.235464 126.595744 
L 370.87258 81.684011 
L 374.509697 84.428077 
L 378.146814 74.730571 
L 381.78393 100.593226 
L 385.421047 125.390976 
L 389.058163 130.276574 
L 392.69528 88.01236 
L 396.332397 98.824463 
L 399.969513 123.076299 
L 403.60663 123.209721 
L 407.243746 125.988055 
L 410.880863 124.46992 
L 414.51798 127.513711 
L 418.155096 124.159427 
L 421.792213 118.486689 
L 425.429329 117.264196 
L 429.066446 115.647925 
L 432.703562 112.134765 
L 436.340679 73.659073 
L 439.977796 92.909518 
L 443.614912 84.634147 
L 447.252029 100.962949 
L 450.889145 126.948614 
L 454.526262 120.395056 
L 458.163379 120.35732 
L 461.800495 112.932726 
L 465.437612 87.548145 
L 469.074728 97.139666 
L 472.711845 130.037709 
L 476.348962 124.924941 
L 479.986078 122.663234 
L 483.623195 123.128034 
L 487.260311 116.265664 
L 490.897428 123.133994 
L 494.534545 129.453357 
L 498.171661 125.964518 
L 501.808778 125.869198 
L 505.445894 118.966566 
L 509.083011 66.830574 
L 512.720128 84.825801 
L 516.357244 123.543689 
L 519.994361 123.850092 
" clip-path="url(#pc0faf3e07a)" style="fill: none; stroke: #9467bd; stroke-opacity: 0.6; stroke-width: 1.5; stroke-linecap: square"/>
   </g>
   <g id="patch_3">
    <path d="M 39.89497 144.73302 
L 39.89497 23.638053 
" style="fill: none; stroke: #000000; stroke-width: 0.8; stroke-linejoin: miter; stroke-linecap: square"/>
   </g>
   <g id="patch_4">
    <path d="M 39.89497 144.73302 
L 563.63976 144.73302 
" style="fill: none; stroke: #000000; stroke-width: 0.8; stroke-linejoin: miter; stroke-linecap: square"/>
   </g>
   <g id="text_4">
    <!-- Clockwise -->
    <g transform="translate(39.89497 13.638053) scale(0.14 -0.14)">
     <defs>
      <path id="DejaVuSans-43" d="M 4122 4306 
L 4122 3641 
Q 3803 3938 3442 4084 
Q 3081 4231 2675 4231 
Q 1875 4231 1450 3742 
Q 1025 3253 1025 2328 
Q 1025 1406 1450 917 
Q 1875 428 2675 428 
Q 3081 428 3442 575 
Q 3803 722 4122 1019 
L 4122 359 
Q 3791 134 3420 21 
Q 3050 -91 2638 -91 
Q 1578 -91 968 557 
Q 359 1206 359 2328 
Q 359 3453 968 4101 
Q 1578 4750 2638 4750 
Q 3056 4750 3426 4639 
Q 3797 4528 4122 4306 
z
" transform="scale(0.015625)"/>
      <path id="DejaVuSans-6c" d="M 603 4863 
L 1178 4863 
L 1178 0 
L 603 0 
L 603 4863 
z
" transform="scale(0.015625)"/>
      <path id="DejaVuSans-6f" d="M 1959 3097 
Q 1497 3097 1228 2736 
Q 959 2375 959 1747 
Q 959 1119 1226 758 
Q 1494 397 1959 397 
Q 2419 397 2687 759 
Q 2956 1122 2956 1747 
Q 2956 2369 2687 2733 
Q 2419 3097 1959 3097 
z
M 1959 3584 
Q 2709 3584 3137 3096 
Q 3566 2609 3566 1747 
Q 3566 888 3137 398 
Q 2709 -91 1959 -91 
Q 1206 -91 779 398 
Q 353 888 353 1747 
Q 353 2609 779 3096 
Q 1206 3584 1959 3584 
z
" transform="scale(0.015625)"/>
      <path id="DejaVuSans-63" d="M 3122 3366 
L 3122 2828 
Q 2878 2963 2633 3030 
Q 2388 3097 2138 3097 
Q 1578 3097 1268 2742 
Q 959 2388 959 1747 
Q 959 1106 1268 751 
Q 1578 397 2138 397 
Q 2388 397 2633 464 
Q 2878 531 3122 666 
L 3122 134 
Q 2881 22 2623 -34 
Q 2366 -91 2075 -91 
Q 1284 -91 818 406 
Q 353 903 353 1747 
Q 353 2603 823 3093 
Q 1294 3584 2113 3584 
Q 2378 3584 2631 3529 
Q 2884 3475 3122 3366 
z
" transform="scale(0.015625)"/>
      <path id="DejaVuSans-6b" d="M 581 4863 
L 1159 4863 
L 1159 1991 
L 2875 3500 
L 3609 3500 
L 1753 1863 
L 3688 0 
L 2938 0 
L 1159 1709 
L 1159 0 
L 581 0 
L 581 4863 
z
" transform="scale(0.015625)"/>
      <path id="DejaVuSans-77" d="M 269 3500 
L 844 3500 
L 1563 769 
L 2278 3500 
L 2956 3500 
L 3675 769 
L 4391 3500 
L 4966 3500 
L 4050 0 
L 3372 0 
L 2619 2869 
L 1863 0 
L 1184 0 
L 269 3500 
z
" transform="scale(0.015625)"/>
      <path id="DejaVuSans-69" d="M 603 3500 
L 1178 3500 
L 1178 0 
L 603 0 
L 603 3500 
z
M 603 4863 
L 1178 4863 
L 1178 4134 
L 603 4134 
L 603 4863 
z
" transform="scale(0.015625)"/>
      <path id="DejaVuSans-73" d="M 2834 3397 
L 2834 2853 
Q 2591 2978 2328 3040 
Q 2066 3103 1784 3103 
Q 1356 3103 1142 2972 
Q 928 2841 928 2578 
Q 928 2378 1081 2264 
Q 1234 2150 1697 2047 
L 1894 2003 
Q 2506 1872 2764 1633 
Q 3022 1394 3022 966 
Q 3022 478 2636 193 
Q 2250 -91 1575 -91 
Q 1294 -91 989 -36 
Q 684 19 347 128 
L 347 722 
Q 666 556 975 473 
Q 1284 391 1588 391 
Q 1994 391 2212 530 
Q 2431 669 2431 922 
Q 2431 1156 2273 1281 
Q 2116 1406 1581 1522 
L 1381 1569 
Q 847 1681 609 1914 
Q 372 2147 372 2553 
Q 372 3047 722 3315 
Q 1072 3584 1716 3584 
Q 2034 3584 2315 3537 
Q 2597 3491 2834 3397 
z
" transform="scale(0.015625)"/>
      <path id="DejaVuSans-65" d="M 3597 1894 
L 3597 1613 
L 953 1613 
Q 991 1019 1311 708 
Q 1631 397 2203 397 
Q 2534 397 2845 478 
Q 3156 559 3463 722 
L 3463 178 
Q 3153 47 2828 -22 
Q 2503 -91 2169 -91 
Q 1331 -91 842 396 
Q 353 884 353 1716 
Q 353 2575 817 3079 
Q 1281 3584 2069 3584 
Q 2775 3584 3186 3129 
Q 3597 2675 3597 1894 
z
M 3022 2063 
Q 3016 2534 2758 2815 
Q 2500 3097 2075 3097 
Q 1594 3097 1305 2825 
Q 1016 2553 972 2059 
L 3022 2063 
z
" transform="scale(0.015625)"/>
     </defs>
     <use xlink:href="#DejaVuSans-43"/>
     <use xlink:href="#DejaVuSans-6c" x="69.824219"/>
     <use xlink:href="#DejaVuSans-6f" x="97.607422"/>
     <use xlink:href="#DejaVuSans-63" x="158.789062"/>
     <use xlink:href="#DejaVuSans-6b" x="213.769531"/>
     <use xlink:href="#DejaVuSans-77" x="271.679688"/>
     <use xlink:href="#DejaVuSans-69" x="353.466797"/>
     <use xlink:href="#DejaVuSans-73" x="381.25"/>
     <use xlink:href="#DejaVuSans-65" x="433.349609"/>
    </g>
   </g>
   <g id="line2d_19">
    <path d="M 83.540369 130.760524 
L 87.177486 130.760524 
L 90.814602 130.760524 
L 94.451719 110.327476 
L 98.088836 130.760524 
L 101.725952 130.760524 
L 105.363069 130.760524 
L 109.000185 110.327476 
L 112.637302 130.760524 
L 116.274419 110.327476 
L 119.911535 130.760524 
L 123.548652 130.760524 
L 127.185768 130.760524 
L 130.822885 110.327476 
L 134.460002 130.760524 
L 138.097118 110.327476 
L 141.734235 130.760524 
L 145.371351 130.760524 
L 149.008468 130.760524 
L 152.645585 110.327476 
L 156.282701 130.760524 
L 159.919818 110.327476 
L 163.556934 130.760524 
L 167.194051 130.760524 
L 170.831167 130.760524 
L 174.468284 130.760524 
L 178.105401 130.760524 
L 181.742517 110.327476 
L 185.379634 130.760524 
L 189.01675 130.760524 
L 192.653867 130.760524 
L 196.290984 110.327476 
L 199.9281 130.760524 
L 203.565217 130.760524 
L 207.202333 130.760524 
L 210.83945 110.327476 
L 214.476567 130.760524 
L 218.113683 130.760524 
L 221.7508 130.760524 
L 225.387916 110.327476 
L 229.025033 130.760524 
L 232.66215 110.327476 
L 236.299266 130.760524 
L 239.936383 110.327476 
L 243.573499 130.760524 
L 247.210616 110.327476 
L 250.847733 130.760524 
L 254.484849 130.760524 
L 258.121966 130.760524 
L 261.759082 110.327476 
L 265.396199 130.760524 
L 269.033316 110.327476 
L 272.670432 130.760524 
L 276.307549 110.327476 
L 279.944665 130.760524 
L 283.581782 110.327476 
L 287.218899 130.760524 
L 290.856015 130.760524 
L 294.493132 130.760524 
L 298.130248 110.327476 
L 301.767365 130.760524 
L 305.404482 130.760524 
L 309.041598 130.760524 
L 312.678715 110.327476 
L 316.315831 130.760524 
L 319.952948 110.327476 
L 323.590065 130.760524 
L 327.227181 110.327476 
L 330.864298 130.760524 
L 334.501414 110.327476 
L 338.138531 130.760524 
L 341.775648 130.760524 
L 345.412764 130.760524 
L 349.049881 130.760524 
L 352.686997 130.760524 
L 356.324114 130.760524 
L 359.961231 130.760524 
L 363.598347 130.760524 
L 367.235464 130.760524 
L 370.87258 110.327476 
L 374.509697 130.760524 
L 378.146814 110.327476 
L 381.78393 130.760524 
L 385.421047 130.760524 
L 389.058163 130.760524 
L 392.69528 110.327476 
L 396.332397 130.760524 
L 399.969513 110.327476 
L 403.60663 130.760524 
L 407.243746 130.760524 
L 410.880863 130.760524 
L 414.51798 130.760524 
L 418.155096 130.760524 
L 421.792213 130.760524 
L 425.429329 130.760524 
L 429.066446 130.760524 
L 432.703562 130.760524 
L 436.340679 110.327476 
L 439.977796 130.760524 
L 443.614912 110.327476 
L 447.252029 130.760524 
L 450.889145 130.760524 
L 454.526262 130.760524 
L 458.163379 130.760524 
L 461.800495 130.760524 
L 465.437612 110.327476 
L 469.074728 130.760524 
L 472.711845 130.760524 
L 476.348962 130.760524 
L 479.986078 130.760524 
L 483.623195 130.760524 
L 487.260311 130.760524 
L 490.897428 130.760524 
L 494.534545 110.327476 
L 498.171661 130.760524 
L 501.808778 130.760524 
L 505.445894 130.760524 
L 509.083011 110.327476 
L 512.720128 130.760524 
L 516.357244 130.760524 
L 519.994361 130.760524 
" clip-path="url(#pc0faf3e07a)" style="fill: none; stroke: #000000; stroke-linecap: square"/>
   </g>
  </g>
  <g id="axes_2">
   <g id="patch_5">
    <path d="M 39.89497 295.96628 
L 563.63976 295.96628 
L 563.63976 174.871313 
L 39.89497 174.871313 
z
" style="fill: #ffffff"/>
   </g>
   <g id="matplotlib.axis_3">
    <g id="xtick_11">
     <g id="line2d_20">
      <g>
       <use xlink:href="#m8677e0aaa7" x="81.812739" y="295.96628" style="stroke: #000000; stroke-width: 0.8"/>
      </g>
     </g>
     <g id="text_5">
      <!-- 0 -->
      <g transform="translate(77.995239 312.084405) scale(0.12 -0.12)">
       <use xlink:href="#DejaVuSans-30"/>
      </g>
     </g>
    </g>
    <g id="xtick_12">
     <g id="line2d_21">
      <g>
       <use xlink:href="#m8677e0aaa7" x="127.276696" y="295.96628" style="stroke: #000000; stroke-width: 0.8"/>
      </g>
     </g>
     <g id="text_6">
      <!-- 50 -->
      <g transform="translate(119.641696 312.084405) scale(0.12 -0.12)">
       <defs>
        <path id="DejaVuSans-35" d="M 691 4666 
L 3169 4666 
L 3169 4134 
L 1269 4134 
L 1269 2991 
Q 1406 3038 1543 3061 
Q 1681 3084 1819 3084 
Q 2600 3084 3056 2656 
Q 3513 2228 3513 1497 
Q 3513 744 3044 326 
Q 2575 -91 1722 -91 
Q 1428 -91 1123 -41 
Q 819 9 494 109 
L 494 744 
Q 775 591 1075 516 
Q 1375 441 1709 441 
Q 2250 441 2565 725 
Q 2881 1009 2881 1497 
Q 2881 1984 2565 2268 
Q 2250 2553 1709 2553 
Q 1456 2553 1204 2497 
Q 953 2441 691 2322 
L 691 4666 
z
" transform="scale(0.015625)"/>
       </defs>
       <use xlink:href="#DejaVuSans-35"/>
       <use xlink:href="#DejaVuSans-30" x="63.623047"/>
      </g>
     </g>
    </g>
    <g id="xtick_13">
     <g id="line2d_22">
      <g>
       <use xlink:href="#m8677e0aaa7" x="172.740654" y="295.96628" style="stroke: #000000; stroke-width: 0.8"/>
      </g>
     </g>
     <g id="text_7">
      <!-- 100 -->
      <g transform="translate(161.288154 312.084405) scale(0.12 -0.12)">
       <defs>
        <path id="DejaVuSans-31" d="M 794 531 
L 1825 531 
L 1825 4091 
L 703 3866 
L 703 4441 
L 1819 4666 
L 2450 4666 
L 2450 531 
L 3481 531 
L 3481 0 
L 794 0 
L 794 531 
z
" transform="scale(0.015625)"/>
       </defs>
       <use xlink:href="#DejaVuSans-31"/>
       <use xlink:href="#DejaVuSans-30" x="63.623047"/>
       <use xlink:href="#DejaVuSans-30" x="127.246094"/>
      </g>
     </g>
    </g>
    <g id="xtick_14">
     <g id="line2d_23">
      <g>
       <use xlink:href="#m8677e0aaa7" x="218.204611" y="295.96628" style="stroke: #000000; stroke-width: 0.8"/>
      </g>
     </g>
     <g id="text_8">
      <!-- 150 -->
      <g transform="translate(206.752111 312.084405) scale(0.12 -0.12)">
       <use xlink:href="#DejaVuSans-31"/>
       <use xlink:href="#DejaVuSans-35" x="63.623047"/>
       <use xlink:href="#DejaVuSans-30" x="127.246094"/>
      </g>
     </g>
    </g>
    <g id="xtick_15">
     <g id="line2d_24">
      <g>
       <use xlink:href="#m8677e0aaa7" x="263.668569" y="295.96628" style="stroke: #000000; stroke-width: 0.8"/>
      </g>
     </g>
     <g id="text_9">
      <!-- 200 -->
      <g transform="translate(252.216069 312.084405) scale(0.12 -0.12)">
       <use xlink:href="#DejaVuSans-32"/>
       <use xlink:href="#DejaVuSans-30" x="63.623047"/>
       <use xlink:href="#DejaVuSans-30" x="127.246094"/>
      </g>
     </g>
    </g>
    <g id="xtick_16">
     <g id="line2d_25">
      <g>
       <use xlink:href="#m8677e0aaa7" x="309.132526" y="295.96628" style="stroke: #000000; stroke-width: 0.8"/>
      </g>
     </g>
     <g id="text_10">
      <!-- 250 -->
      <g transform="translate(297.680026 312.084405) scale(0.12 -0.12)">
       <use xlink:href="#DejaVuSans-32"/>
       <use xlink:href="#DejaVuSans-35" x="63.623047"/>
       <use xlink:href="#DejaVuSans-30" x="127.246094"/>
      </g>
     </g>
    </g>
    <g id="xtick_17">
     <g id="line2d_26">
      <g>
       <use xlink:href="#m8677e0aaa7" x="354.596484" y="295.96628" style="stroke: #000000; stroke-width: 0.8"/>
      </g>
     </g>
     <g id="text_11">
      <!-- 300 -->
      <g transform="translate(343.143984 312.084405) scale(0.12 -0.12)">
       <defs>
        <path id="DejaVuSans-33" d="M 2597 2516 
Q 3050 2419 3304 2112 
Q 3559 1806 3559 1356 
Q 3559 666 3084 287 
Q 2609 -91 1734 -91 
Q 1441 -91 1130 -33 
Q 819 25 488 141 
L 488 750 
Q 750 597 1062 519 
Q 1375 441 1716 441 
Q 2309 441 2620 675 
Q 2931 909 2931 1356 
Q 2931 1769 2642 2001 
Q 2353 2234 1838 2234 
L 1294 2234 
L 1294 2753 
L 1863 2753 
Q 2328 2753 2575 2939 
Q 2822 3125 2822 3475 
Q 2822 3834 2567 4026 
Q 2313 4219 1838 4219 
Q 1578 4219 1281 4162 
Q 984 4106 628 3988 
L 628 4550 
Q 988 4650 1302 4700 
Q 1616 4750 1894 4750 
Q 2613 4750 3031 4423 
Q 3450 4097 3450 3541 
Q 3450 3153 3228 2886 
Q 3006 2619 2597 2516 
z
" transform="scale(0.015625)"/>
       </defs>
       <use xlink:href="#DejaVuSans-33"/>
       <use xlink:href="#DejaVuSans-30" x="63.623047"/>
       <use xlink:href="#DejaVuSans-30" x="127.246094"/>
      </g>
     </g>
    </g>
    <g id="xtick_18">
     <g id="line2d_27">
      <g>
       <use xlink:href="#m8677e0aaa7" x="400.060441" y="295.96628" style="stroke: #000000; stroke-width: 0.8"/>
      </g>
     </g>
     <g id="text_12">
      <!-- 350 -->
      <g transform="translate(388.607941 312.084405) scale(0.12 -0.12)">
       <use xlink:href="#DejaVuSans-33"/>
       <use xlink:href="#DejaVuSans-35" x="63.623047"/>
       <use xlink:href="#DejaVuSans-30" x="127.246094"/>
      </g>
     </g>
    </g>
    <g id="xtick_19">
     <g id="line2d_28">
      <g>
       <use xlink:href="#m8677e0aaa7" x="445.524399" y="295.96628" style="stroke: #000000; stroke-width: 0.8"/>
      </g>
     </g>
     <g id="text_13">
      <!-- 400 -->
      <g transform="translate(434.071899 312.084405) scale(0.12 -0.12)">
       <use xlink:href="#DejaVuSans-34"/>
       <use xlink:href="#DejaVuSans-30" x="63.623047"/>
       <use xlink:href="#DejaVuSans-30" x="127.246094"/>
      </g>
     </g>
    </g>
    <g id="xtick_20">
     <g id="line2d_29">
      <g>
       <use xlink:href="#m8677e0aaa7" x="490.988356" y="295.96628" style="stroke: #000000; stroke-width: 0.8"/>
      </g>
     </g>
     <g id="text_14">
      <!-- 450 -->
      <g transform="translate(479.535856 312.084405) scale(0.12 -0.12)">
       <use xlink:href="#DejaVuSans-34"/>
       <use xlink:href="#DejaVuSans-35" x="63.623047"/>
       <use xlink:href="#DejaVuSans-30" x="127.246094"/>
      </g>
     </g>
    </g>
   </g>
   <g id="matplotlib.axis_4">
    <g id="ytick_4">
     <g id="line2d_30">
      <g>
       <use xlink:href="#maeb97d0d11" x="39.89497" y="281.993784" style="stroke: #000000; stroke-width: 0.8"/>
      </g>
     </g>
     <g id="text_15">
      <!-- 0 -->
      <g transform="translate(25.25997 286.552846) scale(0.12 -0.12)">
       <use xlink:href="#DejaVuSans-30"/>
      </g>
     </g>
    </g>
    <g id="ytick_5">
     <g id="line2d_31">
      <g>
       <use xlink:href="#maeb97d0d11" x="39.89497" y="241.127688" style="stroke: #000000; stroke-width: 0.8"/>
      </g>
     </g>
     <g id="text_16">
      <!-- 2 -->
      <g transform="translate(25.25997 245.68675) scale(0.12 -0.12)">
       <use xlink:href="#DejaVuSans-32"/>
      </g>
     </g>
    </g>
    <g id="ytick_6">
     <g id="line2d_32">
      <g>
       <use xlink:href="#maeb97d0d11" x="39.89497" y="200.261592" style="stroke: #000000; stroke-width: 0.8"/>
      </g>
     </g>
     <g id="text_17">
      <!-- 4 -->
      <g transform="translate(25.25997 204.820654) scale(0.12 -0.12)">
       <use xlink:href="#DejaVuSans-34"/>
      </g>
     </g>
    </g>
   </g>
   <g id="line2d_33">
    <path d="M 83.540369 278.702168 
L 87.177486 277.735855 
L 90.814602 273.198614 
L 94.451719 276.537646 
L 98.088836 278.594364 
L 101.725952 246.339286 
L 105.363069 237.443635 
L 109.000185 272.699425 
L 112.637302 278.605341 
L 116.274419 277.702124 
L 119.911535 277.745998 
L 123.548652 249.71039 
L 127.185768 252.763031 
L 130.822885 274.359946 
L 134.460002 278.283169 
L 138.097118 278.797572 
L 141.734235 279.501101 
L 145.371351 252.382583 
L 149.008468 259.39345 
L 152.645585 278.24856 
L 156.282701 278.344013 
L 159.919818 278.295219 
L 163.556934 277.641733 
L 167.194051 256.297177 
L 170.831167 242.445637 
L 174.468284 249.899962 
L 178.105401 255.869724 
L 181.742517 276.619046 
L 185.379634 277.279027 
L 189.01675 259.806436 
L 192.653867 250.671131 
L 196.290984 272.630049 
L 199.9281 279.377898 
L 203.565217 257.700103 
L 207.202333 255.400144 
L 210.83945 276.99046 
L 214.476567 277.609779 
L 218.113683 270.180378 
L 221.7508 266.875635 
L 225.387916 278.627239 
L 229.025033 279.775277 
L 232.66215 279.966462 
L 236.299266 278.395118 
L 239.936383 279.864878 
L 243.573499 279.477364 
L 247.210616 280.366108 
L 250.847733 280.521015 
L 254.484849 275.494701 
L 258.121966 272.989453 
L 261.759082 276.912538 
L 265.396199 278.612813 
L 269.033316 280.000719 
L 272.670432 279.664292 
L 276.307549 279.190934 
L 279.944665 279.46714 
L 283.581782 279.784512 
L 287.218899 280.110734 
L 290.856015 245.714643 
L 294.493132 243.639376 
L 298.130248 275.477642 
L 301.767365 280.046818 
L 305.404482 259.624077 
L 309.041598 254.331653 
L 312.678715 278.700487 
L 316.315831 279.485833 
L 319.952948 278.634157 
L 323.590065 281.212178 
L 327.227181 279.741311 
L 330.864298 278.576794 
L 334.501414 279.229927 
L 338.138531 277.565367 
L 341.775648 248.499279 
L 345.412764 241.884038 
L 349.049881 250.463929 
L 352.686997 251.803868 
L 356.324114 239.112924 
L 359.961231 240.499683 
L 363.598347 277.313146 
L 367.235464 278.379276 
L 370.87258 279.142102 
L 374.509697 277.760509 
L 378.146814 279.211916 
L 381.78393 280.787536 
L 385.421047 276.491486 
L 389.058163 274.77068 
L 392.69528 279.01765 
L 396.332397 278.301122 
L 399.969513 280.717596 
L 403.60663 278.880531 
L 407.243746 280.055738 
L 410.880863 277.238389 
L 414.51798 243.641192 
L 418.155096 234.259019 
L 421.792213 243.607501 
L 425.429329 237.691457 
L 429.066446 237.762127 
L 432.703562 230.527401 
L 436.340679 273.054531 
L 439.977796 280.23044 
L 443.614912 281.993784 
L 447.252029 278.77905 
L 450.889145 251.684206 
L 454.526262 243.463519 
L 458.163379 242.690974 
L 461.800495 230.958693 
L 465.437612 277.997372 
L 469.074728 279.023741 
L 472.711845 265.442073 
L 476.348962 253.780274 
L 479.986078 251.692419 
L 483.623195 241.602078 
L 487.260311 241.197859 
L 490.897428 249.529351 
L 494.534545 274.638613 
L 498.171661 279.195403 
L 501.808778 267.938218 
L 505.445894 254.800395 
L 509.083011 277.775226 
L 512.720128 279.513895 
L 516.357244 260.973814 
L 519.994361 258.201279 
" clip-path="url(#p77589ecebc)" style="fill: none; stroke: #1f77b4; stroke-opacity: 0.6; stroke-width: 1.5; stroke-linecap: square"/>
   </g>
   <g id="line2d_34">
    <path d="M 83.540369 270.963375 
L 87.177486 262.061585 
L 90.814602 265.305578 
L 94.451719 271.033424 
L 98.088836 276.530686 
L 101.725952 215.449336 
L 105.363069 244.291144 
L 109.000185 275.66047 
L 112.637302 270.778822 
L 116.274419 273.908026 
L 119.911535 276.593135 
L 123.548652 244.837118 
L 127.185768 254.329123 
L 130.822885 275.013101 
L 134.460002 270.959175 
L 138.097118 278.756059 
L 141.734235 271.951038 
L 145.371351 239.268079 
L 149.008468 260.558602 
L 152.645585 273.918455 
L 156.282701 272.624019 
L 159.919818 276.041417 
L 163.556934 272.226927 
L 167.194051 225.870353 
L 170.831167 252.654427 
L 174.468284 255.966221 
L 178.105401 261.187452 
L 181.742517 275.503903 
L 185.379634 274.935011 
L 189.01675 231.583165 
L 192.653867 253.892244 
L 196.290984 272.272011 
L 199.9281 274.891325 
L 203.565217 239.308245 
L 207.202333 256.398211 
L 210.83945 275.185 
L 214.476567 275.848275 
L 218.113683 253.890796 
L 221.7508 257.819769 
L 225.387916 275.344149 
L 229.025033 272.341922 
L 232.66215 275.763184 
L 236.299266 277.127487 
L 239.936383 278.551833 
L 243.573499 274.621047 
L 247.210616 277.720495 
L 250.847733 275.390015 
L 254.484849 260.65769 
L 258.121966 268.344081 
L 261.759082 274.819112 
L 265.396199 271.684175 
L 269.033316 271.148784 
L 272.670432 271.804393 
L 276.307549 276.024067 
L 279.944665 274.586143 
L 283.581782 280.227448 
L 287.218899 275.318172 
L 290.856015 250.981839 
L 294.493132 257.918245 
L 298.130248 276.704504 
L 301.767365 275.42092 
L 305.404482 237.6019 
L 309.041598 256.26209 
L 312.678715 275.446031 
L 316.315831 267.09664 
L 319.952948 275.216594 
L 323.590065 278.469609 
L 327.227181 279.101587 
L 330.864298 275.593921 
L 334.501414 273.627852 
L 338.138531 279.587784 
L 341.775648 237.202649 
L 345.412764 259.475516 
L 349.049881 259.491837 
L 352.686997 265.188676 
L 356.324114 214.817971 
L 359.961231 250.83124 
L 363.598347 277.564218 
L 367.235464 274.466311 
L 370.87258 276.580525 
L 374.509697 277.781548 
L 378.146814 275.734527 
L 381.78393 277.580837 
L 385.421047 274.81986 
L 389.058163 277.858215 
L 392.69528 277.764401 
L 396.332397 276.498907 
L 399.969513 276.372103 
L 403.60663 276.780943 
L 407.243746 279.30465 
L 410.880863 274.867702 
L 414.51798 235.53773 
L 418.155096 256.592321 
L 421.792213 237.814756 
L 425.429329 252.821348 
L 429.066446 215.756801 
L 432.703562 239.715309 
L 436.340679 271.298804 
L 439.977796 277.064557 
L 443.614912 278.057142 
L 447.252029 273.617852 
L 450.889145 227.291909 
L 454.526262 251.831699 
L 458.163379 214.014483 
L 461.800495 247.034096 
L 465.437612 275.367902 
L 469.074728 277.932542 
L 472.711845 274.445421 
L 476.348962 275.193081 
L 479.986078 227.548914 
L 483.623195 254.446332 
L 487.260311 241.077225 
L 490.897428 256.285857 
L 494.534545 278.460357 
L 498.171661 274.676209 
L 501.808778 216.135783 
L 505.445894 255.317543 
L 509.083011 281.993784 
L 512.720128 276.923184 
L 516.357244 264.242355 
L 519.994361 269.730907 
" clip-path="url(#p77589ecebc)" style="fill: none; stroke: #ff7f0e; stroke-opacity: 0.6; stroke-width: 1.5; stroke-linecap: square"/>
   </g>
   <g id="line2d_35">
    <path d="M 83.540369 280.094652 
L 87.177486 249.089489 
L 90.814602 232.387113 
L 94.451719 274.692534 
L 98.088836 275.042482 
L 101.725952 245.963901 
L 105.363069 224.766406 
L 109.000185 276.873093 
L 112.637302 276.574185 
L 116.274419 281.002597 
L 119.911535 279.962727 
L 123.548652 236.133904 
L 127.185768 224.17902 
L 130.822885 271.248118 
L 134.460002 273.003992 
L 138.097118 279.457054 
L 141.734235 278.49392 
L 145.371351 244.164922 
L 149.008468 241.684092 
L 152.645585 274.1953 
L 156.282701 276.305321 
L 159.919818 279.438287 
L 163.556934 277.76621 
L 167.194051 249.317577 
L 170.831167 237.718129 
L 174.468284 222.932025 
L 178.105401 225.574548 
L 181.742517 271.729714 
L 185.379634 276.698206 
L 189.01675 257.911609 
L 192.653867 256.601054 
L 196.290984 275.22045 
L 199.9281 281.993784 
L 203.565217 252.108138 
L 207.202333 241.999986 
L 210.83945 272.158767 
L 214.476567 279.571725 
L 218.113683 266.306432 
L 221.7508 266.375076 
L 225.387916 277.883987 
L 229.025033 277.669508 
L 232.66215 279.211332 
L 236.299266 279.388766 
L 239.936383 280.753536 
L 243.573499 281.646347 
L 247.210616 278.003581 
L 250.847733 277.539678 
L 254.484849 261.366441 
L 258.121966 240.708555 
L 261.759082 273.892973 
L 265.396199 277.665446 
L 269.033316 275.39725 
L 272.670432 277.361363 
L 276.307549 277.990305 
L 279.944665 276.981255 
L 283.581782 281.342887 
L 287.218899 279.007847 
L 290.856015 253.873549 
L 294.493132 247.978252 
L 298.130248 272.249974 
L 301.767365 280.612401 
L 305.404482 254.810289 
L 309.041598 239.405252 
L 312.678715 276.57896 
L 316.315831 276.171978 
L 319.952948 277.252481 
L 323.590065 280.461443 
L 327.227181 276.881518 
L 330.864298 276.199825 
L 334.501414 279.759657 
L 338.138531 275.83945 
L 341.775648 246.779515 
L 345.412764 233.008882 
L 349.049881 234.526054 
L 352.686997 234.250735 
L 356.324114 251.636209 
L 359.961231 245.340429 
L 363.598347 274.588214 
L 367.235464 278.94138 
L 370.87258 276.92416 
L 374.509697 281.260892 
L 378.146814 279.303883 
L 381.78393 279.379934 
L 385.421047 272.696067 
L 389.058163 261.362565 
L 392.69528 271.967805 
L 396.332397 280.481899 
L 399.969513 276.223301 
L 403.60663 281.265443 
L 407.243746 278.132743 
L 410.880863 279.651401 
L 414.51798 256.821351 
L 418.155096 237.410207 
L 421.792213 229.459689 
L 425.429329 229.803674 
L 429.066446 247.324308 
L 432.703562 232.708686 
L 436.340679 271.503057 
L 439.977796 280.148992 
L 443.614912 281.050986 
L 447.252029 279.302555 
L 450.889145 260.098896 
L 454.526262 247.896331 
L 458.163379 239.336747 
L 461.800495 219.52537 
L 465.437612 270.847925 
L 469.074728 277.423061 
L 472.711845 267.903968 
L 476.348962 262.730629 
L 479.986078 258.15412 
L 483.623195 253.594413 
L 487.260311 249.173585 
L 490.897428 254.441192 
L 494.534545 274.114392 
L 498.171661 277.939707 
L 501.808778 264.864639 
L 505.445894 242.547825 
L 509.083011 276.706111 
L 512.720128 276.117775 
L 516.357244 238.414381 
L 519.994361 226.677216 
" clip-path="url(#p77589ecebc)" style="fill: none; stroke: #2ca02c; stroke-opacity: 0.6; stroke-width: 1.5; stroke-linecap: square"/>
   </g>
   <g id="line2d_36">
    <path d="M 83.540369 271.052545 
L 87.177486 268.016979 
L 90.814602 271.715892 
L 94.451719 271.012904 
L 98.088836 273.948966 
L 101.725952 227.397485 
L 105.363069 245.978665 
L 109.000185 274.771566 
L 112.637302 273.302909 
L 116.274419 268.637055 
L 119.911535 276.517123 
L 123.548652 256.147464 
L 127.185768 257.495182 
L 130.822885 272.576431 
L 134.460002 274.581377 
L 138.097118 273.120684 
L 141.734235 276.921727 
L 145.371351 250.209596 
L 149.008468 255.270018 
L 152.645585 268.038202 
L 156.282701 273.744731 
L 159.919818 274.05122 
L 163.556934 272.086186 
L 167.194051 206.80675 
L 170.831167 248.622879 
L 174.468284 247.952983 
L 178.105401 256.004464 
L 181.742517 271.594358 
L 185.379634 269.725167 
L 189.01675 214.405863 
L 192.653867 251.017316 
L 196.290984 276.955748 
L 199.9281 277.048366 
L 203.565217 235.687364 
L 207.202333 255.036356 
L 210.83945 275.312508 
L 214.476567 272.195625 
L 218.113683 252.666415 
L 221.7508 265.42854 
L 225.387916 272.238677 
L 229.025033 277.324433 
L 232.66215 272.888202 
L 236.299266 273.376977 
L 239.936383 272.777154 
L 243.573499 274.879005 
L 247.210616 276.344967 
L 250.847733 280.09206 
L 254.484849 267.594855 
L 258.121966 273.251515 
L 261.759082 275.68256 
L 265.396199 276.548145 
L 269.033316 270.826423 
L 272.670432 273.532762 
L 276.307549 275.049174 
L 279.944665 272.473064 
L 283.581782 269.195076 
L 287.218899 270.651327 
L 290.856015 256.27987 
L 294.493132 263.420021 
L 298.130248 277.224048 
L 301.767365 281.993784 
L 305.404482 250.008293 
L 309.041598 261.182726 
L 312.678715 267.034703 
L 316.315831 268.903762 
L 319.952948 272.705684 
L 323.590065 279.608273 
L 327.227181 275.496755 
L 330.864298 274.610864 
L 334.501414 274.568834 
L 338.138531 274.736811 
L 341.775648 234.132983 
L 345.412764 255.366301 
L 349.049881 249.361429 
L 352.686997 262.266644 
L 356.324114 209.621596 
L 359.961231 241.461253 
L 363.598347 274.356744 
L 367.235464 270.845332 
L 370.87258 273.159545 
L 374.509697 273.184069 
L 378.146814 279.714465 
L 381.78393 274.215373 
L 385.421047 275.462236 
L 389.058163 278.65266 
L 392.69528 278.503115 
L 396.332397 275.795015 
L 399.969513 277.117843 
L 403.60663 275.958717 
L 407.243746 275.736144 
L 410.880863 273.316263 
L 414.51798 236.130857 
L 418.155096 261.595815 
L 421.792213 230.614013 
L 425.429329 251.86794 
L 429.066446 194.376843 
L 432.703562 234.812135 
L 436.340679 277.358337 
L 439.977796 274.733658 
L 443.614912 273.03493 
L 447.252029 276.222774 
L 450.889145 216.290471 
L 454.526262 235.961779 
L 458.163379 214.575163 
L 461.800495 234.582467 
L 465.437612 273.571454 
L 469.074728 279.106971 
L 472.711845 272.813512 
L 476.348962 268.660334 
L 479.986078 228.384861 
L 483.623195 253.887564 
L 487.260311 241.677793 
L 490.897428 262.966919 
L 494.534545 274.965159 
L 498.171661 276.413683 
L 501.808778 211.218806 
L 505.445894 242.794294 
L 509.083011 277.116865 
L 512.720128 276.779282 
L 516.357244 269.48825 
L 519.994361 270.492922 
" clip-path="url(#p77589ecebc)" style="fill: none; stroke: #d62728; stroke-opacity: 0.6; stroke-width: 1.5; stroke-linecap: square"/>
   </g>
   <g id="line2d_37">
    <path d="M 83.540369 278.051376 
L 87.177486 266.227346 
L 90.814602 269.968837 
L 94.451719 276.776504 
L 98.088836 278.096835 
L 101.725952 243.351305 
L 105.363069 260.79839 
L 109.000185 276.946587 
L 112.637302 278.535233 
L 116.274419 278.017666 
L 119.911535 280.077145 
L 123.548652 246.692172 
L 127.185768 253.604254 
L 130.822885 279.964354 
L 134.460002 275.05079 
L 138.097118 278.425948 
L 141.734235 279.68676 
L 145.371351 256.058882 
L 149.008468 265.289795 
L 152.645585 276.616532 
L 156.282701 278.605054 
L 159.919818 279.910223 
L 163.556934 280.196482 
L 167.194051 254.734535 
L 170.831167 265.574338 
L 174.468284 265.935904 
L 178.105401 266.971845 
L 181.742517 279.023926 
L 185.379634 276.714432 
L 189.01675 267.972424 
L 192.653867 268.271314 
L 196.290984 278.599781 
L 199.9281 276.258863 
L 203.565217 249.907591 
L 207.202333 260.62 
L 210.83945 276.797448 
L 214.476567 276.27888 
L 218.113683 267.111052 
L 221.7508 271.983184 
L 225.387916 281.993784 
L 229.025033 281.247399 
L 232.66215 276.741229 
L 236.299266 279.604479 
L 239.936383 280.215468 
L 243.573499 279.364492 
L 247.210616 274.378727 
L 250.847733 276.686109 
L 254.484849 254.298606 
L 258.121966 263.635255 
L 261.759082 280.201919 
L 265.396199 278.570588 
L 269.033316 278.660396 
L 272.670432 278.375475 
L 276.307549 280.139979 
L 279.944665 279.29181 
L 283.581782 278.64159 
L 287.218899 279.315522 
L 290.856015 259.810347 
L 294.493132 268.513448 
L 298.130248 278.692387 
L 301.767365 278.934137 
L 305.404482 249.79313 
L 309.041598 260.693101 
L 312.678715 276.203327 
L 316.315831 276.802767 
L 319.952948 279.659555 
L 323.590065 277.449076 
L 327.227181 281.236056 
L 330.864298 277.708921 
L 334.501414 277.287307 
L 338.138531 277.729415 
L 341.775648 258.309529 
L 345.412764 269.829241 
L 349.049881 257.221399 
L 352.686997 264.665763 
L 356.324114 236.687336 
L 359.961231 249.337329 
L 363.598347 278.364726 
L 367.235464 275.099817 
L 370.87258 280.682574 
L 374.509697 278.080381 
L 378.146814 280.450181 
L 381.78393 280.341506 
L 385.421047 271.944294 
L 389.058163 269.321302 
L 392.69528 276.562939 
L 396.332397 279.514185 
L 399.969513 278.363991 
L 403.60663 278.23123 
L 407.243746 273.519052 
L 410.880863 275.239095 
L 414.51798 222.393423 
L 418.155096 243.452473 
L 421.792213 248.927743 
L 425.429329 257.130109 
L 429.066446 250.491205 
L 432.703562 259.898101 
L 436.340679 276.112875 
L 439.977796 278.890196 
L 443.614912 276.259902 
L 447.252029 275.580083 
L 450.889145 239.683409 
L 454.526262 242.341016 
L 458.163379 229.435328 
L 461.800495 247.440568 
L 465.437612 275.539593 
L 469.074728 271.965149 
L 472.711845 261.123652 
L 476.348962 261.479563 
L 479.986078 224.026662 
L 483.623195 239.759666 
L 487.260311 249.004145 
L 490.897428 261.258799 
L 494.534545 278.30285 
L 498.171661 279.89544 
L 501.808778 237.925928 
L 505.445894 240.759848 
L 509.083011 274.95914 
L 512.720128 277.435249 
L 516.357244 259.289382 
L 519.994361 272.507839 
" clip-path="url(#p77589ecebc)" style="fill: none; stroke: #9467bd; stroke-opacity: 0.6; stroke-width: 1.5; stroke-linecap: square"/>
   </g>
   <g id="patch_6">
    <path d="M 39.89497 295.96628 
L 39.89497 174.871313 
" style="fill: none; stroke: #000000; stroke-width: 0.8; stroke-linejoin: miter; stroke-linecap: square"/>
   </g>
   <g id="patch_7">
    <path d="M 39.89497 295.96628 
L 563.63976 295.96628 
" style="fill: none; stroke: #000000; stroke-width: 0.8; stroke-linejoin: miter; stroke-linecap: square"/>
   </g>
   <g id="text_18">
    <!-- Counterclockwise -->
    <g transform="translate(39.89497 164.871313) scale(0.14 -0.14)">
     <defs>
      <path id="DejaVuSans-75" d="M 544 1381 
L 544 3500 
L 1119 3500 
L 1119 1403 
Q 1119 906 1312 657 
Q 1506 409 1894 409 
Q 2359 409 2629 706 
Q 2900 1003 2900 1516 
L 2900 3500 
L 3475 3500 
L 3475 0 
L 2900 0 
L 2900 538 
Q 2691 219 2414 64 
Q 2138 -91 1772 -91 
Q 1169 -91 856 284 
Q 544 659 544 1381 
z
M 1991 3584 
L 1991 3584 
z
" transform="scale(0.015625)"/>
      <path id="DejaVuSans-6e" d="M 3513 2113 
L 3513 0 
L 2938 0 
L 2938 2094 
Q 2938 2591 2744 2837 
Q 2550 3084 2163 3084 
Q 1697 3084 1428 2787 
Q 1159 2491 1159 1978 
L 1159 0 
L 581 0 
L 581 3500 
L 1159 3500 
L 1159 2956 
Q 1366 3272 1645 3428 
Q 1925 3584 2291 3584 
Q 2894 3584 3203 3211 
Q 3513 2838 3513 2113 
z
" transform="scale(0.015625)"/>
      <path id="DejaVuSans-74" d="M 1172 4494 
L 1172 3500 
L 2356 3500 
L 2356 3053 
L 1172 3053 
L 1172 1153 
Q 1172 725 1289 603 
Q 1406 481 1766 481 
L 2356 481 
L 2356 0 
L 1766 0 
Q 1100 0 847 248 
Q 594 497 594 1153 
L 594 3053 
L 172 3053 
L 172 3500 
L 594 3500 
L 594 4494 
L 1172 4494 
z
" transform="scale(0.015625)"/>
      <path id="DejaVuSans-72" d="M 2631 2963 
Q 2534 3019 2420 3045 
Q 2306 3072 2169 3072 
Q 1681 3072 1420 2755 
Q 1159 2438 1159 1844 
L 1159 0 
L 581 0 
L 581 3500 
L 1159 3500 
L 1159 2956 
Q 1341 3275 1631 3429 
Q 1922 3584 2338 3584 
Q 2397 3584 2469 3576 
Q 2541 3569 2628 3553 
L 2631 2963 
z
" transform="scale(0.015625)"/>
     </defs>
     <use xlink:href="#DejaVuSans-43"/>
     <use xlink:href="#DejaVuSans-6f" x="69.824219"/>
     <use xlink:href="#DejaVuSans-75" x="131.005859"/>
     <use xlink:href="#DejaVuSans-6e" x="194.384766"/>
     <use xlink:href="#DejaVuSans-74" x="257.763672"/>
     <use xlink:href="#DejaVuSans-65" x="296.972656"/>
     <use xlink:href="#DejaVuSans-72" x="358.496094"/>
     <use xlink:href="#DejaVuSans-63" x="397.359375"/>
     <use xlink:href="#DejaVuSans-6c" x="452.339844"/>
     <use xlink:href="#DejaVuSans-6f" x="480.123047"/>
     <use xlink:href="#DejaVuSans-63" x="541.304688"/>
     <use xlink:href="#DejaVuSans-6b" x="596.285156"/>
     <use xlink:href="#DejaVuSans-77" x="654.195312"/>
     <use xlink:href="#DejaVuSans-69" x="735.982422"/>
     <use xlink:href="#DejaVuSans-73" x="763.765625"/>
     <use xlink:href="#DejaVuSans-65" x="815.865234"/>
    </g>
   </g>
   <g id="line2d_38">
    <path d="M 83.540369 281.993784 
L 87.177486 261.560736 
L 90.814602 281.993784 
L 94.451719 281.993784 
L 98.088836 281.993784 
L 101.725952 261.560736 
L 105.363069 281.993784 
L 109.000185 281.993784 
L 112.637302 281.993784 
L 116.274419 281.993784 
L 119.911535 281.993784 
L 123.548652 261.560736 
L 127.185768 281.993784 
L 130.822885 281.993784 
L 134.460002 281.993784 
L 138.097118 281.993784 
L 141.734235 281.993784 
L 145.371351 261.560736 
L 149.008468 281.993784 
L 152.645585 281.993784 
L 156.282701 281.993784 
L 159.919818 281.993784 
L 163.556934 281.993784 
L 167.194051 261.560736 
L 170.831167 281.993784 
L 174.468284 261.560736 
L 178.105401 281.993784 
L 181.742517 281.993784 
L 185.379634 281.993784 
L 189.01675 261.560736 
L 192.653867 281.993784 
L 196.290984 281.993784 
L 199.9281 281.993784 
L 203.565217 261.560736 
L 207.202333 281.993784 
L 210.83945 281.993784 
L 214.476567 281.993784 
L 218.113683 261.560736 
L 221.7508 281.993784 
L 225.387916 281.993784 
L 229.025033 281.993784 
L 232.66215 281.993784 
L 236.299266 281.993784 
L 239.936383 281.993784 
L 243.573499 281.993784 
L 247.210616 281.993784 
L 250.847733 281.993784 
L 254.484849 261.560736 
L 258.121966 281.993784 
L 261.759082 281.993784 
L 265.396199 281.993784 
L 269.033316 281.993784 
L 272.670432 281.993784 
L 276.307549 281.993784 
L 279.944665 281.993784 
L 283.581782 281.993784 
L 287.218899 281.993784 
L 290.856015 261.560736 
L 294.493132 281.993784 
L 298.130248 281.993784 
L 301.767365 281.993784 
L 305.404482 261.560736 
L 309.041598 281.993784 
L 312.678715 281.993784 
L 316.315831 281.993784 
L 319.952948 281.993784 
L 323.590065 281.993784 
L 327.227181 281.993784 
L 330.864298 281.993784 
L 334.501414 281.993784 
L 338.138531 281.993784 
L 341.775648 261.560736 
L 345.412764 281.993784 
L 349.049881 261.560736 
L 352.686997 281.993784 
L 356.324114 261.560736 
L 359.961231 281.993784 
L 363.598347 261.560736 
L 367.235464 281.993784 
L 370.87258 281.993784 
L 374.509697 281.993784 
L 378.146814 281.993784 
L 381.78393 281.993784 
L 385.421047 261.560736 
L 389.058163 281.993784 
L 392.69528 281.993784 
L 396.332397 281.993784 
L 399.969513 281.993784 
L 403.60663 281.993784 
L 407.243746 261.560736 
L 410.880863 281.993784 
L 414.51798 261.560736 
L 418.155096 281.993784 
L 421.792213 261.560736 
L 425.429329 281.993784 
L 429.066446 261.560736 
L 432.703562 281.993784 
L 436.340679 281.993784 
L 439.977796 281.993784 
L 443.614912 281.993784 
L 447.252029 281.993784 
L 450.889145 261.560736 
L 454.526262 281.993784 
L 458.163379 261.560736 
L 461.800495 281.993784 
L 465.437612 281.993784 
L 469.074728 281.993784 
L 472.711845 261.560736 
L 476.348962 281.993784 
L 479.986078 261.560736 
L 483.623195 281.993784 
L 487.260311 261.560736 
L 490.897428 281.993784 
L 494.534545 281.993784 
L 498.171661 281.993784 
L 501.808778 261.560736 
L 505.445894 281.993784 
L 509.083011 281.993784 
L 512.720128 281.993784 
L 516.357244 261.560736 
L 519.994361 281.993784 
" clip-path="url(#p77589ecebc)" style="fill: none; stroke: #000000; stroke-linecap: square"/>
   </g>
  </g>
  <g id="text_19">
   <!-- Time [s] -->
   <g transform="translate(249.167438 333.345885) scale(0.168 -0.168)">
    <defs>
     <path id="DejaVuSans-54" d="M -19 4666 
L 3928 4666 
L 3928 4134 
L 2272 4134 
L 2272 0 
L 1638 0 
L 1638 4134 
L -19 4134 
L -19 4666 
z
" transform="scale(0.015625)"/>
     <path id="DejaVuSans-6d" d="M 3328 2828 
Q 3544 3216 3844 3400 
Q 4144 3584 4550 3584 
Q 5097 3584 5394 3201 
Q 5691 2819 5691 2113 
L 5691 0 
L 5113 0 
L 5113 2094 
Q 5113 2597 4934 2840 
Q 4756 3084 4391 3084 
Q 3944 3084 3684 2787 
Q 3425 2491 3425 1978 
L 3425 0 
L 2847 0 
L 2847 2094 
Q 2847 2600 2669 2842 
Q 2491 3084 2119 3084 
Q 1678 3084 1418 2786 
Q 1159 2488 1159 1978 
L 1159 0 
L 581 0 
L 581 3500 
L 1159 3500 
L 1159 2956 
Q 1356 3278 1631 3431 
Q 1906 3584 2284 3584 
Q 2666 3584 2933 3390 
Q 3200 3197 3328 2828 
z
" transform="scale(0.015625)"/>
     <path id="DejaVuSans-20" transform="scale(0.015625)"/>
     <path id="DejaVuSans-5b" d="M 550 4863 
L 1875 4863 
L 1875 4416 
L 1125 4416 
L 1125 -397 
L 1875 -397 
L 1875 -844 
L 550 -844 
L 550 4863 
z
" transform="scale(0.015625)"/>
     <path id="DejaVuSans-5d" d="M 1947 4863 
L 1947 -844 
L 622 -844 
L 622 -397 
L 1369 -397 
L 1369 4416 
L 622 4416 
L 622 4863 
L 1947 4863 
z
" transform="scale(0.015625)"/>
    </defs>
    <use xlink:href="#DejaVuSans-54"/>
    <use xlink:href="#DejaVuSans-69" x="57.958984"/>
    <use xlink:href="#DejaVuSans-6d" x="85.742188"/>
    <use xlink:href="#DejaVuSans-65" x="183.154297"/>
    <use xlink:href="#DejaVuSans-20" x="244.677734"/>
    <use xlink:href="#DejaVuSans-5b" x="276.464844"/>
    <use xlink:href="#DejaVuSans-73" x="315.478516"/>
    <use xlink:href="#DejaVuSans-5d" x="367.578125"/>
   </g>
  </g>
  <g id="text_20">
   <!-- Zscores -->
   <g transform="translate(15.765615 202.617) rotate(-90) scale(0.168 -0.168)">
    <defs>
     <path id="DejaVuSans-5a" d="M 359 4666 
L 4025 4666 
L 4025 4184 
L 1075 531 
L 4097 531 
L 4097 0 
L 288 0 
L 288 481 
L 3238 4134 
L 359 4134 
L 359 4666 
z
" transform="scale(0.015625)"/>
    </defs>
    <use xlink:href="#DejaVuSans-5a"/>
    <use xlink:href="#DejaVuSans-73" x="68.505859"/>
    <use xlink:href="#DejaVuSans-63" x="120.605469"/>
    <use xlink:href="#DejaVuSans-6f" x="175.585938"/>
    <use xlink:href="#DejaVuSans-72" x="236.767578"/>
    <use xlink:href="#DejaVuSans-65" x="275.630859"/>
    <use xlink:href="#DejaVuSans-73" x="337.154297"/>
   </g>
  </g>
 </g>
 <defs>
  <clipPath id="pc0faf3e07a">
   <rect x="39.89497" y="23.638053" width="523.74479" height="121.094968"/>
  </clipPath>
  <clipPath id="p77589ecebc">
   <rect x="39.89497" y="174.871313" width="523.74479" height="121.094967"/>
  </clipPath>
 </defs>
</svg>
