<?xml version="1.0" encoding="UTF-8" standalone="no"?>
<!-- Created with Inkscape (http://www.inkscape.org/) -->

<svg
   version="1.1"
   id="svg2"
   width="755.90552"
   height="453.5433"
   viewBox="0 0 755.90552 453.5433"
   sodipodi:docname="regressor.svg"
   inkscape:version="1.2.1 (9c6d41e410, 2022-07-14, custom)"
   xmlns:inkscape="http://www.inkscape.org/namespaces/inkscape"
   xmlns:sodipodi="http://sodipodi.sourceforge.net/DTD/sodipodi-0.dtd"
   xmlns="http://www.w3.org/2000/svg"
   xmlns:svg="http://www.w3.org/2000/svg">
  <defs
     id="defs6">
    <clipPath
       clipPathUnits="userSpaceOnUse"
       id="clipPath66">
      <path
         d="M 40.09447,195.36828 H 563.92889 V 316.51662 H 40.09447 Z"
         id="path64" />
    </clipPath>
    <clipPath
       clipPathUnits="userSpaceOnUse"
       id="clipPath76">
      <path
         d="M 40.09447,195.36828 H 563.92889 V 316.51662 H 40.09447 Z"
         id="path74" />
    </clipPath>
    <clipPath
       clipPathUnits="userSpaceOnUse"
       id="clipPath86">
      <path
         d="M 40.09447,195.36828 H 563.92889 V 316.51662 H 40.09447 Z"
         id="path84" />
    </clipPath>
    <clipPath
       clipPathUnits="userSpaceOnUse"
       id="clipPath96">
      <path
         d="M 40.09447,195.36828 H 563.92889 V 316.51662 H 40.09447 Z"
         id="path94" />
    </clipPath>
    <clipPath
       clipPathUnits="userSpaceOnUse"
       id="clipPath106">
      <path
         d="M 40.09447,195.36828 H 563.92889 V 316.51662 H 40.09447 Z"
         id="path104" />
    </clipPath>
    <clipPath
       clipPathUnits="userSpaceOnUse"
       id="clipPath128">
      <path
         d="M 40.09447,195.36828 H 563.92889 V 316.51662 H 40.09447 Z"
         id="path126" />
    </clipPath>
    <clipPath
       clipPathUnits="userSpaceOnUse"
       id="clipPath246">
      <path
         d="M 40.09447,44.078845 H 563.92889 V 165.22718 H 40.09447 Z"
         id="path244" />
    </clipPath>
    <clipPath
       clipPathUnits="userSpaceOnUse"
       id="clipPath256">
      <path
         d="M 40.09447,44.078845 H 563.92889 V 165.22718 H 40.09447 Z"
         id="path254" />
    </clipPath>
    <clipPath
       clipPathUnits="userSpaceOnUse"
       id="clipPath266">
      <path
         d="M 40.09447,44.078845 H 563.92889 V 165.22718 H 40.09447 Z"
         id="path264" />
    </clipPath>
    <clipPath
       clipPathUnits="userSpaceOnUse"
       id="clipPath276">
      <path
         d="M 40.09447,44.078845 H 563.92889 V 165.22718 H 40.09447 Z"
         id="path274" />
    </clipPath>
    <clipPath
       clipPathUnits="userSpaceOnUse"
       id="clipPath286">
      <path
         d="M 40.09447,44.078845 H 563.92889 V 165.22718 H 40.09447 Z"
         id="path284" />
    </clipPath>
    <clipPath
       clipPathUnits="userSpaceOnUse"
       id="clipPath308">
      <path
         d="M 40.09447,44.078845 H 563.92889 V 165.22718 H 40.09447 Z"
         id="path306" />
    </clipPath>
  </defs>
  <sodipodi:namedview
     id="namedview4"
     pagecolor="#ffffff"
     bordercolor="#666666"
     borderopacity="1.0"
     inkscape:showpageshadow="2"
     inkscape:pageopacity="0.0"
     inkscape:pagecheckerboard="0"
     inkscape:deskcolor="#d1d1d1"
     showgrid="false"
     inkscape:zoom="1.2740738"
     inkscape:cx="355.94484"
     inkscape:cy="188.76457"
     inkscape:window-width="1920"
     inkscape:window-height="1058"
     inkscape:window-x="0"
     inkscape:window-y="0"
     inkscape:window-maximized="1"
     inkscape:current-layer="g10">
    <inkscape:page
       x="0"
       y="0"
       id="page8"
       width="755.90552"
       height="453.5433" />
  </sodipodi:namedview>
  <g
     id="g10"
     inkscape:groupmode="layer"
     inkscape:label="Page 1"
     transform="matrix(1.3333333,0,0,-1.3333333,0,453.54331)">
    <path
       d="M 0,0 H 566.92913 V 340.15748 H 0 Z"
       style="fill:#ffffff;fill-opacity:1;fill-rule:nonzero;stroke:none"
       id="path12" />
    <path
       d="M 40.09447,195.36828 H 563.92889 V 316.51661 H 40.09447 Z"
       style="fill:#ffffff;fill-opacity:1;fill-rule:nonzero;stroke:none"
       id="path14" />
    <path
       d="m 82.019413,195.36828 v -3.5"
       style="fill:#000000;fill-opacity:1;fill-rule:nonzero;stroke:#000000;stroke-width:0.8;stroke-linecap:butt;stroke-linejoin:round;stroke-miterlimit:10;stroke-dasharray:none;stroke-opacity:1"
       id="path16" />
    <path
       d="m 127.49115,195.36828 v -3.5"
       style="fill:#000000;fill-opacity:1;fill-rule:nonzero;stroke:#000000;stroke-width:0.8;stroke-linecap:butt;stroke-linejoin:round;stroke-miterlimit:10;stroke-dasharray:none;stroke-opacity:1"
       id="path18" />
    <path
       d="m 172.96289,195.36828 v -3.5"
       style="fill:#000000;fill-opacity:1;fill-rule:nonzero;stroke:#000000;stroke-width:0.8;stroke-linecap:butt;stroke-linejoin:round;stroke-miterlimit:10;stroke-dasharray:none;stroke-opacity:1"
       id="path20" />
    <path
       d="m 218.43463,195.36828 v -3.5"
       style="fill:#000000;fill-opacity:1;fill-rule:nonzero;stroke:#000000;stroke-width:0.8;stroke-linecap:butt;stroke-linejoin:round;stroke-miterlimit:10;stroke-dasharray:none;stroke-opacity:1"
       id="path22" />
    <path
       d="m 263.90636,195.36828 v -3.5"
       style="fill:#000000;fill-opacity:1;fill-rule:nonzero;stroke:#000000;stroke-width:0.8;stroke-linecap:butt;stroke-linejoin:round;stroke-miterlimit:10;stroke-dasharray:none;stroke-opacity:1"
       id="path24" />
    <path
       d="m 309.3781,195.36828 v -3.5"
       style="fill:#000000;fill-opacity:1;fill-rule:nonzero;stroke:#000000;stroke-width:0.8;stroke-linecap:butt;stroke-linejoin:round;stroke-miterlimit:10;stroke-dasharray:none;stroke-opacity:1"
       id="path26" />
    <path
       d="m 354.84984,195.36828 v -3.5"
       style="fill:#000000;fill-opacity:1;fill-rule:nonzero;stroke:#000000;stroke-width:0.8;stroke-linecap:butt;stroke-linejoin:round;stroke-miterlimit:10;stroke-dasharray:none;stroke-opacity:1"
       id="path28" />
    <path
       d="m 400.32158,195.36828 v -3.5"
       style="fill:#000000;fill-opacity:1;fill-rule:nonzero;stroke:#000000;stroke-width:0.8;stroke-linecap:butt;stroke-linejoin:round;stroke-miterlimit:10;stroke-dasharray:none;stroke-opacity:1"
       id="path30" />
    <path
       d="m 445.79332,195.36828 v -3.5"
       style="fill:#000000;fill-opacity:1;fill-rule:nonzero;stroke:#000000;stroke-width:0.8;stroke-linecap:butt;stroke-linejoin:round;stroke-miterlimit:10;stroke-dasharray:none;stroke-opacity:1"
       id="path32" />
    <path
       d="m 491.26506,195.36828 v -3.5"
       style="fill:#000000;fill-opacity:1;fill-rule:nonzero;stroke:#000000;stroke-width:0.8;stroke-linecap:butt;stroke-linejoin:round;stroke-miterlimit:10;stroke-dasharray:none;stroke-opacity:1"
       id="path34" />
    <path
       d="m 40.09447,209.34694 h -3.5"
       style="fill:#000000;fill-opacity:1;fill-rule:nonzero;stroke:#000000;stroke-width:0.8;stroke-linecap:butt;stroke-linejoin:round;stroke-miterlimit:10;stroke-dasharray:none;stroke-opacity:1"
       id="path36" />
    <g
       id="g38"
       transform="translate(25.453845,204.78444)">
      <text
         xml:space="preserve"
         transform="scale(1,-1)"
         style="font-variant:normal;font-weight:normal;font-size:12px;font-family:'DejaVu Sans';-inkscape-font-specification:DejaVuSans;writing-mode:lr-tb;fill:#000000;fill-opacity:1;fill-rule:nonzero;stroke:none"
         id="text42"><tspan
           x="0"
           y="0"
           id="tspan40">0</tspan></text>
    </g>
    <path
       d="m 40.09447,250.23104 h -3.5"
       style="fill:#000000;fill-opacity:1;fill-rule:nonzero;stroke:#000000;stroke-width:0.8;stroke-linecap:butt;stroke-linejoin:round;stroke-miterlimit:10;stroke-dasharray:none;stroke-opacity:1"
       id="path44" />
    <g
       id="g46"
       transform="translate(25.453845,245.66854)">
      <text
         xml:space="preserve"
         transform="scale(1,-1)"
         style="font-variant:normal;font-weight:normal;font-size:12px;font-family:'DejaVu Sans';-inkscape-font-specification:DejaVuSans;writing-mode:lr-tb;fill:#000000;fill-opacity:1;fill-rule:nonzero;stroke:none"
         id="text50"><tspan
           x="0"
           y="0"
           id="tspan48">2</tspan></text>
    </g>
    <path
       d="m 40.09447,291.11515 h -3.5"
       style="fill:#000000;fill-opacity:1;fill-rule:nonzero;stroke:#000000;stroke-width:0.8;stroke-linecap:butt;stroke-linejoin:round;stroke-miterlimit:10;stroke-dasharray:none;stroke-opacity:1"
       id="path52" />
    <g
       id="g54"
       transform="translate(25.453845,286.55265)">
      <text
         xml:space="preserve"
         transform="scale(1,-1)"
         style="font-variant:normal;font-weight:normal;font-size:12px;font-family:'DejaVu Sans';-inkscape-font-specification:DejaVuSans;writing-mode:lr-tb;fill:#000000;fill-opacity:1;fill-rule:nonzero;stroke:none"
         id="text58"><tspan
           x="0"
           y="0"
           id="tspan56">4</tspan></text>
    </g>
    <g
       id="g60">
      <g
         id="g62"
         clip-path="url(#clipPath66)">
        <path
           d="m 83.747339,217.30313 3.637739,-1.81921 3.637739,-2.00961 3.637739,11.23094 3.637739,9.65431 3.637735,-16.37303 3.63774,-3.90218 3.63774,31.65329 3.63774,6.23607 3.63774,7.43771 3.63774,-0.44626 3.63774,-35.99966 3.63774,-6.54985 3.63774,32.95719 3.63773,9.33798 3.63774,-15.49545 3.63774,-2.81232 3.63774,-20.9571 3.63774,-3.62607 3.63774,25.49757 3.63774,10.0972 3.63774,5.95904 3.63774,5.5741 3.63774,-41.9891 3.63774,-4.64798 3.63773,-1.90385 3.63774,-1.41357 3.63774,4.39603 3.63774,1.02003 3.63774,-2.76145 3.63774,-2.371 3.63774,25.79628 3.63774,13.88286 3.63774,-31.65355 3.63774,-6.71204 3.63774,4.40669 3.63773,0.59512 3.63774,-4.26075 3.63774,-1.13312 3.63774,30.38319 3.63774,12.81638 3.63774,3.31093 3.63774,-6.43197 3.63774,-10.57854 3.63774,-5.75139 3.63774,13.37762 3.63773,-1.1483 3.63774,-29.35076 3.63774,-2.51374 3.63774,31.98404 3.63774,3.48541 3.63774,6.49888 3.63774,-3.66139 3.63774,-15.21347 3.63774,-8.39177 3.63774,12.58539 3.63774,12.69063 3.63773,-36.36944 3.63774,-6.74491 3.63774,32.30843 3.63774,9.93412 3.63774,-36.75536 3.63774,-5.01174 3.63774,4.635 3.63774,-2.04975 3.63774,28.06663 3.63774,21.21916 3.63773,-40.1274 3.63774,-9.64828 3.63774,17.48946 3.63774,4.29501 3.63774,-21.2978 3.63774,-1.59957 3.63774,-4.10981 3.63774,-1.8188 3.63774,0.27313 3.63774,1.17161 3.63774,-1.04658 3.63773,4.09034 3.63774,33.50616 3.63774,5.23397 3.63774,3.83754 3.63774,-5.59282 3.63774,-26.90012 3.63774,-7.98494 3.63774,21.2383 3.63774,7.13521 3.63774,-20.19813 3.63773,-4.43159 3.63774,-3.25217 3.63774,-3.84922 3.63774,-2.11786 3.63774,0.25436 3.63774,-1.80408 3.63774,1.02246 3.63774,-1.22239 3.63774,-0.42412 3.63774,28.30661 3.63774,17.51349 3.63773,-2.142 3.63774,1.13885 3.63774,-33.17424 3.63774,-5.96632 3.63774,1.11836 3.63774,-3.46595 3.63774,25.73582 3.63774,15.14011 3.63774,-30.78573 3.63774,-5.41742 3.63774,-3.85769 3.63773,-2.71938 3.63774,2.59649 3.63774,-0.2519 3.63774,1.06896 3.63774,1.76066 3.63774,-1.52788 3.63774,-5.36744 3.63774,38.27051 3.63774,5.28224 3.63774,-29.83929 3.63773,-6.67617"
           style="fill:none;stroke:#a9a9a9;stroke-width:1.5;stroke-linecap:square;stroke-linejoin:round;stroke-miterlimit:10;stroke-dasharray:none;stroke-opacity:1"
           id="path68" />
      </g>
    </g>
    <g
       id="g70">
      <g
         id="g72"
         clip-path="url(#clipPath76)">
        <path
           d="m 83.747339,215.53804 3.637739,1.62493 3.637739,-2.29624 3.637739,28.67265 3.637739,18.67385 3.637735,-43.34812 3.63774,-4.66676 3.63774,48.92406 3.63774,1.93155 3.63774,-0.40292 3.63774,-6.19187 3.63774,-43.35338 3.63774,-3.13861 3.63774,30.97052 3.63773,0.0644 3.63774,3.91728 3.63774,-9.70948 3.63774,-18.74478 3.63774,4.44001 3.63774,12.04724 3.63774,6.68084 3.63774,5.46979 3.63774,-5.01474 3.63774,-25.1574 3.63774,-6.31266 3.63773,6.8015 3.63774,-5.66192 3.63774,1.84899 3.63774,-1.58966 3.63774,2.91388 3.63774,-4.95087 3.63774,16.24383 3.63774,13.82715 3.63774,-23.10333 3.63774,-3.6756 3.63774,3.59836 3.63773,5.53721 3.63774,-5.5377 3.63774,-6.84484 3.63774,37.07031 3.63774,1.97383 3.63774,-8.31747 3.63774,-3.08686 3.63774,4.13042 3.63774,3.80969 3.63774,-28.88382 3.63773,0.63252 3.63774,-4.80482 3.63774,3.77469 3.63774,16.05037 3.63774,4.02626 3.63774,1.20406 3.63774,7.535 3.63774,-2.19153 3.63774,8.91699 3.63774,0.0996 3.63774,-11.85269 3.63773,-25.35101 3.63774,-2.27799 3.63774,36.81443 3.63774,-7.59221 3.63774,-26.29312 3.63774,-1.0742 3.63774,1.9749 3.63774,-0.76724 3.63774,32.24969 3.63774,1.70379 3.63773,-34.67464 3.63774,-4.10979 3.63774,9.74286 3.63774,-2.42721 3.63774,-2.45169 3.63774,-2.68085 3.63774,-0.96467 3.63774,2.82736 3.63774,1.54172 3.63774,-2.71442 3.63774,-3.95091 3.63773,3.57056 3.63774,41.21911 3.63774,-9.52403 3.63774,7.83422 3.63774,-10.28739 3.63774,-23.90467 3.63774,-2.35469 3.63774,27.86157 3.63774,1.96715 3.63774,-24.63038 3.63773,9.63377 3.63774,-21.67486 3.63774,5.44173 3.63774,-1.7846 3.63774,1.04162 3.63774,-1.38192 3.63774,-2.43346 3.63774,1.75175 3.63774,3.97864 3.63774,28.01858 3.63774,6.34804 3.63773,2.08018 3.63774,-2.87373 3.63774,-31.81734 3.63774,-2.26885 3.63774,1.11787 3.63774,-3.45162 3.63774,24.3552 3.63774,18.79256 3.63774,-41.4568 3.63774,-1.11275 3.63774,5.76974 3.63773,-3.92291 3.63774,-0.34586 3.63774,1.45125 3.63774,-5.55609 3.63774,6.38277 3.63774,-1.29664 3.63774,-0.30795 3.63774,29.28348 3.63774,4.8517 3.63774,-35.55321 3.63773,3.94482"
           style="fill:none;stroke:#a9a9a9;stroke-width:1.5;stroke-linecap:square;stroke-linejoin:round;stroke-miterlimit:10;stroke-dasharray:none;stroke-opacity:1"
           id="path78" />
      </g>
    </g>
    <g
       id="g80">
      <g
         id="g82"
         clip-path="url(#clipPath86)">
        <path
           d="m 83.747339,214.8502 3.637739,0.62983 3.637739,-3.46459 3.637739,35.94059 3.637739,10.85264 3.637735,-37.4556 3.63774,-4.91251 3.63774,23.63546 3.63774,3.7149 3.63774,3.40094 3.63774,14.23739 3.63774,-47.25797 3.63774,-1.25362 3.63774,45.38167 3.63773,0.0776 3.63774,-7.94894 3.63774,-5.91826 3.63774,-24.40047 3.63774,-5.2311 3.63774,25.09293 3.63774,2.32131 3.63774,5.63566 3.63774,-4.26094 3.63774,-27.79555 3.63774,-1.27231 3.63773,-0.70559 3.63774,-0.92794 3.63774,1.5729 3.63774,3.75226 3.63774,-2.31276 3.63774,-4.73736 3.63774,46.7595 3.63774,-13.19516 3.63774,-22.8693 3.63774,-7.86204 3.63774,12.65908 3.63773,-4.79647 3.63774,-8.92809 3.63774,5.92834 3.63774,11.36453 3.63774,7.53697 3.63774,2.93229 3.63774,-2.72594 3.63774,-11.1529 3.63774,3.54942 3.63774,15.83178 3.63773,-6.37073 3.63774,-24.7063 3.63774,-2.67222 3.63774,33.23825 3.63774,-2.40837 3.63774,-0.29998 3.63774,4.03118 3.63774,-24.8199 3.63774,-1.56339 3.63774,9.28207 3.63774,8.28466 3.63773,-24.7128 3.63774,-2.8428 3.63774,13.94073 3.63774,4.99105 3.63774,-17.15286 3.63774,-1.07338 3.63774,2.01277 3.63774,9.09761 3.63774,16.26876 3.63774,6.04518 3.63773,-28.35206 3.63774,0.3081 3.63774,12.32955 3.63774,8.10625 3.63774,-23.42406 3.63774,-3.58358 3.63774,-0.87957 3.63774,8.9457 3.63774,-1.901 3.63774,-6.29413 3.63774,5.28875 3.63773,-1.51355 3.63774,35.457 3.63774,-3.32274 3.63774,2.01847 3.63774,-0.98244 3.63774,-28.16437 3.63774,-2.28664 3.63774,23.61983 3.63774,-6.19324 3.63774,-15.17026 3.63773,-6.36356 3.63774,1.16007 3.63774,-1.64336 3.63774,3.97834 3.63774,-4.19706 3.63774,-0.68347 3.63774,1.41525 3.63774,6.01321 3.63774,2.7598 3.63774,37.44409 3.63774,-9.02191 3.63773,4.80823 3.63774,-7.29655 3.63774,-27.98505 3.63774,-3.65793 3.63774,-2.7994 3.63774,-1.89046 3.63774,52.34429 3.63774,-14.56474 3.63774,-35.07928 3.63774,10.42092 3.63774,-7.05632 3.63773,-0.35393 3.63774,-5.73563 3.63774,-0.37189 3.63774,4.16832 3.63774,5.99157 3.63774,-5.3148 3.63774,-0.85924 3.63774,31.65753 3.63774,3.26599 3.63774,-34.79643 3.63773,7.66848"
           style="fill:none;stroke:#a9a9a9;stroke-width:1.5;stroke-linecap:square;stroke-linejoin:round;stroke-miterlimit:10;stroke-dasharray:none;stroke-opacity:1"
           id="path88" />
      </g>
    </g>
    <g
       id="g90">
      <g
         id="g92"
         clip-path="url(#clipPath96)">
        <path
           d="m 83.747339,216.57841 3.637739,-5.19484 3.637739,6.65334 3.637739,7.35672 3.637739,-1.92601 3.637735,-10.47218 3.63774,1.69248 3.63774,28.9207 3.63774,0.0305 3.63774,30.68882 3.63774,-2.39513 3.63774,-55.41561 3.63774,-4.93831 3.63774,34.4977 3.63773,-12.80403 3.63774,5.00234 3.63774,-13.90218 3.63774,-11.7606 3.63774,2.11164 3.63774,53.2158 3.63774,-32.08995 3.63774,28.62289 3.63774,-14.39812 3.63774,-34.00257 3.63774,-4.66239 3.63773,-0.56561 3.63774,1.09074 3.63774,0.57952 3.63774,0.071 3.63774,7.41931 3.63774,-7.68801 3.63774,23.24722 3.63774,-11.38953 3.63774,-9.18162 3.63774,3.07926 3.63774,-4.19151 3.63773,7.71352 3.63774,2.42263 3.63774,-7.66389 3.63774,39.02093 3.63774,-15.5482 3.63774,10.93975 3.63774,-15.61092 3.63774,8.37366 3.63774,-22.07457 3.63774,9.56097 3.63773,-7.97229 3.63774,-8.73236 3.63774,-3.98644 3.63774,28.49754 3.63774,-10.33584 3.63774,24.41004 3.63774,-16.87042 3.63774,-4.91005 3.63774,-10.40248 3.63774,51.29699 3.63774,-26.2033 3.63773,-32.76807 3.63774,4.35905 3.63774,41.32299 3.63774,-20.49587 3.63774,-24.33323 3.63774,3.00013 3.63774,1.81744 3.63774,5.17123 3.63774,36.61549 3.63774,-22.34313 3.63773,-23.37926 3.63774,0.88279 3.63774,11.84455 3.63774,-7.45342 3.63774,-10.69915 3.63774,2.99402 3.63774,3.01032 3.63774,2.20886 3.63774,4.24443 3.63774,-5.16761 3.63774,1.7906 3.63773,-1.7338 3.63774,38.1512 3.63774,-17.25551 3.63774,8.84211 3.63774,-10.89318 3.63774,-21.39917 3.63774,1.74348 3.63774,20.67622 3.63774,-11.91944 3.63774,1.72267 3.63773,-12.21197 3.63774,3.13839 3.63774,6.33387 3.63774,-6.99746 3.63774,-1.19014 3.63774,-2.51594 3.63774,-0.13445 3.63774,1.78757 3.63774,0.52213 3.63774,43.8948 3.63774,-22.26621 3.63773,17.33782 3.63774,-12.99453 3.63774,-22.71541 3.63774,1.10613 3.63774,-4.11071 3.63774,2.56388 3.63774,21.67409 3.63774,-12.93223 3.63774,-14.14264 3.63774,10.09816 3.63774,-4.53368 3.63773,-3.8341 3.63774,-2.39613 3.63774,0.68724 3.63774,-0.43878 3.63774,4.28747 3.63774,5.01648 3.63774,-1.0393 3.63774,21.46712 3.63774,-15.20836 3.63774,-9.65583 3.63773,1.60185"
           style="fill:none;stroke:#a9a9a9;stroke-width:1.5;stroke-linecap:square;stroke-linejoin:round;stroke-miterlimit:10;stroke-dasharray:none;stroke-opacity:1"
           id="path98" />
      </g>
    </g>
    <g
       id="g100">
      <g
         id="g102"
         clip-path="url(#clipPath106)">
        <path
           d="m 83.747339,218.42153 3.637739,5.31588 3.637739,-3.72343 3.637739,42.14001 3.637739,-29.48648 3.637735,-16.01462 3.63774,11.44916 3.63774,74.43591 3.63774,-38.01485 3.63774,1.89894 3.63774,-0.72609 3.63774,-48.78268 3.63774,-2.79569 3.63774,43.56942 3.63773,-6.24225 3.63774,0.14097 3.63774,-4.2405 3.63774,-31.49959 3.63774,1.50084 3.63774,44.78456 3.63774,-0.97627 3.63774,-0.88795 3.63774,-27.95592 3.63774,-15.68656 3.63774,0.0264 3.63773,3.94203 3.63774,1.62485 3.63774,-8.52735 3.63774,-0.0513 3.63774,3.75931 3.63774,-3.57216 3.63774,28.75631 3.63774,-4.00813 3.63774,-20.18472 3.63774,-2.88498 3.63774,15.03638 3.63773,-3.52897 3.63774,-13.49576 3.63774,-2.09886 3.63774,69.01213 3.63774,-26.43197 3.63774,11.97833 3.63774,-23.98196 3.63774,-14.9832 3.63774,-0.96185 3.63774,35.22799 3.63773,-7.14666 3.63774,-36.54636 3.63774,-3.67774 3.63774,45.10444 3.63774,-16.93565 3.63774,15.79788 3.63774,-10.79996 3.63774,-19.34129 3.63774,-5.86911 3.63774,30.09141 3.63774,-10.24206 3.63773,-31.47935 3.63774,-0.0997 3.63774,46.54182 3.63774,-18.08926 3.63774,-26.22256 3.63774,3.06621 3.63774,-2.45862 3.63774,0.38229 3.63774,52.10178 3.63774,-24.40054 3.63773,-30.36516 3.63774,0.74076 3.63774,17.74864 3.63774,-4.47665 3.63774,-5.96581 3.63774,-6.85096 3.63774,0.20261 3.63774,3.06666 3.63774,-3.50762 3.63774,1.18365 3.63774,-3.48296 3.63773,4.16661 3.63774,44.93153 3.63774,-2.74528 3.63774,9.70178 3.63774,-25.87405 3.63774,-24.80868 3.63774,-4.88775 3.63774,42.28284 3.63774,-10.81687 3.63774,-24.26252 3.63773,-0.13348 3.63774,-2.77956 3.63774,1.5188 3.63774,-3.04513 3.63774,3.35576 3.63774,5.67524 3.63774,1.22303 3.63774,1.61698 3.63774,3.51471 3.63774,38.49265 3.63774,-19.25893 3.63773,8.27902 3.63774,-16.336 3.63774,-25.99711 3.63774,6.55644 3.63774,0.0377 3.63774,7.42787 3.63774,25.39577 3.63774,-9.59575 3.63774,-32.91254 3.63774,5.11502 3.63774,2.2627 3.63773,-0.465 3.63774,6.86539 3.63774,-6.87135 3.63774,-6.32215 3.63774,3.49038 3.63774,0.0954 3.63774,6.90567 3.63774,52.15897 3.63774,-18.00316 3.63774,-38.73495 3.63773,-0.30654"
           style="fill:none;stroke:#a9a9a9;stroke-width:1.5;stroke-linecap:square;stroke-linejoin:round;stroke-miterlimit:10;stroke-dasharray:none;stroke-opacity:1"
           id="path108" />
      </g>
    </g>
    <g
       id="g110">
      <path
         d="m 40.09447,209.31257 0,82.02106"
         style="fill:none;stroke:#000000;stroke-width:0.8;stroke-linecap:square;stroke-linejoin:miter;stroke-miterlimit:10;stroke-dasharray:none;stroke-opacity:1"
         id="path112"
         sodipodi:nodetypes="cc" />
      <path
         d="M 82.135472,195.36828 H 522.09601"
         style="fill:none;stroke:#000000;stroke-width:0.8;stroke-linecap:square;stroke-linejoin:miter;stroke-miterlimit:10;stroke-dasharray:none;stroke-opacity:1"
         id="path114"
         sodipodi:nodetypes="cc" />
      <g
         id="g116"
         transform="translate(40.09447,307.09074)">
        <text
           xml:space="preserve"
           transform="scale(1,-1)"
           style="font-variant:normal;font-weight:normal;font-size:14px;font-family:'DejaVu Sans';-inkscape-font-specification:DejaVuSans;writing-mode:lr-tb;fill:#000000;fill-opacity:1;fill-rule:nonzero;stroke:none"
           id="text120"><tspan
             sodipodi:role="line"
             id="tspan118"
             x="0"
             y="0">cw</tspan></text>
      </g>
    </g>
    <g
       id="g122">
      <g
         id="g124"
         clip-path="url(#clipPath128)">
        <path
           d="m 83.747339,209.34694 h 3.637739 3.637739 l 3.637739,20.44205 3.637739,-20.44205 h 3.637735 3.63774 l 3.63774,20.44205 3.63774,-20.44205 3.63774,20.44205 3.63774,-20.44205 h 3.63774 3.63774 l 3.63774,20.44205 3.63773,-20.44205 3.63774,20.44205 3.63774,-20.44205 h 3.63774 3.63774 l 3.63774,20.44205 3.63774,-20.44205 3.63774,20.44205 3.63774,-20.44205 h 3.63774 3.63774 3.63773 3.63774 l 3.63774,20.44205 3.63774,-20.44205 h 3.63774 3.63774 l 3.63774,20.44205 3.63774,-20.44205 h 3.63774 3.63774 l 3.63774,20.44205 3.63773,-20.44205 h 3.63774 3.63774 l 3.63774,20.44205 3.63774,-20.44205 3.63774,20.44205 3.63774,-20.44205 3.63774,20.44205 3.63774,-20.44205 3.63774,20.44205 3.63773,-20.44205 h 3.63774 3.63774 l 3.63774,20.44205 3.63774,-20.44205 3.63774,20.44205 3.63774,-20.44205 3.63774,20.44205 3.63774,-20.44205 3.63774,20.44205 3.63774,-20.44205 h 3.63773 3.63774 l 3.63774,20.44205 3.63774,-20.44205 h 3.63774 3.63774 l 3.63774,20.44205 3.63774,-20.44205 3.63774,20.44205 3.63774,-20.44205 3.63773,20.44205 3.63774,-20.44205 3.63774,20.44205 3.63774,-20.44205 h 3.63774 3.63774 3.63774 3.63774 3.63774 3.63774 3.63774 3.63773 l 3.63774,20.44205 3.63774,-20.44205 3.63774,20.44205 3.63774,-20.44205 h 3.63774 3.63774 l 3.63774,20.44205 3.63774,-20.44205 3.63774,20.44205 3.63773,-20.44205 h 3.63774 3.63774 3.63774 3.63774 3.63774 3.63774 3.63774 3.63774 l 3.63774,20.44205 3.63774,-20.44205 3.63773,20.44205 3.63774,-20.44205 h 3.63774 3.63774 3.63774 3.63774 l 3.63774,20.44205 3.63774,-20.44205 h 3.63774 3.63774 3.63774 3.63773 3.63774 3.63774 l 3.63774,20.44205 3.63774,-20.44205 h 3.63774 3.63774 l 3.63774,20.44205 3.63774,-20.44205 h 3.63774 3.63773"
           style="fill:none;stroke:#000000;stroke-width:2;stroke-linecap:square;stroke-linejoin:round;stroke-miterlimit:10;stroke-dasharray:none;stroke-opacity:1"
           id="path130" />
      </g>
    </g>
    <g
       id="g132">
      <path
         d="M 40.09447,44.078845 H 563.92889 V 165.22718 H 40.09447 Z"
         style="fill:#ffffff;fill-opacity:1;fill-rule:nonzero;stroke:none"
         id="path134" />
      <path
         d="m 82.019413,44.078845 v -3.5"
         style="fill:#000000;fill-opacity:1;fill-rule:nonzero;stroke:#000000;stroke-width:0.8;stroke-linecap:butt;stroke-linejoin:round;stroke-miterlimit:10;stroke-dasharray:none;stroke-opacity:1"
         id="path136" />
      <g
         id="g138"
         transform="translate(78.1991,27.953845)">
        <text
           xml:space="preserve"
           transform="scale(1,-1)"
           style="font-variant:normal;font-weight:normal;font-size:12px;font-family:'DejaVu Sans';-inkscape-font-specification:DejaVuSans;writing-mode:lr-tb;fill:#000000;fill-opacity:1;fill-rule:nonzero;stroke:none"
           id="text142"><tspan
             x="0"
             y="0"
             id="tspan140">0</tspan></text>
      </g>
      <path
         d="m 127.49115,44.078845 v -3.5"
         style="fill:#000000;fill-opacity:1;fill-rule:nonzero;stroke:#000000;stroke-width:0.8;stroke-linecap:butt;stroke-linejoin:round;stroke-miterlimit:10;stroke-dasharray:none;stroke-opacity:1"
         id="path144" />
      <g
         id="g146"
         transform="translate(119.85053,27.953845)">
        <text
           xml:space="preserve"
           transform="scale(1,-1)"
           style="font-variant:normal;font-weight:normal;font-size:12px;font-family:'DejaVu Sans';-inkscape-font-specification:DejaVuSans;writing-mode:lr-tb;fill:#000000;fill-opacity:1;fill-rule:nonzero;stroke:none"
           id="text150"><tspan
             x="0 7.632"
             y="0"
             sodipodi:role="line"
             id="tspan148">50</tspan></text>
      </g>
      <path
         d="m 172.96289,44.078845 v -3.5"
         style="fill:#000000;fill-opacity:1;fill-rule:nonzero;stroke:#000000;stroke-width:0.8;stroke-linecap:butt;stroke-linejoin:round;stroke-miterlimit:10;stroke-dasharray:none;stroke-opacity:1"
         id="path152" />
      <g
         id="g154"
         transform="translate(161.50195,27.953845)">
        <text
           xml:space="preserve"
           transform="scale(1,-1)"
           style="font-variant:normal;font-weight:normal;font-size:12px;font-family:'DejaVu Sans';-inkscape-font-specification:DejaVuSans;writing-mode:lr-tb;fill:#000000;fill-opacity:1;fill-rule:nonzero;stroke:none"
           id="text158"><tspan
             x="0 7.632 15.264"
             y="0"
             sodipodi:role="line"
             id="tspan156">100</tspan></text>
      </g>
      <path
         d="m 218.43463,44.078845 v -3.5"
         style="fill:#000000;fill-opacity:1;fill-rule:nonzero;stroke:#000000;stroke-width:0.8;stroke-linecap:butt;stroke-linejoin:round;stroke-miterlimit:10;stroke-dasharray:none;stroke-opacity:1"
         id="path160" />
      <g
         id="g162"
         transform="translate(206.97369,27.953845)">
        <text
           xml:space="preserve"
           transform="scale(1,-1)"
           style="font-variant:normal;font-weight:normal;font-size:12px;font-family:'DejaVu Sans';-inkscape-font-specification:DejaVuSans;writing-mode:lr-tb;fill:#000000;fill-opacity:1;fill-rule:nonzero;stroke:none"
           id="text166"><tspan
             x="0 7.632 15.264"
             y="0"
             sodipodi:role="line"
             id="tspan164">150</tspan></text>
      </g>
      <path
         d="m 263.90636,44.078845 v -3.5"
         style="fill:#000000;fill-opacity:1;fill-rule:nonzero;stroke:#000000;stroke-width:0.8;stroke-linecap:butt;stroke-linejoin:round;stroke-miterlimit:10;stroke-dasharray:none;stroke-opacity:1"
         id="path168" />
      <g
         id="g170"
         transform="translate(252.44543,27.953845)">
        <text
           xml:space="preserve"
           transform="scale(1,-1)"
           style="font-variant:normal;font-weight:normal;font-size:12px;font-family:'DejaVu Sans';-inkscape-font-specification:DejaVuSans;writing-mode:lr-tb;fill:#000000;fill-opacity:1;fill-rule:nonzero;stroke:none"
           id="text174"><tspan
             x="0 7.632 15.264"
             y="0"
             sodipodi:role="line"
             id="tspan172">200</tspan></text>
      </g>
      <path
         d="m 309.3781,44.078845 v -3.5"
         style="fill:#000000;fill-opacity:1;fill-rule:nonzero;stroke:#000000;stroke-width:0.8;stroke-linecap:butt;stroke-linejoin:round;stroke-miterlimit:10;stroke-dasharray:none;stroke-opacity:1"
         id="path176" />
      <g
         id="g178"
         transform="translate(297.91717,27.953845)">
        <text
           xml:space="preserve"
           transform="scale(1,-1)"
           style="font-variant:normal;font-weight:normal;font-size:12px;font-family:'DejaVu Sans';-inkscape-font-specification:DejaVuSans;writing-mode:lr-tb;fill:#000000;fill-opacity:1;fill-rule:nonzero;stroke:none"
           id="text182"><tspan
             x="0 7.632 15.264"
             y="0"
             sodipodi:role="line"
             id="tspan180">250</tspan></text>
      </g>
      <path
         d="m 354.84984,44.078845 v -3.5"
         style="fill:#000000;fill-opacity:1;fill-rule:nonzero;stroke:#000000;stroke-width:0.8;stroke-linecap:butt;stroke-linejoin:round;stroke-miterlimit:10;stroke-dasharray:none;stroke-opacity:1"
         id="path184" />
      <g
         id="g186"
         transform="translate(343.3889,27.953845)">
        <text
           xml:space="preserve"
           transform="scale(1,-1)"
           style="font-variant:normal;font-weight:normal;font-size:12px;font-family:'DejaVu Sans';-inkscape-font-specification:DejaVuSans;writing-mode:lr-tb;fill:#000000;fill-opacity:1;fill-rule:nonzero;stroke:none"
           id="text190"><tspan
             x="0 7.632 15.264"
             y="0"
             sodipodi:role="line"
             id="tspan188">300</tspan></text>
      </g>
      <path
         d="m 400.32158,44.078845 v -3.5"
         style="fill:#000000;fill-opacity:1;fill-rule:nonzero;stroke:#000000;stroke-width:0.8;stroke-linecap:butt;stroke-linejoin:round;stroke-miterlimit:10;stroke-dasharray:none;stroke-opacity:1"
         id="path192" />
      <g
         id="g194"
         transform="translate(388.86064,27.953845)">
        <text
           xml:space="preserve"
           transform="scale(1,-1)"
           style="font-variant:normal;font-weight:normal;font-size:12px;font-family:'DejaVu Sans';-inkscape-font-specification:DejaVuSans;writing-mode:lr-tb;fill:#000000;fill-opacity:1;fill-rule:nonzero;stroke:none"
           id="text198"><tspan
             x="0 7.632 15.264"
             y="0"
             sodipodi:role="line"
             id="tspan196">350</tspan></text>
      </g>
      <path
         d="m 445.79332,44.078845 v -3.5"
         style="fill:#000000;fill-opacity:1;fill-rule:nonzero;stroke:#000000;stroke-width:0.8;stroke-linecap:butt;stroke-linejoin:round;stroke-miterlimit:10;stroke-dasharray:none;stroke-opacity:1"
         id="path200" />
      <g
         id="g202"
         transform="translate(434.33238,27.953845)">
        <text
           xml:space="preserve"
           transform="scale(1,-1)"
           style="font-variant:normal;font-weight:normal;font-size:12px;font-family:'DejaVu Sans';-inkscape-font-specification:DejaVuSans;writing-mode:lr-tb;fill:#000000;fill-opacity:1;fill-rule:nonzero;stroke:none"
           id="text206"><tspan
             x="0 7.632 15.264"
             y="0"
             sodipodi:role="line"
             id="tspan204">400</tspan></text>
      </g>
      <path
         d="m 491.26506,44.078845 v -3.5"
         style="fill:#000000;fill-opacity:1;fill-rule:nonzero;stroke:#000000;stroke-width:0.8;stroke-linecap:butt;stroke-linejoin:round;stroke-miterlimit:10;stroke-dasharray:none;stroke-opacity:1"
         id="path208" />
      <g
         id="g210"
         transform="translate(479.80412,27.953845)">
        <text
           xml:space="preserve"
           transform="scale(1,-1)"
           style="font-variant:normal;font-weight:normal;font-size:12px;font-family:'DejaVu Sans';-inkscape-font-specification:DejaVuSans;writing-mode:lr-tb;fill:#000000;fill-opacity:1;fill-rule:nonzero;stroke:none"
           id="text214"><tspan
             x="0 7.632 15.264"
             y="0"
             sodipodi:role="line"
             id="tspan212">450</tspan></text>
      </g>
      <path
         d="m 40.09447,58.057499 h -3.5"
         style="fill:#000000;fill-opacity:1;fill-rule:nonzero;stroke:#000000;stroke-width:0.8;stroke-linecap:butt;stroke-linejoin:round;stroke-miterlimit:10;stroke-dasharray:none;stroke-opacity:1"
         id="path216" />
      <g
         id="g218"
         transform="translate(25.453845,53.494999)">
        <text
           xml:space="preserve"
           transform="scale(1,-1)"
           style="font-variant:normal;font-weight:normal;font-size:12px;font-family:'DejaVu Sans';-inkscape-font-specification:DejaVuSans;writing-mode:lr-tb;fill:#000000;fill-opacity:1;fill-rule:nonzero;stroke:none"
           id="text222"><tspan
             x="0"
             y="0"
             id="tspan220">0</tspan></text>
      </g>
      <path
         d="m 40.09447,98.941604 h -3.5"
         style="fill:#000000;fill-opacity:1;fill-rule:nonzero;stroke:#000000;stroke-width:0.8;stroke-linecap:butt;stroke-linejoin:round;stroke-miterlimit:10;stroke-dasharray:none;stroke-opacity:1"
         id="path224" />
      <g
         id="g226"
         transform="translate(25.453845,94.379104)">
        <text
           xml:space="preserve"
           transform="scale(1,-1)"
           style="font-variant:normal;font-weight:normal;font-size:12px;font-family:'DejaVu Sans';-inkscape-font-specification:DejaVuSans;writing-mode:lr-tb;fill:#000000;fill-opacity:1;fill-rule:nonzero;stroke:none"
           id="text230"><tspan
             x="0"
             y="0"
             id="tspan228">2</tspan></text>
      </g>
      <path
         d="m 40.09447,139.82571 h -3.5"
         style="fill:#000000;fill-opacity:1;fill-rule:nonzero;stroke:#000000;stroke-width:0.8;stroke-linecap:butt;stroke-linejoin:round;stroke-miterlimit:10;stroke-dasharray:none;stroke-opacity:1"
         id="path232" />
      <g
         id="g234"
         transform="translate(25.453845,135.26321)">
        <text
           xml:space="preserve"
           transform="scale(1,-1)"
           style="font-variant:normal;font-weight:normal;font-size:12px;font-family:'DejaVu Sans';-inkscape-font-specification:DejaVuSans;writing-mode:lr-tb;fill:#000000;fill-opacity:1;fill-rule:nonzero;stroke:none"
           id="text238"><tspan
             x="0"
             y="0"
             id="tspan236">4</tspan></text>
      </g>
    </g>
    <g
       id="g240">
      <g
         id="g242"
         clip-path="url(#clipPath246)">
        <path
           d="m 83.747339,61.350565 3.637739,0.966739 3.637739,4.53924 3.637739,-3.340503 3.637739,-2.057624 3.637735,32.269292 3.63774,8.899571 3.63774,-35.271326 3.63774,-5.908519 3.63774,0.903614 3.63774,-0.04389 3.63774,28.047963 3.63774,-3.053986 3.63774,-21.606433 3.63773,-3.924952 3.63774,-0.514629 3.63774,-0.703839 3.63774,27.130469 3.63774,-7.013957 3.63774,-18.863419 3.63774,-0.09549 3.63774,0.04882 3.63774,0.653774 3.63774,21.353962 3.63774,13.857645 3.63773,-7.45761 3.63774,-5.972393 3.63774,-20.758466 3.63774,-0.660272 3.63774,17.480291 3.63774,9.139332 3.63774,-21.968596 3.63774,-6.750823 3.63774,21.687348 3.63774,2.300973 3.63774,-21.599831 3.63773,-0.619592 3.63774,7.432675 3.63774,3.3062 3.63774,-11.756783 3.63774,-1.148544 3.63774,-0.191269 3.63774,1.572036 3.63774,-1.470407 3.63774,0.387685 3.63774,-0.889136 3.63773,-0.154976 3.63774,5.028529 3.63774,2.506352 3.63774,-3.924813 3.63774,-1.701024 3.63774,-1.388518 3.63774,0.336575 3.63774,0.473567 3.63774,-0.276328 3.63774,-0.317512 3.63774,-0.326365 3.63773,34.411248 3.63774,2.076182 3.63774,-31.852297 3.63774,-4.57119 3.63774,20.431742 3.63774,5.294756 3.63774,-24.379573 3.63774,-0.785693 3.63774,0.852052 3.63774,-2.579157 3.63773,1.471515 3.63774,1.16503 3.63774,-0.65342 3.63774,1.665293 3.63774,29.078897 3.63774,6.618156 3.63774,-8.583671 3.63774,-1.34053 3.63774,12.696538 3.63774,-1.387372 3.63774,-36.829686 3.63773,-1.066599 3.63774,-0.763163 3.63774,1.382202 3.63774,-1.452046 3.63774,-1.576315 3.63774,4.297943 3.63774,1.721564 3.63774,-4.248841 3.63774,0.716844 3.63774,-2.417539 3.63773,1.837875 3.63774,-1.175726 3.63774,2.818591 3.63774,33.612003 3.63774,9.386305 3.63774,-9.352599 3.63774,5.918649 3.63774,-0.0707 3.63774,7.23791 3.63774,-42.545866 3.63774,-7.179072 3.63773,-1.76412 3.63774,3.21615 3.63774,27.106784 3.63774,8.22431 3.63774,0.772886 3.63774,11.737448 3.63774,-47.059405 3.63774,-1.026822 3.63774,13.587654 3.63774,11.666938 3.63774,2.088775 3.63773,10.094787 3.63774,0.404398 3.63774,-8.335164 3.63774,-25.120327 3.63774,-4.558798 3.63774,11.262146 3.63774,13.143612 3.63774,-22.984956 3.63774,-1.739434 3.63774,18.548251 3.63773,2.773757"
           style="fill:none;stroke:#a9a9a9;stroke-width:1.5;stroke-linecap:square;stroke-linejoin:round;stroke-miterlimit:10;stroke-dasharray:none;stroke-opacity:1"
           id="path248" />
      </g>
    </g>
    <g
       id="g250">
      <g
         id="g252"
         clip-path="url(#clipPath256)">
        <path
           d="m 83.747339,69.092768 3.637739,8.905713 3.637739,-3.245422 3.637739,-5.73037 3.637739,-5.499684 3.637735,61.108265 3.63774,-28.854517 3.63774,-31.383149 3.63774,4.883799 3.63774,-3.130583 3.63774,-2.686292 3.63774,31.770011 3.63774,-9.496188 3.63774,-20.693093 3.63773,4.055712 3.63774,-7.800319 3.63774,6.808019 3.63774,32.69736 3.63774,-21.299903 3.63774,-13.365741 3.63774,1.295006 3.63774,-3.418903 3.63774,3.816171 3.63774,46.377 3.63774,-26.795875 3.63773,-3.313253 3.63774,-5.223532 3.63774,-14.322761 3.63774,0.569143 3.63774,43.370948 3.63774,-22.318907 3.63774,-18.387867 3.63774,-2.620469 3.63774,35.598763 3.63774,-17.097498 3.63774,-18.795069 3.63773,-0.663567 3.63774,21.967155 3.63774,-3.930704 3.63774,-17.532103 3.63774,3.00355 3.63774,-3.422769 3.63774,-1.364905 3.63774,-1.424974 3.63774,3.932518 3.63774,-3.100813 3.63773,2.331507 3.63774,14.738817 3.63774,-7.689778 3.63774,-6.477885 3.63774,3.136318 3.63774,0.535628 3.63774,-0.655898 3.63774,-4.221533 3.63774,1.438557 3.63774,-5.643791 3.63774,4.91144 3.63773,24.347057 3.63774,-6.939463 3.63774,-18.794537 3.63774,1.284149 3.63774,37.835691 3.63774,-18.668418 3.63774,-19.192395 3.63774,8.353071 3.63774,-8.123533 3.63774,-3.254449 3.63773,-0.632256 3.63774,3.509212 3.63774,1.966936 3.63774,-5.962559 3.63774,42.403811 3.63774,-22.28268 3.63774,-0.01633 3.63774,-5.699349 3.63774,50.392909 3.63774,-36.029147 3.63774,-26.744758 3.63773,3.099272 3.63774,-2.115146 3.63774,-1.201552 3.63774,2.047923 3.63774,-1.847124 3.63774,2.762194 3.63774,-3.039694 3.63774,0.09385 3.63774,1.266052 3.63774,0.12686 3.63773,-0.40902 3.63774,-2.52482 3.63774,4.438904 3.63774,39.347306 3.63774,-21.063871 3.63774,18.785841 3.63774,-15.013207 3.63774,37.080877 3.63774,-23.96906 3.63774,-31.597416 3.63774,-5.768293 3.63773,-0.993023 3.63774,4.441247 3.63774,46.346355 3.63774,-24.550602 3.63774,37.833882 3.63774,-33.034164 3.63774,-28.346293 3.63774,-2.56577 3.63774,3.488658 3.63774,-0.74799 3.63774,47.665159 3.63773,-26.909266 3.63774,13.374998 3.63774,-15.215334 3.63774,-22.184273 3.63774,3.785817 3.63774,58.566218 3.63774,-39.199022 3.63774,-26.687996 3.63774,5.072834 3.63774,12.686418 3.63773,-5.490972"
           style="fill:none;stroke:#a9a9a9;stroke-width:1.5;stroke-linecap:square;stroke-linejoin:round;stroke-miterlimit:10;stroke-dasharray:none;stroke-opacity:1"
           id="path258" />
      </g>
    </g>
    <g
       id="g260">
      <g
         id="g262"
         clip-path="url(#clipPath266)">
        <path
           d="m 83.747339,59.957468 3.637739,31.018826 3.637739,16.709736 3.637739,-42.324064 3.637739,-0.350102 3.637735,29.091396 3.63774,21.20684 3.63774,-52.129654 3.63774,0.29904 3.63774,-4.430363 3.63774,1.040327 3.63774,43.84814 3.63774,11.96015 3.63774,-47.08984 3.63773,-1.756648 3.63774,-6.455905 3.63774,0.963558 3.63774,34.344126 3.63774,2.481923 3.63774,-32.525535 3.63774,-2.110951 3.63774,-3.134347 3.63774,1.672815 3.63774,28.46117 3.63774,11.604564 3.63773,14.79262 3.63774,-2.64369 3.63774,-46.175508 3.63774,-4.970682 3.63774,18.794876 3.63774,1.311133 3.63774,-18.627601 3.63774,-6.776319 3.63774,29.898816 3.63774,10.112607 3.63774,-30.172072 3.63773,-7.416225 3.63774,13.271138 3.63774,-0.06867 3.63774,-11.513983 3.63774,0.214574 3.63774,-1.542504 3.63774,-0.177513 3.63774,-1.365371 3.63774,-0.893205 3.63774,3.644372 3.63773,0.464108 3.63774,16.180364 3.63774,20.66699 3.63774,-33.199043 3.63774,-3.774135 3.63774,2.269196 3.63774,-1.964979 3.63774,-0.629219 3.63774,1.009494 3.63774,-4.363554 3.63774,2.336069 3.63773,25.145375 3.63774,5.897895 3.63774,-24.282418 3.63774,-8.366113 3.63774,25.813483 3.63774,15.411824 3.63774,-37.190088 3.63774,0.407161 3.63774,-1.080979 3.63774,-3.210376 3.63773,3.581502 3.63774,0.681993 3.63774,-3.5614 3.63774,3.921935 3.63774,29.072741 3.63774,13.776701 3.63774,-1.51784 3.63774,0.27544 3.63774,-17.393135 3.63774,6.298554 3.63774,-29.260674 3.63773,-4.355084 3.63774,2.018109 3.63774,-4.338643 3.63774,1.957871 3.63774,-0.07608 3.63774,6.686812 3.63774,11.338497 3.63774,-10.609914 3.63774,-8.517847 3.63774,4.260475 3.63773,-5.044364 3.63774,3.134081 3.63774,-1.519328 3.63774,22.840112 3.63774,19.419698 3.63774,7.95402 3.63774,-0.34413 3.63774,-17.52836 3.63774,14.62207 3.63774,-38.811475 3.63774,-8.649745 3.63773,-0.902391 3.63774,1.749202 3.63774,19.212122 3.63774,12.207942 3.63774,8.563355 3.63774,19.82011 3.63774,-51.345173 3.63774,-6.578034 3.63774,9.523288 3.63774,5.175618 3.63774,4.578526 3.63773,4.561716 3.63774,4.422777 3.63774,-5.269928 3.63774,-19.68187 3.63774,-3.827001 3.63774,13.080831 3.63774,22.326647 3.63774,-34.173338 3.63774,0.588595 3.63774,37.720016 3.63773,11.74233"
           style="fill:none;stroke:#a9a9a9;stroke-width:1.5;stroke-linecap:square;stroke-linejoin:round;stroke-miterlimit:10;stroke-dasharray:none;stroke-opacity:1"
           id="path268" />
      </g>
    </g>
    <g
       id="g270">
      <g
         id="g272"
         clip-path="url(#clipPath276)">
        <path
           d="m 83.747339,69.003559 3.637739,3.036904 3.637739,-3.700543 3.637739,0.703297 3.637739,-2.937355 3.637735,46.571998 3.63774,-18.589371 3.63774,-28.80559 3.63774,1.469305 3.63774,4.667909 3.63774,-7.88354 3.63774,20.378635 3.63774,-1.348311 3.63774,-15.087895 3.63773,-2.005829 3.63774,1.461336 3.63774,-3.802718 3.63774,26.723902 3.63774,-5.062651 3.63774,-12.773811 3.63774,-5.709044 3.63774,-0.306624 3.63774,1.9659 3.63774,65.308207 3.63774,-41.834561 3.63773,0.670192 3.63774,-8.055029 3.63774,-15.596764 3.63774,1.870014 3.63774,55.343678 3.63774,-36.627582 3.63774,-25.949863 3.63774,-0.09266 3.63774,41.379235 3.63774,-19.357525 3.63774,-20.285087 3.63773,3.118256 3.63774,19.537817 3.63774,-12.767749 3.63774,-6.813138 3.63774,-5.087998 3.63774,4.438187 3.63774,-0.488991 3.63774,0.600087 3.63774,-2.102777 3.63774,-1.466608 3.63773,-3.748744 3.63774,12.502712 3.63774,-5.659153 3.63774,-2.432116 3.63774,-0.865967 3.63774,5.724243 3.63774,-2.707531 3.63774,-1.51708 3.63774,2.577245 3.63774,3.279433 3.63774,-1.456893 3.63773,14.37779 3.63774,-7.143297 3.63774,-13.81011 3.63774,-4.771838 3.63774,31.999586 3.63774,-11.179357 3.63774,-5.854556 3.63774,-1.869883 3.63774,-3.803597 3.63774,-6.905631 3.63773,4.11333 3.63774,0.886281 3.63774,0.04205 3.63774,-0.16805 3.63774,40.621719 3.63774,-21.242673 3.63774,6.007518 3.63774,-12.910902 3.63774,52.668247 3.63774,-31.853688 3.63774,-32.909987 3.63773,3.51296 3.63774,-2.315233 3.63774,-0.02454 3.63774,-6.533274 3.63774,5.501516 3.63774,-1.247413 3.63774,-3.19183 3.63774,0.149611 3.63774,2.709293 3.63774,-1.32341 3.63773,1.159636 3.63774,0.222671 3.63774,2.420948 3.63774,37.2018 3.63774,-25.476188 3.63774,30.995458 3.63774,-21.263296 3.63774,57.516436 3.63774,-40.45311 3.63774,-42.564956 3.63774,2.625836 3.63773,1.699476 3.63774,-3.189249 3.63774,59.958723 3.63774,-19.67998 3.63774,21.39604 3.63774,-20.01612 3.63774,-39.006173 3.63774,-5.537957 3.63774,6.296232 3.63774,4.155008 3.63774,40.29323 3.63773,-25.513949 3.63774,12.215151 3.63774,-21.298508 3.63774,-12.003527 3.63774,-1.449162 3.63774,65.223615 3.63774,-31.589411 3.63774,-34.337696 3.63774,0.337731 3.63774,7.294245 3.63773,-1.005114"
           style="fill:none;stroke:#a9a9a9;stroke-width:1.5;stroke-linecap:square;stroke-linejoin:round;stroke-miterlimit:10;stroke-dasharray:none;stroke-opacity:1"
           id="path278" />
      </g>
    </g>
    <g
       id="g280">
      <g
         id="g282"
         clip-path="url(#clipPath286)">
        <path
           d="m 83.747339,62.001644 3.637739,11.829241 3.637739,-3.74314 3.637739,-6.810668 3.637739,-1.320913 3.637735,34.760843 3.63774,-17.454774 3.63774,-16.155313 3.63774,-1.589347 3.63774,0.517796 3.63774,-2.060387 3.63774,33.399686 3.63774,-6.915129 3.63774,-26.371716 3.63773,4.915729 3.63774,-3.376645 3.63774,-1.261368 3.63774,23.63829 3.63774,-9.234981 3.63774,-11.331728 3.63774,-1.989398 3.63774,-1.305745 3.63774,-0.286385 3.63774,25.473168 3.63774,-10.844579 3.63773,-0.361726 3.63774,-1.036398 3.63774,-12.057392 3.63774,2.310512 3.63774,8.74586 3.63774,-0.299021 3.63774,-10.333019 3.63774,2.341949 3.63774,26.362886 3.63774,-10.71713 3.63774,-16.184578 3.63773,0.518797 3.63774,9.171868 3.63774,-4.874279 3.63774,-10.015011 3.63774,0.746714 3.63774,4.508155 3.63774,-2.864512 3.63774,-0.611258 3.63774,0.851352 3.63774,4.987962 3.63773,-2.308399 3.63774,22.397368 3.63774,-9.340763 3.63774,-16.573965 3.63774,1.632051 3.63774,-0.08985 3.63774,0.285046 3.63774,-1.765282 3.63774,0.848543 3.63774,0.650507 3.63774,-0.674229 3.63773,19.51377 3.63774,-8.706936 3.63774,-10.183425 3.63774,-0.241856 3.63774,29.153849 3.63774,-10.904774 3.63774,-15.517061 3.63774,-0.599704 3.63774,-2.858048 3.63774,2.211453 3.63773,-3.788648 3.63774,3.528688 3.63774,0.4218 3.63774,-0.442303 3.63774,19.428445 3.63774,-11.524789 3.63774,12.613399 3.63774,-7.447645 3.63774,27.990756 3.63774,-12.655567 3.63774,-29.040189 3.63773,3.266347 3.63774,-5.585216 3.63774,2.603339 3.63774,-2.370844 3.63774,0.108723 3.63774,8.400912 3.63774,2.624148 3.63774,-7.244829 3.63774,-2.952546 3.63774,1.150701 3.63773,0.13282 3.63774,4.714254 3.63774,-1.720801 3.63774,52.868968 3.63774,-21.068338 3.63774,-5.477682 3.63774,-8.205981 3.63774,6.641829 3.63774,-9.411041 3.63774,-16.22192 3.63774,-2.778545 3.63773,2.631453 3.63774,0.680119 3.63774,35.912496 3.63774,-2.658781 3.63774,12.911381 3.63774,-18.013181 3.63774,-28.111407 3.63774,3.57602 3.63774,10.846274 3.63774,-0.356068 3.63774,37.469412 3.63773,-15.73994 3.63774,-9.248556 3.63774,-12.260055 3.63774,-17.051562 3.63774,-1.593292 3.63774,41.988005 3.63774,-2.835166 3.63774,-34.214363 3.63774,-2.4772 3.63774,18.153863 3.63773,-13.224283"
           style="fill:none;stroke:#a9a9a9;stroke-width:1.5;stroke-linecap:square;stroke-linejoin:round;stroke-miterlimit:10;stroke-dasharray:none;stroke-opacity:1"
           id="path288" />
      </g>
    </g>
    <g
       id="g290">
      <path
         d="M 40.09447,57.618092 V 139.84479"
         style="fill:none;stroke:#000000;stroke-width:0.8;stroke-linecap:square;stroke-linejoin:miter;stroke-miterlimit:10;stroke-dasharray:none;stroke-opacity:1"
         id="path292"
         sodipodi:nodetypes="cc" />
      <path
         d="m 39.366037,44.078845 481.793423,0"
         style="fill:none;stroke:#000000;stroke-width:0.8;stroke-linecap:square;stroke-linejoin:miter;stroke-miterlimit:10;stroke-dasharray:none;stroke-opacity:1"
         id="path294"
         sodipodi:nodetypes="cc" />
      <g
         id="g296"
         transform="translate(40.09447,154.62398)">
        <text
           xml:space="preserve"
           transform="scale(1,-1)"
           style="font-variant:normal;font-weight:normal;font-size:14px;font-family:'DejaVu Sans';-inkscape-font-specification:DejaVuSans;writing-mode:lr-tb;fill:#000000;fill-opacity:1;fill-rule:nonzero;stroke:none"
           id="text300"><tspan
             sodipodi:role="line"
             id="tspan298"
             x="0"
             y="0">ccw</tspan></text>
      </g>
      <g
         id="g1519"
         transform="translate(172.47824,-8.2412813)">
        <g
           id="g1504"
           transform="translate(-33.553786,-1.4716573)">
          <path
             style="fill:none;stroke:#000000;stroke-width:2;stroke-linecap:butt;stroke-linejoin:miter;stroke-dasharray:none;stroke-opacity:1"
             d="M 190.28529,320.63644 H 209.564"
             id="path870" />
          <text
             xml:space="preserve"
             style="font-size:12px;line-height:1.25;font-family:sans-serif;stroke-width:0.75"
             x="217.36378"
             y="-318.52414"
             id="text1460"
             transform="scale(1,-1)"><tspan
               sodipodi:role="line"
               id="tspan1458"
               style="font-style:normal;font-variant:normal;font-weight:normal;font-stretch:normal;font-family:'DejaVu Sans';-inkscape-font-specification:'DejaVu Sans';stroke-width:0.75"
               x="217.36378"
               y="-318.52414">regressor</tspan></text>
        </g>
        <g
           id="g1509"
           transform="translate(75.348853,18.594871)">
          <path
             style="fill:none;stroke:#a9a9a9;stroke-width:2;stroke-linecap:butt;stroke-linejoin:miter;stroke-dasharray:none;stroke-opacity:1"
             d="m 190.21171,300.56992 h 19.27871"
             id="path870-3" />
          <text
             xml:space="preserve"
             style="font-size:12px;line-height:1.25;font-family:sans-serif;stroke-width:0.75"
             x="216.38222"
             y="-298.45761"
             id="text1460-6"
             transform="scale(1,-1)"><tspan
               sodipodi:role="line"
               id="tspan1458-7"
               style="font-style:normal;font-variant:normal;font-weight:normal;font-stretch:normal;font-family:'DejaVu Sans';-inkscape-font-specification:'DejaVu Sans';stroke-width:0.75"
               x="216.38222"
               y="-298.45761">response</tspan></text>
        </g>
      </g>
    </g>
    <g
       id="g302">
      <g
         id="g304"
         clip-path="url(#clipPath308)">
        <path
           d="m 83.747339,58.057499 3.637739,20.442052 3.637739,-20.442052 h 3.637739 3.637739 l 3.637735,20.442052 3.63774,-20.442052 h 3.63774 3.63774 3.63774 3.63774 l 3.63774,20.442052 3.63774,-20.442052 h 3.63774 3.63773 3.63774 3.63774 l 3.63774,20.442052 3.63774,-20.442052 h 3.63774 3.63774 3.63774 3.63774 l 3.63774,20.442052 3.63774,-20.442052 3.63773,20.442052 3.63774,-20.442052 h 3.63774 3.63774 l 3.63774,20.442052 3.63774,-20.442052 h 3.63774 3.63774 l 3.63774,20.442052 3.63774,-20.442052 h 3.63774 3.63773 l 3.63774,20.442052 3.63774,-20.442052 h 3.63774 3.63774 3.63774 3.63774 3.63774 3.63774 3.63774 3.63773 l 3.63774,20.442052 3.63774,-20.442052 h 3.63774 3.63774 3.63774 3.63774 3.63774 3.63774 3.63774 3.63774 l 3.63773,20.442052 3.63774,-20.442052 h 3.63774 3.63774 l 3.63774,20.442052 3.63774,-20.442052 h 3.63774 3.63774 3.63774 3.63774 3.63773 3.63774 3.63774 3.63774 l 3.63774,20.442052 3.63774,-20.442052 3.63774,20.442052 3.63774,-20.442052 3.63774,20.442052 3.63774,-20.442052 3.63774,20.442052 3.63773,-20.442052 h 3.63774 3.63774 3.63774 3.63774 l 3.63774,20.442052 3.63774,-20.442052 h 3.63774 3.63774 3.63774 3.63773 l 3.63774,20.442052 3.63774,-20.442052 3.63774,20.442052 3.63774,-20.442052 3.63774,20.442052 3.63774,-20.442052 3.63774,20.442052 3.63774,-20.442052 h 3.63774 3.63774 3.63773 3.63774 l 3.63774,20.442052 3.63774,-20.442052 3.63774,20.442052 3.63774,-20.442052 h 3.63774 3.63774 l 3.63774,20.442052 3.63774,-20.442052 3.63774,20.442052 3.63773,-20.442052 3.63774,20.442052 3.63774,-20.442052 h 3.63774 3.63774 l 3.63774,20.442052 3.63774,-20.442052 h 3.63774 3.63774 l 3.63774,20.442052 3.63773,-20.442052"
           style="fill:none;stroke:#000000;stroke-width:2;stroke-linecap:square;stroke-linejoin:round;stroke-miterlimit:10;stroke-dasharray:none;stroke-opacity:1"
           id="path310" />
      </g>
    </g>
    <g
       id="g312">
      <g
         id="g314"
         transform="translate(255.22172,4.8664998)">
        <text
           xml:space="preserve"
           transform="scale(1,-1)"
           style="font-variant:normal;font-weight:normal;font-size:14px;font-family:'DejaVu Sans';-inkscape-font-specification:DejaVuSans;writing-mode:lr-tb;fill:#000000;fill-opacity:1;fill-rule:nonzero;stroke:none"
           id="text318"><tspan
             x="0"
             sodipodi:role="line"
             id="tspan316"
             y="0"
             style="font-size:14px">time [s]</tspan></text>
      </g>
      <g
         id="g320"
         transform="rotate(90,-60.773625,76.69574)">
        <text
           xml:space="preserve"
           transform="scale(1,-1)"
           style="font-variant:normal;font-weight:normal;font-size:14px;font-family:'DejaVu Sans';-inkscape-font-specification:DejaVuSans;writing-mode:lr-tb;fill:#000000;fill-opacity:1;fill-rule:nonzero;stroke:none"
           id="text324"
           x="7.492456"
           y="-3.3299804"><tspan
             sodipodi:role="line"
             id="tspan322"
             x="7.492456"
             y="-3.3299804"
             style="font-size:14px">z-score</tspan></text>
      </g>
    </g>
  </g>
</svg>
