<?xml version="1.0" encoding="utf-8" standalone="no"?>
<!DOCTYPE svg PUBLIC "-//W3C//DTD SVG 1.1//EN"
  "http://www.w3.org/Graphics/SVG/1.1/DTD/svg11.dtd">
<svg xmlns:xlink="http://www.w3.org/1999/xlink" width="340.15748pt" height="283.464567pt" viewBox="0 0 340.15748 283.464567" xmlns="http://www.w3.org/2000/svg" version="1.1">
 <metadata>
  <rdf:RDF xmlns:dc="http://purl.org/dc/elements/1.1/" xmlns:cc="http://creativecommons.org/ns#" xmlns:rdf="http://www.w3.org/1999/02/22-rdf-syntax-ns#">
   <cc:Work>
    <dc:type rdf:resource="http://purl.org/dc/dcmitype/StillImage"/>
    <dc:date>2022-11-24T13:34:05.506319</dc:date>
    <dc:format>image/svg+xml</dc:format>
    <dc:creator>
     <cc:Agent>
      <dc:title>Matplotlib v3.6.2, https://matplotlib.org/</dc:title>
     </cc:Agent>
    </dc:creator>
   </cc:Work>
  </rdf:RDF>
 </metadata>
 <defs>
  <style type="text/css">*{stroke-linejoin: round; stroke-linecap: butt}</style>
 </defs>
 <g id="figure_1">
  <g id="patch_1">
   <path d="M 0 283.464567 
L 340.15748 283.464567 
L 340.15748 0 
L 0 0 
z
" style="fill: #ffffff"/>
  </g>
  <g id="axes_1">
   <g id="patch_2">
    <path d="M 37.185095 242.300722 
L 337.15724 242.300722 
L 337.15724 3.00024 
L 37.185095 3.00024 
z
" style="fill: #ffffff"/>
   </g>
   <g id="matplotlib.axis_1">
    <g id="xtick_1">
     <g id="line2d_1">
      <defs>
       <path id="m5f8f443775" d="M 0 0 
L 0 3.5 
" style="stroke: #000000; stroke-width: 0.8"/>
      </defs>
      <g>
       <use xlink:href="#m5f8f443775" x="37.185095" y="242.300722" style="stroke: #000000; stroke-width: 0.8"/>
      </g>
     </g>
     <g id="text_1">
      <!-- 0 -->
      <g transform="translate(33.367595 258.418847) scale(0.12 -0.12)">
       <defs>
        <path id="DejaVuSans-30" d="M 2034 4250 
Q 1547 4250 1301 3770 
Q 1056 3291 1056 2328 
Q 1056 1369 1301 889 
Q 1547 409 2034 409 
Q 2525 409 2770 889 
Q 3016 1369 3016 2328 
Q 3016 3291 2770 3770 
Q 2525 4250 2034 4250 
z
M 2034 4750 
Q 2819 4750 3233 4129 
Q 3647 3509 3647 2328 
Q 3647 1150 3233 529 
Q 2819 -91 2034 -91 
Q 1250 -91 836 529 
Q 422 1150 422 2328 
Q 422 3509 836 4129 
Q 1250 4750 2034 4750 
z
" transform="scale(0.015625)"/>
       </defs>
       <use xlink:href="#DejaVuSans-30"/>
      </g>
     </g>
    </g>
    <g id="xtick_2">
     <g id="line2d_2">
      <g>
       <use xlink:href="#m5f8f443775" x="77.181381" y="242.300722" style="stroke: #000000; stroke-width: 0.8"/>
      </g>
     </g>
     <g id="text_2">
      <!-- 20 -->
      <g transform="translate(69.546381 258.418847) scale(0.12 -0.12)">
       <defs>
        <path id="DejaVuSans-32" d="M 1228 531 
L 3431 531 
L 3431 0 
L 469 0 
L 469 531 
Q 828 903 1448 1529 
Q 2069 2156 2228 2338 
Q 2531 2678 2651 2914 
Q 2772 3150 2772 3378 
Q 2772 3750 2511 3984 
Q 2250 4219 1831 4219 
Q 1534 4219 1204 4116 
Q 875 4013 500 3803 
L 500 4441 
Q 881 4594 1212 4672 
Q 1544 4750 1819 4750 
Q 2544 4750 2975 4387 
Q 3406 4025 3406 3419 
Q 3406 3131 3298 2873 
Q 3191 2616 2906 2266 
Q 2828 2175 2409 1742 
Q 1991 1309 1228 531 
z
" transform="scale(0.015625)"/>
       </defs>
       <use xlink:href="#DejaVuSans-32"/>
       <use xlink:href="#DejaVuSans-30" x="63.623047"/>
      </g>
     </g>
    </g>
    <g id="xtick_3">
     <g id="line2d_3">
      <g>
       <use xlink:href="#m5f8f443775" x="117.177667" y="242.300722" style="stroke: #000000; stroke-width: 0.8"/>
      </g>
     </g>
     <g id="text_3">
      <!-- 40 -->
      <g transform="translate(109.542667 258.418847) scale(0.12 -0.12)">
       <defs>
        <path id="DejaVuSans-34" d="M 2419 4116 
L 825 1625 
L 2419 1625 
L 2419 4116 
z
M 2253 4666 
L 3047 4666 
L 3047 1625 
L 3713 1625 
L 3713 1100 
L 3047 1100 
L 3047 0 
L 2419 0 
L 2419 1100 
L 313 1100 
L 313 1709 
L 2253 4666 
z
" transform="scale(0.015625)"/>
       </defs>
       <use xlink:href="#DejaVuSans-34"/>
       <use xlink:href="#DejaVuSans-30" x="63.623047"/>
      </g>
     </g>
    </g>
    <g id="xtick_4">
     <g id="line2d_4">
      <g>
       <use xlink:href="#m5f8f443775" x="157.173953" y="242.300722" style="stroke: #000000; stroke-width: 0.8"/>
      </g>
     </g>
     <g id="text_4">
      <!-- 60 -->
      <g transform="translate(149.538953 258.418847) scale(0.12 -0.12)">
       <defs>
        <path id="DejaVuSans-36" d="M 2113 2584 
Q 1688 2584 1439 2293 
Q 1191 2003 1191 1497 
Q 1191 994 1439 701 
Q 1688 409 2113 409 
Q 2538 409 2786 701 
Q 3034 994 3034 1497 
Q 3034 2003 2786 2293 
Q 2538 2584 2113 2584 
z
M 3366 4563 
L 3366 3988 
Q 3128 4100 2886 4159 
Q 2644 4219 2406 4219 
Q 1781 4219 1451 3797 
Q 1122 3375 1075 2522 
Q 1259 2794 1537 2939 
Q 1816 3084 2150 3084 
Q 2853 3084 3261 2657 
Q 3669 2231 3669 1497 
Q 3669 778 3244 343 
Q 2819 -91 2113 -91 
Q 1303 -91 875 529 
Q 447 1150 447 2328 
Q 447 3434 972 4092 
Q 1497 4750 2381 4750 
Q 2619 4750 2861 4703 
Q 3103 4656 3366 4563 
z
" transform="scale(0.015625)"/>
       </defs>
       <use xlink:href="#DejaVuSans-36"/>
       <use xlink:href="#DejaVuSans-30" x="63.623047"/>
      </g>
     </g>
    </g>
    <g id="xtick_5">
     <g id="line2d_5">
      <g>
       <use xlink:href="#m5f8f443775" x="197.170239" y="242.300722" style="stroke: #000000; stroke-width: 0.8"/>
      </g>
     </g>
     <g id="text_5">
      <!-- 80 -->
      <g transform="translate(189.535239 258.418847) scale(0.12 -0.12)">
       <defs>
        <path id="DejaVuSans-38" d="M 2034 2216 
Q 1584 2216 1326 1975 
Q 1069 1734 1069 1313 
Q 1069 891 1326 650 
Q 1584 409 2034 409 
Q 2484 409 2743 651 
Q 3003 894 3003 1313 
Q 3003 1734 2745 1975 
Q 2488 2216 2034 2216 
z
M 1403 2484 
Q 997 2584 770 2862 
Q 544 3141 544 3541 
Q 544 4100 942 4425 
Q 1341 4750 2034 4750 
Q 2731 4750 3128 4425 
Q 3525 4100 3525 3541 
Q 3525 3141 3298 2862 
Q 3072 2584 2669 2484 
Q 3125 2378 3379 2068 
Q 3634 1759 3634 1313 
Q 3634 634 3220 271 
Q 2806 -91 2034 -91 
Q 1263 -91 848 271 
Q 434 634 434 1313 
Q 434 1759 690 2068 
Q 947 2378 1403 2484 
z
M 1172 3481 
Q 1172 3119 1398 2916 
Q 1625 2713 2034 2713 
Q 2441 2713 2670 2916 
Q 2900 3119 2900 3481 
Q 2900 3844 2670 4047 
Q 2441 4250 2034 4250 
Q 1625 4250 1398 4047 
Q 1172 3844 1172 3481 
z
" transform="scale(0.015625)"/>
       </defs>
       <use xlink:href="#DejaVuSans-38"/>
       <use xlink:href="#DejaVuSans-30" x="63.623047"/>
      </g>
     </g>
    </g>
    <g id="xtick_6">
     <g id="line2d_6">
      <g>
       <use xlink:href="#m5f8f443775" x="237.166525" y="242.300722" style="stroke: #000000; stroke-width: 0.8"/>
      </g>
     </g>
     <g id="text_6">
      <!-- 100 -->
      <g transform="translate(225.714025 258.418847) scale(0.12 -0.12)">
       <defs>
        <path id="DejaVuSans-31" d="M 794 531 
L 1825 531 
L 1825 4091 
L 703 3866 
L 703 4441 
L 1819 4666 
L 2450 4666 
L 2450 531 
L 3481 531 
L 3481 0 
L 794 0 
L 794 531 
z
" transform="scale(0.015625)"/>
       </defs>
       <use xlink:href="#DejaVuSans-31"/>
       <use xlink:href="#DejaVuSans-30" x="63.623047"/>
       <use xlink:href="#DejaVuSans-30" x="127.246094"/>
      </g>
     </g>
    </g>
    <g id="xtick_7">
     <g id="line2d_7">
      <g>
       <use xlink:href="#m5f8f443775" x="277.162811" y="242.300722" style="stroke: #000000; stroke-width: 0.8"/>
      </g>
     </g>
     <g id="text_7">
      <!-- 120 -->
      <g transform="translate(265.710311 258.418847) scale(0.12 -0.12)">
       <use xlink:href="#DejaVuSans-31"/>
       <use xlink:href="#DejaVuSans-32" x="63.623047"/>
       <use xlink:href="#DejaVuSans-30" x="127.246094"/>
      </g>
     </g>
    </g>
    <g id="xtick_8">
     <g id="line2d_8">
      <g>
       <use xlink:href="#m5f8f443775" x="317.159097" y="242.300722" style="stroke: #000000; stroke-width: 0.8"/>
      </g>
     </g>
     <g id="text_8">
      <!-- 140 -->
      <g transform="translate(305.706597 258.418847) scale(0.12 -0.12)">
       <use xlink:href="#DejaVuSans-31"/>
       <use xlink:href="#DejaVuSans-34" x="63.623047"/>
       <use xlink:href="#DejaVuSans-30" x="127.246094"/>
      </g>
     </g>
    </g>
   </g>
   <g id="matplotlib.axis_2">
    <g id="ytick_1">
     <g id="line2d_9">
      <defs>
       <path id="m6722f666c7" d="M 0 0 
L -3.5 0 
" style="stroke: #000000; stroke-width: 0.8"/>
      </defs>
      <g>
       <use xlink:href="#m6722f666c7" x="37.185095" y="214.689128" style="stroke: #000000; stroke-width: 0.8"/>
      </g>
     </g>
     <g id="text_9">
      <!-- 0 -->
      <g transform="translate(22.550095 219.24819) scale(0.12 -0.12)">
       <use xlink:href="#DejaVuSans-30"/>
      </g>
     </g>
    </g>
    <g id="ytick_2">
     <g id="line2d_10">
      <g>
       <use xlink:href="#m6722f666c7" x="37.185095" y="174.310586" style="stroke: #000000; stroke-width: 0.8"/>
      </g>
     </g>
     <g id="text_10">
      <!-- 1 -->
      <g transform="translate(22.550095 178.869648) scale(0.12 -0.12)">
       <use xlink:href="#DejaVuSans-31"/>
      </g>
     </g>
    </g>
    <g id="ytick_3">
     <g id="line2d_11">
      <g>
       <use xlink:href="#m6722f666c7" x="37.185095" y="133.932044" style="stroke: #000000; stroke-width: 0.8"/>
      </g>
     </g>
     <g id="text_11">
      <!-- 2 -->
      <g transform="translate(22.550095 138.491106) scale(0.12 -0.12)">
       <use xlink:href="#DejaVuSans-32"/>
      </g>
     </g>
    </g>
    <g id="ytick_4">
     <g id="line2d_12">
      <g>
       <use xlink:href="#m6722f666c7" x="37.185095" y="93.553502" style="stroke: #000000; stroke-width: 0.8"/>
      </g>
     </g>
     <g id="text_12">
      <!-- 3 -->
      <g transform="translate(22.550095 98.112564) scale(0.12 -0.12)">
       <defs>
        <path id="DejaVuSans-33" d="M 2597 2516 
Q 3050 2419 3304 2112 
Q 3559 1806 3559 1356 
Q 3559 666 3084 287 
Q 2609 -91 1734 -91 
Q 1441 -91 1130 -33 
Q 819 25 488 141 
L 488 750 
Q 750 597 1062 519 
Q 1375 441 1716 441 
Q 2309 441 2620 675 
Q 2931 909 2931 1356 
Q 2931 1769 2642 2001 
Q 2353 2234 1838 2234 
L 1294 2234 
L 1294 2753 
L 1863 2753 
Q 2328 2753 2575 2939 
Q 2822 3125 2822 3475 
Q 2822 3834 2567 4026 
Q 2313 4219 1838 4219 
Q 1578 4219 1281 4162 
Q 984 4106 628 3988 
L 628 4550 
Q 988 4650 1302 4700 
Q 1616 4750 1894 4750 
Q 2613 4750 3031 4423 
Q 3450 4097 3450 3541 
Q 3450 3153 3228 2886 
Q 3006 2619 2597 2516 
z
" transform="scale(0.015625)"/>
       </defs>
       <use xlink:href="#DejaVuSans-33"/>
      </g>
     </g>
    </g>
    <g id="ytick_5">
     <g id="line2d_13">
      <g>
       <use xlink:href="#m6722f666c7" x="37.185095" y="53.17496" style="stroke: #000000; stroke-width: 0.8"/>
      </g>
     </g>
     <g id="text_13">
      <!-- 4 -->
      <g transform="translate(22.550095 57.734022) scale(0.12 -0.12)">
       <use xlink:href="#DejaVuSans-34"/>
      </g>
     </g>
    </g>
    <g id="ytick_6">
     <g id="line2d_14">
      <g>
       <use xlink:href="#m6722f666c7" x="37.185095" y="12.796418" style="stroke: #000000; stroke-width: 0.8"/>
      </g>
     </g>
     <g id="text_14">
      <!-- 5 -->
      <g transform="translate(22.550095 17.35548) scale(0.12 -0.12)">
       <defs>
        <path id="DejaVuSans-35" d="M 691 4666 
L 3169 4666 
L 3169 4134 
L 1269 4134 
L 1269 2991 
Q 1406 3038 1543 3061 
Q 1681 3084 1819 3084 
Q 2600 3084 3056 2656 
Q 3513 2228 3513 1497 
Q 3513 744 3044 326 
Q 2575 -91 1722 -91 
Q 1428 -91 1123 -41 
Q 819 9 494 109 
L 494 744 
Q 775 591 1075 516 
Q 1375 441 1709 441 
Q 2250 441 2565 725 
Q 2881 1009 2881 1497 
Q 2881 1984 2565 2268 
Q 2250 2553 1709 2553 
Q 1456 2553 1204 2497 
Q 953 2441 691 2322 
L 691 4666 
z
" transform="scale(0.015625)"/>
       </defs>
       <use xlink:href="#DejaVuSans-35"/>
      </g>
     </g>
    </g>
   </g>
   <g id="line2d_15">
    <path d="M 40.984742 198.973512 
L 48.983999 202.566936 
L 56.983257 206.536457 
L 64.982514 184.352325 
L 72.981771 165.282487 
L 80.981028 197.623605 
L 88.980285 205.331456 
L 96.979543 142.807715 
L 104.9788 130.489809 
L 112.978057 115.798322 
L 120.977314 116.679813 
L 128.976571 187.788805 
L 136.975829 200.726514 
L 144.975086 135.627228 
L 152.974343 117.1822 
L 160.9736 147.789881 
L 168.972858 153.344957 
L 176.972115 194.740858 
L 184.971372 201.903331 
L 192.970629 151.538773 
L 200.969886 131.594097 
L 208.969144 119.823396 
L 216.968401 108.813057 
L 224.967658 191.752804 
L 232.966915 200.933798 
L 240.966172 204.694419 
L 248.96543 207.486595 
L 256.964687 198.803266 
L 264.963944 196.788421 
L 272.963201 202.24304 
L 280.962458 206.926403 
L 288.961716 155.971816 
L 296.960973 128.549449 
L 304.96023 191.073694 
L 312.959487 204.331772 
L 320.958744 195.627388 
L 328.958002 194.451867 
L 336.957259 202.867988 
L 341.15748 204.043221 
" clip-path="url(#p5f0bce82cc)" style="fill: none; stroke: #a9a9a9; stroke-width: 1.5; stroke-linecap: square"/>
   </g>
   <g id="line2d_16">
    <path d="M 40.984742 202.460044 
L 48.983999 199.250358 
L 56.983257 203.786051 
L 64.982514 147.149866 
L 72.981771 110.263996 
L 80.981028 195.888177 
L 88.980285 205.106293 
L 96.979543 108.468132 
L 104.9788 104.652802 
L 112.978057 105.448684 
L 120.977314 117.679279 
L 128.976571 203.313846 
L 136.975829 209.513437 
L 144.975086 148.33836 
L 152.974343 148.211036 
L 160.9736 140.473372 
L 168.972858 159.652194 
L 176.972115 196.678162 
L 184.971372 187.907956 
L 192.970629 164.111423 
L 200.969886 150.914964 
L 208.969144 140.110673 
L 216.968401 150.016124 
L 224.967658 199.708737 
L 232.966915 212.17794 
L 240.966172 198.743144 
L 248.96543 209.926973 
L 256.964687 206.274707 
L 264.963944 209.414727 
L 272.963201 203.659021 
L 280.962458 213.438311 
L 288.961716 181.352393 
L 296.960973 154.040053 
L 304.96023 199.675341 
L 312.959487 206.935629 
L 320.958744 199.827914 
L 328.958002 188.890432 
L 336.957259 199.828876 
L 341.15748 206.928123 
" clip-path="url(#p5f0bce82cc)" style="fill: none; stroke: #a9a9a9; stroke-width: 1.5; stroke-linecap: square"/>
   </g>
   <g id="line2d_17">
    <path d="M 40.984742 203.818703 
L 48.983999 202.57462 
L 56.983257 209.418121 
L 64.982514 138.425809 
L 72.981771 116.988932 
L 80.981028 190.973796 
L 88.980285 200.677325 
L 96.979543 153.990938 
L 104.9788 146.653009 
L 112.978057 139.935238 
L 120.977314 111.812573 
L 128.976571 205.159753 
L 136.975829 207.635987 
L 144.975086 117.995014 
L 152.974343 117.841723 
L 160.9736 133.543018 
L 168.972858 145.233169 
L 176.972115 193.430651 
L 184.971372 203.763485 
L 192.970629 154.198202 
L 200.969886 149.612992 
L 208.969144 138.481046 
L 216.968401 146.897556 
L 224.967658 201.801223 
L 232.966915 204.314376 
L 240.966172 205.708106 
L 248.96543 207.541038 
L 256.964687 204.434136 
L 264.963944 197.022416 
L 272.963201 201.590745 
L 280.962458 210.948299 
L 288.961716 118.585731 
L 296.960973 144.649714 
L 304.96023 189.822713 
L 312.959487 205.35236 
L 320.958744 180.347287 
L 328.958002 189.8216 
L 336.957259 207.456973 
L 341.15748 201.308291 
" clip-path="url(#p5f0bce82cc)" style="fill: none; stroke: #a9a9a9; stroke-width: 1.5; stroke-linecap: square"/>
   </g>
   <g id="line2d_18">
    <path d="M 40.984742 200.405022 
L 48.983999 210.666238 
L 56.983257 197.524086 
L 64.982514 182.992603 
L 72.981771 186.796986 
L 80.981028 207.482351 
L 88.980285 204.139255 
L 96.979543 147.013113 
L 104.9788 146.952922 
L 112.978057 86.334264 
L 120.977314 91.065276 
L 128.976571 200.525986 
L 136.975829 210.280488 
L 144.975086 142.138269 
L 152.974343 167.429664 
L 160.9736 157.548701 
L 168.972858 185.009222 
L 176.972115 208.239576 
L 184.971372 204.06851 
L 192.970629 98.953024 
L 200.969886 162.339282 
L 208.969144 105.801391 
L 216.968401 134.241557 
L 224.967658 201.405762 
L 232.966915 210.615218 
L 240.966172 211.732457 
L 248.96543 209.577953 
L 256.964687 208.433244 
L 264.963944 208.293063 
L 272.963201 193.63794 
L 280.962458 208.823812 
L 288.961716 162.904311 
L 296.960973 185.401705 
L 304.96023 203.537865 
L 312.959487 197.455488 
L 320.958744 205.734858 
L 328.958002 190.498573 
L 336.957259 185.713244 
L 341.15748 193.661975 
" clip-path="url(#p5f0bce82cc)" style="fill: none; stroke: #a9a9a9; stroke-width: 1.5; stroke-linecap: square"/>
   </g>
   <g id="line2d_19">
    <path d="M 40.984742 196.764372 
L 48.983999 186.264069 
L 56.983257 193.61886 
L 64.982514 110.381016 
L 72.981771 168.624733 
L 80.981028 200.25791 
L 88.980285 177.642734 
L 96.979543 30.611834 
L 104.9788 105.701366 
L 112.978057 101.950463 
L 120.977314 103.384679 
L 128.976571 199.743572 
L 136.975829 205.26581 
L 144.975086 119.2045 
L 152.974343 131.534614 
L 160.9736 131.256169 
L 168.972858 139.632295 
L 176.972115 201.85245 
L 184.971372 198.887887 
L 192.970629 110.426361 
L 200.969886 112.354746 
L 208.969144 114.108685 
L 216.968401 169.329135 
L 224.967658 200.314292 
L 232.966915 200.26219 
L 240.966172 192.475626 
L 248.96543 189.266118 
L 256.964687 206.10991 
L 264.963944 206.211317 
L 272.963201 198.785654 
L 280.962458 205.841633 
L 288.961716 149.040206 
L 296.960973 156.957327 
L 304.96023 196.827583 
L 312.959487 202.526185 
L 320.958744 172.825295 
L 328.958002 179.795954 
L 336.957259 206.45372 
L 341.15748 208.630587 
" clip-path="url(#p5f0bce82cc)" style="fill: none; stroke: #a9a9a9; stroke-width: 1.5; stroke-linecap: square"/>
   </g>
   <g id="patch_3">
    <path d="M 37.185095 242.300722 
L 37.185095 3.00024 
" style="fill: none; stroke: #000000; stroke-width: 0.8; stroke-linejoin: miter; stroke-linecap: square"/>
   </g>
   <g id="patch_4">
    <path d="M 37.185095 242.300722 
L 337.15724 242.300722 
" style="fill: none; stroke: #000000; stroke-width: 0.8; stroke-linejoin: miter; stroke-linecap: square"/>
   </g>
   <g id="line2d_20">
    <path d="M 40.984742 214.689128 
L 48.983999 214.689128 
L 56.983257 214.689128 
L 64.982514 174.310586 
L 72.981771 214.689128 
L 80.981028 214.689128 
L 88.980285 214.689128 
L 96.979543 174.310586 
L 104.9788 214.689128 
L 112.978057 174.310586 
L 120.977314 214.689128 
L 128.976571 214.689128 
L 136.975829 214.689128 
L 144.975086 174.310586 
L 152.974343 214.689128 
L 160.9736 174.310586 
L 168.972858 214.689128 
L 176.972115 214.689128 
L 184.971372 214.689128 
L 192.970629 174.310586 
L 200.969886 214.689128 
L 208.969144 174.310586 
L 216.968401 214.689128 
L 224.967658 214.689128 
L 232.966915 214.689128 
L 240.966172 214.689128 
L 248.96543 214.689128 
L 256.964687 174.310586 
L 264.963944 214.689128 
L 272.963201 214.689128 
L 280.962458 214.689128 
L 288.961716 174.310586 
L 296.960973 214.689128 
L 304.96023 214.689128 
L 312.959487 214.689128 
L 320.958744 174.310586 
L 328.958002 214.689128 
L 336.957259 214.689128 
L 341.15748 214.689128 
" clip-path="url(#p5f0bce82cc)" style="fill: none; stroke: #000000; stroke-width: 2; stroke-linecap: square"/>
   </g>
  </g>
  <g id="text_15">
   <!-- Time [s] -->
   <g transform="translate(141.618271 277.552764) scale(0.14 -0.14)">
    <defs>
     <path id="DejaVuSans-54" d="M -19 4666 
L 3928 4666 
L 3928 4134 
L 2272 4134 
L 2272 0 
L 1638 0 
L 1638 4134 
L -19 4134 
L -19 4666 
z
" transform="scale(0.015625)"/>
     <path id="DejaVuSans-69" d="M 603 3500 
L 1178 3500 
L 1178 0 
L 603 0 
L 603 3500 
z
M 603 4863 
L 1178 4863 
L 1178 4134 
L 603 4134 
L 603 4863 
z
" transform="scale(0.015625)"/>
     <path id="DejaVuSans-6d" d="M 3328 2828 
Q 3544 3216 3844 3400 
Q 4144 3584 4550 3584 
Q 5097 3584 5394 3201 
Q 5691 2819 5691 2113 
L 5691 0 
L 5113 0 
L 5113 2094 
Q 5113 2597 4934 2840 
Q 4756 3084 4391 3084 
Q 3944 3084 3684 2787 
Q 3425 2491 3425 1978 
L 3425 0 
L 2847 0 
L 2847 2094 
Q 2847 2600 2669 2842 
Q 2491 3084 2119 3084 
Q 1678 3084 1418 2786 
Q 1159 2488 1159 1978 
L 1159 0 
L 581 0 
L 581 3500 
L 1159 3500 
L 1159 2956 
Q 1356 3278 1631 3431 
Q 1906 3584 2284 3584 
Q 2666 3584 2933 3390 
Q 3200 3197 3328 2828 
z
" transform="scale(0.015625)"/>
     <path id="DejaVuSans-65" d="M 3597 1894 
L 3597 1613 
L 953 1613 
Q 991 1019 1311 708 
Q 1631 397 2203 397 
Q 2534 397 2845 478 
Q 3156 559 3463 722 
L 3463 178 
Q 3153 47 2828 -22 
Q 2503 -91 2169 -91 
Q 1331 -91 842 396 
Q 353 884 353 1716 
Q 353 2575 817 3079 
Q 1281 3584 2069 3584 
Q 2775 3584 3186 3129 
Q 3597 2675 3597 1894 
z
M 3022 2063 
Q 3016 2534 2758 2815 
Q 2500 3097 2075 3097 
Q 1594 3097 1305 2825 
Q 1016 2553 972 2059 
L 3022 2063 
z
" transform="scale(0.015625)"/>
     <path id="DejaVuSans-20" transform="scale(0.015625)"/>
     <path id="DejaVuSans-5b" d="M 550 4863 
L 1875 4863 
L 1875 4416 
L 1125 4416 
L 1125 -397 
L 1875 -397 
L 1875 -844 
L 550 -844 
L 550 4863 
z
" transform="scale(0.015625)"/>
     <path id="DejaVuSans-73" d="M 2834 3397 
L 2834 2853 
Q 2591 2978 2328 3040 
Q 2066 3103 1784 3103 
Q 1356 3103 1142 2972 
Q 928 2841 928 2578 
Q 928 2378 1081 2264 
Q 1234 2150 1697 2047 
L 1894 2003 
Q 2506 1872 2764 1633 
Q 3022 1394 3022 966 
Q 3022 478 2636 193 
Q 2250 -91 1575 -91 
Q 1294 -91 989 -36 
Q 684 19 347 128 
L 347 722 
Q 666 556 975 473 
Q 1284 391 1588 391 
Q 1994 391 2212 530 
Q 2431 669 2431 922 
Q 2431 1156 2273 1281 
Q 2116 1406 1581 1522 
L 1381 1569 
Q 847 1681 609 1914 
Q 372 2147 372 2553 
Q 372 3047 722 3315 
Q 1072 3584 1716 3584 
Q 2034 3584 2315 3537 
Q 2597 3491 2834 3397 
z
" transform="scale(0.015625)"/>
     <path id="DejaVuSans-5d" d="M 1947 4863 
L 1947 -844 
L 622 -844 
L 622 -397 
L 1369 -397 
L 1369 4416 
L 622 4416 
L 622 4863 
L 1947 4863 
z
" transform="scale(0.015625)"/>
    </defs>
    <use xlink:href="#DejaVuSans-54"/>
    <use xlink:href="#DejaVuSans-69" x="57.958984"/>
    <use xlink:href="#DejaVuSans-6d" x="85.742188"/>
    <use xlink:href="#DejaVuSans-65" x="183.154297"/>
    <use xlink:href="#DejaVuSans-20" x="244.677734"/>
    <use xlink:href="#DejaVuSans-5b" x="276.464844"/>
    <use xlink:href="#DejaVuSans-73" x="315.478516"/>
    <use xlink:href="#DejaVuSans-5d" x="367.578125"/>
   </g>
  </g>
  <g id="text_16">
   <!-- z-scores -->
   <g transform="translate(13.638053 170.384158) rotate(-90) scale(0.14 -0.14)">
    <defs>
     <path id="DejaVuSans-7a" d="M 353 3500 
L 3084 3500 
L 3084 2975 
L 922 459 
L 3084 459 
L 3084 0 
L 275 0 
L 275 525 
L 2438 3041 
L 353 3041 
L 353 3500 
z
" transform="scale(0.015625)"/>
     <path id="DejaVuSans-2d" d="M 313 2009 
L 1997 2009 
L 1997 1497 
L 313 1497 
L 313 2009 
z
" transform="scale(0.015625)"/>
     <path id="DejaVuSans-63" d="M 3122 3366 
L 3122 2828 
Q 2878 2963 2633 3030 
Q 2388 3097 2138 3097 
Q 1578 3097 1268 2742 
Q 959 2388 959 1747 
Q 959 1106 1268 751 
Q 1578 397 2138 397 
Q 2388 397 2633 464 
Q 2878 531 3122 666 
L 3122 134 
Q 2881 22 2623 -34 
Q 2366 -91 2075 -91 
Q 1284 -91 818 406 
Q 353 903 353 1747 
Q 353 2603 823 3093 
Q 1294 3584 2113 3584 
Q 2378 3584 2631 3529 
Q 2884 3475 3122 3366 
z
" transform="scale(0.015625)"/>
     <path id="DejaVuSans-6f" d="M 1959 3097 
Q 1497 3097 1228 2736 
Q 959 2375 959 1747 
Q 959 1119 1226 758 
Q 1494 397 1959 397 
Q 2419 397 2687 759 
Q 2956 1122 2956 1747 
Q 2956 2369 2687 2733 
Q 2419 3097 1959 3097 
z
M 1959 3584 
Q 2709 3584 3137 3096 
Q 3566 2609 3566 1747 
Q 3566 888 3137 398 
Q 2709 -91 1959 -91 
Q 1206 -91 779 398 
Q 353 888 353 1747 
Q 353 2609 779 3096 
Q 1206 3584 1959 3584 
z
" transform="scale(0.015625)"/>
     <path id="DejaVuSans-72" d="M 2631 2963 
Q 2534 3019 2420 3045 
Q 2306 3072 2169 3072 
Q 1681 3072 1420 2755 
Q 1159 2438 1159 1844 
L 1159 0 
L 581 0 
L 581 3500 
L 1159 3500 
L 1159 2956 
Q 1341 3275 1631 3429 
Q 1922 3584 2338 3584 
Q 2397 3584 2469 3576 
Q 2541 3569 2628 3553 
L 2631 2963 
z
" transform="scale(0.015625)"/>
    </defs>
    <use xlink:href="#DejaVuSans-7a"/>
    <use xlink:href="#DejaVuSans-2d" x="52.490234"/>
    <use xlink:href="#DejaVuSans-73" x="88.574219"/>
    <use xlink:href="#DejaVuSans-63" x="140.673828"/>
    <use xlink:href="#DejaVuSans-6f" x="195.654297"/>
    <use xlink:href="#DejaVuSans-72" x="256.835938"/>
    <use xlink:href="#DejaVuSans-65" x="295.699219"/>
    <use xlink:href="#DejaVuSans-73" x="357.222656"/>
   </g>
  </g>
 </g>
 <defs>
  <clipPath id="p5f0bce82cc">
   <rect x="37.185095" y="3.00024" width="299.972145" height="239.300482"/>
  </clipPath>
 </defs>
</svg>
